<svg xmlns="http://www.w3.org/2000/svg" xmlns:xlink="http://www.w3.org/1999/xlink" width="102" height="34" version="1.1">
 <defs id="rounded">
     <style type="text/css" id="current-color-scheme">
        .ColorScheme-Text {
        color:#eff0f1;
        }
        .ColorScheme-NegativeText {
        color:#da4453;
        }
        .ColorScheme-Highlight {
        color:#3daee9;
        }
        .ColorScheme-Background {
        color:#31363b;
      }
      .ColorScheme-ButtonBackground {
        color:#444c53;
      }
    </style>
    <g class="ColorScheme-Highlight">
  <linearGradient id="linearGradient991">
          <stop  style="stop-color:currentColor;stop-opacity:1" offset="0"/>
          <stop  style="stop-color:currentColor;stop-opacity:0.2" offset="1"/>
  </linearGradient>
</g>
  <linearGradient id="linearGradient1360" x1="2" x2="32" y1="30" y2="30" gradientUnits="userSpaceOnUse" xlink:href="#linearGradient991"/>
  <linearGradient id="linearGradient1362" x1="2" x2="32" y1="17" y2="17" gradientUnits="userSpaceOnUse" xlink:href="#linearGradient991"/>
  <linearGradient id="linearGradient1364" x1="2" x2="32" y1="4" y2="4" gradientUnits="userSpaceOnUse" xlink:href="#linearGradient991"/>
  <linearGradient id="linearGradient1366" x1="2" x2="32" y1="4" y2="4" gradientUnits="userSpaceOnUse" xlink:href="#linearGradient991"/>
  <linearGradient id="linearGradient1368" x1="2" x2="32" y1="4" y2="4" gradientUnits="userSpaceOnUse" xlink:href="#linearGradient991"/>
  <linearGradient id="linearGradient1370" x1="2" x2="32" y1="17" y2="17" gradientUnits="userSpaceOnUse" xlink:href="#linearGradient991"/>
  <linearGradient id="linearGradient1372" x1="2" x2="32" y1="30" y2="30" gradientUnits="userSpaceOnUse" xlink:href="#linearGradient991"/>
  <linearGradient id="linearGradient1374" x1="2" x2="32" y1="30" y2="30" gradientUnits="userSpaceOnUse" xlink:href="#linearGradient991"/>
  <linearGradient id="linearGradient1376" x1="36" x2="66" y1="17" y2="17" gradientUnits="userSpaceOnUse" xlink:href="#linearGradient991"/>
  <linearGradient id="linearGradient1378" x1="2" x2="32" y1="17" y2="17" gradientUnits="userSpaceOnUse" xlink:href="#linearGradient991"/>
  <linearGradient id="linearGradient1380" x1="2" x2="32" y1="4" y2="4" gradientUnits="userSpaceOnUse" xlink:href="#linearGradient991"/>
  <linearGradient id="linearGradient1382" x1="2" x2="32" y1="30" y2="30" gradientUnits="userSpaceOnUse" xlink:href="#linearGradient991"/>
  <linearGradient id="linearGradient1384" x1="2" x2="32" y1="30" y2="30" gradientUnits="userSpaceOnUse" xlink:href="#linearGradient991"/>
  <linearGradient id="linearGradient1386" x1="2" x2="32" y1="30" y2="30" gradientUnits="userSpaceOnUse" xlink:href="#linearGradient991"/>
  <linearGradient id="linearGradient1388" x1="2" x2="32" y1="17" y2="17" gradientUnits="userSpaceOnUse" xlink:href="#linearGradient991"/>
  <linearGradient id="linearGradient1390" x1="2" x2="32" y1="4" y2="4" gradientUnits="userSpaceOnUse" xlink:href="#linearGradient991"/>
  <linearGradient id="linearGradient1392" x1="2" x2="32" y1="4" y2="4" gradientUnits="userSpaceOnUse" xlink:href="#linearGradient991"/>
  <linearGradient id="linearGradient1394" x1="70" x2="100" y1="17" y2="17" gradientUnits="userSpaceOnUse" xlink:href="#linearGradient991"/>
 </defs>
 <path id="hover-center" style="opacity:0.8;fill:url(#linearGradient1376)" d="M 62,6 V 28 H 40 V 6 Z"/>
 <g id="hover-left" transform="translate(34)" style="opacity:0.8">
  <path style="opacity:0.001" d="M 0,6 H 6 V 28 H 0 Z"/>
  <path style="opacity:1;fill:url(#linearGradient1362)" d="M 2,6 H 6 V 28 H 2 Z"/>
 </g>
 <g id="hover-topleft" transform="translate(34)" style="opacity:0.8">
  <path style="opacity:0.001" d="M 0,0 H 6 V 6 H 0 Z"/>
  <path style="opacity:1;fill:url(#linearGradient1364)" d="M 6,2 V 6 H 2 C 2,2 6,2 6,2 Z"/>
 </g>
 <g id="hover-right" transform="translate(34)" style="opacity:0.8">
  <path style="opacity:0.001" d="m 28,6 h 6 v 22 h -6 z"/>
  <path style="opacity:1;fill:url(#linearGradient1370)" d="m 28,6 h 4 v 22 h -4 z"/>
 </g>
 <g id="hover-top" transform="translate(34)" style="opacity:0.8">
  <path style="opacity:0.001" d="M 28,0 V 6 H 6 V 0 Z"/>
  <path style="opacity:1;fill:url(#linearGradient1366)" d="M 28,2 V 6 H 6 V 2 Z"/>
 </g>
 <g id="hover-bottom" transform="translate(34)" style="opacity:0.8">
  <path style="opacity:0.001" d="m 28,28 v 6 H 6 v -6 z"/>
  <path style="opacity:1;fill:url(#linearGradient1374)" d="m 28,28 v 4 H 6 v -4 z"/>
 </g>
 <g id="hover-bottomright" transform="translate(34)" style="opacity:0.8">
  <path style="opacity:0.001" d="m 28,28 h 6 v 6 h -6 z"/>
  <path style="opacity:1;fill:url(#linearGradient1372)" d="m 28,32 v -4 h 4 c 0,4 -4,4 -4,4 z"/>
 </g>
 <g id="hover-topright" transform="translate(34)" style="opacity:0.8">
  <path style="opacity:0.001" d="m 28,0 h 6 v 6 h -6 z"/>
  <path style="opacity:1;fill:url(#linearGradient1368)" d="m 28,2 v 4 h 4 C 32,2 28,2 28,2 Z"/>
 </g>
 <g id="hover-bottomleft" transform="translate(34)" style="opacity:0.8">
  <path style="opacity:0.001" d="m 0,28 h 6 v 6 H 0 Z"/>
  <path style="opacity:1;fill:url(#linearGradient1360)" d="M 6,32 V 28 H 2 c 0,4 4,4 4,4 z"/>
 </g>
 <path id="normal-center" fill="transparent" d="M 28,6 V 28 H 6 V 6 Z"/>
 <g id="normal-left">
  <path style="opacity:0.001" d="M 0,6 H 6 V 28 H 0 Z"/>
  <path fill="transparent" d="M 2,6 H 6 V 28 H 2 Z"/>
 </g>
 <g id="normal-topleft">
  <path style="opacity:0.001" d="M 0,0 H 6 V 6 H 0 Z"/>
  <path fill="transparent" d="M 6,2 V 6 H 2 C 2,2 6,2 6,2 Z"/>
 </g>
 <g id="normal-right">
  <path style="opacity:0.001" d="m 28,6 h 6 v 22 h -6 z"/>
  <path fill="transparent" d="m 28,6 h 4 v 22 h -4 z"/>
 </g>
 <g id="normal-top">
  <path style="opacity:0.001" d="M 28,0 V 6 H 6 V 0 Z"/>
  <path fill="transparent" d="M 28,2 V 6 H 6 V 2 Z"/>
 </g>
 <g id="normal-bottom">
  <path style="opacity:0.001" d="m 28,28 v 6 H 6 v -6 z"/>
  <path fill="transparent" d="m 28,28 v 4 H 6 v -4 z"/>
 </g>
 <g id="normal-bottomright">
  <path style="opacity:0.001" d="m 28,28 h 6 v 6 h -6 z"/>
  <path fill="transparent" d="m 28,32 v -4 h 4 c 0,4 -4,4 -4,4 z"/>
 </g>
 <g id="normal-topright">
  <path style="opacity:0.001" d="m 28,0 h 6 v 6 h -6 z"/>
  <path fill="transparent" d="m 28,2 v 4 h 4 C 32,2 28,2 28,2 Z"/>
 </g>
 <g id="normal-bottomleft">
  <path style="opacity:0.001" d="m 0,28 h 6 v 6 H 0 Z"/>
  <path fill="transparent" d="M 6,32 V 28 H 2 c 0,4 4,4 4,4 z"/>
 </g>
 <path id="pressed-center" style="opacity:0.8;fill:url(#linearGradient1394)" d="M 96,6 V 28 H 74 V 6 Z"/>
 <g id="pressed-left" transform="translate(68)" style="opacity:0.8">
  <path style="opacity:0.001" d="M 0,6 H 6 V 28 H 0 Z"/>
  <path style="opacity:1;fill:url(#linearGradient1378)" d="M 2,6 H 6 V 28 H 2 Z"/>
 </g>
 <g id="pressed-topleft" transform="translate(68)" style="opacity:0.8">
  <path style="opacity:0.001" d="M 0,0 H 6 V 6 H 0 Z"/>
  <path style="opacity:1;fill:url(#linearGradient1380)" d="M 6,2 V 6 H 2 C 2,2 6,2 6,2 Z"/>
 </g>
 <g id="pressed-right" transform="translate(68)" style="opacity:0.8">
  <path style="opacity:0.001" d="m 28,6 h 6 v 22 h -6 z"/>
  <path style="opacity:1;fill:url(#linearGradient1388)" d="m 28,6 h 4 v 22 h -4 z"/>
 </g>
 <g id="pressed-top" transform="translate(68)" style="opacity:0.8">
  <path style="opacity:0.001" d="M 28,0 V 6 H 6 V 0 Z"/>
  <path style="opacity:1;fill:url(#linearGradient1392)" d="M 28,2 V 6 H 6 V 2 Z"/>
 </g>
 <g id="pressed-bottom" transform="translate(68)" style="opacity:0.8">
  <path style="opacity:0.001" d="m 28,28 v 6 H 6 v -6 z"/>
  <path style="opacity:1;fill:url(#linearGradient1384)" d="m 28,28 v 4 H 6 v -4 z"/>
 </g>
 <g id="pressed-bottomright" transform="translate(68)" style="opacity:0.8">
  <path style="opacity:0.001" d="m 28,28 h 6 v 6 h -6 z"/>
  <path style="opacity:1;fill:url(#linearGradient1386)" d="m 28,32 v -4 h 4 c 0,4 -4,4 -4,4 z"/>
 </g>
 <g id="pressed-topright" transform="translate(68)" style="opacity:0.8">
  <path style="opacity:0.001" d="m 28,0 h 6 v 6 h -6 z"/>
  <path style="opacity:1;fill:url(#linearGradient1390)" d="m 28,2 v 4 h 4 C 32,2 28,2 28,2 Z"/>
 </g>
 <g id="pressed-bottomleft" transform="translate(68)" style="opacity:0.8">
  <path style="opacity:0.001" d="m 0,28 h 6 v 6 H 0 Z"/>
  <path style="opacity:1;fill:url(#linearGradient1382)" d="M 6,32 V 28 H 2 c 0,4 4,4 4,4 z"/>
 </g>
 <path id="normal-hint-top-margin" style="fill:#ff0000" d="m 16,0 h 2 v 6 h -2 z"/>
 <path id="normal-hint-bottom-margin" style="fill:#ff0000" d="m 16,28 h 2 v 6 h -2 z"/>
 <path id="normal-hint-left-margin" style="fill:#ff0000" d="m 0,16 h 6.0000002 v 2 H 0 Z"/>
 <path id="normal-hint-right-margin" style="fill:#ff0000" d="m 28,16 h 6 v 2 h -6 z"/>
 <path id="hover-hint-top-margin" style="fill:#ff0000" d="m 50,0 h 2 v 6 h -2 z"/>
 <path id="hover-hint-bottom-margin" style="fill:#ff0000" d="m 50,28 h 2 v 6 h -2 z"/>
 <path id="hover-hint-left-margin" style="fill:#ff0000" d="m 34,16 h 6 v 2 h -6 z"/>
 <path id="hover-hint-right-margin" style="fill:#ff0000" d="m 62,16 h 6 v 2 h -6 z"/>
 <path id="pressed-hint-top-margin" style="fill:#ff0000" d="m 84,0 h 2 v 6 h -2 z"/>
 <path id="pressed-hint-bottom-margin" style="fill:#ff0000" d="m 84,28 h 2 v 6 h -2 z"/>
 <path id="pressed-hint-left-margin" style="fill:#ff0000" d="m 68,16 h 6 v 2 h -6 z"/>
 <path id="pressed-hint-right-margin" style="fill:#ff0000" d="m 96,16 h 6 v 2 h -6 z"/>
 <rect id="hint-stretch-borders" style="fill:#ff0000" width="2" height="2" x="0" y="0"/>
</svg>
