<svg xmlns="http://www.w3.org/2000/svg" xmlns:xlink="http://www.w3.org/1999/xlink" width="142" height="142" version="1.1">
 <defs id="rounded">
  <linearGradient id="linearGradient949">
   <stop style="stop-color:#ab2065;stop-opacity:1" offset="0"/>
   <stop style="stop-color:#008dc5;stop-opacity:1" offset="1"/>
  </linearGradient>
  <linearGradient id="linearGradient1003" x1="148" x2="148" y1="143" y2="128.5" gradientTransform="matrix(0,1.9999998,-1.9999998,0,398.99997,-226.99996)" gradientUnits="userSpaceOnUse" xlink:href="#linearGradient985"/>
  <linearGradient id="linearGradient985">
   <stop style="stop-color:#000000;stop-opacity:1" offset="0"/>
   <stop style="stop-color:#000000;stop-opacity:0" offset="1"/>
  </linearGradient>
  <linearGradient id="linearGradient1007" x1="148" x2="148" y1="143" y2="128.5" gradientTransform="matrix(0,1.9999998,1.9999998,0,-256.99996,-226.99996)" gradientUnits="userSpaceOnUse" xlink:href="#linearGradient985"/>
  <radialGradient id="radialGradient882" cx="129.71" cy="144.271" r="11" fx="129.71" fy="144.271" gradientTransform="matrix(1.8641918,1.8641918,2.1818194,-2.1818194,-525.5768,183.96938)" gradientUnits="userSpaceOnUse" xlink:href="#linearGradient985"/>
  <linearGradient id="linearGradient1022" x1="148" x2="148" y1="143" y2="128.5" gradientTransform="matrix(1.9999998,0,0,-1.9999998,-226.99996,398.99997)" gradientUnits="userSpaceOnUse" xlink:href="#linearGradient985"/>
  <radialGradient id="radialGradient884" cx="129.71" cy="144.271" r="11" fx="129.71" fy="144.271" gradientTransform="matrix(-1.8641918,1.8641918,-2.1818194,-2.1818194,667.5768,183.96938)" gradientUnits="userSpaceOnUse" xlink:href="#linearGradient985"/>
  <radialGradient id="radialGradient987" cx="129.71" cy="144.271" r="11" fx="129.71" fy="144.271" gradientTransform="matrix(1.8641918,-1.8641918,2.1818194,2.1818194,-525.5768,-41.969378)" gradientUnits="userSpaceOnUse" xlink:href="#linearGradient985"/>
  <linearGradient id="linearGradient995" x1="148" x2="148" y1="143" y2="128.5" gradientTransform="matrix(1.9999998,0,0,1.9999998,-226.99996,-256.99996)" gradientUnits="userSpaceOnUse" xlink:href="#linearGradient985"/>
  <radialGradient id="radialGradient876" cx="129.71" cy="144.271" r="11" fx="129.71" fy="144.271" gradientTransform="matrix(-1.8641918,-1.8641918,-2.1818194,2.1818194,667.5768,-41.969378)" gradientUnits="userSpaceOnUse" xlink:href="#linearGradient985"/>
  <linearGradient id="linearGradient943" x1="17" x2="125" y1="71" y2="71" gradientTransform="matrix(1,0,0,0.99104762,0,0.63561904)" gradientUnits="userSpaceOnUse" xlink:href="#linearGradient949"/>
 </defs>
 <g id="g1018">
  <path style="opacity:1;fill:#31363b" id="decoration-center" d="M 31 7 C 11 7 7 11 7 31 L 7 111 C 7 131 10.99998 135 31 135 L 111 135 C 131 135 135 131.00092 135 111 L 135 31 C 135 10.999085 131 7 111 7 L 31 7 z"/>
  <path id="shadow-topright" style="opacity:1;fill:url(#radialGradient876)" d="m 142,3e-6 v 30.999998 h -7 c 0,-20 -4,-24 -24,-24 V 3e-6 Z"/>
  <path style="opacity:1;fill:url(#linearGradient995)" d="m 31,-1e-6 v 6.999998 h 80 V -9.9999999e-7 Z"/>
  <path id="shadow-topleft" style="opacity:1;fill:url(#radialGradient987)" d="m 0,3e-6 v 30.999998 h 7 c 0,-20 4,-24 24,-24 V 3e-6 Z"/>
  <path id="shadow-bottomright" style="opacity:1;fill:url(#radialGradient884)" d="m 142,142 v -31 h -7 c 0,20 -4,24 -24,24 v 7 z"/>
  <path style="opacity:1;fill:url(#linearGradient1022)" d="m 31,135 v 7 h 80 v -7 z"/>
  <path id="shadow-bottomleft" style="opacity:1;fill:url(#radialGradient882)" d="m 0,142 v -31 h 7 c 0,20 4,24 24,24 v 7 z"/>
  <path style="opacity:1;fill:url(#linearGradient1007)" d="M 0,30.999997 V 111 H 7 V 30.999997 Z"/>
  <path style="opacity:1;fill:url(#linearGradient1003)" d="M 135,30.999997 V 111 h 7 V 30.999997 Z"/>
  <path style="fill:url(#linearGradient943)" d="m 38.283203,63 c -1.713241,0 -3.125407,0.333174 -4.238281,1.000726 -1.098231,0.65304 -1.919143,1.576046 -2.460938,2.76603 -0.52715,1.189984 -0.791015,2.589507 -0.791015,4.200338 0,1.610832 0.263865,3.019071 0.791015,4.223567 0.541795,1.204495 1.362707,2.141062 2.460938,2.808613 C 35.157796,78.666826 36.563121,79 38.261719,79 c 1.71324,0 3.118565,-0.333174 4.216797,-1.000726 1.098231,-0.667551 1.912301,-1.597338 2.439453,-2.787322 0.541794,-1.204495 0.8125,-2.612735 0.8125,-4.223566 0,-1.610831 -0.270706,-3.010355 -0.8125,-4.200338 C 44.390817,65.583552 43.576747,64.653766 42.478516,64.000726 41.380284,63.333174 39.981801,63 38.283203,63 Z M 17,63.24002 v 15.541252 h 3.316406 v -5.963707 h 1.779297 l 3.734375,5.963707 h 3.689453 l -4.611328,-6.768933 c 0.512508,-0.232191 0.988443,-0.529529 1.427735,-0.892329 0.453935,-0.377312 0.812596,-0.82671 1.076171,-1.349141 0.278219,-0.536945 0.416016,-1.162613 0.416016,-1.873699 0,-1.567297 -0.512093,-2.734373 -1.537109,-3.503509 C 25.280643,63.624526 23.70625,63.24002 21.568359,63.24002 Z m 31.871094,0 v 10.013065 c 0,1.726927 0.541411,3.119671 1.625,4.179046 C 51.579682,78.476994 53.160916,79 55.240234,79 c 1.464309,0 2.6732,-0.246007 3.625,-0.739415 0.966444,-0.50792 1.683765,-1.191699 2.152344,-2.047906 0.483221,-0.870721 0.72461,-1.843123 0.72461,-2.91701 V 63.24002 h -3.316407 v 9.490442 c 0,1.204496 -0.250181,2.08973 -0.748047,2.655698 -0.483221,0.565968 -1.26602,0.849746 -2.349609,0.849746 -1.039659,0 -1.822458,-0.261502 -2.349609,-0.783934 C 52.451365,74.92954 52.1875,74.02881 52.1875,72.751754 V 63.24002 Z m 16.714844,0 v 15.541252 h 2.964843 v -7.312847 c -0.02929,-0.740112 -0.06545,-1.480068 -0.109375,-2.220179 l -0.08789,-2.220179 h 0.08789 l 6.830078,11.753205 h 4.21875 V 63.24002 h -2.988281 v 7.357367 l 0.08789,2.133075 c 0.02929,0.711088 0.05177,1.428768 0.06641,2.154367 h -0.06641 L 69.78125,63.24002 Z m 17.857421,0 v 15.541252 h 4.435547 c 2.708971,10e-7 4.811093,-0.659568 6.304688,-1.980159 1.508238,-1.335104 2.261719,-3.315744 2.261718,-5.942415 10e-7,-1.668879 -0.336183,-3.061623 -1.009765,-4.179046 C 94.776608,65.547716 93.840376,64.691537 92.625,64.111058 91.424267,63.530578 90.003307,63.24002 88.363281,63.24002 Z m 16.253907,0 v 15.541252 h 9.027344 v -2.719574 h -5.71094 v -4.006774 h 5.31445 v -2.698282 h -5.31445 v -3.41834 h 5.71094 V 63.24002 Z m 12.298824,0 v 15.541252 h 4.4375 c 2.70897,10e-7 4.8111,-0.659568 6.30469,-1.980159 C 124.24652,75.466009 125,73.485369 125,70.858698 c 0,-1.668879 -0.33619,-3.061623 -1.00977,-4.179046 -0.65894,-1.131936 -1.59712,-1.988115 -2.8125,-2.568594 -1.20072,-0.58048 -2.61973,-0.871038 -4.25976,-0.871038 z m -73.712887,2.502782 c 1.405737,0 2.416241,0.464893 3.03125,1.39366 0.615009,0.928769 0.923828,2.212069 0.923828,3.851924 0,1.625344 -0.308819,2.910579 -0.923828,3.853859 -0.615009,0.928767 -1.632355,1.393661 -3.052734,1.393661 -1.391094,0 -2.401598,-0.464894 -3.03125,-1.393661 -0.629653,-0.94328 -0.94336,-2.228515 -0.94336,-3.853859 0,-1.639855 0.313707,-2.923155 0.94336,-3.851924 0.629652,-0.928767 1.646998,-1.39366 3.052734,-1.39366 z m -17.966797,0.1955 h 1.009766 c 1.083588,0 1.875182,0.160774 2.373047,0.480038 0.512508,0.304752 0.769531,0.825821 0.769531,1.565933 0,0.711088 -0.243341,1.249588 -0.726562,1.612388 -0.468579,0.362799 -1.251379,0.543914 -2.34961,0.543914 h -1.076172 z m 66.44336,0 h 1.779296 c 1.449666,0 2.554966,0.406781 3.316407,1.219453 0.76144,0.798159 1.142578,2.06112 1.142578,3.788047 0,3.410319 -1.603712,5.115896 -4.810547,5.115896 h -1.427734 z m 28.554684,0 h 1.77735 c 1.44966,0 2.55692,0.406781 3.31836,1.219453 0.76144,0.798159 1.14062,2.06112 1.14062,3.788047 0,3.410319 -1.60176,5.115896 -4.80859,5.115896 h -1.42774 z"/>
  <path style="fill:#000000;opacity:0.3" d="M 38.283203 63 C 36.569962 63 35.157796 63.332448 34.044922 64 C 32.946691 64.65304 32.125779 65.577594 31.583984 66.767578 C 31.056834 67.957562 30.792969 69.355966 30.792969 70.966797 C 30.792969 71.138915 30.808429 71.299307 30.814453 71.466797 C 30.864884 70.068744 31.113255 68.8302 31.583984 67.767578 C 32.125779 66.577594 32.946691 65.65304 34.044922 65 C 35.157796 64.332448 36.569962 64 38.283203 64 C 39.981801 64 41.380284 64.332448 42.478516 65 C 43.576747 65.65304 44.390817 66.582613 44.917969 67.787109 C 45.401779 68.849739 45.657239 70.090213 45.708984 71.488281 C 45.715165 71.320802 45.730469 71.160387 45.730469 70.988281 C 45.730469 69.37745 45.459763 67.977092 44.917969 66.787109 C 44.390817 65.582613 43.576747 64.65304 42.478516 64 C 41.380284 63.332448 39.981801 63 38.283203 63 z M 17 63.240234 L 17 64.240234 L 21.568359 64.240234 C 23.70625 64.240234 25.280643 64.625396 26.291016 65.394531 C 27.193637 66.071827 27.698938 67.057503 27.806641 68.353516 C 27.820097 68.204915 27.828125 68.053444 27.828125 67.896484 C 27.828125 66.329187 27.316032 65.163667 26.291016 64.394531 C 25.280643 63.625396 23.70625 63.240234 21.568359 63.240234 L 17 63.240234 z M 48.871094 63.240234 L 48.871094 64.240234 L 52.1875 64.240234 L 52.1875 63.240234 L 48.871094 63.240234 z M 58.425781 63.240234 L 58.425781 64.240234 L 61.742188 64.240234 L 61.742188 63.240234 L 58.425781 63.240234 z M 65.585938 63.240234 L 65.585938 64.240234 L 69.78125 64.240234 L 76.589844 75.884766 L 76.65625 75.884766 C 76.649454 75.547946 76.635071 75.218305 76.625 74.884766 L 76.589844 74.884766 L 69.78125 63.240234 L 65.585938 63.240234 z M 76.501953 63.240234 L 76.501953 64.240234 L 79.490234 64.240234 L 79.490234 63.240234 L 76.501953 63.240234 z M 83.443359 63.240234 L 83.443359 64.240234 L 88.363281 64.240234 C 90.003307 64.240234 91.424267 64.530848 92.625 65.111328 C 93.840376 65.691807 94.776608 66.547751 95.435547 67.679688 C 96.051081 68.700813 96.370871 69.963741 96.423828 71.445312 C 96.432727 71.251099 96.445313 71.061218 96.445312 70.859375 C 96.445313 69.190496 96.109129 67.797111 95.435547 66.679688 C 94.776608 65.547751 93.840376 64.691807 92.625 64.111328 C 91.424267 63.530848 90.003307 63.240234 88.363281 63.240234 L 83.443359 63.240234 z M 99.697266 63.240234 L 99.697266 64.240234 L 108.72461 64.240234 L 108.72461 63.240234 L 99.697266 63.240234 z M 111.99609 63.240234 L 111.99609 64.240234 L 116.91797 64.240234 C 118.558 64.240234 119.97701 64.530848 121.17773 65.111328 C 122.39311 65.691807 123.33129 66.547752 123.99023 67.679688 C 124.60577 68.700813 124.92556 69.963741 124.97852 71.445312 C 124.98741 71.251099 125 71.061218 125 70.859375 C 125 69.190496 124.66381 67.797111 123.99023 66.679688 C 123.33129 65.547752 122.39311 64.691807 121.17773 64.111328 C 119.97701 63.530848 118.558 63.240234 116.91797 63.240234 L 111.99609 63.240234 z M 68.353516 68.027344 L 68.441406 70.248047 C 68.485331 70.988158 68.521491 71.728638 68.550781 72.46875 L 68.550781 71.46875 C 68.521491 70.728638 68.485331 69.988158 68.441406 69.248047 L 68.392578 68.027344 L 68.353516 68.027344 z M 24.421875 68.490234 C 24.329974 68.955708 24.102976 69.324825 23.742188 69.595703 C 23.273609 69.958502 22.490809 70.140625 21.392578 70.140625 L 20.316406 70.140625 L 20.316406 71.140625 L 21.392578 71.140625 C 22.490809 71.140625 23.273609 70.958502 23.742188 70.595703 C 24.225409 70.232903 24.46875 69.695463 24.46875 68.984375 C 24.46875 68.806386 24.451584 68.642925 24.421875 68.490234 z M 103.01367 69.357422 L 103.01367 70.357422 L 108.32812 70.357422 L 108.32812 69.357422 L 103.01367 69.357422 z M 121.52148 71.429688 C 121.36791 74.504402 119.78712 76.0625 116.74219 76.0625 L 115.31445 76.0625 L 115.31445 77.0625 L 116.74219 77.0625 C 119.94902 77.0625 121.55078 75.355632 121.55078 71.945312 C 121.55078 71.760899 121.53014 71.603519 121.52148 71.429688 z M 92.966797 71.4375 C 92.810675 74.506882 91.229799 76.0625 88.1875 76.0625 L 86.759766 76.0625 L 86.759766 77.0625 L 88.1875 77.0625 C 91.394335 77.0625 92.998047 75.355632 92.998047 71.945312 C 92.998047 71.76366 92.97523 71.608885 92.966797 71.4375 z M 34.3125 71.486328 C 34.305181 71.655094 34.287109 71.811203 34.287109 71.988281 C 34.287109 73.613625 34.600816 74.898517 35.230469 75.841797 C 35.860121 76.770564 36.870625 77.236328 38.261719 77.236328 C 39.682098 77.236328 40.699444 76.770564 41.314453 75.841797 C 41.929462 74.898517 42.238281 73.613625 42.238281 71.988281 C 42.238281 71.811203 42.220089 71.655094 42.212891 71.486328 C 42.153568 72.871261 41.863233 74.000096 41.314453 74.841797 C 40.699444 75.770564 39.682098 76.236328 38.261719 76.236328 C 36.870625 76.236328 35.860121 75.770564 35.230469 74.841797 C 34.668621 74.000096 34.372812 72.871261 34.3125 71.486328 z M 58.425781 72.730469 C 58.425781 73.934965 58.1756 74.820751 57.677734 75.386719 C 57.194513 75.952687 56.411714 76.236328 55.328125 76.236328 C 54.288466 76.236328 53.505667 75.973604 52.978516 75.451172 C 52.451365 74.92874 52.1875 74.029009 52.1875 72.751953 L 52.1875 73.751953 C 52.1875 75.029009 52.451365 75.92874 52.978516 76.451172 C 53.505667 76.973604 54.288466 77.236328 55.328125 77.236328 C 56.411714 77.236328 57.194513 76.952687 57.677734 76.386719 C 58.1756 75.820751 58.425781 74.934965 58.425781 73.730469 L 58.425781 72.730469 z M 25.408203 72.744141 C 25.24381 72.83719 25.080905 72.933476 24.908203 73.011719 L 28.837891 78.78125 L 29.519531 78.78125 L 25.408203 72.744141 z M 103.01367 76.0625 L 103.01367 77.0625 L 108.72461 77.0625 L 108.72461 76.0625 L 103.01367 76.0625 z"/>
 </g>
</svg>
