<svg xmlns="http://www.w3.org/2000/svg" xmlns:xlink="http://www.w3.org/1999/xlink" id="svg2" width="19" height="15" version="1.1">
 <defs id="defs27">
  <linearGradient id="linearGradient1016" x1="26" x2="82" y1="39.016" y2="39.016" gradientTransform="translate(-7.7166451,-34.307969)" gradientUnits="userSpaceOnUse" xlink:href="#linearGradient991"/>
  <linearGradient id="linearGradient991">
   <stop id="stop987" style="stop-color:#a22f66;stop-opacity:1" offset="0"/>
   <stop id="stop989" style="stop-color:#1b77a0;stop-opacity:1" offset="1"/>
  </linearGradient>
  <linearGradient id="linearGradient856" x1="15" x2="15" y1="7" y2="15" gradientUnits="userSpaceOnUse" xlink:href="#linearGradient991"/>
  <linearGradient id="linearGradient858" x1="13" x2="13" y1="7" y2="15" gradientUnits="userSpaceOnUse" xlink:href="#linearGradient991"/>
  <linearGradient id="linearGradient860" x1="11" x2="11" y1="7" y2="15" gradientUnits="userSpaceOnUse" xlink:href="#linearGradient991"/>
  <linearGradient id="linearGradient862" x1="11" x2="11" y1="7" y2="15" gradientUnits="userSpaceOnUse" xlink:href="#linearGradient991"/>
  <linearGradient id="linearGradient864" x1="13" x2="13" y1="7" y2="15" gradientUnits="userSpaceOnUse" xlink:href="#linearGradient991"/>
  <linearGradient id="linearGradient866" x1="15" x2="15" y1="7" y2="15" gradientUnits="userSpaceOnUse" xlink:href="#linearGradient991"/>
  <linearGradient id="linearGradient868" x1="15" x2="15" y1="7" y2="15" gradientUnits="userSpaceOnUse" xlink:href="#linearGradient991"/>
  <linearGradient id="linearGradient870" x1="13" x2="13" y1="7" y2="15" gradientUnits="userSpaceOnUse" xlink:href="#linearGradient991"/>
  <linearGradient id="linearGradient872" x1="11" x2="11" y1="7" y2="15" gradientUnits="userSpaceOnUse" xlink:href="#linearGradient991"/>
 </defs>
 <rect id="hint-tile-center" style="opacity:1;fill:#ff2a2a" width="4" height="4" x="7" y="2"/>
 <rect id="hint-bar-size" style="opacity:1;fill:#ff2a2a" width="6" height="6" x="0" y="0"/>
 <path id="bar-inactive-bottomright" style="opacity:0.2" d="m 5,12 v 3 c 1.661989,0 3,-1.338011 3,-3 z"/>
 <path id="bar-inactive-right" style="opacity:0.2" d="m 5,10 v 2 h 3 v -2 z"/>
 <path id="bar-inactive-topright" style="opacity:0.2" d="m 5,7 v 3 H 8 C 8,8.338011 6.661989,7 5,7 Z"/>
 <path id="bar-inactive-bottomleft" style="opacity:0.2" d="m 0,12 c 0,1.661989 1.338011,3 3,3 v -3 z"/>
 <path id="bar-inactive-left" style="opacity:0.2" d="m 0,10 v 2 h 3 v -2 z"/>
 <path id="bar-inactive-topleft" style="opacity:0.2" d="M 3,7 C 1.338011,7 0,8.338011 0,10 h 3 z"/>
 <path id="bar-inactive-bottom" style="opacity:0.2" d="m 3,12 v 3 h 2 v -3 z"/>
 <path id="bar-inactive-center" style="opacity:0.2" d="M 5,10 H 3 v 2 h 2 z"/>
 <path id="bar-inactive-top" style="opacity:0.2" d="m 3,7 v 3 H 5 V 7 Z"/>
 <path id="bar-active-bottomright" style="opacity:0.8;fill:url(#linearGradient856)" d="m 14,12 v 3 c 1.661989,0 3,-1.33801 3,-3 z"/>
 <path id="bar-active-right" style="opacity:0.8;fill:url(#linearGradient866)" d="m 14,10 v 2 h 3 v -2 z"/>
 <path id="bar-active-topright" style="opacity:0.8;fill:url(#linearGradient868)" d="m 14,7 v 3 h 3 C 17,8.33801 15.661989,7 14,7 Z"/>
 <path id="bar-active-bottomleft" style="opacity:0.8;fill:url(#linearGradient860)" d="m 9,12 c 0,1.66199 1.338011,3 3,3 v -3 z"/>
 <path id="bar-active-left" style="opacity:0.8;fill:url(#linearGradient862)" d="m 9,10 v 2 h 3 v -2 z"/>
 <path id="bar-active-topleft" style="opacity:0.8;fill:url(#linearGradient872)" d="M 12,7 C 10.338011,7 9,8.33801 9,10 h 3 z"/>
 <path id="bar-active-bottom" style="opacity:0.8;fill:url(#linearGradient858)" d="m 12,12 v 3 h 2 v -3 z"/>
 <path id="bar-active-center" style="opacity:0.8;fill:url(#linearGradient864)" d="m 14,10 h -2 v 2 h 2 z"/>
 <path id="bar-active-top" style="opacity:0.8;fill:url(#linearGradient870)" d="m 12,7 v 3 h 2 V 7 Z"/>
 <rect id="hint-stretch-borders" style="opacity:1;fill:#ff2a2a" width="3" height="3" x="16" y="3"/>
 <rect id="hint-bar-stretch" style="opacity:1;fill:#ff2a2a" width="3" height="3" x="12" y="3"/>
</svg>
