<svg xmlns="http://www.w3.org/2000/svg" id="svg2" width="44" height="40" version="1.1" viewBox="0 0 11.64 10.58">
 <rect id="hint-rotation-angle" style="fill:#ff0000;fill-opacity:1" width="3.704" height="3.704" x="0" y="0"/>
 <g id="stopped" transform="translate(-3.9683821,0.5291173)">
  <rect id="rect4143" style="opacity:0.001" width="5.82" height="5.82" x="9.79" y="4.23"/>
  <path id="path826" style="opacity:1;fill:#eff0f1" transform="matrix(0.26455882,0,0,0.26455882,0,-0.00117647)" d="M 48,17 A 9.9999987,10.000001 0 0 0 38,27 9.9999987,10.000001 0 0 0 48,37 9.9999987,10.000001 0 0 0 58,27 9.9999987,10.000001 0 0 0 48,17 Z m 0,2 a 7.9999978,7.9999997 0 0 1 8,8 7.9999978,7.9999997 0 0 1 -8,8 7.9999978,7.9999997 0 0 1 -8,-8 7.9999978,7.9999997 0 0 1 8,-8 z"/>
 </g>
 <g id="busywidget" transform="matrix(0.26455882,0,0,0.26455882,-80.161322,-85.263532)">
  <rect id="rect1459" style="opacity:0.001" width="22" height="22" x="303" y="340.28"/>
  <path id="path1455" style="opacity:0.001" d="m 306.92892,344.24143 a 9.9999993,9.9999993 0 0 0 -2e-5,14.14212 9.9999993,9.9999993 0 0 0 14.14216,2e-5 9.9999993,9.9999993 0 0 0 -2e-5,-14.14216 9.9999993,9.9999993 0 0 0 -14.14212,2e-5 z m 1.43629,1.43629 a 7.9999992,7.9999992 0 0 1 11.31372,10e-6 7.9999992,7.9999992 0 0 1 0,11.31371 7.9999992,7.9999992 0 0 1 -11.31371,0 7.9999992,7.9999992 0 0 1 -1e-5,-11.31372 z"/>
  <path id="path1457" style="opacity:1;fill:#eff0f1" d="m 319.63475,344.21934 a 0.99999995,0.99999995 0 0 0 0,1.41421 l -10e-4,10e-4 a 7.9999994,7.9999994 0 0 1 0.0235,0.0207 7.9999994,7.9999994 0 0 1 0,11.31371 l -0.0221,-0.0221 a 0.99999995,0.99999995 0 0 0 0,1.41421 0.99999995,0.99999995 0 0 0 1.41421,0 9.9999995,9.9999995 0 0 0 0,-14.14213 0.99999995,0.99999995 0 0 0 -1.41421,0 z"/>
  <path id="path1472" style="opacity:1;fill:#eff0f1" d="m 308.36523,344.21933 a 0.99999995,0.99999995 0 0 1 0,1.41422 l 10e-4,10e-4 a 7.9999994,7.9999994 0 0 0 -0.0235,0.0207 7.9999994,7.9999994 0 0 0 0,11.31371 l 0.0221,-0.0221 a 0.99999995,0.99999995 0 0 1 0,1.41421 0.99999995,0.99999995 0 0 1 -1.41421,0 9.9999995,9.9999995 0 0 1 0,-14.14214 0.99999995,0.99999995 0 0 1 1.41421,0 z"/>
 </g>
</svg>
