<svg xmlns="http://www.w3.org/2000/svg" id="svg59" width="86" height="86" version="1">
 <g id="ClockFace">
  <rect id="rect19" style="opacity:0.001" width="86" height="86" x="0" y="0"/>
  <path id="rect21" style="opacity:0.03" d="M 43,5.5 C 63.775,5.5 80.5,22.225 80.5,43 80.5,63.775 63.775,80.5 43,80.5 22.225,80.5 5.5,63.775 5.5,43 5.5,22.225 22.225,5.5 43,5.5 Z m 0,0 C 21.671,5.5 4.5,22.671 4.5,44 4.5,65.329 21.671,82.5 43,82.5 64.329,82.5 81.5,65.329 81.5,44 81.5,22.671 64.329,5.5 43,5.5 Z"/>
  <path id="rect23" style="opacity:0.03" d="M 17.678711,15.297852 C 9.7454975,22.296477 4.75,32.540636 4.75,44 4.75,65.1905 21.8095,82.25 43,82.25 64.1905,82.25 81.25,65.1905 81.25,44 81.25,32.540636 76.2545,22.296477 68.32129,15.297852 75.812555,22.145196 80.5,32.004201 80.5,43 80.5,63.775 63.775,80.5 43,80.5 22.225,80.5 5.5,63.775 5.5,43 5.5,32.004201 10.187445,22.145196 17.678711,15.297852 Z"/>
  <path id="rect25" style="opacity:0.03" d="M 10.513672,24.223633 C 7.0137655,29.978085 5,36.745062 5,44 5,65.052 21.948,82 43,82 64.052,82 81,65.052 81,44 81,36.745062 78.986235,29.978085 75.48633,24.223633 78.67125,29.740354 80.5,36.146894 80.5,43 80.5,63.775 63.775,80.5 43,80.5 22.225,80.5 5.5,63.775 5.5,43 5.5,36.146894 7.328751,29.740354 10.513672,24.223633 Z"/>
  <path id="rect27" style="opacity:0.03" d="M 6.5771485,34.038086 C 5.71711,37.21054 5.25,40.54801 5.25,44 5.25,64.9135 22.0865,81.75 43,81.75 63.9135,81.75 80.75,64.9135 80.75,44 80.75,40.54801 80.28289,37.21054 79.42285,34.038086 80.121965,36.908768 80.5,39.908127 80.5,43 80.5,63.775 63.775,80.5 43,80.5 22.225,80.5 5.5,63.775 5.5,43 c 0,-3.091873 0.378034,-6.091233 1.0771485,-8.961914 z"/>
  <path id="rect29" style="opacity:0.03" d="M 7.6152345,30.535156 C 6.0880255,34.645049 5.25,39.095576 5.25,43.75 5.25,64.6635 22.0865,81.5 43,81.5 63.9135,81.5 80.75,64.6635 80.75,43.75 80.75,39.095576 79.911975,34.645049 78.384765,30.535156 79.74997,34.432738 80.5,38.624769 80.5,43 80.5,63.775 63.775,80.5 43,80.5 22.225,80.5 5.5,63.775 5.5,43 5.5,38.624769 6.2500305,34.432738 7.6152345,30.535156 Z"/>
  <path id="rect31" style="opacity:0.03" d="M 10.713867,23.875 C 7.2450465,29.586946 5.25,36.301828 5.25,43.5 5.25,64.4135 22.0865,81.25 43,81.25 63.9135,81.25 80.75,64.4135 80.75,43.5 80.75,36.301828 78.754955,29.586946 75.286135,23.875 78.59647,29.469083 80.5,36.002744 80.5,43 80.5,63.775 63.775,80.5 43,80.5 22.225,80.5 5.5,63.775 5.5,43 5.5,36.002744 7.403529,29.469083 10.713867,23.875 Z"/>
  <path id="rect33" style="opacity:0.03" d="M 41.051758,5.548828 C 21.050725,6.5561545 5.25,22.990047 5.25,43.25 5.25,64.1635 22.0865,81 43,81 63.9135,81 80.75,64.1635 80.75,43.25 80.75,22.985791 64.942545,6.549883 44.935547,5.548828 64.80412,6.5494835 80.5,22.874219 80.5,43 80.5,63.775 63.775,80.5 43,80.5 22.225,80.5 5.5,63.775 5.5,43 5.5,22.874219 21.195878,6.5494835 41.064453,5.548828 c -0.0042,2.105e-4 -0.0085,-2.115e-4 -0.0127,0 z"/>
  <path id="rect35" style="opacity:0.03" d="M 43,5.25 C 22.0865,5.25 5.25,22.0865 5.25,43 5.25,63.9135 22.0865,80.75 43,80.75 63.9135,80.75 80.75,63.9135 80.75,43 80.75,22.0865 63.9135,5.25 43,5.25 Z M 43,5.5 C 63.775,5.5 80.5,22.225 80.5,43 80.5,63.775 63.775,80.5 43,80.5 22.225,80.5 5.5,63.775 5.5,43 5.5,22.225 22.225,5.5 43,5.5 Z"/>
  <rect id="rect37" style="opacity:0.8;fill:#31363b" width="75" height="75" x="-80.5" y="-80.5" rx="37.5" ry="37.5" transform="matrix(0,-1,-1,0,0,0)"/>
  <path id="path1329" style="opacity:1;fill:#eff0f1" d="m 45.708008,9.5 c -0.412523,0 -0.766976,0.04882 -1.063477,0.145508 -0.290055,0.090239 -0.547838,0.212491 -0.773437,0.367188 -0.2256,0.14825 -0.43456,0.306044 -0.62793,0.473632 l 0.792969,0.9375 c 0.277163,-0.225598 0.541587,-0.399017 0.792968,-0.521484 0.251382,-0.122468 0.509166,-0.18457 0.773438,-0.18457 0.257827,0 0.460148,0.06777 0.608398,0.203125 0.154697,0.135359 0.232422,0.341976 0.232422,0.61914 0,0.225599 -0.04883,0.43788 -0.145508,0.637696 -0.09669,0.19337 -0.251159,0.413267 -0.463867,0.658203 -0.212707,0.23849 -0.492753,0.53748 -0.84082,0.898437 l -1.730469,1.75 V 16.5 h 4.824219 v -1.227539 h -3.006836 v -0.06836 l 0.889648,-0.831055 c 0.406078,-0.373849 0.750571,-0.715998 1.03418,-1.025391 0.290056,-0.309392 0.508977,-0.621661 0.657227,-0.9375 0.154696,-0.315837 0.232421,-0.66365 0.232421,-1.043945 0,-0.354512 -0.09003,-0.670102 -0.270507,-0.947265 C 47.449013,10.135336 47.19787,9.9121185 46.86914,9.7509765 46.546857,9.583389 46.159205,9.5 45.708008,9.5 Z m -5.571289,0.09668 -2.223633,1.769531 0.706054,0.879883 0.792969,-0.638672 c 0.09024,-0.07735 0.186909,-0.164057 0.290039,-0.260742 0.109577,-0.103131 0.179686,-0.174217 0.211914,-0.212891 -0.01289,0.206262 -0.02188,0.448422 -0.02832,0.725586 -0.0064,0.270718 -0.0098,0.486319 -0.0098,0.647461 V 16.5 h 1.459961 V 9.5966795 Z m -14.416016,3.921876 -2.254883,1.794921 0.71582,0.891601 0.803711,-0.646483 c 0.0915,-0.07843 0.18937,-0.166609 0.293946,-0.264648 0.111111,-0.104576 0.18314,-0.176605 0.21582,-0.215821 -0.01307,0.209151 -0.02276,0.454306 -0.0293,0.735352 -0.0065,0.274509 -0.0098,0.492851 -0.0098,0.656248 v 4.048828 h 1.480469 v -6.999998 z m 5.610351,0 -2.254882,1.794921 0.71582,0.891601 0.803711,-0.646483 c 0.0915,-0.07843 0.18937,-0.166609 0.293945,-0.264648 0.111111,-0.104576 0.183141,-0.176605 0.215821,-0.215821 -0.01307,0.209151 -0.02276,0.454306 -0.02929,0.735352 -0.0065,0.274509 -0.0098,0.492851 -0.0098,0.656248 v 4.048828 h 1.480469 v -6.999998 z m 27.181641,0.04883 -2.223635,1.769531 0.706055,0.879882 0.791995,-0.638671 c 0.09024,-0.07735 0.18691,-0.164057 0.29004,-0.260742 0.10957,-0.103131 0.180655,-0.174217 0.21289,-0.212891 -0.0129,0.20626 -0.0219,0.448422 -0.0283,0.725585 -0.0065,0.270718 -0.0098,0.486319 -0.0098,0.647461 v 3.993164 H 59.7119 V 13.567383 Z M 19.601562,24.5 c -0.577777,0 -1.041418,0.13958 -1.390625,0.418945 -0.349206,0.279365 -0.599571,0.682977 -0.751953,1.209961 -0.15238,0.520635 -0.228515,1.145818 -0.228515,1.875977 0,1.098412 0.190336,1.955416 0.571289,2.571289 C 18.18271,31.192045 18.782515,31.5 19.601562,31.5 c 0.577778,0 1.041419,-0.13958 1.390625,-0.418946 0.349207,-0.279364 0.599572,-0.679559 0.751953,-1.200195 0.158731,-0.520635 0.238282,-1.145818 0.238282,-1.875976 0,-1.104762 -0.193753,-1.965182 -0.581055,-2.581055 C 21.014065,24.807955 20.414261,24.5 19.601562,24.5 Z m 49.422853,0 c -0.412525,0 -0.76698,0.04784 -1.063475,0.144531 -0.290055,0.09024 -0.54784,0.213468 -0.77344,0.368164 -0.225595,0.14825 -0.435535,0.306045 -0.628905,0.473633 l 0.792965,0.9375 c 0.277165,-0.225598 0.54159,-0.399993 0.79297,-0.522461 0.25138,-0.122467 0.509165,-0.183594 0.77344,-0.183594 0.257825,0 0.461125,0.06777 0.609375,0.203125 0.154695,0.13536 0.231445,0.341977 0.231445,0.619141 0,0.225598 -0.04785,0.437879 -0.14453,0.637695 -0.09669,0.193371 -0.251165,0.413268 -0.46387,0.658203 -0.212705,0.23849 -0.49373,0.53748 -0.841795,0.898438 l -1.73047,1.75 V 31.5 h 4.82422 V 30.272461 H 68.39551 v -0.06836 l 0.889645,-0.831054 c 0.40608,-0.373849 0.75155,-0.715999 1.035155,-1.025391 0.290055,-0.309392 0.50898,-0.621661 0.65723,-0.9375 0.154695,-0.315838 0.231445,-0.66365 0.231445,-1.043945 0,-0.354512 -0.09003,-0.671079 -0.27051,-0.948242 C 70.764445,25.134359 70.5133,24.912118 70.18457,24.750976 69.862285,24.583389 69.47561,24.5 69.024415,24.5 Z m -54.834962,0.104492 -2.190429,1.743164 0.695312,0.866211 0.78125,-0.62793 c 0.08889,-0.07619 0.183569,-0.162574 0.285156,-0.257812 0.107937,-0.101588 0.178215,-0.170889 0.209961,-0.208985 -0.0127,0.203175 -0.02295,0.440852 -0.0293,0.713868 -0.0063,0.266666 -0.0088,0.479941 -0.0088,0.638671 v 3.932618 h 1.4375 v -6.799805 z m 5.41211,1.057617 c 0.355555,0 0.603481,0.196193 0.743164,0.589844 0.139682,0.393651 0.208984,0.978327 0.208984,1.75293 0,0.780952 -0.0693,1.364651 -0.208984,1.751953 -0.139683,0.387301 -0.387609,0.581054 -0.743164,0.581054 -0.361905,0 -0.609831,-0.193753 -0.743164,-0.581054 -0.133334,-0.393651 -0.200196,-0.97735 -0.200196,-1.751953 0,-0.774604 0.06686,-1.359279 0.200196,-1.75293 0.133333,-0.393651 0.381259,-0.589844 0.743164,-0.589844 z M 12.813477,39.5 c -0.714027,0 -1.281385,0.211071 -1.702149,0.631836 -0.41439,0.420765 -0.621093,1.000708 -0.621093,1.740234 0,0.688525 0.174754,1.220541 0.52539,1.59668 0.35064,0.376139 0.816341,0.564453 1.396485,0.564453 0.433516,0 0.758829,-0.07649 0.975586,-0.229492 0.223133,-0.153006 0.401275,-0.34132 0.535156,-0.564453 h 0.05762 c -0.01912,0.420765 -0.09222,0.794004 -0.219727,1.11914 -0.127503,0.318762 -0.34777,0.567588 -0.660156,0.746094 -0.30601,0.178506 -0.742174,0.267578 -1.309571,0.267578 -0.140253,0 -0.280641,-0.01017 -0.420898,-0.02929 -0.140253,-0.01913 -0.274837,-0.04091 -0.402344,-0.06641 v 1.157227 c 0.12113,0.0255 0.271688,0.04147 0.450196,0.04785 0.178506,0.01275 0.333893,0.01855 0.467773,0.01855 0.567397,0 1.049073,-0.0731 1.444336,-0.219727 0.40164,-0.153005 0.730345,-0.360686 0.985352,-0.62207 0.261387,-0.267759 0.462285,-0.570316 0.602539,-0.908203 0.14663,-0.344263 0.248287,-0.70733 0.305664,-1.089844 0.05738,-0.388889 0.08594,-0.778104 0.08594,-1.166992 0,-0.68215 -0.111831,-1.242727 -0.334961,-1.682617 C 14.751476,40.36428 14.452312,40.035578 14.076172,39.825195 13.700035,39.608437 13.27887,39.5 12.813477,39.5 Z m 60.062498,0 c -0.49591,0 -0.92471,0.06327 -1.28711,0.190429 -0.35604,0.127158 -0.66754,0.285827 -0.93457,0.476563 l 0.666995,0.992187 c 0.158945,-0.101725 0.359965,-0.209777 0.60156,-0.324218 0.2416,-0.114441 0.524385,-0.171875 0.848635,-0.171875 0.349685,0 0.596935,0.07009 0.743165,0.209961 0.152585,0.133515 0.22949,0.320901 0.22949,0.5625 0,0.17802 -0.0414,0.337666 -0.124025,0.477539 -0.0763,0.133515 -0.225715,0.241566 -0.44824,0.324218 -0.216165,0.0763 -0.53448,0.114258 -0.9541,0.114258 H 71.69336 v 1.106446 h 0.515625 c 0.425975,0 0.75597,0.03455 0.99121,0.104492 0.2416,0.06358 0.410495,0.162383 0.50586,0.295898 0.09536,0.133516 0.14258,0.292185 0.14258,0.476563 0,0.32425 -0.10465,0.575886 -0.314455,0.753906 -0.203455,0.17802 -0.56216,0.266601 -1.07715,0.266602 -0.279745,0 -0.578595,-0.03796 -0.896485,-0.114258 -0.31789,-0.0763 -0.62355,-0.187754 -0.916015,-0.333985 v 1.220703 C 71.21674,46.375886 71.87186,46.5 72.609375,46.5 c 0.635785,0 1.154145,-0.08956 1.554685,-0.267578 0.406905,-0.184378 0.70575,-0.431629 0.896485,-0.743164 0.197095,-0.317893 0.294925,-0.674172 0.294925,-1.06836 0,-0.44505 -0.14261,-0.801329 -0.42871,-1.068359 -0.286105,-0.26703 -0.699815,-0.434946 -1.240235,-0.504883 v -0.02929 c 0.41326,-0.101726 0.760295,-0.292521 1.040035,-0.572265 0.28611,-0.279747 0.428715,-0.654519 0.428715,-1.125 0,-0.514987 -0.20686,-0.912638 -0.62012,-1.192383 C 74.128255,39.642606 73.57534,39.5 72.875975,39.5 Z m -60.033201,1.157226 c 0.229506,0 0.420235,0.06729 0.573242,0.201172 0.153007,0.127505 0.268226,0.293063 0.344726,0.497071 0.0765,0.204006 0.114258,0.410711 0.114258,0.621093 0,0.153006 -0.04453,0.303565 -0.133789,0.450196 -0.08925,0.140255 -0.213667,0.257887 -0.373047,0.353515 -0.15938,0.09563 -0.344304,0.143555 -0.554687,0.143555 -0.312387,0 -0.545239,-0.09585 -0.698242,-0.287109 -0.153008,-0.191258 -0.229493,-0.452668 -0.229493,-0.78418 0,-0.408015 0.09005,-0.707181 0.268555,-0.898438 0.178506,-0.197631 0.407967,-0.296875 0.688477,-0.296875 z M 17.023437,54.5 c -0.381993,0 -0.741675,0.06068 -1.079101,0.18164 -0.33106,0.120965 -0.598031,0.30542 -0.801758,0.55371 -0.20373,0.24193 -0.305664,0.540935 -0.305664,0.89746 0,0.40747 0.105333,0.748705 0.31543,1.022465 0.216459,0.26739 0.477609,0.4965 0.783203,0.6875 -0.36289,0.17826 -0.672094,0.413195 -0.926758,0.706055 -0.25466,0.28649 -0.381836,0.662195 -0.381836,1.12695 0,0.56662 0.206294,1.01222 0.620118,1.336915 C 15.667263,61.33739 16.259454,61.5 17.023437,61.5 c 0.471124,0 0.885664,-0.0767 1.242188,-0.22949 0.362897,-0.1528 0.642483,-0.36929 0.839844,-0.649415 0.203725,-0.28013 0.305664,-0.607775 0.305664,-0.9834 0,-0.299225 -0.0699,-0.563775 -0.209961,-0.79297 -0.133697,-0.229195 -0.31233,-0.426265 -0.535157,-0.591795 -0.216463,-0.171895 -0.445573,-0.320915 -0.6875,-0.44824 0.350157,-0.17191 0.639944,-0.38839 0.869141,-0.649415 0.23556,-0.26103 0.353516,-0.598875 0.353516,-1.012695 0,-0.362895 -0.101937,-0.6653 -0.305664,-0.90723 C 18.698144,54.98706 18.433599,54.802605 18.102539,54.68164 17.777849,54.560675 17.418164,54.5 17.023437,54.5 Z m 52.388673,0 -3.06836,4.51953 v 1.0293 h 2.990235 V 61.5 h 1.441405 v -1.45117 h 0.842775 V 58.902345 H 70.77539 V 54.5 Z m -52.397462,1.05078 c 0.23556,0 0.432634,0.0631 0.591797,0.19043 0.159163,0.120965 0.238281,0.290375 0.238281,0.506835 0,0.248295 -0.08252,0.44537 -0.248047,0.5918 -0.16553,0.14006 -0.356781,0.261415 -0.573242,0.36328 -0.222829,-0.108235 -0.416501,-0.23637 -0.582031,-0.382815 -0.16553,-0.146415 -0.248047,-0.336705 -0.248047,-0.572265 0,-0.21646 0.07572,-0.38587 0.228516,-0.506835 0.159163,-0.12733 0.35721,-0.19043 0.592773,-0.19043 z m 52.338867,0.64551 h 0.03905 c -0.0066,0.05882 -0.01625,0.182525 -0.0293,0.37207 -0.0066,0.183005 -0.013,0.38295 -0.01955,0.59863 -0.0066,0.21569 -0.0097,0.398505 -0.0097,0.54883 v 1.186525 H 67.64744 l 1.28418,-1.941405 c 0.08497,-0.130725 0.160225,-0.25863 0.225585,-0.382815 0.07189,-0.12418 0.137465,-0.251115 0.19629,-0.381835 z m -52.396484,2.23828 0.124023,0.0664 c 0.152797,0.08913 0.305208,0.188645 0.458008,0.296875 0.152797,0.101865 0.280949,0.218845 0.382813,0.35254 0.101863,0.12733 0.152344,0.277325 0.152344,0.44922 -1e-6,0.254665 -0.08931,0.45853 -0.267579,0.61133 -0.17826,0.152785 -0.445231,0.22949 -0.801757,0.22949 -0.343794,0 -0.60494,-0.0801 -0.783204,-0.23926 -0.171896,-0.15916 -0.257812,-0.36303 -0.257812,-0.611325 0,-0.26103 0.08931,-0.48334 0.267578,-0.66797 0.18463,-0.18463 0.42636,-0.34724 0.725586,-0.487305 z m 8.533203,7.0459 v 1.245115 h 3.451172 l -2.62793,5.754885 h 1.548828 l 2.647461,-6.06836 v -0.93164 z m 30.600586,0 L 55.83008,69 l 0.580075,0.30957 c 0.128915,-0.0322 0.29003,-0.06444 0.4834,-0.09668 0.19337,-0.03865 0.380065,-0.05761 0.560545,-0.05761 0.92173,0 1.382815,0.34781 1.382815,1.043945 0,0.37385 -0.11659,0.650575 -0.348635,0.831055 -0.2256,0.17403 -0.554465,0.261715 -0.986325,0.261715 -0.2965,0 -0.612095,-0.0422 -0.947265,-0.125975 -0.335175,-0.09024 -0.621865,-0.196865 -0.860355,-0.319335 v 1.256835 c 0.23849,0.12247 0.51522,0.215815 0.831055,0.280275 0.322285,0.06445 0.66443,0.09668 1.02539,0.09668 0.90884,0 1.595485,-0.212285 2.05957,-0.637695 0.46409,-0.43186 0.695315,-1.021835 0.695315,-1.769535 0,-0.45764 -0.09667,-0.841 -0.29004,-1.15039 -0.186925,-0.30939 -0.444715,-0.54491 -0.773435,-0.706055 -0.328735,-0.16114 -0.702125,-0.24121 -1.121095,-0.24121 -0.2256,0 -0.403315,0.0123 -0.53223,0.0381 -0.12247,0.01935 -0.238075,0.03925 -0.347655,0.0586 l 0.12598,-1.353515 h 2.46484 v -1.23828 z M 44.013672,69.5 c -0.567397,0 -1.051488,0.07649 -1.453125,0.22949 -0.395267,0.14663 -0.723968,0.35432 -0.985352,0.62207 -0.255007,0.261395 -0.455909,0.563945 -0.602539,0.908205 -0.140256,0.337885 -0.238521,0.700955 -0.295898,1.089845 -0.05738,0.382515 -0.08691,0.768335 -0.08691,1.157225 0,0.68215 0.111831,1.246115 0.33496,1.692385 0.223138,0.43989 0.523278,0.76859 0.899415,0.98535 0.376136,0.21038 0.796325,0.31543 1.261718,0.31543 0.714027,0 1.277994,-0.210095 1.692383,-0.63086 0.420763,-0.420765 0.631836,-1.000705 0.631836,-1.740235 0,-0.68852 -0.175731,-1.22152 -0.526367,-1.597655 -0.35064,-0.37614 -0.825535,-0.563475 -1.424805,-0.563475 -0.382513,0 -0.694263,0.07648 -0.936523,0.22949 -0.23588,0.153005 -0.418392,0.340345 -0.545899,0.563475 h -0.05664 c 0.01913,-0.42076 0.09222,-0.79061 0.219726,-1.109375 0.127504,-0.325135 0.344381,-0.576375 0.650391,-0.75488 0.312387,-0.178505 0.751939,-0.26758 1.319336,-0.26758 0.140253,0 0.280642,0.0092 0.420898,0.0283 0.146631,0.01915 0.280237,0.0419 0.401367,0.06739 V 69.56737 c -0.12113,-0.0255 -0.270712,-0.0415 -0.449218,-0.04785 -0.178507,-0.01275 -0.33487,-0.0195 -0.46875,-0.0195 z m -0.927735,3.57715 c 0.312387,0 0.54524,0.09488 0.698242,0.28613 0.153008,0.19126 0.229493,0.45267 0.229493,0.78418 0,0.408015 -0.08907,0.711545 -0.267578,0.90918 -0.178508,0.191255 -0.407967,0.286135 -0.688477,0.286135 -0.223133,0 -0.414839,-0.06293 -0.574219,-0.19043 -0.153003,-0.13388 -0.267246,-0.302825 -0.34375,-0.506835 -0.0765,-0.20401 -0.115234,-0.41169 -0.115234,-0.62207 0,-0.153005 0.04454,-0.2992 0.133789,-0.439455 0.08925,-0.14663 0.211255,-0.26863 0.364258,-0.36426 0.159383,-0.09563 0.34672,-0.142575 0.563476,-0.142575 z"/>
 </g>
 <g id="MinuteHand" transform="translate(53.5,-4e-6)">
  <path id="rect1214" style="opacity:0.001" d="m 39.5,39.5 h 7 V 86 h -7 z"/>
  <path id="rect5459" style="opacity:1;fill:#aeb5b6" d="m 43.679501,41.978585 -0.0133,24.843663 c 0,0 -0.0469,0.599481 -0.766201,0.599481 -0.719301,0 -0.733799,-0.599969 -0.733799,-0.599969 l 0.0133,-24.843664 z"/>
  <circle id="path5457" style="opacity:1;fill:#aeb5b6" cx="15.554" cy="-58.732" r="1.835" transform="rotate(120.21865)"/>
 </g>
 <g id="SecondHand" transform="translate(60.5,-4e-6)">
  <path id="path1241" style="opacity:0.001" d="m 39.5,39.5 h 7 V 86 h -7 z"/>
  <path id="path1143" style="fill:#a22f66" d="m 42.515457,43.837863 c -0.46273,-0.267603 -0.62092,-0.859662 -0.35332,-1.322395 0.2676,-0.462746 0.85966,-0.620935 1.3224,-0.353332 0.46274,0.267603 0.62093,0.859662 0.35332,1.322408 -0.2676,0.462733 -0.85966,0.620922 -1.3224,0.353319 z"/>
  <path id="path1145" style="opacity:1;fill:#a22f66" d="m 43.446527,42.631913 -0.027,37.4214 c 0,0 0.03162,0.446358 -0.420527,0.446358 -0.452146,0 -0.445523,-0.446976 -0.445523,-0.446976 l 0.027,-37.4214 z"/>
 </g>
 <g id="HourHand" transform="translate(46.5)">
  <path id="path1249" style="opacity:0.001" d="m 39.5,39.499996 h 7 V 86 h -7 z"/>
  <path id="path1153" style="opacity:1;fill:#eff0f1" d="m 41.549,58.363 c 0,0 -0.0062,1.403996 1.472415,1.403996 C 44.5,59.766996 44.455,58.363 44.455,58.363 V 41.833835 l -2.906,0.04088 z"/>
  <circle id="circle1155" style="opacity:1;fill:#eff0f1" cx="-60.2" cy="8.599" r="3.25" transform="rotate(-126.87095)"/>
 </g>
</svg>
