<svg xmlns="http://www.w3.org/2000/svg" id="svg1203" width="112" height="48" version="1.1">
 <g id="menu" transform="matrix(3.7795277,0,0,3.7795277,-51.999996,-960.51946)">
  <rect id="rect915" style="opacity:0.001" width="4.233" height="4.233" x="13.76" y="254.14"/>
  <path id="path922" style="opacity:1;fill:#eff0f1" transform="matrix(0.26458332,0,0,0.26458332,13.758332,254.13743)" d="m 2.8984375,3.0019531 a 1.0015858,1.0015858 0 0 0 0.1035156,2 h 9.9960939 a 1.000252,1.000252 0 1 0 0,-2 H 3.0019531 a 1.0001,1.0001 0 0 0 -0.1035156,0 z m 0,4 a 1.0023138,1.0023138 0 0 0 0.1035156,2.0019531 h 9.9960939 a 1.0009766,1.0009766 0 1 0 0,-2.0019531 H 3.0019531 a 1.0001,1.0001 0 0 0 -0.1035156,0 z M 13.107422,11 a 1.0001,1.0001 0 0 0 -0.109375,0.0039 H 3.0019531 a 1.0001,1.0001 0 0 0 -0.1035156,0 1.0001,1.0001 0 0 0 0.1035156,1.992188 H 12.998047 A 1.0001,1.0001 0 1 0 13.107422,11 Z"/>
 </g>
 <g id="configure" transform="matrix(3.7795277,0,0,3.7795277,-35.999993,-960.5193)">
  <rect id="rect930" style="opacity:0.001" width="4.233" height="4.233" x="13.76" y="254.14"/>
  <path id="path940" style="opacity:1;fill:#eff0f1" transform="matrix(0.26458332,0,0,0.26458332,-0.5291667,249.37493)" d="m 59.9375,20 a 4.0018226,4.0018226 0 0 0 -0.970703,0.136719 l 2.445312,2.447265 -2.828125,2.828125 -2.447265,-2.445312 a 4.0018226,4.0018226 0 0 0 1.03125,3.861328 4.0018226,4.0018226 0 0 0 4.388672,0.851563 l 3.882812,3.878906 a 1.50015,1.50015 0 1 0 2.119141,-2.119141 L 63.679688,25.560547 A 4.0018226,4.0018226 0 0 0 62.828125,21.167969 4.0018226,4.0018226 0 0 0 59.9375,20 Z m 3.216797,6.453125 3.695312,3.695313 a 1.0001,1.0001 0 0 0 0.03711,0.03711 c 0.202923,0.182551 0.203073,0.261548 0.199219,0.361328 -0.0038,0.09978 -0.06092,0.248384 -0.175782,0.363281 -0.114897,0.114898 -0.263653,0.172002 -0.363281,0.175782 -0.09963,0.0038 -0.178701,0.0036 -0.361328,-0.199219 a 1.0001,1.0001 0 0 0 -0.03711,-0.03711 l -3.699218,-3.69336 a 4.0018226,4.0018226 0 0 0 0.378906,-0.328125 4.0018226,4.0018226 0 0 0 0.326172,-0.375 z"/>
 </g>
 <g id="rotate" transform="matrix(3.7795277,0,0,3.7795277,-19.999994,-960.51948)">
  <rect id="rect959" style="opacity:0.001" width="4.233" height="4.233" x="13.76" y="254.14"/>
  <path id="path963" style="opacity:1;fill:#eff0f1" transform="matrix(0.26458332,0,0,0.26458332,-0.5291667,249.37493)" d="M 62.835938,18.939453 A 0.81932602,0.93805807 0 0 0 62,19.876953 v 1.134766 c -2.417343,0.0013 -4.662226,1.459 -5.580078,3.785156 -1.078602,2.733506 -0.01519,5.856143 2.509766,7.359375 2.525038,1.503232 5.781008,0.952296 7.669921,-1.298828 A 0.50052035,0.50052035 0 1 0 65.832031,30.214844 C 64.253837,32.09565 61.554992,32.554803 59.445312,31.298828 57.335633,30.042853 56.448434,27.449909 57.349609,25.166016 58.116901,23.221463 59.982503,22.011165 62,22.013672 V 23 a 0.81932602,0.93805807 0 0 0 0.757812,0.9375 0.81932602,0.93805807 0 0 0 0.46875,-0.126953 L 64.410156,23.033203 65.591797,22.25 a 0.81932602,0.93805807 0 0 0 0,-1.623047 l -1.181641,-0.779297 -1.183594,-0.783203 a 0.81932602,0.93805807 0 0 0 -0.390624,-0.125 z"/>
 </g>
 <g id="size-vertical" transform="matrix(3.7795277,0,0,3.7795277,12.000005,-960.51946)">
  <rect id="rect979" style="opacity:0.001" width="4.233" height="4.233" x="13.76" y="254.14"/>
  <path id="path990" style="opacity:1;fill:#eff0f1" transform="matrix(0.26458332,0,0,0.26458332,-0.5291667,249.37493)" d="m 61.96875,19 a 0.55582453,0.46122087 0 0 0 -0.449219,0.232422 l -0.724609,1.039062 -0.720703,1.03711 A 0.55582453,0.46122087 0 0 0 60.558594,22 h 1.443359 1.445313 a 0.55582453,0.46122087 0 0 0 0.478515,-0.691406 l -0.720703,-1.03711 -0.722656,-1.039062 A 0.55582453,0.46122087 0 0 0 61.96875,19 Z M 62,24 a 2,2 0 0 0 -2,2 2,2 0 0 0 2,2 2,2 0 0 0 2,-2 2,2 0 0 0 -2,-2 z m 0,1 a 1,1 0 0 1 1,1 1,1 0 0 1 -1,1 1,1 0 0 1 -1,-1 1,1 0 0 1 1,-1 z m -1.441406,5 a 0.55582453,0.46122087 0 0 0 -0.484375,0.691406 l 0.720703,1.039063 0.724609,1.039062 A 0.55582453,0.46122087 0 0 0 61.96875,33 0.55582453,0.46122087 0 0 0 62.482422,32.769531 l 0.722656,-1.039062 0.720703,-1.039063 A 0.55582453,0.46122087 0 0 0 63.447266,30 h -1.445313 z"/>
 </g>
 <g id="move" transform="matrix(3.7795277,0,0,3.7795277,2.0000056,-926.51946)">
  <rect id="rect1027" style="opacity:0.001" width="4.233" height="4.233" x="12.17" y="245.14"/>
  <path id="path1029" style="opacity:1;fill:#eff0f1" transform="matrix(0.26458332,0,0,0.26458332,-0.5291667,249.37493)" d="m 55.96875,-15 a 0.55582453,0.46122087 0 0 0 -0.449219,0.232422 l -0.724609,1.039062 -0.720703,1.03711 A 0.55582453,0.46122087 0 0 0 54.558594,-12 h 1.443359 1.445313 a 0.55582453,0.46122087 0 0 0 0.478515,-0.691406 l -0.720703,-1.03711 -0.722656,-1.039062 A 0.55582453,0.46122087 0 0 0 55.96875,-15 Z m -4.439453,5 a 0.46122087,0.55582453 0 0 0 -0.220703,0.074219 l -1.039063,0.7226562 -1.037109,0.7226562 A 0.46122087,0.55582453 0 0 0 49,-8.03125 a 0.46122087,0.55582453 0 0 0 0.232422,0.5136719 l 1.037109,0.7226562 1.039063,0.7207031 A 0.46122087,0.55582453 0 0 0 52,-6.5527344 V -7.9960938 -9.4414062 A 0.46122087,0.55582453 0 0 0 51.529297,-10 Z M 56,-10 a 2,2 0 0 0 -2,2 2,2 0 0 0 2,2 2,2 0 0 0 2,-2 2,2 0 0 0 -2,-2 z m 4.470703,0 A 0.46122087,0.55582453 0 0 0 60,-9.4414062 v 1.4453124 1.4433594 a 0.46122087,0.55582453 0 0 0 0.691406,0.4785156 l 1.039063,-0.7207031 1.037109,-0.7226562 A 0.46122087,0.55582453 0 0 0 63,-8.03125 0.46122087,0.55582453 0 0 0 62.767578,-8.4804688 L 61.730469,-9.203125 60.691406,-9.9257812 A 0.46122087,0.55582453 0 0 0 60.470703,-10 Z M 56,-9 a 1,1 0 0 1 1,1 1,1 0 0 1 -1,1 1,1 0 0 1 -1,-1 1,1 0 0 1 1,-1 z m -1.441406,5 a 0.55582453,0.46122087 0 0 0 -0.484375,0.6914062 l 0.720703,1.0390626 0.724609,1.0390624 A 0.55582453,0.46122087 0 0 0 55.96875,-1 0.55582453,0.46122087 0 0 0 56.482422,-1.2304688 l 0.722656,-1.0390624 0.720703,-1.0390626 A 0.55582453,0.46122087 0 0 0 57.447266,-4 h -1.445313 z"/>
 </g>
 <g id="size-horizontal" transform="matrix(0,3.7795277,-3.7795277,0,1056.5194,-52)">
  <rect id="rect1049" style="opacity:0.001" width="4.233" height="4.233" x="13.76" y="254.14"/>
  <path id="path1051" style="opacity:1;fill:#eff0f1" transform="matrix(0.26458332,0,0,0.26458332,-0.5291667,249.37493)" d="m 61.96875,19 a 0.55582453,0.46122087 0 0 0 -0.449219,0.232422 l -0.724609,1.039062 -0.720703,1.03711 A 0.55582453,0.46122087 0 0 0 60.558594,22 h 1.443359 1.445313 a 0.55582453,0.46122087 0 0 0 0.478515,-0.691406 l -0.720703,-1.03711 -0.722656,-1.039062 A 0.55582453,0.46122087 0 0 0 61.96875,19 Z M 62,24 a 2,2 0 0 0 -2,2 2,2 0 0 0 2,2 2,2 0 0 0 2,-2 2,2 0 0 0 -2,-2 z m 0,1 a 1,1 0 0 1 1,1 1,1 0 0 1 -1,1 1,1 0 0 1 -1,-1 1,1 0 0 1 1,-1 z m -1.441406,5 a 0.55582453,0.46122087 0 0 0 -0.484375,0.691406 l 0.720703,1.039063 0.724609,1.039062 A 0.55582453,0.46122087 0 0 0 61.96875,33 0.55582453,0.46122087 0 0 0 62.482422,32.769531 l 0.722656,-1.039062 0.720703,-1.039063 A 0.55582453,0.46122087 0 0 0 63.447266,30 h -1.445313 z"/>
 </g>
 <g id="size-diagonal-tr2bl" transform="matrix(3.7795277,0,0,3.7795277,43.999952,-960.51947)">
  <rect id="rect1055" style="opacity:0.001" width="4.233" height="4.233" x="13.76" y="254.14"/>
  <path id="path1061" style="opacity:1;fill:#eff0f1" transform="matrix(0.26458332,0,0,0.26458332,-0.5291667,249.37493)" d="m 57.998047,19.998047 c 0,0 -0.480157,0.0015 -0.972656,0.25 -0.492499,0.248693 -1.027344,0.838718 -1.027344,1.75 v 4.503906 a 0.50196853,0.50196853 0 0 0 1.003906,0 v -4.503906 c 0,-0.574828 0.215157,-0.725529 0.472656,-0.855469 0.254174,-0.128126 0.516518,-0.140247 0.523438,-0.140625 h 4.503906 a 0.50195908,0.50195908 0 0 0 0,-1.003906 z M 67.332031,20 a 0.63306269,0.52531255 44.939588 0 0 -0.115234,0.0078 l -1.419922,0.25586 -1.417969,0.255859 a 0.63306269,0.52531255 44.939588 0 0 -0.171875,0.941407 l 1.164063,1.164062 1.164062,1.162109 a 0.63306269,0.52531255 44.939588 0 0 0.947266,-0.166015 l 0.255859,-1.417969 0.253907,-1.419922 A 0.63306269,0.52531255 44.939588 0 0 67.814453,20.236328 0.63306269,0.52531255 44.939588 0 0 67.332031,20 Z m 0.15625,4.994141 a 0.50196853,0.50196853 0 0 0 -0.486328,0.501953 V 30 c 0,0.574828 -0.215157,0.725529 -0.472656,0.855469 -0.254173,0.128126 -0.516517,0.140247 -0.523438,0.140625 h -4.503906 a 0.50195908,0.50195908 0 0 0 0,1.003906 h 4.503906 c 0,0 0.480158,-0.0015 0.972657,-0.25 0.492499,-0.248693 1.027343,-0.838718 1.027343,-1.75 V 25.496094 A 0.50196853,0.50196853 0 0 0 67.488281,24.994141 Z M 56.974609,28 a 0.63306269,0.52531255 44.939588 0 0 -0.457031,0.378906 l -0.255859,1.417969 -0.253907,1.419922 a 0.63306269,0.52531255 44.939588 0 0 0.177735,0.546875 0.63306269,0.52531255 44.939588 0 0 0.597656,0.228516 l 1.419922,-0.25586 1.417969,-0.255859 a 0.63306269,0.52531255 44.939588 0 0 0.171875,-0.941407 L 58.628906,29.375 57.464844,28.212891 A 0.63306269,0.52531255 44.939588 0 0 56.974609,28 Z"/>
 </g>
 <g id="size-diagonal-tl2br" transform="matrix(-3.7795277,0,0,3.7795277,67.999998,-944.5195)">
  <rect id="rect1090" style="opacity:0.001" width="4.233" height="4.233" x="13.76" y="254.14"/>
  <path id="path1092" style="opacity:1;fill:#eff0f1" transform="matrix(0.26458332,0,0,0.26458332,-0.5291667,249.37493)" d="m 57.998047,19.998047 c 0,0 -0.480157,0.0015 -0.972656,0.25 -0.492499,0.248693 -1.027344,0.838718 -1.027344,1.75 v 4.503906 a 0.50196853,0.50196853 0 0 0 1.003906,0 v -4.503906 c 0,-0.574828 0.215157,-0.725529 0.472656,-0.855469 0.254174,-0.128126 0.516518,-0.140247 0.523438,-0.140625 h 4.503906 a 0.50195908,0.50195908 0 0 0 0,-1.003906 z M 67.332031,20 a 0.63306269,0.52531255 44.939588 0 0 -0.115234,0.0078 l -1.419922,0.25586 -1.417969,0.255859 a 0.63306269,0.52531255 44.939588 0 0 -0.171875,0.941407 l 1.164063,1.164062 1.164062,1.162109 a 0.63306269,0.52531255 44.939588 0 0 0.947266,-0.166015 l 0.255859,-1.417969 0.253907,-1.419922 A 0.63306269,0.52531255 44.939588 0 0 67.814453,20.236328 0.63306269,0.52531255 44.939588 0 0 67.332031,20 Z m 0.15625,4.994141 a 0.50196853,0.50196853 0 0 0 -0.486328,0.501953 V 30 c 0,0.574828 -0.215157,0.725529 -0.472656,0.855469 -0.254173,0.128126 -0.516517,0.140247 -0.523438,0.140625 h -4.503906 a 0.50195908,0.50195908 0 0 0 0,1.003906 h 4.503906 c 0,0 0.480158,-0.0015 0.972657,-0.25 0.492499,-0.248693 1.027343,-0.838718 1.027343,-1.75 V 25.496094 A 0.50196853,0.50196853 0 0 0 67.488281,24.994141 Z M 56.974609,28 a 0.63306269,0.52531255 44.939588 0 0 -0.457031,0.378906 l -0.255859,1.417969 -0.253907,1.419922 a 0.63306269,0.52531255 44.939588 0 0 0.177735,0.546875 0.63306269,0.52531255 44.939588 0 0 0.597656,0.228516 l 1.419922,-0.25586 1.417969,-0.255859 a 0.63306269,0.52531255 44.939588 0 0 0.171875,-0.941407 L 58.628906,29.375 57.464844,28.212891 A 0.63306269,0.52531255 44.939588 0 0 56.974609,28 Z"/>
 </g>
 <g id="unmaximize" transform="matrix(3.7795277,0,0,3.7795277,-19.999999,-944.5195)">
  <rect id="rect1096" style="opacity:0.001" width="4.233" height="4.233" x="13.76" y="254.14"/>
  <path id="path1129" style="opacity:1;fill:#eff0f1" transform="matrix(0.26458332,0,0,0.26458332,-0.5291667,249.37493)" d="m 57.992188,19.998047 c 0,0 -0.476649,0.0076 -0.966797,0.257812 -0.490148,0.250205 -1.027344,0.838125 -1.027344,1.742188 V 30 c 0,0.915666 0.533412,1.510442 1.027344,1.757812 0.49392,0.24756 0.972656,0.244141 0.972656,0.244141 h 8.003906 c 0,0 0.477693,0.01123 0.972656,-0.236328 C 67.469573,31.5192 68.001953,30.918803 68.001953,30 v -4.501953 a 0.50196853,0.50196853 0 1 0 -1.003906,0 V 30 c 0,0.586696 -0.217625,0.738167 -0.472656,0.865234 -0.255043,0.126993 -0.523438,0.13086 -0.523438,0.13086 h -8.003906 c 0,0 -0.267363,-0.0021 -0.523438,-0.13086 C 57.218546,30.737108 57.001953,30.581783 57.001953,30 v -8.001953 c 0,-0.563339 0.212825,-0.722732 0.472656,-0.855469 0.253191,-0.12926 0.509945,-0.139869 0.523438,-0.140625 h 4.503906 a 0.50195908,0.50195908 0 0 0 0,-1.003906 h -4.503906 a 0.50005,0.50005 0 0 0 -0.0059,0 z m 6.898437,0.0098 c -0.184263,0.03227 -0.334853,0.160953 -0.373047,0.371094 l -0.255859,1.417969 -0.253907,1.419922 c -0.0325,0.183685 0.03404,0.38942 0.177735,0.546875 0.1296,0.142488 0.307203,0.229525 0.482422,0.236328 0.03931,0.0016 0.07793,-0.0014 0.115234,-0.0078 l 1.419922,-0.25586 1.417969,-0.255859 c 0.417694,-0.07559 0.51286,-0.5966 0.171875,-0.941407 L 66.628906,21.375 65.464844,20.212891 C 65.29297,20.039599 65.074888,19.975545 64.890625,20.007812 Z"/>
 </g>
 <g id="maximize" transform="matrix(3.7795277,0,0,3.7795277,-35.999997,-944.5195)">
  <rect id="rect1119" style="opacity:0.001" width="4.233" height="4.233" x="13.76" y="254.14"/>
  <path id="path1121" style="opacity:1;fill:#eff0f1" transform="matrix(0.26458332,0,0,0.26458332,-0.5291667,249.37493)" d="m 57.992188,19.998047 c 0,0 -0.476649,0.0069 -0.966797,0.257812 -0.490148,0.250205 -1.027344,0.838125 -1.027344,1.742188 V 30 c 0,0.915666 0.533416,1.510442 1.027344,1.757812 0.493923,0.24756 0.972656,0.244141 0.972656,0.244141 h 8.003906 c 0,0 0.477693,0.01123 0.972656,-0.236328 C 67.469573,31.5192 68.001953,30.918803 68.001953,30 v -4.501953 a 0.50196853,0.50196853 0 1 0 -1.003906,0 V 30 c 0,0.586696 -0.217614,0.738167 -0.472656,0.865234 -0.255043,0.126993 -0.523438,0.13086 -0.523438,0.13086 h -8.003906 c 0,0 -0.267367,-0.002 -0.523438,-0.13086 C 57.218546,30.737108 57.001953,30.581745 57.001953,30 v -8.001953 c 0,-0.563339 0.212814,-0.722732 0.472656,-0.855469 0.253191,-0.12926 0.509945,-0.139869 0.523438,-0.140625 h 4.503906 a 0.50195908,0.50195908 0 0 0 0,-1.003906 h -4.503906 a 0.50005,0.50005 0 0 0 -0.0059,0 z M 67.332031,20 c -0.03931,-0.0016 -0.07793,0.0012 -0.115234,0.0078 l -1.419922,0.25586 -1.417969,0.255859 c -0.417759,0.07559 -0.512883,0.596562 -0.171875,0.941407 l 1.164063,1.164062 1.164062,1.162109 c 0.343786,0.346583 0.870867,0.254268 0.947266,-0.166015 l 0.255859,-1.417969 0.253907,-1.419922 c 0.0325,-0.183685 -0.034,-0.389382 -0.177735,-0.546875 C 67.684853,20.09384 67.507292,20.006803 67.332031,20 Z"/>
 </g>
 <g id="status" transform="matrix(3.7795277,0,0,3.7795277,-4.0000004,-944.5195)">
  <rect id="rect1136" style="opacity:0.001" width="4.233" height="4.233" x="13.76" y="254.14"/>
  <path id="rect842" style="opacity:1;fill:#eff0f1" transform="matrix(0.26458332,0,0,0.26458332,-0.5291667,249.37493)" d="m 58,20 c -1.107999,0 -2,0.891994 -2,2 v 3 1 4 c 0,1.108006 0.892001,2 2,2 h 8 c 1.107999,0 2,-0.891994 2,-2 v -3 -1 -4 c 0,-1.108006 -0.892001,-2 -2,-2 z m 0,0.998047 V 21 h 8 c 0.553999,0 1,0.445997 1,1 v 3.998047 a 0.50195908,0.50195908 0 0 0 -0.002,0 H 66.3105 L 64.451172,22.277344 A 0.50005,0.50005 0 0 0 64,21.998047 0.50005,0.50005 0 0 0 63.542969,22.300781 l -2.576172,6.009766 -1.521485,-3.035156 a 0.50005,0.50005 0 0 0 -0.441406,-0.273438 h -2.001953 a 0.50005,0.50005 0 0 0 -0.002,0 V 24.998047 22 21.998 c 0,-0.554003 0.446001,-1 1,-1 z m 6.037109,2.689453 1.513672,3.035156 a 0.50005,0.50005 0 0 0 0.451172,0.279297 h 0.996094 a 0.50195908,0.50195908 0 0 0 0.002,0 V 29 30 c 0,0.554003 -0.446001,1 -1,1 h -8 c -0.553999,0 -1,-0.445997 -1,-1 v -1 -3 a 0.50005,0.50005 0 0 0 0.002,0 h 1.691406 l 1.498047,3 0.361328,0.726562 a 0.50005,0.50005 0 0 0 0.908204,-0.0293 l 0.0078,-0.02148 z"/>
 </g>
 <g id="return-to-source" transform="matrix(3.7795277,0,0,3.7795277,12,-944.5195)">
  <rect id="rect1158" style="opacity:0.001" width="4.233" height="4.233" x="13.76" y="254.14"/>
  <path id="path1170" style="opacity:1;fill:#eff0f1" transform="matrix(0.26458332,0,0,0.26458332,-0.5291667,249.37493)" d="m 58,20 c -1.107999,0 -2,0.891994 -2,2 v 3 1 4 c 0,1.108006 0.892001,2 2,2 H 60.552734 63.441406 66 c 1.107999,0 2,-0.891994 2,-2 v -3 -1 -4 c 0,-1.108006 -0.892001,-2 -2,-2 h -2.558594 -2.888672 z m 0,1 h 2.289062 l 0.50586,0.728516 0.722656,1.039062 A 0.55583568,0.46110688 0 0 0 62.03125,23 0.55583568,0.46110688 0 0 0 62.480469,22.767578 L 63.205078,21.728516 63.710938,21 H 66 c 0.571302,0 1,0.428724 1,1 v 4 1 3 c 0,0.571313 -0.428698,1 -1,1 h -2.289062 l -0.50586,-0.728516 -0.724609,-1.039062 A 0.55582453,0.46110688 0 0 0 62.03125,29 0.55582453,0.46110688 0 0 0 61.517578,29.232422 L 60.794922,30.271484 60.289062,31 H 58 c -0.571298,0 -1,-0.428687 -1,-1 v -4 -1 -3 c 0,-0.571276 0.428702,-1 1,-1 z m 0.941406,4.001953 a 0.99575529,1.0000214 0 0 0 0.101563,1.996094 h 5.958984 a 0.99442928,0.99868971 0 1 0 0,-1.996094 h -5.958984 a 0.99427817,0.99853792 0 0 0 -0.101563,0 z"/>
 </g>
 <g id="restore" transform="matrix(3.7795277,0,0,3.7795277,44.000004,-944.51949)">
  <rect id="rect938" style="opacity:0.001" width="4.233" height="4.233" x="13.76" y="254.14"/>
  <path id="path1073" style="opacity:1;fill:#eff0f1" transform="matrix(0.26458332,0,0,0.26458332,-0.5291667,249.37493)" d="m 61.970703,20 a 0.55582453,0.46122087 0 0 0 -0.453125,0.232422 l -0.722656,1.039062 -0.720703,1.03711 A 0.55582453,0.46122087 0 0 0 60.552734,23 h 1.445313 1.443359 a 0.55582453,0.46122087 0 0 0 0.484375,-0.691406 l -0.720703,-1.03711 -0.724609,-1.039062 A 0.55582453,0.46122087 0 0 0 62.03125,20 0.55582453,0.46122087 0 0 0 61.9707,20 Z m -3.029297,5.001953 a 0.99567403,1.0000214 0 0 0 0.101563,1.996094 h 5.958984 a 0.99434813,0.99868971 0 1 0 0,-1.996094 h -5.958984 a 0.99419702,0.99853792 0 0 0 -0.101563,0 z M 60.552734,29 a 0.55582453,0.46122087 0 0 0 -0.478515,0.691406 l 0.720703,1.03711 0.722656,1.039062 A 0.55582453,0.46122087 0 0 0 62.03125,32 0.55582453,0.46122087 0 0 0 62.480469,31.767578 l 0.724609,-1.039062 0.720703,-1.03711 A 0.55582453,0.46122087 0 0 0 63.441406,29 h -1.443359 z"/>
 </g>
 <g id="collapse" transform="matrix(3.7795277,0,0,3.7795277,-109.99994,-910.51948)">
  <rect id="rect978" style="opacity:0.001" width="4.233" height="4.233" x="50.27" y="245.14"/>
  <path id="path980" style="opacity:1;fill:#eff0f1" transform="matrix(0.26458332,0,0,0.26458332,-0.5291667,249.37493)" d="m 198.55273,-14 a 0.55582453,0.46122087 0 0 0 -0.47851,0.691406 l 0.7207,1.03711 0.72266,1.039062 A 0.55582453,0.46122087 0 0 0 200.03125,-11 a 0.55582453,0.46122087 0 0 0 0.44922,-0.232422 l 0.72461,-1.039062 0.7207,-1.03711 A 0.55582453,0.46122087 0 0 0 201.44141,-14 h -1.44336 z m -1.61132,5.0019531 a 0.99567403,1.0000214 0 0 0 0.10156,1.9960938 h 5.95898 a 0.99434813,0.99868971 0 1 0 0,-1.9960938 h -5.95898 a 0.99419702,0.99853792 0 0 0 -0.10156,0 z M 199.9707,-5 a 0.55582453,0.46122087 0 0 0 -0.45312,0.2324219 l -0.72266,1.0390625 -0.7207,1.0371094 A 0.55582453,0.46122087 0 0 0 198.55273,-2 h 1.44532 1.44336 a 0.55582453,0.46122087 0 0 0 0.48437,-0.6914062 l -0.7207,-1.0371094 -0.72461,-1.0390625 A 0.55582453,0.46122087 0 0 0 200.03125,-5 a 0.55582453,0.46122087 0 0 0 -0.0606,0 z"/>
 </g>
 <g id="delete" transform="matrix(3.7795277,0,0,3.7795277,-51.999996,-928.51954)">
  <rect id="rect1024" style="opacity:0.001" width="4.233" height="4.233" x="13.76" y="254.14"/>
  <path id="rect1026" style="opacity:1;fill:#eff0f1" transform="matrix(0.26458332,0,0,0.26458332,-0.5291667,249.37493)" d="M 60.800781,20 C 60.357582,20 60,20.357581 60,20.800781 V 22 H 57.599609 C 57.267209,22 57,22.267209 57,22.599609 v 0.800782 C 57,23.732791 57.267209,24 57.599609,24 H 58 v 6.5 c 0,0.831005 0.668999,1.5 1.5,1.5 h 6 C 66.330997,32 67,31.331005 67,30.5 V 24 h 0.400391 C 67.732791,24 68,23.732791 68,23.400391 V 22.599609 C 68,22.267209 67.732791,22 67.400391,22 H 65.5 65 V 20.800781 C 65,20.357581 64.642418,20 64.199219,20 Z M 61,21 h 3 v 1 h -3 z m -1.996094,3 h 6.998047 v 6.501953 c 0,0.294425 -0.209621,0.494141 -0.503906,0.494141 h -6 c -0.294274,0 -0.494141,-0.199867 -0.494141,-0.494141 z m 1.490235,0.992188 a 0.50005,0.50005 0 0 0 -0.05078,0.0039 A 0.50005,0.50005 0 0 0 60,25.498047 v 4 a 0.50196853,0.50196853 0 1 0 1.003906,0 v -4 a 0.50005,0.50005 0 0 0 -0.509765,-0.505859 z m 1.992187,0 a 0.50005,0.50005 0 0 0 -0.04297,0.0039 A 0.50005,0.50005 0 0 0 62,25.498047 v 4 a 0.50005,0.50005 0 1 0 0.996094,0 v -4 a 0.50005,0.50005 0 0 0 -0.509766,-0.505859 z m 2,0 a 0.50005,0.50005 0 0 0 -0.04297,0.0039 A 0.50005,0.50005 0 0 0 64,25.498047 v 4 a 0.50005,0.50005 0 1 0 0.996094,0 v -4 a 0.50005,0.50005 0 0 0 -0.509766,-0.505859 z"/>
 </g>
 <g id="add" transform="matrix(3.7795277,0,0,3.7795277,-35.999997,-928.51954)">
  <rect id="rect1060" style="opacity:0.001" width="4.233" height="4.233" x="13.76" y="254.14"/>
  <path id="path1064" style="opacity:1;fill:#eff0f1" d="m 15.870283,254.66663 a 0.26456409,0.26319194 0 0 0 -0.268175,0.2762 v 1.0435 h -1.046353 a 0.26352097,0.2634504 0 0 0 -0.02739,0 0.26391246,0.26384179 0 0 0 0.02739,0.52664 h 1.046353 v 1.05638 a 0.26421179,0.26284146 0 1 0 0.528085,0 v -1.05638 h 1.059269 a 0.26356103,0.26349044 0 1 0 0,-0.52664 h -1.059269 v -1.0435 a 0.26417163,0.26280151 0 0 0 0,-0.0273 0.26456409,0.26319194 0 0 0 -0.25991,-0.24889 z"/>
 </g>
 <g id="remove" transform="matrix(3.7795277,0,0,3.7795277,-57.999997,-927.5197)">
  <rect id="rect1068" style="opacity:0.001" width="4.233" height="4.233" x="23.81" y="253.87"/>
  <path id="path1070" style="opacity:1;fill:#eff0f1" d="m 24.591261,255.72534 a 0.26393658,0.26458827 0 0 0 0.02723,0.52847 h 2.633891 a 0.26358511,0.26423593 0 1 0 0,-0.52847 h -2.633891 a 0.26354505,0.26419577 0 0 0 -0.02723,0 z"/>
 </g>
 <g id="filter" transform="matrix(3.7795277,0,0,3.7795277,-3.9999984,-928.51954)">
  <rect id="rect1083" style="opacity:0.001" width="4.233" height="4.233" x="13.76" y="254.14"/>
  <path id="path4545" style="opacity:1;fill:#eff0f1" d="m 14.816666,254.66659 -0.264583,0.26458 v 0.26458 l 0.79375,1.39165 v 0.72502 5.3e-4 l 0.79375,0.52813 v 5.3e-4 h 0.264583 v -0.14262 -1.11157 l 0.79375,-1.39167 v -0.26458 l -0.264583,-0.26458 z m 0,0.26458 h 2.116667 v 0.1943 l -0.79375,1.39268 v 5.3e-4 0.26459 0.73949 l -0.529167,-0.35193 v -0.65216 -5.3e-4 l -0.79375,-1.39268 z m 0.264584,0.26458 0.529166,0.52917 v -0.26458 L 15.875,255.19575 Z"/>
 </g>
 <g id="close" transform="matrix(3.7795277,0,0,3.7795277,12.000001,-928.51954)">
  <rect id="rect1092" style="opacity:0.001" width="4.233" height="4.233" x="13.76" y="254.14"/>
  <path id="path961" style="opacity:1;fill:#eff0f1" transform="matrix(0.26458332,0,0,0.26458332,-0.5291667,249.37493)" d="m 62,20 a 6.0000003,6.0000003 0 0 0 -6,6 6.0000003,6.0000003 0 0 0 6,6 6.0000003,6.0000003 0 0 0 6,-6 6.0000003,6.0000003 0 0 0 -6,-6 z m 0,1 a 5,5 0 0 1 5,5 5,5 0 0 1 -5,5 5,5 0 0 1 -5,-5 5,5 0 0 1 5,-5 z m 1.978516,2 a 0.99520404,0.99716875 0 0 0 -0.01172,0.002 0.99520404,0.99716875 0 0 0 -0.683594,0.302735 l -1.285156,1.287109 -1.283203,-1.287109 A 0.99520404,0.99716875 0 0 0 60,23.001953 0.99520404,0.99716875 0 0 0 59.302734,24.716797 l 1.285157,1.289062 -1.285157,1.28711 a 0.99821769,1.0001884 0 1 0 1.41211,1.414062 l 1.283203,-1.289062 1.285156,1.289062 a 0.99821734,1.000188 0 1 0 1.412109,-1.414062 l -1.285156,-1.28711 1.285156,-1.289062 A 0.99520404,0.99716875 0 0 0 63.978516,23 Z"/>
 </g>
 <g id="help" transform="matrix(3.7795277,0,0,3.7795277,-221.99994,-894.51954)">
  <rect id="rect1114" style="opacity:0.001" width="4.233" height="4.233" x="79.9" y="245.14"/>
  <path id="path1116" style="opacity:1;fill:#eff0f1" d="m 82.020815,245.67077 c -0.876752,0 -1.5875,0.71074 -1.5875,1.5875 0,0.87675 0.710748,1.5875 1.5875,1.5875 0.876752,0 1.5875,-0.71075 1.5875,-1.5875 0,-0.87676 -0.710748,-1.5875 -1.5875,-1.5875 z m 0,0.26458 c 0.730627,0 1.322916,0.59229 1.322916,1.32292 0,0.73062 -0.592289,1.32291 -1.322916,1.32291 -0.730627,0 -1.322917,-0.59229 -1.322917,-1.32291 0,-0.73063 0.59229,-1.32292 1.322917,-1.32292 z m 0,0.26458 c -0.438376,0 -0.79375,0.35538 -0.79375,0.79375 h 0.529167 c 0,-0.14612 0.118457,-0.26458 0.264583,-0.26458 0.146125,0 0.264583,0.11846 0.264583,0.26458 0,0.14613 -0.118899,0.22422 -0.208129,0.31163 -0.144759,0.14182 -0.321037,0.16487 -0.321037,0.48212 h 0.264583 0.264583 c 0.08563,-0.3301 0.521262,-0.47935 0.529167,-0.79375 0,-0.43837 -0.355374,-0.79375 -0.79375,-0.79375 z m -0.264583,1.85209 v 0.26458 h 0.529166 v -0.26458 z"/>
 </g>
 <g id="showbackground" transform="matrix(3.7795277,0,0,3.7795277,44.000001,-928.51948)">
  <rect id="rect1143" style="opacity:0.001" width="4.233" height="4.233" x="13.76" y="254.14"/>
  <path id="path1155" style="opacity:1;fill:#eff0f1" transform="matrix(0.26458332,0,0,0.26458332,-0.5291667,249.37493)" d="m 58,20 c -1.107999,0 -2,0.891994 -2,2 v 3 1 4 c 0,1.108006 0.892001,2 2,2 h 8 c 1.107999,0 2,-0.891994 2,-2 v -3 -1 -4 c 0,-1.108006 -0.892001,-2 -2,-2 z m 0.666016,1 h 6.667968 C 66.257319,21 67,21.742677 67,22.666016 V 26 v 0.833984 2.5 C 67,30.257323 66.257319,31 65.333984,31 H 58.666016 C 57.742685,31 57,30.257323 57,29.333984 V 26 v -0.833984 -2.5 C 57,21.742677 57.742685,21 58.666016,21 Z m 0.667968,1 C 58.595317,22 58,22.595313 58,23.333984 v 2 V 26 28.666016 C 58,29.404687 58.595317,30 59.333984,30 h 5.332032 C 65.404683,30 66,29.404687 66,28.666016 v -2 V 26 23.333984 C 66,22.595313 65.404683,22 64.666016,22 Z m 2.888672,1 c 0.604644,0 1.051815,0.155251 1.341797,0.464844 C 63.854435,23.774477 64,24.2682 64,24.945312 V 29 H 63.40625 L 63.25,28.068359 h -0.03711 c -0.215941,0.316977 -0.44492,0.551858 -0.685547,0.703125 -0.24061,0.15135 -0.56709,0.226563 -0.980469,0.226563 -0.4504,0 -0.822988,-0.136218 -1.119141,-0.410156 C 60.131567,28.306813 60,27.869967 60,27.279297 c 0,-0.57627 0.177706,-1.166847 0.566406,-1.476563 0.3887,-0.316976 0.986669,-0.482917 1.794922,-0.511718 l 0.841797,-0.03125 v -0.207032 c 0,-0.482645 -0.08864,-0.816616 -0.267578,-1.003906 -0.178937,-0.187249 -0.432766,-0.28125 -0.759766,-0.28125 -0.259128,0 -0.505781,0.0472 -0.740234,0.140625 -0.23446,0.08648 -0.452648,0.187285 -0.65625,0.302735 l -0.25,-0.712891 c 0.21594,-0.136663 0.471422,-0.253828 0.767578,-0.347656 C 61.593042,23.049627 61.901824,23 62.222656,23 Z m 0.970703,3.003906 -0.730468,0.0332 c -0.616986,0.02856 -1.046486,0.135956 -1.28711,0.337891 -0.234459,0.201935 -0.351562,0.548739 -0.351562,0.916016 0,0.32432 0.08343,0.561623 0.25,0.71289 0.172752,0.15135 0.392897,0.226563 0.658203,0.226563 0.413379,0 0.757512,-0.132047 1.035156,-0.398438 0.283798,-0.273734 0.425781,-0.692037 0.425781,-1.253906 z"/>
 </g>
</svg>
