<svg xmlns="http://www.w3.org/2000/svg" xmlns:xlink="http://www.w3.org/1999/xlink" id="svg129" width="308" height="268" version="1">
 <defs id="defs15">
  <linearGradient id="linearGradient985">
   <stop id="stop981" style="stop-color:#000000;stop-opacity:1" offset="0"/>
   <stop id="stop983" style="stop-color:#000000;stop-opacity:0" offset="1"/>
  </linearGradient>
  <radialGradient id="radialGradient987" cx="129.71" cy="143.29" r="11" fx="129.71" fy="143.29" gradientTransform="matrix(3.1045739e-7,-2.6363652,2.6363645,3.104573e-7,-195.76557,388.96205)" gradientUnits="userSpaceOnUse" xlink:href="#linearGradient985"/>
  <linearGradient id="linearGradient995" x1="148" x2="148" y1="143" y2="128.5" gradientTransform="matrix(1.9999998,0,0,1.9999998,-73.999963,-238.99996)" gradientUnits="userSpaceOnUse" xlink:href="#linearGradient985"/>
  <radialGradient id="radialGradient1001" cx="129.71" cy="143.29" r="11" fx="129.71" fy="143.29" gradientTransform="matrix(-7.4080607e-8,-2.6363637,-2.6363624,7.408057e-8,643.76522,388.96187)" gradientUnits="userSpaceOnUse" xlink:href="#linearGradient985"/>
  <linearGradient id="linearGradient1003" x1="148" x2="148" y1="143" y2="128.5" gradientTransform="matrix(0,1.9999998,-1.9999998,0,551.99997,-208.99996)" gradientUnits="userSpaceOnUse" xlink:href="#linearGradient985"/>
  <linearGradient id="linearGradient1007" x1="148" x2="148" y1="143" y2="128.5" gradientTransform="matrix(0,1.9999998,1.9999998,0,-103.99996,-208.99996)" gradientUnits="userSpaceOnUse" xlink:href="#linearGradient985"/>
  <radialGradient id="radialGradient1020" cx="129.71" cy="143.29" r="11" fx="129.71" fy="143.29" gradientTransform="matrix(-6.2619993e-7,2.6363633,2.6363651,6.2620036e-7,-195.76552,-210.96194)" gradientUnits="userSpaceOnUse" xlink:href="#linearGradient985"/>
  <linearGradient id="linearGradient1022" x1="148" x2="148" y1="143" y2="128.5" gradientTransform="matrix(1.9999998,0,0,-1.9999998,-73.999963,416.99997)" gradientUnits="userSpaceOnUse" xlink:href="#linearGradient985"/>
  <radialGradient id="radialGradient1024" cx="129.71" cy="143.29" r="11" fx="129.71" fy="143.29" gradientTransform="matrix(-1.01646e-7,2.6363629,-2.6363621,-1.0164597e-7,643.76518,-210.96179)" gradientUnits="userSpaceOnUse" xlink:href="#linearGradient985"/>
 </defs>
 <rect id="hint-tile-center" style="opacity:1;fill:#ff0000" width="5" height="5" x="0" y="0"/>
 <path id="topright" style="opacity:0.8;fill:#31363b" d="m 104,5.000917 v 23.999998 h 24 c 0,-13.296 -10.704,-23.999998 -24,-23.999998 z"/>
 <rect id="top" style="opacity:0.8;fill:#31363b" width="80" height="24" x="24" y="5"/>
 <rect id="center" style="opacity:0.8;fill:#31363b" width="80" height="80" x="24" y="29"/>
 <path id="topleft" style="opacity:0.8;fill:#31363b" d="M 24.000017,5.000001 V 28.999999 H 1.7081479e-5 C 1.7081479e-5,15.703999 10.704017,5.000001 24.000017,5.000001 Z"/>
 <path id="bottomright" style="opacity:0.8;fill:#31363b" d="m 104,132.99908 v -24 h 24 c 0,13.29602 -10.704,24 -24,24 z"/>
 <rect id="bottom" style="opacity:0.8;fill:#31363b" width="80" height="24" x="24" y="-133" transform="scale(1,-1)"/>
 <path id="bottomleft" style="opacity:0.8;fill:#31363b" d="M 24.000017,133 V 109 H 1.7081479e-5 c 0,13.29602 10.703999918521,24 23.999999918521,24 z"/>
 <rect id="left" style="opacity:0.8;fill:#31363b" width="80" height="24" x="29" y="-24" transform="rotate(90)"/>
 <rect id="right" style="opacity:0.8;fill:#31363b" width="80" height="24" x="29" y="-128" transform="rotate(90)"/>
 <rect id="hint-top-margin" style="opacity:1;fill:#ff0000" width="8" height="4" x="58" y="5"/>
 <rect id="hint-left-margin" style="opacity:1;fill:#ff0000" width="4" height="8" x="0" y="63"/>
 <rect id="hint-right-margin" style="opacity:1;fill:#ff0000" width="4" height="8" x="124" y="63"/>
 <rect id="hint-bottom-margin" style="opacity:1;fill:#ff0000" width="8" height="4" x="60" y="129"/>
 <path id="mask-topright" style="opacity:1" d="m 104,140.00092 v 23.99999 h 24 c 0,-13.29599 -10.704,-23.99999 -24,-23.99999 z"/>
 <rect id="mask-top" style="opacity:1" width="80" height="24" x="24" y="140"/>
 <rect id="mask-center" style="opacity:1" width="80" height="80" x="24" y="164"/>
 <path id="mask-topleft" style="opacity:1" d="m 24,140 v 23.99999 H 0 C 0,150.704 10.704,140 24,140 Z"/>
 <path id="mask-bottomright" style="opacity:1" d="m 104,267.99908 v -24 h 24 c 0,13.296 -10.704,24 -24,24 z"/>
 <rect id="mask-bottom" style="opacity:1" width="80" height="24" x="24" y="-268" transform="scale(1,-1)"/>
 <path id="mask-bottomleft" style="opacity:1" d="M 24,268 V 244 H 0 c 0,13.296 10.704,24 24,24 z"/>
 <rect id="mask-left" style="opacity:1" width="80" height="24" x="164" y="-24" transform="rotate(90)"/>
 <rect id="mask-right" style="opacity:1" width="80" height="24" x="164" y="-128" transform="rotate(90)"/>
 <path id="shadow-topleft" style="opacity:1;fill:url(#radialGradient987)" d="M 153,18.000002 V 49 h 7 c 0,-13.296003 10.704,-24 24,-24 v -6.999998 z"/>
 <g id="shadow-top">
  <path id="rect1029" style="opacity:0.001" d="m 184,18 h 80 v 31 h -80 z"/>
  <path id="rect953" style="opacity:1;fill:url(#linearGradient995)" d="m 184,17.999998 v 6.999998 h 80 v -6.999998 z"/>
 </g>
 <path id="shadow-topright" style="opacity:1;fill:url(#radialGradient1001)" d="M 264,18.000002 V 25 c 13.296,0 24,10.703997 24,24 h 7 V 18.000002 Z"/>
 <g id="shadow-right">
  <path id="rect1037" style="opacity:0.001" transform="rotate(90)" d="m 49,-295 h 80 v 31 H 49 Z"/>
  <path id="path999" style="opacity:1;fill:url(#linearGradient1003)" d="M 288,48.999996 V 129 h 7 V 48.999996 Z"/>
 </g>
 <g id="shadow-left">
  <path id="rect1039" style="opacity:0.001" transform="rotate(90)" d="m 49,-184 h 80 v 31 H 49 Z"/>
  <path id="path1005" style="opacity:1;fill:url(#linearGradient1007)" d="M 153,48.999996 V 129 h 7 V 48.999996 Z"/>
 </g>
 <path id="shadow-bottomleft" style="opacity:1;fill:url(#radialGradient1020)" d="m 153,129 v 31 h 31 v -7 c -13.296,0 -24,-10.704 -24,-24 z"/>
 <g id="shadow-bottom">
  <path id="rect1031" style="opacity:0.001" d="m 184,129 h 80 v 31 h -80 z"/>
  <path id="path1011" style="opacity:1;fill:url(#linearGradient1022)" d="m 184,153 v 7 h 80 v -7 z"/>
 </g>
 <path id="shadow-bottomright" style="opacity:1;fill:url(#radialGradient1024)" d="m 288,129 c 0,13.296 -10.704,24 -24,24 v 7 h 31 v -31 z"/>
 <rect id="shadow-hint-right-margin" style="opacity:1;fill:#ff0000" width="7" height="8" x="288" y="79"/>
 <rect id="shadow-hint-bottom-margin" style="opacity:1;fill:#ff0000" width="8" height="7" x="220" y="153"/>
 <rect id="shadow-hint-left-margin" style="opacity:1;fill:#ff0000" width="7" height="8" x="153" y="79"/>
 <rect id="shadow-hint-top-margin" style="opacity:1;fill:#ff0000" width="8" height="7" x="220" y="18"/>
 <rect id="shadow-center" style="opacity:0.001" width="80" height="80" x="184" y="49"/>
</svg>
