<svg xmlns="http://www.w3.org/2000/svg" xmlns:xlink="http://www.w3.org/1999/xlink" id="svg2" width="225" height="240" version="1.1">
 <defs id="defs79">
  <linearGradient id="linearGradient1016" x1="26" x2="82" y1="39.016" y2="39.016" gradientTransform="translate(364.98305,-121.3886)" gradientUnits="userSpaceOnUse" xlink:href="#linearGradient991"/>
  <linearGradient id="linearGradient991">
   <stop id="stop987" style="stop-color:#a22f66;stop-opacity:1" offset="0"/>
   <stop id="stop989" style="stop-color:#1b77a0;stop-opacity:1" offset="1"/>
  </linearGradient>
  <linearGradient id="linearGradient908" x1="407" x2="407" y1="269.36" y2="363.36" gradientUnits="userSpaceOnUse" xlink:href="#linearGradient991"/>
  <linearGradient id="linearGradient910" x1="32.998" x2="126.998" y1="363.362" y2="363.362" gradientUnits="userSpaceOnUse" xlink:href="#linearGradient991"/>
  <linearGradient id="linearGradient912" x1="407" x2="407" y1="269.36" y2="363.36" gradientUnits="userSpaceOnUse" xlink:href="#linearGradient991"/>
  <linearGradient id="linearGradient914" x1="218" x2="218" y1="269.36" y2="363.36" gradientUnits="userSpaceOnUse" xlink:href="#linearGradient991"/>
  <linearGradient id="linearGradient916" x1="32.998" x2="126.998" y1="358.362" y2="358.362" gradientUnits="userSpaceOnUse" xlink:href="#linearGradient991"/>
  <linearGradient id="linearGradient918" x1="218" x2="218" y1="269.36" y2="363.36" gradientUnits="userSpaceOnUse" xlink:href="#linearGradient991"/>
  <linearGradient id="linearGradient920" x1="269" x2="363" y1="432.36" y2="432.36" gradientUnits="userSpaceOnUse" xlink:href="#linearGradient991"/>
  <linearGradient id="linearGradient922" x1="33" x2="127" y1="358.36" y2="358.36" gradientUnits="userSpaceOnUse" xlink:href="#linearGradient991"/>
  <linearGradient id="linearGradient924" x1="269" x2="363" y1="432.36" y2="432.36" gradientUnits="userSpaceOnUse" xlink:href="#linearGradient991"/>
  <linearGradient id="linearGradient932" x1="276" x2="370" y1="227.36" y2="227.36" gradientUnits="userSpaceOnUse" xlink:href="#linearGradient991"/>
  <linearGradient id="linearGradient934" x1="33" x2="127" y1="362.36" y2="362.36" gradientUnits="userSpaceOnUse" xlink:href="#linearGradient991"/>
  <linearGradient id="linearGradient936" x1="276" x2="370" y1="226.36" y2="226.36" gradientUnits="userSpaceOnUse" xlink:href="#linearGradient991"/>
 </defs>
 <rect id="hint-tile-center" style="opacity:1;fill:#ff0000" width="40" height="40" x="0" y="-40"/>
 <g id="south-active-tab-top" style="opacity:0.8" transform="matrix(1,0,0,0.99998568,36.00001,-136.35495)">
  <path id="rect3003" style="opacity:1;fill:url(#linearGradient922)" d="m 40,359.36218 h 80 v 3 H 40 Z"/>
 </g>
 <g id="south-active-tab-topleft" style="opacity:0.8" transform="matrix(1,0,0,0.99925135,36.00001,-136.08883)">
  <rect id="rect3073-5" style="opacity:0.001" width="10" height="3" x="30" y="359.36"/>
  <path id="rect3542" style="opacity:1;fill:url(#linearGradient920)" transform="matrix(1,0,0,1.0007492,-236.00001,-74.326798)" d="m 270.5,433.36133 a 1.5,1.5 0 0 0 -1.5,1.5 1.5,1.5 0 0 0 1.5,1.5 h 5.5 v -2.9961 z"/>
 </g>
 <g id="south-active-tab-topright" style="opacity:0.8" transform="matrix(1,0,0,0.99925135,36.00001,-136.08883)">
  <rect id="rect3073-45" style="opacity:0.001" width="10" height="3" x="120" y="359.36"/>
  <path id="rect3542-9" style="opacity:1;fill:url(#linearGradient924)" transform="matrix(1,0,0,1.0007492,-236.00001,-74.326798)" d="m 361.5,433.36133 a 1.5,1.5 0 0 0 -0.0527,0.002 c -0.10346,0 -5.44726,-2e-5 -5.44727,0.002 v 2.99805 h 5.5 v -0.002 a 1.5,1.5 0 0 0 1.5,-1.5 1.5,1.5 0 0 0 -1.5,-1.5 z"/>
 </g>
 <rect id="south-active-tab-left" style="opacity:0.001" width="10" height="12" x="66" y="224"/>
 <rect id="south-active-tab-center" style="opacity:0.001" width="80" height="12" x="76" y="224"/>
 <rect id="south-active-tab-right" style="opacity:0.001" width="10" height="12" x="156" y="224"/>
 <rect id="south-active-tab-bottomright" style="opacity:0.001" width="10" height="4" x="156" y="236"/>
 <rect id="south-active-tab-bottom" style="opacity:0.001" width="80" height="4" x="76" y="236"/>
 <rect id="south-active-tab-bottomleft" style="opacity:0.001" width="10" height="4" x="66" y="236"/>
 <rect id="south-active-tab-hint-left-margin" style="opacity:1;fill:#ff0000" width="6" height="5" x="66" y="227"/>
 <rect id="south-active-tab-hint-right-margin" style="opacity:1;fill:#ff0000" width="6" height="5" x="160" y="227"/>
 <rect id="south-active-tab-hint-top-margin" style="opacity:1;fill:#ff0000" width="5" height="8" x="114" y="223"/>
 <rect id="south-active-tab-hint-bottom-margin" style="opacity:1;fill:#ff0000" width="5" height="4" x="114" y="236"/>
 <rect id="east-active-tab-bottom" style="opacity:0.001" width="10" height="12" x="-155.7" y="209" transform="rotate(-90)"/>
 <rect id="east-active-tab-center" style="opacity:0.001" width="80" height="12" x="-145.7" y="209" transform="rotate(-90)"/>
 <rect id="east-active-tab-top" style="opacity:0.001" width="10" height="12" x="-66" y="209" transform="rotate(-90)"/>
 <rect id="east-active-tab-topright" style="opacity:0.001" width="10" height="4" x="-66" y="221" transform="rotate(-90)"/>
 <rect id="east-active-tab-right" style="opacity:0.001" width="80" height="4" x="-145.7" y="221" transform="rotate(-90)"/>
 <rect id="east-active-tab-bottomright" style="opacity:0.001" width="10" height="4" x="-155.7" y="221" transform="rotate(-90)"/>
 <rect id="east-active-tab-hint-bottom-margin" style="opacity:1;fill:#ff0000" width="6" height="5" x="-156" y="212" transform="rotate(-90)"/>
 <rect id="east-active-tab-hint-top-margin" style="opacity:1;fill:#ff0000" width="6" height="5" x="-62" y="212" transform="rotate(-90)"/>
 <g id="east-active-tab-left" style="opacity:0.8" transform="rotate(90,272.18011,298.18231)">
  <path id="rect3003-5-6" style="opacity:1;fill:url(#linearGradient910)" d="m 40,359.36218 h 80 v 3 H 40 Z"/>
 </g>
 <rect id="east-active-tab-hint-left-margin" style="opacity:1;fill:#ff0000" width="5" height="8" x="-102" y="208" transform="rotate(-90)"/>
 <rect id="east-active-tab-hint-right-margin" style="opacity:1;fill:#ff0000" width="5" height="4" x="-102" y="221" transform="rotate(-90)"/>
 <rect id="west-active-tab-top" style="opacity:0.001" width="10" height="12" x="56" y="-16" transform="rotate(90)"/>
 <rect id="west-active-tab-center" style="opacity:0.001" width="80" height="12" x="66" y="-16" transform="rotate(90)"/>
 <rect id="west-active-tab-bottom" style="opacity:0.001" width="10" height="12" x="146" y="-16" transform="rotate(90)"/>
 <rect id="west-active-tab-bottomleft" style="opacity:0.001" width="10" height="4" x="146" y="-4" transform="rotate(90)"/>
 <rect id="west-active-tab-left" style="opacity:0.001" width="80" height="4" x="66" y="-4" transform="rotate(90)"/>
 <rect id="west-active-tab-topleft" style="opacity:0.001" width="10" height="4" x="56" y="-4" transform="rotate(90)"/>
 <rect id="west-active-tab-hint-top-margin" style="opacity:1;fill:#ff0000" width="6" height="5" x="56" y="-13" transform="rotate(90)"/>
 <rect id="west-active-tab-hint-bottom-margin" style="opacity:1;fill:#ff0000" width="6" height="5" x="150" y="-13" transform="rotate(90)"/>
 <g id="west-active-tab-right" style="opacity:0.8" transform="rotate(90,175.17999,201.18219)">
  <path id="rect3003-5" style="opacity:1;fill:url(#linearGradient916)" d="m 40,359.36218 h 80 v 3 H 40 Z"/>
 </g>
 <g id="west-active-tab-topright" style="opacity:0.8" transform="matrix(0,1,-0.99926566,0,376.09609,26.002195)">
  <rect id="rect3073-5-5" style="opacity:0.001" width="10" height="3" x="30" y="359.36"/>
  <path id="rect3542-0" style="opacity:1;fill:url(#linearGradient914)" transform="matrix(0,-1.0007349,1,0,-236.36218,576.51945)" d="m 215.5,269.36133 a 1.5,1.5 0 0 0 -1.5,1.5 c 0,0 0.002,5.50001 0,5.5 h 2.99805 l 0.002,-5.5 a 1.5,1.5 0 0 0 -1.5,-1.5 z"/>
 </g>
 <g id="west-active-tab-bottomright" style="opacity:0.8" transform="matrix(0,1,-0.99926566,0,376.09609,26.002195)">
  <rect id="rect3073-45-07" style="opacity:0.001" width="10" height="3" x="120" y="359.36"/>
  <path id="rect3542-9-4" style="opacity:1;fill:url(#linearGradient918)" transform="matrix(0,-1.0007349,1,0,-236.36218,576.51945)" d="m 214,356.36133 c 0.002,10e-6 0,5.5 0,5.5 a 1.5,1.5 0 0 0 1.5,1.5 1.5,1.5 0 0 0 1.5,-1.5 l -0.002,-5.5 z"/>
 </g>
 <rect id="west-active-tab-hint-right-margin" style="opacity:1;fill:#ff0000" width="5" height="8" x="97" y="-17" transform="rotate(90)"/>
 <rect id="west-active-tab-hint-left-margin" style="opacity:1;fill:#ff0000" width="5" height="4" x="97" y="-4" transform="rotate(90)"/>
 <rect id="north-active-tab-right" style="opacity:0.001" width="10" height="12" x="-173" y="-16" transform="scale(-1)"/>
 <rect id="north-active-tab-center" style="opacity:0.001" width="80" height="12" x="-163" y="-16" transform="scale(-1)"/>
 <rect id="north-active-tab-left" style="opacity:0.001" width="10" height="12" x="-83" y="-16" transform="scale(-1)"/>
 <rect id="north-active-tab-topleft" style="opacity:0.001" width="10" height="4" x="-83" y="-4" transform="scale(-1)"/>
 <rect id="north-active-tab-top" style="opacity:0.001" width="80" height="4" x="-163" y="-4" transform="scale(-1)"/>
 <rect id="north-active-tab-topright" style="opacity:0.001" width="10" height="4" x="-173" y="-4" transform="scale(-1)"/>
 <rect id="north-focus-hint-right-margin" style="opacity:1;fill:#ff0000" width="6" height="5" x="-173" y="-13" transform="scale(-1)"/>
 <rect id="north-focus-hint-left-margin" style="opacity:1;fill:#ff0000" width="6" height="5" x="-79" y="-13" transform="scale(-1)"/>
 <g id="north-active-tab-bottom" style="opacity:0.8" transform="translate(43,-345.36012)">
  <path id="rect3003-6" style="opacity:1;fill:url(#linearGradient934)" d="m 40,359.36218 h 80 v 3 H 40 Z"/>
 </g>
 <rect id="north-focus-hint-bottom-margin" style="opacity:1;fill:#ff0000" width="5" height="8" x="-119" y="-17" transform="scale(-1)"/>
 <rect id="north-focus-hint-top-margin" style="opacity:1;fill:#ff0000" width="5" height="4" x="-119" y="-4" transform="scale(-1)"/>
 <g id="north-active-tab-bottomleft" style="opacity:0.8" transform="matrix(1,0,0,0.99926566,43,-345.09403)">
  <rect id="rect3073-5-7" style="opacity:0.001" width="10" height="3" x="30" y="359.36"/>
  <path id="rect3542-3" style="opacity:1;fill:url(#linearGradient936)" transform="matrix(1,0,0,1.0007349,-243,134.83306)" d="m 277.5,224.36133 a 1.5,1.5 0 0 0 -1.5,1.5 1.5,1.5 0 0 0 1.5,1.5 c 0,0 5.50001,-4.2e-4 5.5,0 v -3 z"/>
 </g>
 <g id="north-active-tab-bottomright" style="opacity:0.8" transform="matrix(1,0,0,0.99927074,-200,-213.19212)">
  <rect id="rect3073-45-6" style="opacity:0.001" width="10" height="3" x="363" y="227.36"/>
  <rect id="rect3073-45-0" style="opacity:0.001" width="10" height="3" x="363" y="227.36"/>
  <path id="rect3542-9-8" style="opacity:1;fill:url(#linearGradient932)" transform="matrix(1,0,0,1.0007298,0,2.8342025)" d="m 368.5,224.36133 c 0,0 -5.5,0.002 -5.5,0.004 v 2.9961 h 5.5 a 1.5,1.5 0 0 0 1.5,-1.5 1.5,1.5 0 0 0 -1.5,-1.5 z"/>
 </g>
 <g id="east-active-tab-topleft" style="opacity:0.8" transform="matrix(0,1,-0.99926566,0,570.09633,26.002195)">
  <rect id="rect3073-5-5-1" style="opacity:0.001" width="10" height="3" x="30" y="359.36"/>
  <path id="rect3542-0-7" style="opacity:1;fill:url(#linearGradient912)" transform="matrix(0,-1.0007349,1,0,-236.36218,770.66226)" d="m 409.5,269.36133 a 1.5,1.5 0 0 0 -1.5,1.5 c 0,0 0.002,5.50001 0,5.5 h 2.99805 l 0.002,-5.5 a 1.5,1.5 0 0 0 -1.5,-1.5 z"/>
 </g>
 <g id="east-active-tab-bottomleft" style="opacity:0.8" transform="matrix(0,1,-0.99926566,0,570.09633,26.002195)">
  <rect id="rect3073-45-07-7" style="opacity:0.001" width="10" height="3" x="120" y="359.36"/>
  <path id="rect3542-9-4-6" style="opacity:1;fill:url(#linearGradient908)" transform="matrix(0,-1.0007349,1,0,-236.36218,770.66226)" d="m 408,356.36133 v 5.5 a 1.5,1.5 0 0 0 1.5,1.5 1.5,1.5 0 0 0 1.5,-1.5 l -0.002,-5.5 z"/>
 </g>
 <rect id="hint-stretch-borders" style="opacity:1;fill:#ff0000" width="3" height="3" x="45" y="-3"/>
</svg>
