<svg xmlns="http://www.w3.org/2000/svg" xmlns:xlink="http://www.w3.org/1999/xlink" id="svg7080" width="56" height="56" version="1">
 <defs id="defs7082">
  <linearGradient id="linearGradient991">
   <stop id="stop987" style="stop-color:#a22f66;stop-opacity:1" offset="0"/>
   <stop id="stop989" style="stop-color:#1b77a0;stop-opacity:1" offset="1"/>
  </linearGradient>
  <linearGradient id="linearGradient1012" x1="242.143" x2="186.143" y1="828.857" y2="828.857" gradientUnits="userSpaceOnUse" xlink:href="#linearGradient991"/>
  <linearGradient id="linearGradient1014" x1="179.226" x2="332.06" y1="827.857" y2="827.857" gradientUnits="userSpaceOnUse" xlink:href="#linearGradient991"/>
  <linearGradient id="linearGradient1016" x1="26" x2="82" y1="39.016" y2="39.016" gradientTransform="translate(-25.99999,-11)" gradientUnits="userSpaceOnUse" xlink:href="#linearGradient991"/>
  <linearGradient id="linearGradient1018" x1="269.143" x2="325.143" y1="837.857" y2="837.857" gradientUnits="userSpaceOnUse" xlink:href="#linearGradient991"/>
  <linearGradient id="linearGradient1020" x1="269.143" x2="325.143" y1="827.857" y2="827.857" gradientUnits="userSpaceOnUse" xlink:href="#linearGradient991"/>
  <linearGradient id="linearGradient1022" x1="179.226" x2="332.06" y1="827.857" y2="827.857" gradientUnits="userSpaceOnUse" xlink:href="#linearGradient991"/>
  <linearGradient id="linearGradient1024" x1="186.143" x2="242.143" y1="827.857" y2="827.857" gradientUnits="userSpaceOnUse" xlink:href="#linearGradient991"/>
  <linearGradient id="linearGradient1026" x1="186.143" x2="242.143" y1="837.857" y2="837.857" gradientUnits="userSpaceOnUse" xlink:href="#linearGradient991"/>
  <linearGradient id="linearGradient1028" x1="325.143" x2="269.143" y1="828.857" y2="828.857" gradientUnits="userSpaceOnUse" xlink:href="#linearGradient991"/>
  <linearGradient id="linearGradient1016-7" x1="26" x2="82" y1="39.016" y2="39.016" gradientTransform="translate(32.00001,-11.000109)" gradientUnits="userSpaceOnUse" xlink:href="#linearGradient991"/>
  <linearGradient id="linearGradient917" x1="186.143" x2="242.143" y1="837.857" y2="837.857" gradientUnits="userSpaceOnUse" xlink:href="#linearGradient991"/>
  <linearGradient id="linearGradient919" x1="186.143" x2="242.143" y1="827.857" y2="827.857" gradientUnits="userSpaceOnUse" xlink:href="#linearGradient991"/>
  <linearGradient id="linearGradient921" x1="179.226" x2="332.06" y1="827.857" y2="827.857" gradientUnits="userSpaceOnUse" xlink:href="#linearGradient991"/>
  <linearGradient id="linearGradient923" x1="269.143" x2="325.143" y1="827.857" y2="827.857" gradientUnits="userSpaceOnUse" xlink:href="#linearGradient991"/>
  <linearGradient id="linearGradient925" x1="269.143" x2="325.143" y1="837.857" y2="837.857" gradientUnits="userSpaceOnUse" xlink:href="#linearGradient991"/>
  <linearGradient id="linearGradient927" x1="242.143" x2="186.143" y1="828.857" y2="828.857" gradientUnits="userSpaceOnUse" xlink:href="#linearGradient991"/>
  <linearGradient id="linearGradient929" x1="179.226" x2="332.06" y1="827.857" y2="827.857" gradientUnits="userSpaceOnUse" xlink:href="#linearGradient991"/>
  <linearGradient id="linearGradient931" x1="325.143" x2="269.143" y1="828.857" y2="828.857" gradientUnits="userSpaceOnUse" xlink:href="#linearGradient991"/>
  <linearGradient id="linearGradient1016-6" x1="26" x2="82" y1="39.016" y2="39.016" gradientTransform="translate(90,-11)" gradientUnits="userSpaceOnUse" xlink:href="#linearGradient991"/>
  <linearGradient id="linearGradient1008" x1="186.143" x2="242.143" y1="837.857" y2="837.857" gradientUnits="userSpaceOnUse" xlink:href="#linearGradient991"/>
  <linearGradient id="linearGradient1010" x1="186.143" x2="242.143" y1="827.857" y2="827.857" gradientUnits="userSpaceOnUse" xlink:href="#linearGradient991"/>
  <linearGradient id="linearGradient1013" x1="179.226" x2="332.06" y1="827.857" y2="827.857" gradientUnits="userSpaceOnUse" xlink:href="#linearGradient991"/>
  <linearGradient id="linearGradient1015" x1="269.143" x2="325.143" y1="827.857" y2="827.857" gradientUnits="userSpaceOnUse" xlink:href="#linearGradient991"/>
  <linearGradient id="linearGradient1017" x1="269.143" x2="325.143" y1="837.857" y2="837.857" gradientUnits="userSpaceOnUse" xlink:href="#linearGradient991"/>
  <linearGradient id="linearGradient1019" x1="242.143" x2="186.143" y1="828.857" y2="828.857" gradientUnits="userSpaceOnUse" xlink:href="#linearGradient991"/>
  <linearGradient id="linearGradient1021" x1="179.226" x2="332.06" y1="827.857" y2="827.857" gradientUnits="userSpaceOnUse" xlink:href="#linearGradient991"/>
  <linearGradient id="linearGradient1023" x1="325.143" x2="269.143" y1="828.857" y2="828.857" gradientUnits="userSpaceOnUse" xlink:href="#linearGradient991"/>
 </defs>
 <path id="selected-center" style="opacity:0.8;fill:url(#linearGradient1016)" d="m 4.00001,4.01572 v 48 h 48 v -48 z"/>
 <g id="selected-left" style="opacity:0.8" transform="matrix(1,0,0,3,-186.14284,-2485.5713)">
  <path id="path4119" style="opacity:1;fill:url(#linearGradient1026)" d="m 186.14285,829.85712 v 16 h 4 v -16 z"/>
 </g>
 <g id="selected-topleft" style="opacity:0.8" transform="translate(-186.14284,-825.85718)">
  <path id="path4131" style="opacity:1;fill:url(#linearGradient1024)" d="m 186.14285,829.8571 h 4 v -4 h -1.46875 c -1.40502,0 -2.53125,1.11588 -2.53125,2.53125 z"/>
 </g>
 <g id="selected-top" style="opacity:0.8" transform="matrix(0.36641221,0,0,1,-65.67066,-825.85714)">
  <path id="path4143" style="opacity:1;fill:url(#linearGradient1022)" d="m 190.14286,825.85714 v 4 h 131 v -4 z"/>
 </g>
 <g id="selected-topright" style="opacity:0.8" transform="translate(-269.14284,-825.85714)">
  <path id="path4155" style="opacity:1;fill:url(#linearGradient1020)" d="m 321.14285,825.85714 v 4 h 4 v -1.46875 c 0,-1.40502 -1.11588,-2.53125 -2.53125,-2.53125 z"/>
 </g>
 <g id="selected-right" style="opacity:0.8" transform="matrix(1,0,0,3.0000017,-269.14284,-2485.5728)">
  <path id="path4167" style="opacity:1;fill:url(#linearGradient1018)" d="m 325.14286,829.85712 v 16 h -4 v -16 z"/>
 </g>
 <g id="selected-bottomright" style="opacity:0.8" transform="rotate(180,121.07143,440.92855)">
  <path id="path4131-3" style="opacity:1;fill:url(#linearGradient1012)" d="m 186.14285,829.8571 h 4 v -4 h -1.46875 c -1.40502,0 -2.53125,1.11588 -2.53125,2.53125 z"/>
 </g>
 <g id="selected-bottom" style="opacity:0.8" transform="matrix(0.36641221,0,0,-1,-65.67065,881.85714)">
  <path id="path4143-6" style="opacity:1;fill:url(#linearGradient1014)" d="m 190.14286,825.85714 v 4 h 131 v -4 z"/>
 </g>
 <g id="selected-bottomleft" style="opacity:0.8" transform="rotate(180,162.57143,440.92857)">
  <path id="path4155-5" style="opacity:1;fill:url(#linearGradient1028)" d="m 321.14285,825.85714 v 4 h 4 v -1.46875 c 0,-1.40502 -1.11588,-2.53125 -2.53125,-2.53125 z"/>
 </g>
 <rect id="hint-stretch-borders" style="opacity:1;fill:#ff0000" width="4" height="4" x="0" y="-5"/>
 <path id="hover-center" style="opacity:0.8;fill:url(#linearGradient1016-7)" d="M 62.00001,4.0156108 V 52.015613 h 48 V 4.0156108 Z"/>
 <g id="hover-left" style="opacity:0.8" transform="matrix(1,0,0,3,-128.14284,-2485.5714)">
  <path id="path4119-5" style="opacity:1;fill:url(#linearGradient917)" d="m 186.14285,829.85712 v 16 h 4 v -16 z"/>
 </g>
 <g id="hover-topleft" style="opacity:0.8" transform="translate(-128.14284,-825.85729)">
  <path id="path4131-35" style="opacity:1;fill:url(#linearGradient919)" d="m 186.14285,829.8571 h 4 v -4 h -1.46875 c -1.40502,0 -2.53125,1.11588 -2.53125,2.53125 z"/>
 </g>
 <g id="hover-top" style="opacity:0.8" transform="matrix(0.36641221,0,0,1,-7.670656,-825.85725)">
  <path id="path4143-62" style="opacity:1;fill:url(#linearGradient921)" d="m 190.14286,825.85714 v 4 h 131 v -4 z"/>
 </g>
 <g id="hover-topright" style="opacity:0.8" transform="translate(-211.14284,-825.85725)">
  <path id="path4155-9" style="opacity:1;fill:url(#linearGradient923)" d="m 321.14285,825.85714 v 4 h 4 v -1.46875 c 0,-1.40502 -1.11588,-2.53125 -2.53125,-2.53125 z"/>
 </g>
 <g id="hover-right" style="opacity:0.8" transform="matrix(1,0,0,3.0000017,-211.14284,-2485.5729)">
  <path id="path4167-1" style="opacity:1;fill:url(#linearGradient925)" d="m 325.14286,829.85712 v 16 h -4 v -16 z"/>
 </g>
 <g id="hover-bottomright" style="opacity:0.8" transform="rotate(180,150.07143,440.9285)">
  <path id="path4131-3-2" style="opacity:1;fill:url(#linearGradient927)" d="m 186.14285,829.8571 h 4 v -4 h -1.46875 c -1.40502,0 -2.53125,1.11588 -2.53125,2.53125 z"/>
 </g>
 <g id="hover-bottom" style="opacity:0.8" transform="matrix(0.36641221,0,0,-1,-7.670655,881.85703)">
  <path id="path4143-6-7" style="opacity:1;fill:url(#linearGradient929)" d="m 190.14286,825.85714 v 4 h 131 v -4 z"/>
 </g>
 <g id="hover-bottomleft" style="opacity:0.8" transform="rotate(180,191.57143,440.92852)">
  <path id="path4155-5-0" style="opacity:1;fill:url(#linearGradient931)" d="m 321.14285,825.85714 v 4 h 4 v -1.46875 c 0,-1.40502 -1.11588,-2.53125 -2.53125,-2.53125 z"/>
 </g>
 <path id="selected+hover-center" style="opacity:0.8;fill:url(#linearGradient1016-6)" d="m 120,4.01572 v 48 h 48 v -48 z"/>
 <g id="selected+hover-left" style="opacity:0.8" transform="matrix(1,0,0,3,-70.14285,-2485.5713)">
  <path id="path4119-0" style="opacity:1;fill:url(#linearGradient1008)" d="m 186.14285,829.85712 v 16 h 4 v -16 z"/>
 </g>
 <g id="selected+hover-topleft" style="opacity:0.8" transform="translate(-70.14285,-825.85718)">
  <path id="path4131-6" style="opacity:1;fill:url(#linearGradient1010)" d="m 186.14285,829.8571 h 4 v -4 h -1.46875 c -1.40502,0 -2.53125,1.11588 -2.53125,2.53125 z"/>
 </g>
 <g id="selected+hover-top" style="opacity:0.8" transform="matrix(0.36641221,0,0,1,50.329334,-825.85714)">
  <path id="path4143-2" style="opacity:1;fill:url(#linearGradient1013)" d="m 190.14286,825.85714 v 4 h 131 v -4 z"/>
 </g>
 <g id="selected+hover-topright" style="opacity:0.8" transform="translate(-153.14285,-825.85714)">
  <path id="path4155-6" style="opacity:1;fill:url(#linearGradient1015)" d="m 321.14285,825.85714 v 4 h 4 v -1.46875 c 0,-1.40502 -1.11588,-2.53125 -2.53125,-2.53125 z"/>
 </g>
 <g id="selected+hover-right" style="opacity:0.8" transform="matrix(1,0,0,3.0000017,-153.14285,-2485.5728)">
  <path id="path4167-18" style="opacity:1;fill:url(#linearGradient1017)" d="m 325.14286,829.85712 v 16 h -4 v -16 z"/>
 </g>
 <g id="selected+hover-bottomright" style="opacity:0.8" transform="rotate(180,179.07143,440.92855)">
  <path id="path4131-3-7" style="opacity:1;fill:url(#linearGradient1019)" d="m 186.14285,829.8571 h 4 v -4 h -1.46875 c -1.40502,0 -2.53125,1.11588 -2.53125,2.53125 z"/>
 </g>
 <g id="selected+hover-bottom" style="opacity:0.8" transform="matrix(0.36641221,0,0,-1,50.329335,881.85714)">
  <path id="path4143-6-9" style="opacity:1;fill:url(#linearGradient1021)" d="m 190.14286,825.85714 v 4 h 131 v -4 z"/>
 </g>
 <g id="selected+hover-bottomleft" style="opacity:0.8" transform="rotate(180,220.57143,440.92857)">
  <path id="path4155-5-2" style="opacity:1;fill:url(#linearGradient1023)" d="m 321.14285,825.85714 v 4 h 4 v -1.46875 c 0,-1.40502 -1.11588,-2.53125 -2.53125,-2.53125 z"/>
 </g>
</svg>
