<svg xmlns="http://www.w3.org/2000/svg" id="svg22" width="22" height="22" version="1.1">
 <g id="image-x-generic">
  <rect id="rect2" style="opacity:0.001" width="22" height="22" x="0" y="0"/>
  <path id="rect822" style="opacity:1;fill:#232627" d="m 4,4.0000001 c -1.108,0 -2,0.892 -2,2 V 16 c 0,1.108 0.892,2 2,2 h 14 c 1.108,0 2,-0.892 2,-2 V 6.0000001 c 0,-1.108 -0.892,-2 -2,-2 z m 0,1 h 14 c 0.5713,0 1,0.4287 1,1 V 11.574219 L 16.371094,8.6660157 c -0.10211,-0.11314 -0.250234,-0.1735425 -0.402344,-0.1640625 -0.12143,0.007 -0.235996,0.058801 -0.322266,0.1445313 L 10.953125,13.339844 7.300781,10.601562 C 7.126001,10.470514 6.886384,10.46627 6.708984,10.593752 L 3,13.259768 V 6.0000001 c 0,-0.5713 0.4287,-1 1,-1 z m 3,1 a 2,2 0 0 0 -2,2 A 2,2 0 0 0 7,10 2,2 0 0 0 9,8.0000001 a 2,2 0 0 0 -2,-2 z m 0,1 a 1,1 0 0 1 1,1 1,1 0 0 1 -1,1 1,1 0 0 1 -1,-1 1,1 0 0 1 1,-1 z"/>
 </g>
</svg>
