<svg xmlns="http://www.w3.org/2000/svg" id="svg26" width="22" height="22" version="1">
 <g id="internet-web-browser">
  <rect id="rect21" style="opacity:0.001" width="22" height="22" x="0" y="0"/>
  <path id="path3011" style="opacity:1;fill:#232627" d="m 11.001324,2.9999999 c -2.9246157,3.4e-4 -5.804895,1.6931117 -7.1031118,4.335929 -1.3173381,2.4511565 -1.1654201,5.5662991 0.3227187,7.9061661 1.7678809,2.889856 5.4973005,4.401956 8.7740231,3.496087 2.912142,-0.698751 5.23253,-3.202809 5.821775,-6.122483 0.516443,-2.24914 -0.08333,-4.6780639 -1.487322,-6.4959369 C 15.8576,4.176543 13.433927,2.9919266 10.997263,3.0030991 m 0,0.9993449 c 1.138278,0.00647 2.265193,0.3068228 3.281119,0.8133924 -0.514953,0.1690753 0.24179,0.661183 -0.144188,0.9205447 0.399882,0.2611008 0.934358,-0.2393778 0.381005,-0.4998974 -0.488731,-0.7715426 1.24912,0.2286964 0.347781,0.5037898 -0.306948,0.2789428 -1.055162,0.1677651 -0.445986,0.6748671 0.04914,0.4924445 -1.066826,-0.098973 -0.927166,0.711532 0.05393,0.3645332 0.203838,0.4877224 -0.337317,0.8150033 -0.426785,0.5921707 -1.223001,1.0829288 -1.090407,1.9795805 -0.214307,0.7090646 0.54316,1.0738696 1.153792,1.2266636 0.632948,-0.04161 2.14076,-0.45221 2.400025,0.340161 -0.269321,0.701412 1.179458,1.396518 0.567569,2.093073 -0.397132,0.651812 0.07816,0.878122 -0.04898,1.548846 0.489629,0.70474 -1.270699,1.737658 -1.80704,2.052693 -1.619521,0.951273 -3.695961,1.075535 -5.4779214,0.460568 -0.7004135,-0.424546 0.1576271,-0.757423 0.3788152,-0.971543 -0.306194,-0.584756 0.1712306,-0.230886 0.1758524,-0.851852 0.00634,-0.939154 1.2529798,-0.785718 1.1646888,-1.761878 0.02609,-0.58187 0.93113,-1.374249 -0.06929,-1.610359 C 9.7517442,12.305073 9.140797,12.352327 8.7490949,11.705121 8.0677437,11.614507 8.059692,10.897585 7.2626756,11.026991 6.700232,10.692173 5.9338316,11.878746 5.5906883,11.026534 5.719991,10.590035 5.4650948,9.9055759 5.0855931,9.9934246 5.2674983,9.6663708 5.2653531,9.0212494 4.8443655,9.5474161 4.1604179,10.15373 4.0033812,9.126826 4.352048,8.689152 4.7912549,8.1165504 5.8495423,8.1521703 6.2043648,8.6674715 6.1683224,7.8331245 7.0666425,7.7097204 7.4572391,7.0674953 7.9010903,6.8388338 8.3551397,6.3133823 8.7855055,6.5594695 9.0849018,6.5157412 9.3975301,6.1726208 8.9061157,6.3483452 8.6706724,6.233474 9.1379655,5.8378422 8.7180954,5.941649 9.0686348,5.8512819 9.4360949,5.7851747 9.7902065,5.7708611 9.0137368,6.23039 10.667995,6.3784855 9.9757757,5.8699991 10.18279,5.3371598 9.7821165,5.1863984 9.6449766,4.737068 9.2675869,4.7519662 9.2340352,4.8742547 9.0243319,4.4975259 8.2836284,4.0732944 9.7376648,4.6183572 9.8383432,4.2487547 10.123647,3.9320398 10.620427,4.0396559 11.001224,4.0047434 M 8.5011404,4.4734238 C 8.3365422,5.0398238 7.8562771,5.450282 7.4774994,5.6270534 7.3712248,5.3122673 7.5079732,5.2221967 7.1821303,5.1480351 7.5477485,4.8158964 8.0591185,4.6847565 8.4981199,4.4734238 m 5.3751871,0.7493087 c -0.604893,0.1712409 0.05071,0.7193316 0.179907,0.1188981 0.0016,-0.091138 -0.107439,-0.1286005 -0.180897,-0.1179983 m 2.125103,1.1541074 c 0.512518,0.2609442 1.379796,1.2697367 1.132056,1.614083 C 16.689065,7.8846419 16.836634,8.4529529 16.347369,8.1065903 15.691339,8.005546 15.685735,7.0483722 14.888437,7.4449378 14.603171,7.6456004 13.470226,7.7228588 14.319121,7.3884708 14.690662,6.9862368 15.265988,6.2571738 15.914189,6.7614871 16.108692,6.9874928 16.494997,7.43738 16.51593,6.9599963 16.369267,6.8245141 15.72135,6.6422525 16.00047,6.3745385 M 4.2831199,9.9978136 c 0.637523,0.1936344 1.0697189,1.3360864 1.6236185,1.4425844 0.7386818,-0.222783 0.071593,1.003674 -0.086652,1.313067 0.1425608,0.765758 0.6511595,1.106931 1.3332994,1.511698 0.3693366,0.844647 0.1575757,1.831434 0.3264523,2.719747 C 6.60784,16.583211 5.831854,15.765881 5.2490279,14.964905 4.3458172,13.68479 3.9145606,12.081476 4.0194418,10.523332 4.0732684,10.350486 4.0685997,10.045991 4.2871505,9.9983136"/>
 </g>
</svg>
