<svg xmlns="http://www.w3.org/2000/svg" id="svg3869" width="22" height="22" version="1.1">
 <g id="keyboard-layout">
  <rect id="rect1093" style="opacity:0.001" width="22" height="22" x="0" y="0"/>
  <path id="path1095" style="opacity:1;fill:#232627" d="M 5,5 C 3.892,5 3,5.892 3,7 v 8 c 0,1.108 0.892,2 2,2 h 11 c 1.108,0 2,-0.892 2,-2 V 7 C 18,5.892 17.108,5 16,5 Z m 0,1 h 11 c 0.571297,0 1,0.4287028 1,1 v 8 c 0,0.571297 -0.428703,1 -1,1 H 5 C 4.4287028,16 4,15.571297 4,15 V 7 C 4,6.4287028 4.4287028,6 5,6 Z M 5.5,7 C 5.223,7 5,7.223 5,7.5 v 1 C 5,8.777 5.223,9 5.5,9 h 1 C 6.777,9 7,8.777 7,8.5 v -1 C 7,7.223 6.777,7 6.5,7 Z m 3,0 C 8.223,7 8,7.223 8,7.5 v 1 C 8,8.777 8.223,9 8.5,9 h 1 C 9.777,9 10,8.777 10,8.5 v -1 C 10,7.223 9.777,7 9.5,7 Z m 3,0 C 11.223,7 11,7.223 11,7.5 v 1 C 11,8.777 11.223,9 11.5,9 h 1 C 12.777,9 13,8.777 13,8.5 v -1 C 13,7.223 12.777,7 12.5,7 Z m 3,0 C 14.223,7 14,7.223 14,7.5 v 1 C 14,8.777 14.223,9 14.5,9 h 1 C 15.777,9 16,8.777 16,8.5 v -1 C 16,7.223 15.777,7 15.5,7 Z m -9,3 C 5.223,10 5,10.223 5,10.5 v 1 C 5,11.777 5.223,12 5.5,12 h 1 C 6.777,12 7,11.777 7,11.5 v -1 C 7,10.223 6.777,10 6.5,10 Z m 3,0 C 8.223,10 8,10.223 8,10.5 v 1 C 8,11.777 8.223,12 8.5,12 h 1 C 9.777,12 10,11.777 10,11.5 v -1 C 10,10.223 9.777,10 9.5,10 Z m 3,0 C 11.223,10 11,10.223 11,10.5 v 1 c 0,0.277 0.223,0.5 0.5,0.5 h 1 c 0.277,0 0.5,-0.223 0.5,-0.5 v -1 C 13,10.223 12.777,10 12.5,10 Z m 3,0 C 14.223,10 14,10.223 14,10.5 v 1 c 0,0.277 0.223,0.5 0.5,0.5 h 1 c 0.277,0 0.5,-0.223 0.5,-0.5 v -1 C 16,10.223 15.777,10 15.5,10 Z m -9,3 C 5.223,13 5,13.223 5,13.5 v 1 C 5,14.777 5.223,15 5.5,15 h 1 C 6.777,15 7,14.777 7,14.5 v -1 C 7,13.223 6.777,13 6.5,13 Z m 3,0 C 8.223,13 8,13.223 8,13.5 v 1 C 8,14.777 8.223,15 8.5,15 h 1 2.5 0.5 c 0.277,0 0.5,-0.223 0.5,-0.5 v -1 C 13,13.223 12.777,13 12.5,13 H 12 9.5 Z m 6,0 C 14.223,13 14,13.223 14,13.5 v 1 c 0,0.277 0.223,0.5 0.5,0.5 h 1 c 0.277,0 0.5,-0.223 0.5,-0.5 v -1 C 16,13.223 15.777,13 15.5,13 Z"/>
 </g>
</svg>
