<svg xmlns="http://www.w3.org/2000/svg" id="svg12" width="22" height="22" version="1">
 <g id="knotes">
  <rect id="rect23-7" style="opacity:0.001" width="22" height="22" x="0" y="0"/>
  <path id="path829" style="opacity:1;fill:#232627" d="M 6 3 C 4.892 3 4 3.892 4 5 L 4 14 C 4 16 8 19 9 19 L 11 19 L 16 19 C 17.108 19 18 18.108 18 17 L 18 5 C 18 3.892 17.108 3 16 3 L 11 3 L 6 3 z M 6 4 L 11 4 L 16 4 C 16.571297 4 17 4.4287028 17 5 L 17 17 C 17 17.571297 16.571297 18 16 18 L 11 18 L 9 18 L 9 16 C 9 14.892 8.108 14 7 14 L 5 14 L 5 5 C 5 4.4287028 5.4287028 4 6 4 z M 7.5 6 C 6.8238387 5.99044 6.8238387 7.0095626 7.5 7 L 14.5 7 C 15.176161 7.00956 15.176161 5.9904374 14.5 6 L 7.5 6 z M 7.5 9 C 6.8238387 8.99044 6.8238387 10.009563 7.5 10 L 11.5 10 C 12.176161 10.0096 12.176161 8.9904374 11.5 9 L 7.5 9 z M 7.5 12 C 6.8238387 11.9904 6.8238387 13.009563 7.5 13 L 12.5 13 C 13.176161 13.0096 13.176161 11.990437 12.5 12 L 7.5 12 z"/>
 </g>
</svg>
