<svg xmlns="http://www.w3.org/2000/svg" id="svg2" version="1.1" viewBox="0 0 22 22">
 <g id="kruler">
  <rect id="rect4165" style="opacity:0.001" width="22" height="22" x="0" y="0"/>
  <path id="rect819" style="opacity:1;fill:#232627" d="M 4,4 C 2.338,4 1,5.338 1,7 v 4 4 c 0,1.662 1.338,3 3,3 H 21 V 17 H 4 C 2.8747028,17 2,16.125297 2,15 V 11 7 C 2,5.874703 2.8747028,5 4,5 H 21 V 4 Z M 7.984375,5.9863281 A 1.0001,1.0001 0 0 0 7,7 v 4 a 1.0001,1.0001 0 1 0 2,0 V 7 A 1.0001,1.0001 0 0 0 7.984375,5.9863281 Z m 7,0 A 1.0001,1.0001 0 0 0 14,7 v 4 a 1.0001,1.0001 0 1 0 2,0 V 7 A 1.0001,1.0001 0 0 0 14.984375,5.9863281 Z M 3.4921875,5.9921875 A 0.50005,0.50005 0 0 0 3,6.5 v 2 a 0.50005,0.50005 0 1 0 1,0 v -2 A 0.50005,0.50005 0 0 0 3.4921875,5.9921875 Z m 2,0 A 0.50005,0.50005 0 0 0 5,6.5 v 2 a 0.50005,0.50005 0 1 0 1,0 v -2 A 0.50005,0.50005 0 0 0 5.4921875,5.9921875 Z m 5.0000005,0 A 0.50005,0.50005 0 0 0 10,6.5 v 2 a 0.50005,0.50005 0 1 0 1,0 v -2 A 0.50005,0.50005 0 0 0 10.492188,5.9921875 Z m 2,0 A 0.50005,0.50005 0 0 0 12,6.5 v 2 a 0.50005,0.50005 0 1 0 1,0 v -2 A 0.50005,0.50005 0 0 0 12.492188,5.9921875 Z m 5,0 C 17.216043,5.9964964 16.995679,6.2238556 17,6.5 v 2 c -0.0096,0.6761613 1.009563,0.6761613 1,0 v -2 C 18.0044,6.2177337 17.774453,5.9877704 17.492188,5.9921875 Z m 2,0 C 19.216043,5.9964964 18.995679,6.2238556 19,6.5 v 2 c -0.0096,0.6761613 1.009563,0.6761613 1,0 v -2 C 20.0044,6.2177337 19.774453,5.9877704 19.492188,5.9921875 Z"/>
 </g>
</svg>
