<svg xmlns="http://www.w3.org/2000/svg" id="svg30" width="22" height="22" version="1">
 <g id="krusader_root">
  <rect id="rect2" style="opacity:0.001" width="22" height="22" x="0" y="0"/>
  <path id="f" style="opacity:1;fill:#da4453" d="m 5,3.0000001 c -1.108,0 -2,0.892 -2,2 V 17 c 0,1.108 0.892,2 2,2 h 11 c 1.108,0 2,-0.892 2,-2 V 5.0000001 c 0,-1.108 -0.892,-2 -2,-2 z m 0,2 h 5 V 18 H 5 C 4.428702,18 4,17.571297 4,17 V 6.0000001 c 0,-0.571297 0.428702,-1 1,-1 z m 6,0 h 5 c 0.571297,0 1,0.428703 1,1 V 17 c 0,0.571297 -0.428703,1 -1,1 h -5 z m -6,1 v 2 h 2 v -1.5 H 6 v -0.5 z m 7,0 v 2 h 2 v -1.5 h -1 v -0.5 z M 5,9.9999999 V 12 H 7 V 10.5 H 6 V 9.9999999 Z m 7,0 V 12 h 2 V 10.5 H 13 V 9.9999999 Z M 12,14 v 2 h 2 V 14.5 H 13 V 14 Z"/>
 </g>
</svg>
