<svg xmlns="http://www.w3.org/2000/svg" id="svg124" width="22" height="22" version="1.1">
 <g id="preferences-desktop-notification" transform="translate(22,-40)">
  <rect id="rect2" style="opacity:0.001" width="22" height="22" x="0" y="40"/>
  <path id="path4" style="opacity:1;fill:#3daee9" d="m 11,43 c -4.418278,0 -8,3.581722 -8,8 0,4.418278 3.581722,8 8,8 4.418278,0 8,-3.581722 8,-8 0,-4.418278 -3.581722,-8 -8,-8 z"/>
  <path id="path6" style="fill:#ffffff" d="m 10,47 v 6 h 2 v -6 z m 1,7 c -0.453152,0 -1,0.518427 -1,0.980469 C 10,55.442512 10.546848,56 11,56 11.453152,56 12,55.442512 12,54.980469 12,54.518427 11.453152,54 11,54 Z"/>
 </g>
 <g id="preferences-system-bluetooth-activated" transform="translate(66)">
  <rect id="rect14" style="opacity:0.001" width="22" height="22" x="0" y="0"/>
  <path id="path984" style="opacity:1;fill:#232627" d="M 10.492188,2.5 A 0.50005,0.50005 0 0 0 10,3 V 9.8105469 L 6.734375,7.1152344 A 0.50005,0.50005 0 1 0 6.0976562,7.8847656 L 10,11.107422 v 0.283203 l -3.7109375,2.705078 a 0.50005,0.50005 0 1 0 0.5878906,0.808594 L 10,12.628906 V 19 a 0.50005,0.50005 0 0 0 0.8125,0.390625 l 5,-4 a 0.50005,0.50005 0 0 0 0.0059,-0.775391 l -4.0059,-3.308593 3.982422,-2.9023441 a 0.50005,0.50005 0 0 0 0.05859,-0.7578125 l -5,-5 A 0.50005,0.50005 0 0 0 10.492188,2.5 Z M 11,4.2070312 14.732422,7.9394531 11.015625,10.650391 11,10.636719 Z M 4.5,10 A 1.5,1.5 0 0 0 3,11.5 1.5,1.5 0 0 0 4.5,13 1.5,1.5 0 0 0 6,11.5 1.5,1.5 0 0 0 4.5,10 Z m 13,0 A 1.5,1.5 0 0 0 16,11.5 1.5,1.5 0 0 0 17.5,13 1.5,1.5 0 0 0 19,11.5 1.5,1.5 0 0 0 17.5,10 Z m -6.5,1.931641 3.707031,3.0625 L 11,17.958984 Z"/>
 </g>
 <g id="preferences-system-windows" transform="translate(39,-5)">
  <rect id="rect100" style="opacity:0.001" width="22" height="22" x="5" y="5"/>
  <path id="path102" style="opacity:1;fill:#232627" d="M 13.5,9 C 13,9 13,9.5 13,9.5 v 8 c 0,0.5 0.5,0.5 0.5,0.5 h 10 c 0,0 0.5,0 0.5,-0.5 v -8 C 24,9 23.5,9 23.5,9 Z m 0.5,2 h 9 v 6 H 14 Z M 7.519531,14 C 7.519531,14 7,14 7,14.5 v 8 C 7,23 7.5,23 7.5,23 h 10 c 0,0 0.5,-0.02 0.5,-0.5 V 19 h -1 v 3 H 8 v -6 h 4 v -2 z"/>
 </g>
 <g id="preferences-desktop-display-randr" transform="translate(0,-291.17917)">
  <rect id="rect843" style="opacity:0.001" width="22" height="22" x="0" y="291.18"/>
  <path id="path845" style="opacity:1;fill:#232627" transform="translate(0,291.17917)" d="M 6,3 C 4.338,3 3,4.338 3,6 v 7 c 0,1.662 1.338,3 3,3 h 3 v 2 H 7.5 A 0.5,0.5 0 0 0 7,18.5 0.5,0.5 0 0 0 7.5,19 h 7 A 0.5,0.5 0 0 0 15,18.5 0.5,0.5 0 0 0 14.5,18 H 13 v -2 h 3 c 1.662,0 3,-1.338 3,-3 V 6 C 19,4.338 17.662,3 16,3 Z m 0,1 h 10 c 1.125297,0 2,0.8747 2,2 v 7 c 0,1.12529 -0.874703,2 -2,2 H 6 C 4.8747028,15 4,14.12529 4,13 V 6 C 4,4.8747 4.8747028,4 6,4 Z M 5.5,5 C 5.223,5 5,5.223 5,5.5 v 1 2 C 5,8.777 5.223,9 5.5,9 h 1 C 6.777,9 7,8.777 7,8.5 V 7 H 8.5 C 8.777,7 9,6.777 9,6.5 v -1 C 9,5.223 8.777,5 8.5,5 h -2 z m 10,5 C 15.223,10 15,10.223 15,10.5 V 12 H 13.5 C 13.223,12 13,12.223 13,12.5 v 1 c 0,0.277 0.223,0.5 0.5,0.5 h 2 1 c 0.277,0 0.5,-0.223 0.5,-0.5 v -1 -2 C 17,10.223 16.777,10 16.5,10 Z"/>
 </g>
 <g id="preferences-system-bluetooth" transform="translate(88)">
  <rect id="rect990" style="opacity:0.001" width="22" height="22" x="0" y="0"/>
  <path id="path992" style="opacity:1;fill:#232627" d="M 10.492188,2.5 A 0.50005,0.50005 0 0 0 10,3 V 9.8105469 L 6.734375,7.1152344 A 0.50005,0.50005 0 1 0 6.0976562,7.8847656 L 10,11.107422 v 0.283203 l -3.7109375,2.705078 a 0.50005,0.50005 0 1 0 0.5878906,0.808594 L 10,12.628906 V 19 a 0.50005,0.50005 0 0 0 0.8125,0.390625 l 5,-4 a 0.50005,0.50005 0 0 0 0.0059,-0.775391 l -4.0059,-3.308593 3.982422,-2.9023441 a 0.50005,0.50005 0 0 0 0.05859,-0.7578125 l -5,-5 A 0.50005,0.50005 0 0 0 10.492188,2.5 Z M 11,4.2070312 14.732422,7.9394531 11.015625,10.650391 11,10.636719 Z m 0,7.7246098 3.707031,3.0625 L 11,17.958984 Z"/>
 </g>
 <g id="preferences-system-bluetooth-inactive" transform="translate(110)">
  <rect id="rect996" style="opacity:0.001" width="22" height="22" x="0" y="0"/>
  <path id="path998" style="opacity:0.5;fill:#232627" d="M 10.492188,2.5 A 0.50005,0.50005 0 0 0 10,3 V 9.8105469 L 6.734375,7.1152344 A 0.50005,0.50005 0 1 0 6.0976562,7.8847656 L 10,11.107422 v 0.283203 l -3.7109375,2.705078 a 0.50005,0.50005 0 1 0 0.5878906,0.808594 L 10,12.628906 V 19 a 0.50005,0.50005 0 0 0 0.8125,0.390625 l 5,-4 a 0.50005,0.50005 0 0 0 0.0059,-0.775391 l -4.0059,-3.308593 3.982422,-2.9023441 a 0.50005,0.50005 0 0 0 0.05859,-0.7578125 l -5,-5 A 0.50005,0.50005 0 0 0 10.492188,2.5 Z M 11,4.2070312 14.732422,7.9394531 11.015625,10.650391 11,10.636719 Z m 0,7.7246098 3.707031,3.0625 L 11,17.958984 Z"/>
 </g>
</svg>
