<svg xmlns="http://www.w3.org/2000/svg" id="svg8" width="22" height="22" version="1.1">
 <g id="system-shutdown" transform="translate(0,-1100.5197)">
  <rect id="rect832" style="opacity:0.001" width="22" height="22" x="0" y="1100.52"/>
  <path id="path834" style="opacity:1;fill:#232627" transform="translate(0,1100.5197)" d="M 10.984375,1.9863281 A 1.0001,1.0001 0 0 0 10,3 v 8 a 1.0001,1.0001 0 1 0 2,0 V 3 A 1.0001,1.0001 0 0 0 10.984375,1.9863281 Z M 8.5507812,3.4140625 a 0.50005,0.50005 0 0 0 -0.1816406,0.03125 C 4.6885142,4.7271125 2.4647151,8.484725 3.1113281,12.328125 3.7579412,16.171525 7.0889195,18.9932 10.986328,19 14.883737,19.01 18.22474,16.196569 18.884766,12.355469 19.544791,8.5143687 17.334333,4.7496781 13.658203,3.4550781 a 0.50038707,0.50038707 0 1 0 -0.333984,0.9433594 c 3.222613,1.1348 5.152817,4.4198094 4.574219,7.7871095 C 17.319837,15.552747 14.404875,18.006 10.988281,18 7.5716881,17.99 4.6644981,15.531409 4.0976562,12.162109 3.5308146,8.7929094 5.4707105,5.5122719 8.6972656,4.3886719 A 0.50005,0.50005 0 0 0 8.5507812,3.4140625 Z"/>
 </g>
 <g id="system-save-session" transform="translate(154,-1100.5197)">
  <rect id="rect815" style="opacity:0.001" width="22" height="22" x="0" y="1100.52"/>
  <path id="path978" style="opacity:1;fill:#232627" transform="translate(0,1100.5197)" d="m 11,3 c -4.412356,0 -8,3.5877 -8,8 0,4.4124 3.587644,8 8,8 4.412356,0 8,-3.5876 8,-8 0,-4.4123 -3.587644,-8 -8,-8 z m 0,1 c 3.871916,0 7,3.1281 7,7 0,3.8719 -3.128084,7 -7,7 C 7.128084,18 4,14.8719 4,11 4,7.1281 7.128084,4 11,4 Z M 10.98437,5.9863281 A 1.0001,1.0001 0 0 0 10,7 V 9 H 9.0117188 a 1.0132801,0.92637466 0 0 0 -0.8769532,1.388672 l 0.9941406,1.572266 0.9941408,1.576171 a 1.0132801,0.92637466 0 0 0 1.753906,0 l 0.994141,-1.576171 0.99414,-1.572266 A 1.0132801,0.92637466 0 0 0 12.988281,9 H 12 V 7 A 1.0001,1.0001 0 0 0 10.984375,5.9863281 Z M 8.5,15 a 0.50005,0.50005 0 1 0 0,1 h 5 a 0.50005,0.50005 0 1 0 0,-1 z"/>
 </g>
 <g id="system-log-out" transform="translate(22,-1100.5197)">
  <rect id="rect853" style="opacity:0.001" width="22" height="22" x="0" y="1100.52"/>
  <path id="path855" style="opacity:1;fill:#232627" transform="translate(0,1100.5197)" d="m 11,3 c -4.4123557,0 -8,3.5877 -8,8 0,4.4124 3.5876443,8 8,8 4.412356,0 8,-3.5876 8,-8 0,-4.4123 -3.587644,-8 -8,-8 z m 0,1 c 3.871916,0 7,3.1281 7,7 0,3.8719 -3.128084,7 -7,7 C 7.1280844,18 4,14.8719 4,11 4,7.1281 7.1280844,4 11,4 Z m 1.992188,1.9921875 A 1.0001,1.0001 0 0 0 12.375,6.21875 l -5,4 a 1.0001,1.0001 0 0 0 0,1.5625 l 5,4 a 1.0004882,1.0004882 0 1 0 1.25,-1.5625 L 9.6015625,11 13.625,7.78125 A 1.0001,1.0001 0 0 0 12.992188,5.9921875 Z"/>
 </g>
 <g id="system-suspend" transform="translate(88,-1100.5197)">
  <rect id="rect885" style="opacity:0.001" width="22" height="22" x="0" y="1100.52"/>
  <path id="path887" style="opacity:1;fill:#232627" transform="translate(0,1100.5197)" d="m 11,3 c -4.4123557,0 -8,3.5877 -8,8 0,4.4124 3.5876443,8 8,8 4.412356,0 8,-3.5876 8,-8 0,-4.4123 -3.587644,-8 -8,-8 z m 0,1 c 3.871916,0 7,3.1281 7,7 0,3.8719 -3.128084,7 -7,7 C 7.1280844,18 4,14.8719 4,11 4,7.1281 7.1280844,4 11,4 Z m -1,3 a 1.0001,1.0001 0 1 0 0,2 h 2.130859 L 9.1679688,13.445312 A 1.0001,1.0001 0 0 0 10,15 h 4 a 1.0001,1.0001 0 1 0 0,-2 h -2.130859 l 2.96289,-4.4453125 A 1.0001,1.0001 0 0 0 14,7 Z M 6.5078125,9 a 0.50005,0.50005 0 1 0 0,1 H 7.5742188 L 6.0917969,12.222656 A 0.50005,0.50005 0 0 0 6.5078125,13 h 2 a 0.50005,0.50005 0 1 0 0,-1 H 7.4414062 L 8.9238281,9.7773438 A 0.50005,0.50005 0 0 0 8.5078125,9 Z"/>
 </g>
 <g id="system-reboot" transform="translate(44,-1100.5197)">
  <rect id="rect927" style="opacity:0.001" width="22" height="22" x="0" y="1100.52"/>
  <path id="path929" style="opacity:1;fill:#232627" d="m 11,1103.5197 c 4.412356,0 8,3.5877 8,8 0,4.4124 -3.587644,8 -8,8 -4.412356,0 -8,-3.5876 -8,-8 0,-4.4123 3.587644,-8 8,-8 z m 0,1 c -3.871916,0 -7,3.1281 -7,7 0,3.8719 3.128084,7 7,7 3.871916,0 7,-3.1281 7,-7 0,-3.8719 -3.128084,-7 -7,-7 z m 0,2 c 2.761424,0 5,2.2386 5,5 h 0.412109 a 0.58780608,0.48704093 0 0 1 0.509766,0.7305 l -0.707031,1.0136 -0.707031,1.0137 a 0.58780608,0.48704093 0 0 1 -1.017579,0 l -0.705078,-1.0137 -0.707031,-1.0136 a 0.58780608,0.48704093 0 0 1 0.509766,-0.7305 H 14 c 0,-1.6569 -1.343146,-3 -3,-3 -1.656854,0 -3,1.3431 -3,3 a 1,1 0 0 1 -1,1 1,1 0 0 1 -1,-1 1,1 0 0 1 0.00391,-0.094 c 0.050436,-2.7178 2.266277,-4.9063 4.996094,-4.9063 z"/>
 </g>
 <g id="system-lock-screen" transform="translate(66,-1100.5197)">
  <rect id="rect964" style="opacity:0.001" width="22" height="22" x="0" y="1100.52"/>
  <path id="path966" style="opacity:1;fill:#232627" transform="translate(0,1100.5197)" d="m 11,3 c -4.412356,0 -8,3.5877 -8,8 0,4.4124 3.587644,8 8,8 4.412356,0 8,-3.5876 8,-8 0,-4.4123 -3.587644,-8 -8,-8 z m 0,1 c 3.871916,0 7,3.1281 7,7 0,3.8719 -3.128084,7 -7,7 C 7.128084,18 4,14.8719 4,11 4,7.1281 7.128084,4 11,4 Z m 0,2 A 2,2 0 0 0 9,8 v 2 c -0.554,0 -1,0.446 -1,1 v 3 c 0,0.554 0.446,1 1,1 h 4 c 0.554,0 1,-0.446 1,-1 v -3 c 0,-0.554 -0.446,-1 -1,-1 V 8 A 2,2 0 0 0 11,6 Z m 0,1 a 1,1 0 0 1 1,1 v 2 H 10 V 8 a 1,1 0 0 1 1,-1 z"/>
 </g>
 <g id="system-switch-user" transform="translate(132,-1100.5197)">
  <rect id="rect1037" style="opacity:0.001" width="22" height="22" x="0" y="1100.52"/>
  <path id="path1039" style="opacity:1;fill:#232627" transform="translate(0,1100.5197)" d="m 11,3 c -4.412356,0 -8,3.5877 -8,8 0,4.4124 3.587644,8 8,8 4.412356,0 8,-3.5876 8,-8 0,-4.4123 -3.587644,-8 -8,-8 z m 0,1 c 3.871916,0 7,3.1281 7,7 0,3.8719 -3.128084,7 -7,7 C 7.128084,18 4,14.8719 4,11 4,7.1281 7.128084,4 11,4 Z m 0,2 A 3,3 0 0 0 8,9 3,3 0 0 0 9.0175781,11.248047 C 7.243792,11.708937 6,12.766349 6,14 c 0,1 2.2385763,1 5,1 2.761424,0 5,-0.0041 5,-1 0,-1.234082 -1.244753,-2.291321 -3.019531,-2.751953 A 3,3 0 0 0 14,9 3,3 0 0 0 11,6 Z m 0,6 c 1.218586,0 2.309091,0.308828 3.021484,0.736328 0.585797,0.3514 0.722128,0.707663 0.804688,1.039063 -0.128973,0.039 -0.196348,0.07502 -0.427734,0.107421 C 13.617036,13.991214 12.380217,14 11,14 9.6192882,14 8.3827082,13.989966 7.6015625,13.884766 7.3692565,13.852766 7.3006373,13.816744 7.171875,13.777344 7.253764,13.445344 7.3914975,13.088528 7.9785156,12.736328 8.6909094,12.308828 9.7814147,12 11,12 Z"/>
 </g>
 <g id="system-users" transform="translate(101.02742,15.0443)">
  <path id="path89" style="opacity:0.001" d="m 74.972582,-15.044259 v 22 h 22 v -22 z"/>
  <path id="path87" style="opacity:1;fill:#232627" d="m 88.972577,-12.044395 c -1.661999,0 -3,1.338 -3,3 0,1.662 1.338001,3 3,3 1.661999,0 3,-1.338 3,-3 0,-1.662 -1.338001,-3 -3,-3 z m -6,3 c -1.661999,0 -3,1.338 -3,3 0,1.662 1.338001,3 3,3 1.661999,0 3,-1.338 3,-3 0,-1.662 -1.338001,-3 -3,-3 z m 6,4 c -0.646349,0 -1.255999,0.134093 -1.818359,0.361328 l 0.455078,0.914063 c 0.427816,-0.1605 0.877758,-0.275391 1.363281,-0.275391 2.216023,0 4,1.783975 4,4 h -3.5 l 0.5,1 h 4 v -1 c 0,-2.77002 -2.229982,-5 -5,-5 z m -6,3 c -2.770018,0 -5,2.22998 -5,5 v 1 h 10 v -1 c 0,-2.77002 -2.229982,-5 -5,-5 z m 0,1 c 2.216008,0 4,1.783975 4,4 h -8 c 0,-2.216025 1.783977,-4 4,-4 z"/>
 </g>
 <g id="system-search" transform="translate(0,-1100.5197)">
  <path id="path63" style="opacity:0.001" d="m 220,1100.5197 v 22 h 22 v -22 z"/>
  <path id="path61" style="opacity:1;fill:#232627" transform="translate(0,1100.5197)" d="m 229,3 c -3.324,0 -6,2.676 -6,6 0,3.324 2.676,6 6,6 1.29831,0 2.48179,-0.428736 3.46094,-1.125 l 4.83203,4.832031 c 0.94255,0.9804 2.39453,-0.471562 1.41406,-1.414062 L 233.875,12.460938 C 234.57127,11.481793 235,10.298301 235,9 235,5.676 232.324,3 229,3 Z m 0,1 c 2.77,0 5,2.23 5,5 0,2.77 -2.23,5 -5,5 -2.77,0 -5,-2.23 -5,-5 0,-2.77 2.23,-5 5,-5 z"/>
 </g>
 <g id="system-user-list" transform="translate(92.302062,15.5041)">
  <path id="path84-3-7" style="opacity:0.001" d="m 105.69794,-15.504091 v 22 h 22 v -22 z"/>
  <path id="path340-1-2" style="opacity:1;fill:#232627" d="m 121.20253,-8.5040904 c -0.25749,0 -0.4953,0.07125 -0.70703,0.1855473 1.3e-4,0.00131 -0.0655,0.040171 -0.0653,0.041573 0.0789,0.9987044 -0.1715,1.6340995 -0.45725,2.1302896 0.27229,0.3874097 0.72079,0.6425938 1.22958,0.6425938 0.70524,0 1.29669,-0.4867424 1.45703,-1.1425782 0.028,-0.1145623 0.043,-0.2342292 0.043,-0.3574223 -1e-5,-0.8284286 -0.67158,-1.4999999 -1.5,-1.4999999 z m -9.00455,0 c 0.25749,0 0.4953,0.07125 0.70703,0.1855473 -1.3e-4,0.00131 0.0655,0.040171 0.0653,0.041573 -0.0789,0.9987044 0.1715,1.6340995 0.45725,2.1302896 -0.27229,0.3874097 -0.72079,0.6425938 -1.22958,0.6425938 -0.70524,0 -1.29669,-0.4867424 -1.45703,-1.1425782 -0.028,-0.1145623 -0.043,-0.2342292 -0.043,-0.3574223 10e-6,-0.8284286 0.67158,-1.4999999 1.5,-1.4999999 z m -3e-5,3.9999905 c 0.8432,0 1.58277,0.3887936 2.03516,1.0156251 -0.25387,0.1345706 -0.51219,0.299904 -0.7363,0.4335802 -0.24637,-0.2905781 -0.7047,-0.4492057 -1.29886,-0.4492057 -0.90025,0 -1.50001,0.6605494 -1.50001,2.0000091 h 1.25 l -0.5,1.00000032 h -1.75 V -2.0236309 c 1e-5,-1.4389712 1.11514,-2.480469 2.50001,-2.480469 z m 9,9.6e-6 c -0.8432,0 -1.58277,0.3887943 -2.03516,1.0156252 0.25387,0.1345712 0.51219,0.299904 0.7363,0.4335801 0.24637,-0.2905781 0.70469,-0.4492049 1.29886,-0.4492049 0.90025,0 1.49999,0.6832973 1.49999,1.9999987 h -1.25 l 0.5,1.00000032 h 1.75 l 1e-5,-1.51952972 c 0,-1.4389712 -1.11513,-2.4804697 -2.5,-2.4804697 z m -4.50001,1.9999994 c 2,0 4,0.9999997 4,4.0000001 h -8 c 0,-3.0000004 2,-4.0000001 4,-4.0000001 z m 0,-1.0000004 c -2.90828,0 -4.99209,2.0448512 -4.998,5.0000005 l -0.002,0.9999997 h 10 l -0.002,-0.9999997 c -0.006,-2.970902 -2.08975,-5.0000005 -4.99802,-5.0000005 z m 6e-5,-7.9999997 c -1.93303,0 -3.50003,1.5669974 -3.50003,3.4999973 0,1.9330046 1.567,3.5000034 3.50003,3.5000034 1.64557,0 3.02589,-1.1356098 3.40003,-2.6658933 0.0653,-0.2673097 0.10001,-0.5466608 0.10001,-0.8341101 0,-1.9329999 -1.56703,-3.4999973 -3.50004,-3.4999973 z"/>
 </g>
 <g id="system-user-prompt" transform="translate(242,-1100.5197)">
  <path id="path44-5-7" style="opacity:0.001" d="m 0,1100.5197 v 22 h 22 v -22 z"/>
  <path id="rect1075" style="opacity:1;fill:#232627" transform="translate(0,1100.5197)" d="M 4,4 C 3.446,4 3,4.446 3,5 v 4 c 0,0.554 0.446,1 1,1 h 14 c 0.554,0 1,-0.446 1,-1 V 5 C 19,4.446 18.554,4 18,4 Z M 4,5 H 18 V 9 H 4 Z M 6,6 C 5.446,6 5,6.446 5,7 5,7.554 5.446,8 6,8 H 7 C 7.554,8 8,7.554 8,7 8,6.446 7.554,6 7,6 Z m 5,0 c -0.554,0 -1,0.446 -1,1 0,0.554 0.446,1 1,1 h 1 C 12.554,8 13,7.554 13,7 13,6.446 12.554,6 12,6 Z m -7,6 c -0.554,0 -1,0.446 -1,1 v 4 c 0,0.554 0.446,1 1,1 h 14 c 0.554,0 1,-0.446 1,-1 v -4 c 0,-0.554 -0.446,-1 -1,-1 z m 0,1 h 14 v 4 H 4 Z m 2,1 a 1,1 0 0 0 -1,1 1,1 0 0 0 1,1 1,1 0 0 0 1,-1 1,1 0 0 0 -1,-1 z m 3,0 a 1,1 0 0 0 -1,1 1,1 0 0 0 1,1 1,1 0 0 0 1,-1 1,1 0 0 0 -1,-1 z m 3,0 a 1,1 0 0 0 -1,1 1,1 0 0 0 1,1 1,1 0 0 0 1,-1 1,1 0 0 0 -1,-1 z"/>
 </g>
</svg>
