<svg xmlns="http://www.w3.org/2000/svg" id="svg32" width="22" height="22" x="0" y="0" version="1.1" xml:space="preserve">
 <path id="path4" style="fill:none" d="m 40.403656,-64.31234 a 20.426046,20.426046 0 1 1 40.153647,-7.521834 20.426046,20.426046 0 1 1 -40.153647,7.521834 z"/>
 <g id="thunderbird">
  <rect id="rect878" style="opacity:0.001" width="22" height="22" x="0" y="0"/>
  <path id="path5" style="opacity:0.5;fill:#232627" d="m 12.818359,8.310582 c -0.567804,0.231761 -1.10149,0.484375 -1.824218,0.484375 -0.02606,3.7e-4 -0.05212,-2.84e-4 -0.07813,-0.002 -1.291809,-0.101243 -1.894597,-0.02099 -2.837886,0.898434 -0.07581,0.07372 -0.162828,0.13518 -0.257812,0.181641 -0.05975,0.02922 -0.11626,0.05116 -0.173828,0.07617 -0.06556,0.04068 -0.135855,0.07308 -0.208985,0.09766 l 1.556641,1.748047 4.914062,-1.544922 c 0.04003,-0.147765 0.07825,-0.316126 0.08399,-0.300781 -0.2267,-0.922367 -0.496956,-1.302578 -1.173829,-1.638672 z m -5.673828,1.90625 c -0.208772,0.439056 -0.699741,0.675018 -1.173828,0.537109 -4e-5,0.262589 -0.07252,0.548361 -0.0098,0.783203 0.102689,0.390092 -0.03903,0.803687 -0.359375,1.048829 0.191507,0.669017 0.438161,1.310166 0.761719,1.921874 l 6.205078,1.902344 c 0.03813,-0.04568 0.07765,-0.08161 0.115235,-0.128906 0.389406,-0.490041 0.754454,-1.068637 1.054687,-1.724609 -0.0088,0.0042 -0.0247,0.01162 -0.0332,0.01563 -0.09192,0.04338 -0.167699,0.07808 -0.224609,0.103515 -0.02846,0.01272 -0.05156,0.02165 -0.07422,0.03125 -0.01133,0.0048 -0.02051,0.01028 -0.03906,0.01758 -0.0093,0.0037 -0.01904,0.0067 -0.04492,0.01563 -0.01294,0.0045 -0.06611,0.01945 -0.06641,0.01953 -1.5e-4,4e-5 -0.08975,0.02147 -0.08984,0.02148 -9.2e-5,10e-5 -0.257733,0.0053 -0.289063,0.0059 -0.774371,-0.09183 -1.15041,-0.995198 -0.669922,-1.609375 0.0027,-0.0034 0.01097,-0.01603 0.01367,-0.01953 0.243167,-0.313175 0.751662,-1.042657 1.158203,-1.765625 0.112572,-0.200191 0.181438,-0.37224 0.271485,-0.560547 L 8.99411,12.295005 Z"/>
  <path id="path7" style="opacity:1;fill:#232627" d="M 9.396657,2.7953428 C 8.191897,2.8274978 7.537105,3.9221139 7.029469,4.9183897 6.844264,5.0118297 6.656105,5.094152 6.472829,5.195733 5.478149,5.864471 4.6625594,6.791863 4.0333756,7.805108 3.4799235,8.782014 3.1443692,9.86733 3.0197037,10.98089 c -0.074085,1.128995 0.055332,2.279708 0.4804688,3.335937 0.3295182,0.928332 0.9097504,1.947786 1.6523435,2.583262 0.985875,0.657857 1.769874,1.133727 2.845703,1.087891 -2.239841,-1.791482 -3.4216124,-3.939763 -3.7949215,-6.468027 -0.011789,-0.189405 -0.035038,-0.394238 0.033203,-0.34375 0.2552755,0.40459 0.3146666,0.389425 0.7578125,0.61914 C 4.6122779,10.365561 5.122448,8.774929 5.746266,7.613702 5.824316,7.524352 5.909067,7.438628 5.99236,7.351983 l 0.03906,0.0059 C 6.04544,7.581153 6.07185,7.80592 6.09783,8.021946 6.09303,8.126028 6.15943,8.303795 6.17986,8.41843 6.16449,8.45866 6.08109,8.699283 6.049001,9.000461 c -0.01935,0.119286 -0.02002,0.236507 -0.002,0.351563 0.0032,0.02268 0.005,0.0441 0.0098,0.06641 0.0097,0.04048 0.02065,0.08136 0.03711,0.121094 0.03475,0.09384 0.08104,0.182539 0.156242,0.255859 0.02782,-0.125426 0.08458,-0.226611 0.16211,-0.310547 0.01936,-0.02096 0.04863,-0.03376 0.07031,-0.05273 0.07025,-0.05953 0.143598,-0.116958 0.222656,-0.160156 0.01556,-0.0085 0.01582,-0.0058 0.03125,-0.01367 0.196357,-0.100226 0.389587,-0.16211 0.390625,-0.16211 l 0.01563,-0.01563 c 0.08124,-0.03308 0.163188,-0.06874 0.238282,-0.105469 1.127185,-1.098669 2.193155,-1.290982 3.613281,-1.179687 0.781587,0 1.226582,-0.203004 2,-0.550781 1.186546,0.49605 1.695811,1.270693 2,2.550781 0.114559,0.962125 -1.431114,3.269495 -2,3.998047 -6.8e-5,1.1e-5 -0.0039,0.002 -0.0039,0.002 1.2e-5,0 0.0039,-10e-6 0.0039,0 0.01173,0.0016 1.717869,-0.760302 2.398438,-1.40625 -0.485567,3.754421 -3.186124,6.081862 -4.398438,6.606168 0.936965,0.06306 2.220246,-0.52096 3.103516,-1.060547 -0.403265,0.43212 -0.834566,0.89984 -1.103516,1.060547 1.054554,-0.295286 2.053274,-0.403114 2.71875,-0.888672 -2.49e-4,0 0.539372,-0.493939 1.103516,-1.137418 0.07505,-0.08561 0.203986,-0.203291 0.28125,-0.300781 0.04803,-0.06061 0.09368,-0.122701 0.140625,-0.183594 0.0083,-0.01001 0.01744,-0.02109 0.02539,-0.03125 1.187377,-1.452539 1.765529,-3.257976 1.722657,-4.894531 C 18.994785,9.575189 18.188677,7.853834 16.836094,6.430153 15.857921,5.400564 14.746711,4.7690828 13.74625,4.4282003 12.71093,4.1309001 11.492766,3.980078 10.457188,4.0375753 c -0.103696,0.00127 -0.391212,0.00968 -0.783203,0.042969 -0.04584,-0.086358 0.0112,-0.4068056 0.123047,-0.4863281 -0.245162,0.02295 -0.471027,0.3418588 -0.679688,0.5625 -0.03512,0.00685 -0.07117,0.013798 -0.103516,0.021484 C 9.201758,3.8530657 9.39337,3.4873076 9.617344,3.1957784 8.923484,3.3252983 8.620684,3.8708309 8.281406,4.3735128 8.183486,4.4057468 8.088439,4.4448798 7.992344,4.4809347 8.244012,3.7547471 8.717265,3.3572967 9.396641,2.7953878 Z M 7.597829,6.995542 c 0.194105,-0.0038 0.369394,0.0293 0.371094,0.0293 0.0033,0 0.08755,0.340058 -0.07227,0.63086 C 7.736835,7.947613 7.364665,8.064413 7.158373,7.95453 6.947548,7.844647 6.948297,7.476911 7.111503,7.184999 7.190283,7.039043 7.403725,6.999291 7.597831,6.995545 Z"/>
 </g>
</svg>
