<svg xmlns="http://www.w3.org/2000/svg" style="enable-background:new" width="22" height="22" version="1.1">
 <g id="g902">
  <rect style="opacity:0.00100002" width="22" height="22" x="0" y="0"/>
  <rect style="opacity:0.2;fill:#ffffff;enable-background:new" width="22" height="22" x="0" y="0" rx="6" ry="6"/>
  <path style="opacity:1;fill:#eff0f1" d="m 11,3 c -4.4182779,2e-7 -7.9999998,3.5817221 -8,8 2e-7,4.418278 3.5817221,8 8,8 4.418278,0 8,-3.581722 8,-8 0,-4.4182779 -3.581722,-7.9999998 -8,-8 z m 0,1 c 3.865993,-10e-8 7,3.1340067 7,7 0,3.865993 -3.134007,7 -7,7 -3.8659933,0 -7.0000001,-3.134007 -7,-7 -10e-8,-3.8659933 3.1340067,-7.0000001 7,-7 z m 1.111328,1.9511719 A 4.0018226,4.0018226 0 0 0 9.2207031,7.1191406 4.0018226,4.0018226 0 0 0 8.3691406,11.511719 l -1.7851562,1.785156 c 0.1593558,0.305375 0.3479463,0.589232 0.5644531,0.853516 l 1.7460937,-1.746094 a 4.0018226,4.0018226 0 0 0 0.3261719,0.375 4.0018226,4.0018226 0 0 0 0.3789063,0.328125 l -1.75,1.746094 c 0.2642561,0.216375 0.5482021,0.405202 0.8535156,0.564453 l 1.789063,-1.78711 a 4.0018226,4.0018226 0 0 0 4.388671,-0.851562 4.0018226,4.0018226 0 0 0 1.03125,-3.8613282 L 13.464844,11.363281 10.636719,8.5351562 13.082031,6.0878906 A 4.0018226,4.0018226 0 0 0 12.111328,5.9511719 Z"/>
 </g>
</svg>
