<svg xmlns="http://www.w3.org/2000/svg" style="enable-background:new" width="22" height="22" version="1.1">
 <g id="active-center">
  <rect style="opacity:0.001" width="22" height="22" x="0" y="0"/>
  <path style="opacity:1;fill:#eff0f1" d="M 11 3 C 6.5817221 3.0000002 3.0000002 6.5817221 3 11 C 3.0000002 15.418278 6.5817221 19 11 19 C 15.418278 19 19 15.418278 19 11 C 19 6.5817221 15.418278 3.0000002 11 3 z M 11 4 C 14.865993 3.9999999 18 7.1340067 18 11 C 18 14.865993 14.865993 18 11 18 C 7.1340067 18 3.9999999 14.865993 4 11 C 3.9999999 7.1340067 7.1340067 3.9999999 11 4 z M 11 7 A 4 4 0 0 0 7 11 A 4 4 0 0 0 11 15 A 4 4 0 0 0 15 11 A 4 4 0 0 0 11 7 z M 11 9 A 2 2 0 0 1 13 11 A 2 2 0 0 1 11 13 A 2 2 0 0 1 9 11 A 2 2 0 0 1 11 9 z"/>
 </g>
</svg>
