<svg xmlns="http://www.w3.org/2000/svg" style="enable-background:new" width="22" height="22" version="1.1">
 <g id="active-center">
  <rect style="opacity:0.001" width="22" height="22" x="0" y="0"/>
  <path style="opacity:1;fill:#eff0f1" d="M 11 3 A 8.0000004 8.0000004 0 0 0 3 11 A 8.0000004 8.0000004 0 0 0 11 19 A 8.0000004 8.0000004 0 0 0 19 11 A 8.0000004 8.0000004 0 0 0 11 3 z M 11 4 A 6.9999998 6.9999998 0 0 1 18 11 A 6.9999998 6.9999998 0 0 1 11 18 A 6.9999998 6.9999998 0 0 1 4 11 A 6.9999998 6.9999998 0 0 1 11 4 z M 13.980469 7 A 0.99648998 0.99648998 0 0 0 13.285156 7.3066406 L 11 9.5917969 L 8.7148438 7.3066406 A 0.99648998 0.99648998 0 0 0 8.0019531 7.0039062 A 0.99648998 0.99648998 0 0 0 7.3066406 8.7148438 L 9.5917969 11 L 7.3066406 13.285156 A 0.99648998 0.99648998 0 1 0 8.7148438 14.693359 L 11 12.408203 L 13.285156 14.693359 A 0.99648998 0.99648998 0 1 0 14.693359 13.285156 L 12.408203 11 L 14.693359 8.7148438 A 0.99648998 0.99648998 0 0 0 13.980469 7 z"/>
 </g>
</svg>
