<svg xmlns="http://www.w3.org/2000/svg" style="enable-background:new" width="22" height="22" version="1.1">
 <g id="pressed-center">
  <rect style="opacity:0.00100002" width="22" height="22" x="0" y="0"/>
  <rect style="opacity:0.2;fill:#ffffff" width="22" height="22" x="0" y="0" rx="6" ry="6"/>
  <path style="opacity:1;fill:#eff0f1" d="m 11,3 a 8.0000004,8.0000004 0 0 0 -8,8 8.0000004,8.0000004 0 0 0 8,8 8.0000004,8.0000004 0 0 0 8,-8 8.0000004,8.0000004 0 0 0 -8,-8 z m 0,1 a 6.9999998,6.9999998 0 0 1 7,7 6.9999998,6.9999998 0 0 1 -7,7 6.9999998,6.9999998 0 0 1 -7,-7 6.9999998,6.9999998 0 0 1 7,-7 z m 2.980469,3 A 0.99648998,0.99648998 0 0 0 13.285156,7.3066406 L 11,9.5917969 8.7148438,7.3066406 A 0.99648998,0.99648998 0 0 0 8.0019531,7.0039062 0.99648998,0.99648998 0 0 0 7.3066406,8.7148438 L 9.5917969,11 7.3066406,13.285156 a 0.99648998,0.99648998 0 1 0 1.4082032,1.408203 L 11,12.408203 l 2.285156,2.285156 a 0.99648998,0.99648998 0 1 0 1.408203,-1.408203 L 12.408203,11 14.693359,8.7148438 A 0.99648998,0.99648998 0 0 0 13.980469,7 Z"/>
 </g>
</svg>
