<svg xmlns="http://www.w3.org/2000/svg" xmlns:xlink="http://www.w3.org/1999/xlink" id="svg129" width="810" height="150" version="1">
 <defs id="rounded">
  <linearGradient id="linearGradient870">
   <stop id="stop866" style="stop-color:#008dc5;stop-opacity:1" offset="0"/>
   <stop id="stop868" style="stop-color:#ab2065;stop-opacity:1" offset="1"/>
  </linearGradient>
  <linearGradient id="linearGradient907" x1="16.099" x2="129.163" y1="49.94" y2="49.94" gradientTransform="matrix(7.1640848,0,0,7.1882203,-115.33672,-283.98065)" gradientUnits="userSpaceOnUse" xlink:href="#linearGradient870"/>
 </defs>
 <path id="path858" style="opacity:1;fill:url(#linearGradient907)" d="m 425.43456,0 c -15.20759,0 -27.22394,3.67335 -36.04979,11.03025 -8.82585,7.221 -13.24223,17.37525 -13.24223,30.45375 0,6.67575 1.1634,12.39975 3.47168,17.16825 2.30835,4.7685 5.22945,8.8545 8.75977,12.261 3.66615,3.26925 7.45883,6.063 11.39648,8.379 3.93772,2.1795 7.60642,4.09275 11.001,5.727 5.43127,2.589 10.24875,5.03775 14.45804,7.35375 4.20923,2.18025 7.5315,4.56 9.97553,7.14825 2.57992,2.589 3.88185,5.72625 3.88185,9.40425 0,4.49625 -1.6338,8.238 -4.89255,11.23575 -3.123,2.86125 -8.48018,4.2915 -16.08397,4.2915 -7.3323,0 -14.73901,-1.224 -22.20706,-3.6765 -7.33222,-2.58825 -14.46179,-5.38125 -21.3867,-8.379 v 28.8135 C 386.60121,147.069 400.32067,150 415.66401,150 c 17.10863,0 30.2737,-3.81075 39.5069,-11.4405 9.3689,-7.7655 14.0478,-18.12675 14.0478,-31.0695 0,-7.629 -1.426,-14.0265 -4.2773,-19.20375 -2.8515,-5.17725 -6.9213,-9.6765 -12.2168,-13.491 -5.1597,-3.81525 -11.47239,-7.488 -18.94045,-11.03025 -9.09742,-4.35975 -15.94979,-8.04825 -20.56642,-11.04525 -4.61655,-2.997 -6.92873,-7.08375 -6.92873,-12.261 0,-4.35975 1.56458,-7.89525 4.68751,-10.62 3.12299,-2.72475 7.60867,-4.08675 13.44727,-4.08675 5.5671,0 10.99358,0.7425 16.2891,2.241 5.29552,1.4985 11.26172,3.618 17.91502,6.34275 l 9.9902,-24.111 C 461.01431,6.9549 453.81541,4.42245 447.02641,2.6514 440.23723,0.88027 433.03836,0 425.43456,0 Z M 276.04979,1.43558 224.72166,147.9495 h 33.20798 l 10.59083,-34.73175 h 52.95412 l 10.59082,34.73175 h 33.19336 L 313.72559,1.43558 Z m 444.74122,0 -51.3282,146.51392 h 33.208 l 10.5908,-34.73175 h 52.9541 l 10.5909,34.73175 h 33.1934 L 758.46681,1.43558 Z M -1e-5,2.05058 v 145.89869 h 30.7617 v -51.9 h 13.22753 c 14.12137,0 25.26614,-2.24174 33.4131,-6.73799 8.28277,-4.49626 14.17965,-10.4265 17.70997,-17.78325 3.53032,-7.35675 5.30273,-15.32325 5.30273,-23.90625 0,-14.169 -4.347,-25.272 -13.0371,-33.3105 C 78.82364,6.13687 65.17349,2.05058 46.43556,2.05058 Z m 128.0859,0 v 145.89869 h 89.82428 v -25.53225 h -59.0625 V 2.05058 Z m 367.57322,0 v 145.89869 h 27.4952 V 80.11178 c 0,-4.90426 -0.1388,-10.49025 -0.4103,-16.75726 -0.2715,-6.267 -0.534,-12.129 -0.8057,-17.57849 -0.2715,-5.44951 -0.4793,-9.53551 -0.615,-12.261 h 0.8057 l 35.0391,114.43424 h 28.3154 l 37.4707,-114.22875 h 0.8203 c -0.1357,2.72475 -0.3435,6.81076 -0.615,12.261 -0.1357,5.313 -0.3435,10.968 -0.615,16.96276 -0.1358,5.99475 -0.2048,11.3055 -0.2048,15.9375 v 69.06749 h 28.7256 V 2.05058 h -41.953 L 572.65181,113.628 h -0.6152 L 537.61231,2.0508 Z M 294.9902,24.11078 c 0.67876,2.72549 1.56511,5.931 2.65142,9.60974 1.08622,3.67876 2.16562,7.28326 3.25193,10.82551 1.08622,3.54225 1.97242,6.47249 2.65139,8.78849 l 10.59082,33.92625 h -37.88092 l 10.38578,-33.92625 c 0.54299,-1.4985 1.29075,-4.01624 2.24122,-7.55849 1.08623,-3.678 2.1657,-7.4895 3.25192,-11.44051 1.22206,-4.08674 2.17756,-7.49925 2.85644,-10.22474 z m 444.74121,0 c 0.6788,2.72549 1.5651,5.931 2.6514,9.60974 1.0862,3.67876 2.1657,7.28326 3.2519,10.82551 1.0862,3.54225 1.9724,6.47249 2.6513,8.78849 l 10.5909,33.92625 h -37.8808 l 10.3857,-33.92625 c 0.543,-1.4985 1.2907,-4.01624 2.2412,-7.55849 1.0862,-3.678 2.1657,-7.4895 3.252,-11.44051 1.222,-4.08674 2.1776,-7.49925 2.8564,-10.22474 z m -708.96972,3.267 h 14.04787 c 16.29391,0 24.43358,7.08599 24.43358,21.25499 0,7.7655 -2.5746,13.4205 -7.73437,16.96275 -5.02396,3.40576 -11.87634,5.112 -20.56643,5.112 H 30.76169 Z"/>
</svg>
