<svg xmlns="http://www.w3.org/2000/svg" id="svg2" width="42" height="36" version="1.1">
 <g id="layer1" transform="translate(-289.14285,-546.64795)">
  <g id="base-top" transform="matrix(0.83333333,0,0,1,279.30952,493.64795)">
   <path id="rect993" style="opacity:1;fill:#bfc0c1;fill-opacity:1;stroke:none;stroke-width:2.46234775;stroke-linejoin:miter;stroke-miterlimit:4;stroke-dasharray:none;stroke-opacity:1" transform="translate(1,53)" d="M 12,0.5 35.999996,1 60,0.5 35.999996,0 Z"/>
   <path id="rect956" style="opacity:0.00100002;fill:#000000;fill-opacity:1;stroke-width:0.7838366" d="M 13,54 H 61 V 65 H 13 Z"/>
  </g>
  <g id="base-left" transform="matrix(0.09090909,0,0,1.0000001,288.96104,493.64795)">
   <path id="rect966" style="opacity:0.00100002;fill:#000000;fill-opacity:1;stroke-width:0.38297081" d="M 2.0000001,64.999999 H 13 V 76.999998 H 2.0000001 Z"/>
  </g>
  <rect id="base-center" style="opacity:0.00100002;fill:#000000;fill-opacity:1;stroke-width:0.73029679" width="40" height="12" x="290.14" y="558.65"/>
  <g id="base-right" transform="matrix(0.09090904,0,0,1,324.59741,493.64796)">
   <path id="rect970" style="opacity:0.00100002;fill:#000000;fill-opacity:1;stroke-width:0.39191836" d="M 61,64.999995 72,65 v 11.999999 l -11,-5e-6 z"/>
  </g>
  <g id="base-bottom" transform="matrix(0.83333332,0,0,1,279.30952,493.64796)">
   <path id="rect999" style="opacity:1;fill:#bfc0c1;fill-opacity:1;stroke:none;stroke-width:2.46234822;stroke-linejoin:miter;stroke-miterlimit:4;stroke-dasharray:none;stroke-opacity:1" transform="translate(1,53)" d="M 12,35.49999 36.000009,36 60,35.49999 36.000009,35 Z"/>
   <path id="rect974" style="opacity:0.00100002;fill:#000000;fill-opacity:1;stroke-width:0.78383672" d="m 12.999999,88 h 48 V 76.999999 h -48 z"/>
  </g>
  <rect id="base-hint-top-margin" style="fill:#ff0000;fill-opacity:1;fill-rule:nonzero;stroke:none;stroke-width:0.40824834" width="2" height="1" x="309.14" y="546.65"/>
  <rect id="base-hint-right-margin" style="fill:#ff0000;fill-opacity:1;fill-rule:nonzero;stroke:none;stroke-width:0.40824834" width="2" height="1" x="-565.65" y="330.14" transform="rotate(-90)"/>
  <rect id="base-hint-left-margin" style="fill:#ff0000;fill-opacity:1;fill-rule:nonzero;stroke:none;stroke-width:0.40824834" width="2" height="1" x="-565.65" y="289.14" transform="rotate(-90)"/>
  <rect id="base-hint-bottom-margin" style="fill:#ff0000;fill-opacity:1;fill-rule:nonzero;stroke:none;stroke-width:0.40824834" width="2" height="1" x="309.14" y="581.65"/>
  <g id="base-topleft" transform="matrix(0.08333335,0,0,1,265.04761,4.7459473e-6)">
   <path id="rect842" style="opacity:0.00100002;fill:#000000;fill-opacity:1;stroke:none;stroke-width:2;stroke-linejoin:miter;stroke-miterlimit:4;stroke-dasharray:none;stroke-opacity:1" transform="translate(289.14285,546.64795)" d="M 3e-6,0.99999925 12,1 V 0 L 3e-6,-7.5405274e-7 Z"/>
   <rect id="rect847" style="opacity:0.00100002;fill:#000000;fill-opacity:1;stroke:none;stroke-width:2.08893132;stroke-linejoin:miter;stroke-miterlimit:4;stroke-dasharray:none;stroke-opacity:1" width="12" height="11" x="289.14" y="547.65"/>
  </g>
  <g id="base-bottomleft" transform="matrix(0.08333331,0,0,1,265.04763,5.5271973e-6)">
   <rect id="rect851" style="opacity:0.00100002;fill:#000000;fill-opacity:1;stroke:none;stroke-width:2.08893204;stroke-linejoin:miter;stroke-miterlimit:4;stroke-dasharray:none;stroke-opacity:1" width="12" height="11" x="289.14" y="-581.65" transform="scale(1,-1)"/>
   <path id="path904" style="opacity:0.00100002;fill:#000000;fill-opacity:1;stroke:none;stroke-width:2;stroke-linejoin:miter;stroke-miterlimit:4;stroke-dasharray:none;stroke-opacity:1" d="m 289.14285,582.64795 v -1 h 12 v 1 z"/>
  </g>
  <g id="base-topright" transform="matrix(0.08333331,0,0,1,301.04762,5.1365723e-6)">
   <rect id="rect855" style="opacity:0.00100002;fill:#000000;fill-opacity:1;stroke:none;stroke-width:2.08893132;stroke-linejoin:miter;stroke-miterlimit:4;stroke-dasharray:none;stroke-opacity:1" width="12" height="11" x="-361.14" y="547.65" transform="scale(-1,1)"/>
   <path id="path906" style="opacity:0.00100002;fill:#000000;fill-opacity:1;stroke:none;stroke-width:2;stroke-linejoin:miter;stroke-miterlimit:4;stroke-dasharray:none;stroke-opacity:1" d="m 361.14285,547.64795 h -12 v -1 h 12 z"/>
  </g>
  <g id="base-bottomright" transform="matrix(0.08333331,0,0,1,301.04763,5.1365723e-6)">
   <rect id="rect859" style="opacity:0.00100002;fill:#000000;fill-opacity:1;stroke:none;stroke-width:2.08893132;stroke-linejoin:miter;stroke-miterlimit:4;stroke-dasharray:none;stroke-opacity:1" width="12" height="11" x="-361.14" y="-581.65" transform="scale(-1)"/>
   <path id="path908" style="opacity:0.00100002;fill:#000000;fill-opacity:1;stroke:none;stroke-width:2;stroke-linejoin:miter;stroke-miterlimit:4;stroke-dasharray:none;stroke-opacity:1" d="m 361.14285,582.64795 v -1 h -12 v 1 z"/>
  </g>
  <rect id="hint-stretch-borders" style="opacity:0.875;fill:#0000ff;fill-opacity:1;stroke:none;stroke-width:0.19999973" width="1" height="1" x="288.14" y="581.65"/>
 </g>
</svg>
