<svg xmlns="http://www.w3.org/2000/svg" id="svg2" width="118" height="89" version="1">
 <path id="groove-top" style="opacity:1;fill:#bfc0c1;fill-opacity:1;stroke-width:0.66666669" d="m 36,11 v 2 h 2 v -2 z"/>
 <path id="groove-topleft" style="opacity:1;fill:#bfc0c1;fill-opacity:1;stroke-width:0.66666669" d="m 36,11 c -1.12144,0 -2,0.87856 -2,2 h 2 z"/>
 <rect id="hint-tile-center" style="fill:#ff0000;fill-opacity:1;fill-rule:nonzero;stroke:none;stroke-width:0.97329187" width="2" height="2" x="28" y="13" rx="0" ry="2"/>
 <path id="groove-topright" style="opacity:1;fill:#bfc0c1;fill-opacity:1;stroke-width:0.66666669" d="m 40,13 c 0,-1.12144 -0.87856,-2 -2,-2 v 2 z"/>
 <path id="groove-bottom" style="opacity:1;fill:#bfc0c1;fill-opacity:1;stroke-width:0.66666669" d="m 36,17 v -2 h 2 v 2 z"/>
 <path id="groove-bottomleft" style="opacity:1;fill:#bfc0c1;fill-opacity:1;stroke-width:0.66666669" d="m 36,17 c -1.12144,0 -2,-0.87856 -2,-2 h 2 z"/>
 <path id="groove-bottomright" style="opacity:1;fill:#bfc0c1;fill-opacity:1;stroke-width:0.66666669" d="m 40,15 c 0,1.12144 -0.87856,2 -2,2 v -2 z"/>
 <path id="groove-center" style="opacity:1;fill:#bfc0c1;fill-opacity:1;stroke-width:0.66666669" d="m 36,13 v 2 h 2 v -2 z"/>
 <path id="groove-left" style="opacity:1;fill:#bfc0c1;fill-opacity:1;stroke-width:0.66666669" d="m 34,13 v 2 h 2 v -2 z"/>
 <path id="groove-right" style="opacity:1;fill:#bfc0c1;fill-opacity:1;stroke-width:0.66666669" d="m 38,13 v 2 h 2 v -2 z"/>
 <path id="groove-highlight-top" style="opacity:1;fill:#3daee9;fill-opacity:1;stroke-width:0.66666669" d="M 46,11.000001 V 13 h 2 v -1.999999 z"/>
 <path id="groove-highlight-topleft" style="opacity:1;fill:#3daee9;fill-opacity:1;stroke-width:0.66666669" d="m 46,11.000001 c -1.12144,0 -2,0.87856 -2,1.999999 h 2 z"/>
 <path id="groove-highlight-topright" style="opacity:1;fill:#3daee9;fill-opacity:1;stroke-width:0.66666669" d="m 50,13 c 0,-1.121439 -0.87856,-1.999999 -2,-1.999999 V 13 Z"/>
 <path id="groove-highlight-bottom" style="opacity:1;fill:#3daee9;fill-opacity:1;stroke-width:0.66666669" d="m 46,17 v -2 h 2 v 2 z"/>
 <path id="groove-highlight-bottomleft" style="opacity:1;fill:#3daee9;fill-opacity:1;stroke-width:0.66666669" d="m 46,17 c -1.12144,0 -2,-0.87856 -2,-2 h 2 z"/>
 <path id="groove-highlight-bottomright" style="opacity:1;fill:#3daee9;fill-opacity:1;stroke-width:0.66666669" d="m 50,15 c 0,1.12144 -0.87856,2 -2,2 v -2 z"/>
 <path id="groove-highlight-center" style="opacity:1;fill:#3daee9;fill-opacity:1;stroke-width:0.66666669" d="m 46,13 v 2 h 2 v -2 z"/>
 <path id="groove-highlight-left" style="opacity:1;fill:#3daee9;fill-opacity:1;stroke-width:0.66666669" d="m 44,13 v 2 h 2 v -2 z"/>
 <path id="groove-highlight-right" style="opacity:1;fill:#3daee9;fill-opacity:1;stroke-width:0.66666669" d="m 48,13 v 2 h 2 v -2 z"/>
 <g id="horizontal-slider-handle" transform="matrix(1.2,0,0,1.2,-7.1999999,30.2)">
  <rect id="rect3785-4" style="opacity:0.00100002;fill:#000000;fill-opacity:0.00392157;stroke:none" width="24" height="24" x="14" y="42" transform="matrix(0.83333333,0,0,0.83333333,-5.6666667,-6)"/>
  <path id="path3921-2" style="opacity:1;fill:#bfc0c1;fill-opacity:1" transform="matrix(2.0833333,0,0,2.0833333,-13.166666,-44.333332)" d="m 18,40 a 4,4 0 0 1 -4,4 4,4 0 0 1 -4,-4 4,4 0 0 1 4,-4 4,4 0 0 1 4,4 z"/>
  <path id="path3923-4" style="opacity:1;fill:#ffffff;fill-opacity:1" transform="matrix(1.875,0,0,1.875,-10.25,-36)" d="m 18,40 a 4,4 0 0 1 -4,4 4,4 0 0 1 -4,-4 4,4 0 0 1 4,-4 4,4 0 0 1 4,4 z"/>
 </g>
 <g id="vertical-slider-handle" transform="matrix(1.2,0,0,1.2,-7.1999999,-5.8)">
  <rect id="rect3922" style="opacity:0.00100002;fill:#000000;fill-opacity:0.00392157;stroke:none" width="24" height="24" x="14" y="42" transform="matrix(0.83333333,0,0,0.83333333,-5.6666667,-6)"/>
  <path id="path3924" style="opacity:1;fill:#bfc0c1;fill-opacity:1" transform="matrix(2.0833333,0,0,2.0833333,-13.166666,-44.333332)" d="m 18,40 a 4,4 0 0 1 -4,4 4,4 0 0 1 -4,-4 4,4 0 0 1 4,-4 4,4 0 0 1 4,4 z"/>
  <path id="path3926" style="opacity:1;fill:#ffffff;fill-opacity:1" transform="matrix(1.875,0,0,1.875,-10.25,-36)" d="m 18,40 a 4,4 0 0 1 -4,4 4,4 0 0 1 -4,-4 4,4 0 0 1 4,-4 4,4 0 0 1 4,4 z"/>
 </g>
 <g id="horizontal-slider-shadow" style="opacity:0.01000001" transform="translate(-4.9999999,-33)">
  <rect id="rect3114" style="opacity:0.00100002;fill:#000000;fill-opacity:0.00392157;stroke:none" width="24" height="24" x="96" y="98"/>
  <path id="path3118" style="color:#3daee9;opacity:0.05;fill:#000000;fill-opacity:1" d="m 108,99 c -6.07513,0 -11,4.92487 -11,11 0,6.07513 4.92487,11 11,11 6.07513,0 11,-4.92487 11,-11 0,-6.07513 -4.92487,-11 -11,-11 z m 0,1 c 5.52285,0 10,4.47715 10,10 0,5.52285 -4.47715,10 -10,10 -5.52285,0 -10,-4.47715 -10,-10 0,-5.52285 4.47715,-10 10,-10 z"/>
  <path id="path3037" style="color:#3daee9;opacity:0.15;fill:#000000;fill-opacity:1" d="M 115.71875,103.625 C 117.14531,105.35359 118,107.58375 118,110 c 0,2.76963 -1.14961,5.2516 -2.96875,7.0625 C 113.2229,118.86267 110.75322,120 108,120 c -2.76143,0 -5.25285,-1.12786 -7.0625,-2.9375 1.83415,2.22247 4.61215,3.625 7.71875,3.625 5.52285,0 10,-4.47715 10,-10 0,-2.76143 -1.12786,-5.25286 -2.9375,-7.0625 z"/>
 </g>
 <g id="vertical-slider-shadow" style="opacity:0.01000001" transform="translate(-1.9999999,-69)">
  <rect id="rect3824" style="opacity:0.00100002;fill:#000000;fill-opacity:0.00392157;stroke:none" width="24" height="24" x="96" y="98"/>
  <path id="path3826" style="color:#3daee9;opacity:0.05;fill:#000000;fill-opacity:1" d="m 108,99 c -6.07513,0 -11,4.92487 -11,11 0,6.07513 4.92487,11 11,11 6.07513,0 11,-4.92487 11,-11 0,-6.07513 -4.92487,-11 -11,-11 z m 0,1 c 5.52285,0 10,4.47715 10,10 0,5.52285 -4.47715,10 -10,10 -5.52285,0 -10,-4.47715 -10,-10 0,-5.52285 4.47715,-10 10,-10 z"/>
  <path id="path3828" style="color:#3daee9;opacity:0.15;fill:#000000;fill-opacity:1" d="M 115.71875,103.625 C 117.14531,105.35359 118,107.58375 118,110 c 0,2.76963 -1.14961,5.2516 -2.96875,7.0625 C 113.2229,118.86267 110.75322,120 108,120 c -2.76143,0 -5.25285,-1.12786 -7.0625,-2.9375 1.83415,2.22247 4.61215,3.625 7.71875,3.625 5.52285,0 10,-4.47715 10,-10 0,-2.76143 -1.12786,-5.25286 -2.9375,-7.0625 z"/>
 </g>
 <g id="horizontal-slider-hover" transform="matrix(1.2,0,0,1.2,22.8,30.2)">
  <rect id="rect4204" style="opacity:0.00100002;fill:#000000;fill-opacity:0.00392157;stroke:none" width="24" height="24" x="14" y="42" transform="matrix(0.83333333,0,0,0.83333333,-5.6666667,-6)"/>
  <circle id="path4206" style="color:#31363b;opacity:1;fill:#a8a8a9;fill-opacity:1;stroke-width:2.29166675" cx="16" cy="39" r="9.167"/>
  <circle id="path4208" style="color:#eff0f1;opacity:1;fill:#ffffff;fill-opacity:1" cx="14" cy="40" r="4" transform="matrix(1.875,0,0,1.875,-10.25,-36)"/>
 </g>
 <g id="vertical-slider-hover" transform="matrix(1.2,0,0,1.2,22.8,-5.8)">
  <rect id="rect4212" style="opacity:0.00100002;fill:#000000;fill-opacity:0.00392157;stroke:none" width="24" height="24" x="14" y="42" transform="matrix(0.83333333,0,0,0.83333333,-5.6666667,-6)"/>
  <circle id="path4214" style="color:#31363b;opacity:1;fill:#a8a8a9;fill-opacity:1;stroke-width:2.29166675" cx="16" cy="39" r="9.167"/>
  <circle id="path4216" style="color:#eff0f1;opacity:1;fill:#ffffff;fill-opacity:1" cx="14" cy="40" r="4" transform="matrix(1.875,0,0,1.875,-10.25,-36)"/>
 </g>
 <g id="horizontal-slider-focus" transform="matrix(1.2,0,0,1.2,52.8,30.2)">
  <rect id="rect4220" style="opacity:0.00100002;fill:#000000;fill-opacity:0.00392157;stroke:none" width="24" height="24" x="14" y="42" transform="matrix(0.83333333,0,0,0.83333333,-5.6666667,-6)"/>
  <circle id="circle4222" style="color:#31363b;opacity:1;fill:#a8a8a9;fill-opacity:1;stroke-width:2.29166675" cx="16" cy="39" r="9.167"/>
  <circle id="circle4224" style="color:#eff0f1;opacity:1;fill:#ffffff;fill-opacity:1" cx="14" cy="40" r="4" transform="matrix(1.875,0,0,1.875,-10.25,-36)"/>
 </g>
 <g id="vertical-slider-focus" transform="matrix(1.2,0,0,1.2,52.8,-5.8)">
  <rect id="rect4228" style="opacity:0.00100002;fill:#000000;fill-opacity:0.00392157;stroke:none" width="24" height="24" x="14" y="42" transform="matrix(0.83333333,0,0,0.83333333,-5.6666667,-6)"/>
  <circle id="circle4230" style="color:#31363b;opacity:1;fill:#a8a8a9;fill-opacity:1;stroke-width:2.29166675" cx="16" cy="39" r="9.167"/>
  <circle id="circle4232" style="color:#eff0f1;opacity:1;fill:#ffffff;fill-opacity:1" cx="14" cy="40" r="4" transform="matrix(1.875,0,0,1.875,-10.25,-36)"/>
 </g>
 <circle id="hint-handle-size" style="fill:#ff0000;fill-opacity:1;stroke-width:1.4666667" cx="13" cy="11" r="11"/>
</svg>
