<svg xmlns="http://www.w3.org/2000/svg" xmlns:xlink="http://www.w3.org/1999/xlink" id="svg7080" width="257" height="161" version="1">
 <defs id="defs7082">
  <linearGradient id="linearGradient1051">
   <stop id="stop1047" style="stop-color:#3daee9;stop-opacity:0.30980393" offset="0"/>
   <stop id="stop1049" style="stop-color:#3daee9;stop-opacity:0" offset="1"/>
  </linearGradient>
  <linearGradient id="linearGradient1043">
   <stop id="stop1039" style="stop-color:#3daee9;stop-opacity:1" offset="0"/>
   <stop id="stop1041" style="stop-color:#3daee9;stop-opacity:0.3137255" offset="1"/>
  </linearGradient>
  <linearGradient id="linearGradient8746">
   <stop id="stop8748" style="stop-color:#ffffff;stop-opacity:1" offset="0"/>
   <stop id="stop8750" style="stop-color:#ffffff;stop-opacity:0" offset="1"/>
  </linearGradient>
  <linearGradient id="linearGradient8734">
   <stop id="stop8736" style="stop-color:#ffffff;stop-opacity:1" offset="0"/>
   <stop id="stop8738" style="stop-color:#ffffff;stop-opacity:0" offset="1"/>
  </linearGradient>
  <radialGradient id="radialGradient12915" cx="355.285" cy="229.368" r="70" fx="355.285" fy="229.368" gradientTransform="matrix(1.7747169,0,0,1.1566649,-709.57584,314.76359)" gradientUnits="userSpaceOnUse" xlink:href="#linearGradient8734"/>
  <radialGradient id="radialGradient12922" cx="355.059" cy="222.732" r="70" fx="355.059" fy="222.732" gradientTransform="matrix(1.7796094,-6.4399432e-7,0,3.4826371,-711.1346,-185.51868)" gradientUnits="userSpaceOnUse" xlink:href="#linearGradient8734"/>
  <radialGradient id="radialGradient12928" cx="355.266" cy="236.553" r="70" fx="355.266" fy="236.553" gradientTransform="matrix(1.7796094,0,0,1.1558382,-711.13504,274.58542)" gradientUnits="userSpaceOnUse" xlink:href="#linearGradient8734"/>
  <radialGradient id="radialGradient12935" cx="355.266" cy="236.553" r="70" fx="355.266" fy="236.553" gradientTransform="matrix(0.6520708,-6.4204842e-7,0,1.1584286,-351.80505,274.01364)" gradientUnits="userSpaceOnUse" xlink:href="#linearGradient8734"/>
  <radialGradient id="radialGradient12941" cx="353.747" cy="269.55" r="70" fx="353.747" fy="269.55" gradientTransform="matrix(0.6498357,0,0,1.1513867,-350.8407,269.14221)" gradientUnits="userSpaceOnUse" xlink:href="#linearGradient8746"/>
  <radialGradient id="radialGradient12949" cx="355.285" cy="229.368" r="70" fx="355.285" fy="229.368" gradientTransform="matrix(-1.7747169,0,0,1.1550902,469.58919,315.1048)" gradientUnits="userSpaceOnUse" xlink:href="#linearGradient8734"/>
  <radialGradient id="radialGradient12955" cx="355.059" cy="222.732" r="70" fx="355.059" fy="222.732" gradientTransform="matrix(-1.7796094,-6.4399419e-7,0,3.4826364,471.13462,-185.51859)" gradientUnits="userSpaceOnUse" xlink:href="#linearGradient8734"/>
  <radialGradient id="radialGradient12962" cx="355.266" cy="236.553" r="70" fx="355.266" fy="236.553" gradientTransform="matrix(-1.7796094,0,0,1.1576875,471.13463,274.18938)" gradientUnits="userSpaceOnUse" xlink:href="#linearGradient8734"/>
  <linearGradient id="linearGradient4306" x1="317.917" x2="317.917" y1="909.772" y2="912.772" gradientUnits="userSpaceOnUse" xlink:href="#linearGradient4254-7"/>
  <linearGradient id="linearGradient4254-7">
   <stop id="stop4256" style="stop-color:#888888;stop-opacity:1" offset="0"/>
   <stop id="stop4258" style="stop-color:#232323;stop-opacity:1" offset="1"/>
  </linearGradient>
  <linearGradient id="linearGradient5705">
   <stop id="stop5707" style="stop-color:#efefef;stop-opacity:0.93599999" offset="0"/>
   <stop id="stop5709" style="stop-color:#ededed;stop-opacity:0" offset="1"/>
  </linearGradient>
  <linearGradient id="linearGradient1045" x1="150" x2="198" y1="117.263" y2="117.263" gradientTransform="translate(0,0.7367)" gradientUnits="userSpaceOnUse" xlink:href="#linearGradient1043"/>
  <linearGradient id="linearGradient1053" x1="321.143" x2="325.143" y1="837.857" y2="837.857" gradientUnits="userSpaceOnUse" xlink:href="#linearGradient1051"/>
  <linearGradient id="linearGradient1061" x1="190.143" x2="321.143" y1="827.857" y2="827.857" gradientTransform="matrix(-1,0,0,1,511.28572,0)" gradientUnits="userSpaceOnUse" xlink:href="#linearGradient1043"/>
  <linearGradient id="linearGradient1077" x1="190.143" x2="186.143" y1="828.12" y2="828.12" gradientUnits="userSpaceOnUse" xlink:href="#linearGradient1051"/>
  <linearGradient id="linearGradient1093" x1="190.143" x2="321.143" y1="827.857" y2="827.857" gradientUnits="userSpaceOnUse" xlink:href="#linearGradient1043"/>
  <linearGradient id="linearGradient1103" x1="321.143" x2="325.143" y1="827.857" y2="827.857" gradientUnits="userSpaceOnUse" xlink:href="#linearGradient1051"/>
  <linearGradient id="linearGradient1111" x1="45" x2="93" y1="117.468" y2="117.468" gradientTransform="translate(0,0.53144)" gradientUnits="userSpaceOnUse" xlink:href="#linearGradient1043"/>
  <linearGradient id="linearGradient1119" x1="190.143" x2="321.143" y1="827.857" y2="827.857" gradientUnits="userSpaceOnUse" xlink:href="#linearGradient1043"/>
  <linearGradient id="linearGradient1127" x1="190.143" x2="321.143" y1="827.857" y2="827.857" gradientUnits="userSpaceOnUse" xlink:href="#linearGradient1043"/>
  <linearGradient id="linearGradient1135" x1="190.143" x2="186.143" y1="828.326" y2="828.326" gradientUnits="userSpaceOnUse" xlink:href="#linearGradient1051"/>
  <linearGradient id="linearGradient1143" x1="321.143" x2="325.143" y1="837.857" y2="837.857" gradientUnits="userSpaceOnUse" xlink:href="#linearGradient1051"/>
  <linearGradient id="linearGradient1151" x1="321.143" x2="325.143" y1="827.857" y2="827.857" gradientUnits="userSpaceOnUse" xlink:href="#linearGradient1051"/>
  <linearGradient id="linearGradient1159" x1="190.143" x2="321.143" y1="827.857" y2="827.857" gradientUnits="userSpaceOnUse" xlink:href="#linearGradient1043"/>
  <linearGradient id="linearGradient1167" x1="30" x2="78" y1="39.016" y2="39.016" gradientUnits="userSpaceOnUse" xlink:href="#linearGradient1043"/>
  <linearGradient id="linearGradient1175" x1="190.143" x2="321.143" y1="827.857" y2="827.857" gradientUnits="userSpaceOnUse" xlink:href="#linearGradient1043"/>
  <linearGradient id="linearGradient1183" x1="190.143" x2="186.143" y1="828.873" y2="828.873" gradientUnits="userSpaceOnUse" xlink:href="#linearGradient1051"/>
  <linearGradient id="linearGradient1191" x1="321.143" x2="325.143" y1="837.857" y2="837.857" gradientUnits="userSpaceOnUse" xlink:href="#linearGradient1051"/>
  <linearGradient id="linearGradient1199" x1="321.143" x2="325.143" y1="827.857" y2="827.857" gradientUnits="userSpaceOnUse" xlink:href="#linearGradient1051"/>
 </defs>
 <path id="selected-center" style="opacity:0.99999999;fill:url(#linearGradient1167);fill-opacity:1.0;fill-rule:nonzero;stroke:none" d="m 30,15.01572 v 48 h 48 v -48 z"/>
 <g id="selected-left" transform="matrix(1,0,0,3,-160.14285,-2474.5713)">
  <path id="path4119" style="opacity:1;fill:#3daee9;fill-rule:nonzero;stroke:none" d="m 186.14285,829.85712 v 16 h 4 v -16 z"/>
 </g>
 <g id="selected-topleft" transform="translate(-160.14285,-814.85718)">
  <path id="path4131" style="opacity:0.99999999;fill:#3daee9;fill-opacity:1;fill-rule:nonzero;stroke:none" d="m 186.14285,829.8571 h 4 v -4 h -1.46875 c -1.40502,0 -2.53125,1.11588 -2.53125,2.53125 z"/>
 </g>
 <g id="selected-top" transform="matrix(0.36641221,0,0,1,-39.670666,-814.85714)">
  <path id="path4143" style="opacity:1;fill:url(#linearGradient1175);fill-opacity:1;fill-rule:nonzero;stroke:none" d="m 190.14286,825.85714 v 4 h 131 v -4 z"/>
 </g>
 <g id="selected-topright" transform="translate(-243.14285,-814.85714)">
  <path id="path4155" style="opacity:1;fill:url(#linearGradient1199);fill-opacity:1;fill-rule:nonzero;stroke:none" d="m 321.14285,825.85714 v 4 h 4 v -1.46875 c 0,-1.40502 -1.11588,-2.53125 -2.53125,-2.53125 z"/>
 </g>
 <g id="selected-right" transform="matrix(1,0,0,3.0000017,-243.14285,-2474.5728)">
  <path id="path4167" style="opacity:1;fill:url(#linearGradient1191);fill-opacity:1;fill-rule:nonzero;stroke:none" d="m 325.14286,829.85712 v 16 h -4 v -16 z"/>
 </g>
 <path id="normal-center" style="opacity:1;fill:#ffffff;fill-opacity:0.07843137;fill-rule:nonzero;stroke:none" d="m 129.99999,17.01572 v 48 h 48 v -48 z"/>
 <g id="normal-bottom" style="opacity:1" transform="matrix(0.36657704,0,0,0.49999749,60.28798,-353.92645)">
  <g id="g4980">
   <path id="path4983" style="opacity:0.82272728;fill:#ffffff;fill-opacity:0.07843137;fill-rule:nonzero;stroke:none" d="m 190.12705,845.85714 v 4 l 130.9842,-0.0625 v -3.9375 z"/>
   <path id="path4985" style="opacity:0.85;fill:#000000;fill-opacity:0.15686275;fill-rule:nonzero;stroke:none" d="m 190.14285,849.85714 v 1 h 131 v -1 z"/>
   <path id="path4987" style="fill:#ffffff;fill-opacity:0.15686275;fill-rule:nonzero;stroke:none" d="m 190.14285,848.85714 v 1 h 131 v -1 z"/>
  </g>
  <rect id="rect4989" style="opacity:0.52100004;fill:#ffffff;fill-opacity:0;stroke:none" width="1" height="2" x="547" y="869" transform="translate(-342.85715,-17.142857)"/>
 </g>
 <g id="normal-bottomleft" style="opacity:1" transform="matrix(0.5714288,0,0,0.49999749,18.34689,-353.92645)">
  <g id="g4993">
   <path id="path4995" style="opacity:0.85;fill:#000000;fill-opacity:0.15686275;fill-rule:nonzero;stroke:none" d="m 188.6741,850.85716 c -1.94821,0 -3.53125,-1.58839 -3.53125,-3.53125 v -1.46875 h 1 v 1.46875 c 0,1.40502 1.11588,2.53125 2.53125,2.53125 h 1.46875 v 1 z"/>
   <path id="path4997" style="opacity:0.82272728;fill:#ffffff;fill-opacity:0.07843137;fill-rule:nonzero;stroke:none" d="m 190.14285,849.8572 v -4 h -4 v 1.46875 c 0,1.40502 1.11588,2.53125 2.53125,2.53125 z"/>
   <path id="path4999" style="fill:#ffffff;fill-opacity:0.15686275;stroke:none" d="m 188.74285,849.85718 c -1.66084,0 -2.6,-1.19855 -2.6,-2.7 v -1.3 h 1 l -0.021,1.29373 c -0.0208,1.28062 0.23073,1.70627 1.62099,1.70627 h 1.4 v 1 z"/>
  </g>
  <rect id="rect5001" style="opacity:0.52100004;fill:#ffffff;fill-opacity:0;stroke:none" width="2" height="2" x="183.14" y="851.86"/>
 </g>
 <g id="normal-left" style="opacity:1" transform="matrix(0.5714288,0,0,3.0009825,18.34689,-2473.3868)">
  <g id="g5005">
   <path id="path5007" style="opacity:0.82272728;fill:#ffffff;fill-opacity:0.07843137;fill-rule:nonzero;stroke:none" d="m 186.14285,829.85712 v 16 h 4 v -16 z"/>
   <path id="path5009" style="opacity:0.85;fill:#000000;fill-opacity:0.15686275;fill-rule:nonzero;stroke:none" d="m 185.14285,829.85715 v 15.99999 h 1 v -15.99999 z"/>
   <path id="path5011" style="fill:#ffffff;fill-opacity:0.15686275;fill-rule:nonzero;stroke:none" d="m 186.14285,829.85715 v 15.99999 h 1 v -15.99999 z"/>
  </g>
  <rect id="rect5013" style="opacity:0.52100004;fill:#ffffff;fill-opacity:0;stroke:none" width="2" height="3" x="183.14" y="834.86"/>
 </g>
 <g id="normal-topleft" style="opacity:1" transform="matrix(0.5714288,0,0,0.57143084,18.34689,-457.206)">
  <g id="g5017">
   <path id="path5019" style="opacity:0.82272728;fill:#ffffff;fill-opacity:0.07843137;fill-rule:nonzero;stroke:none" d="m 186.14285,829.8571 h 4 v -4 h -1.46875 c -1.40502,0 -2.53125,1.11588 -2.53125,2.53125 z"/>
   <path id="path5021" style="opacity:0.85;fill:#000000;fill-opacity:0.15686275;fill-rule:nonzero;stroke:none" d="m 185.14285,828.3884 c 0,-1.94821 1.58839,-3.53125 3.53125,-3.53125 h 1.46875 v 1 h -1.46875 c -1.40502,0 -2.53125,1.11588 -2.53125,2.53125 v 1.46875 h -1 z"/>
   <path id="path5023" style="fill:#ffffff;fill-opacity:0.15686275;fill-rule:nonzero;stroke:none" d="m 186.14285,829.8571 h 1 v -1 c 0,-1.41537 0.59498,-2 2,-2 h 1 v -1 h -1.46875 c -1.40502,0 -2.53125,1.11588 -2.53125,2.53125 z"/>
  </g>
  <rect id="rect5025" style="opacity:0.52100004;fill:#ffffff;fill-opacity:0;stroke:none" width="2" height="2" x="183.14" y="822.86"/>
 </g>
 <g id="normal-top" style="opacity:1" transform="matrix(0.36657704,0,0,0.57143165,60.28798,-457.1909)">
  <g id="g5029">
   <path id="path5031" style="opacity:0.82272728;fill:#ffffff;fill-opacity:0.07843137;fill-rule:nonzero;stroke:none" d="m 190.14286,825.85714 v 4 h 131 v -4 z"/>
   <path id="path5033" style="opacity:0.85;fill:#000000;fill-opacity:0.15686275;fill-rule:nonzero;stroke:none" d="m 190.14285,824.85714 v 1 h 131 v -1 z"/>
   <path id="path5035" style="fill:#ffffff;fill-opacity:0.15686275;fill-rule:nonzero;stroke:none" d="m 190.14285,825.85714 v 1 h 131 v -1 z"/>
  </g>
  <rect id="rect5037" style="opacity:0.52100004;fill:#ffffff;fill-opacity:0;stroke:none" width="3" height="2" x="200.14" y="822.86"/>
 </g>
 <g id="normal-topright" style="opacity:1" transform="matrix(0.57142857,0,0,0.57143165,-5.51021,-457.1909)">
  <g id="g5041">
   <path id="path5043" style="opacity:0.82272728;fill:#ffffff;fill-opacity:0.07843137;fill-rule:nonzero;stroke:none" d="m 321.14285,825.85714 v 4 h 4 v -1.46875 c 0,-1.40502 -1.11588,-2.53125 -2.53125,-2.53125 z"/>
   <path id="path5045" style="opacity:0.85;fill:#000000;fill-opacity:0.15686275;fill-rule:nonzero;stroke:none" d="m 322.6116,824.85714 c 1.94821,0 3.53125,1.58839 3.53125,3.53125 v 1.46875 h -1 v -1.46875 c 0,-1.40502 -1.11588,-2.53125 -2.53125,-2.53125 h -1.46875 v -1 z"/>
   <path id="path5047" style="fill:#ffffff;fill-opacity:0.15686275;fill-rule:nonzero;stroke:none" d="m 325.14285,829.8571 h -1 v -1 c 0,-1.41537 -0.59498,-2 -2,-2 h -1 v -1 h 1.46875 c 1.40502,0 2.53125,1.11588 2.53125,2.53125 z"/>
  </g>
  <rect id="rect5049" style="opacity:0.52100004;fill:#ffffff;fill-opacity:0;stroke:none" width="2" height="2" x="326.14" y="822.86"/>
 </g>
 <g id="normal-right" style="opacity:1" transform="matrix(0.57142857,0,0,3.0000017,-5.51021,-2472.557)">
  <g id="g5053">
   <path id="path5055" style="opacity:0.82272728;fill:#ffffff;fill-opacity:0.07843137;fill-rule:nonzero;stroke:none" d="m 325.14286,829.85712 v 16 h -4 v -16 z"/>
   <path id="path5057" style="opacity:0.85;fill:#000000;fill-opacity:0.15686275;fill-rule:nonzero;stroke:none" d="m 326.14286,829.85715 v 15.99999 h -1 v -15.99999 z"/>
   <path id="path5059" style="fill:#ffffff;fill-opacity:0.15686275;fill-rule:nonzero;stroke:none" d="m 325.14285,829.85714 v 15.99999 h -1 v -15.99999 z"/>
  </g>
  <rect id="rect5061" style="opacity:0.52100004;fill:#ffffff;fill-opacity:0;stroke:none" width="2" height="3" x="326.14" y="832.86"/>
 </g>
 <g id="normal-bottomright" style="opacity:1" transform="matrix(0.57142857,0,0,0.49999749,-5.51021,-353.92645)">
  <g id="g5065">
   <g id="g5067">
    <path id="path5071" style="opacity:0.82272728;fill:#ffffff;fill-opacity:0.07843137;fill-rule:nonzero;stroke:none" d="m 325.1429,845.85714 h -4 v 4 h 1.46875 c 1.40502,0 2.53125,-1.11588 2.53125,-2.53125 z"/>
    <path id="path5069" style="fill:#ffffff;fill-opacity:0.15686275;stroke:none" d="m 322.14285,849.85714 c 1.59707,0 3,-0.57542 3,-2.99996 0,-0.94263 0,-1 0,-1 h -1 c 0,0.88676 0,0.28587 0,1 0,0.89359 -0.31679,1.99996 -2,1.99996 h -1 v 1 z"/>
    <path id="path5073" style="opacity:0.85199998;fill:#000000;fill-opacity:0.15686275;fill-rule:nonzero;stroke:none" d="m 326.14286,847.32589 c 0,1.94821 -1.58839,3.53125 -3.53125,3.53125 h -1.46875 v -1 h 1.46875 c 1.40502,0 2.53125,-1.11588 2.53125,-2.53125 v -1.46875 h 1 z"/>
   </g>
  </g>
  <rect id="rect5075" style="opacity:0.52100004;fill:#ffffff;fill-opacity:0;stroke:none" width="2" height="2" x="326.14" y="851.86"/>
 </g>
 <path id="hover-center" style="opacity:1;fill:url(#linearGradient1111);fill-opacity:1;fill-rule:nonzero;stroke:none" d="m 45,93.99972 v 48 h 48 v -48 z"/>
 <g id="hover-left" transform="matrix(1,0,0,3,-145.14285,-2395.5717)">
  <path id="path4119-9" style="opacity:1;fill:#3daee9;fill-opacity:1;fill-rule:nonzero;stroke:none" d="m 186.14285,829.85712 v 16 h 4 v -16 z"/>
 </g>
 <g id="hover-topleft" transform="translate(-145.14285,-735.8571)">
  <path id="path3133" style="opacity:1;fill:#3daee9;fill-opacity:1;fill-rule:nonzero;stroke:none" d="m 186.14285,829.8571 h 4 v -4 h -1.46875 c -1.40502,0 -2.53125,1.11588 -2.53125,2.53125 z"/>
 </g>
 <g id="hover-top" transform="matrix(0.36641221,0,0,1,-24.670666,-735.8574)">
  <path id="path4143-7" style="opacity:1;fill:url(#linearGradient1119);fill-opacity:1;fill-rule:nonzero;stroke:none" d="m 190.14286,825.85714 v 4 h 131 v -4 z"/>
 </g>
 <g id="hover-topright" transform="translate(-228.14285,-735.8574)">
  <path id="path4155-3" style="opacity:1;fill:url(#linearGradient1151);fill-opacity:1;fill-rule:nonzero;stroke:none" d="m 321.14285,825.85714 v 4 h 4 v -1.46875 c 0,-1.40502 -1.11588,-2.53125 -2.53125,-2.53125 z"/>
 </g>
 <g id="hover-right" transform="matrix(1,0,0,3.0000017,-228.14285,-2395.573)">
  <path id="path4167-1" style="opacity:1;fill:url(#linearGradient1143);fill-opacity:1;fill-rule:nonzero;stroke:none" d="m 325.14286,829.85712 v 16 h -4 v -16 z"/>
 </g>
 <path id="selected+hover-center" style="fill:url(#linearGradient1045);fill-opacity:1;fill-rule:nonzero;stroke:none" d="m 150,93.99994 v 48 h 48 v -48 z"/>
 <g id="selected+hover-left" transform="matrix(1,0,0,3,-40.14285,-2395.5715)">
  <path id="path4119-9-6" style="fill:#3daee9;fill-rule:nonzero;stroke:none" d="m 186.14285,829.85712 v 16 h 4 v -16 z"/>
 </g>
 <g id="selected+hover-topleft" transform="translate(-40.14285,-735.8571)">
  <path id="path4131-9-7" style="fill:#3daee9;fill-opacity:1;fill-rule:nonzero;stroke:none" d="m 186.14285,829.8571 h 4 v -4 h -1.46875 c -1.40502,0 -2.53125,1.11588 -2.53125,2.53125 z"/>
 </g>
 <g id="selected+hover-top" transform="matrix(0.36641221,0,0,1,80.329334,-735.85718)">
  <path id="path4143-7-8" style="fill:url(#linearGradient1093);fill-opacity:1;fill-rule:nonzero;stroke:none" d="m 190.14286,825.85714 v 4 h 131 v -4 z"/>
 </g>
 <g id="selected+hover-topright" transform="translate(-123.14285,-735.85718)">
  <path id="path4155-3-0" style="fill:url(#linearGradient1103);fill-opacity:1;fill-rule:nonzero;stroke:none" d="m 321.14285,825.85714 v 4 h 4 v -1.46875 c 0,-1.40502 -1.11588,-2.53125 -2.53125,-2.53125 z"/>
 </g>
 <g id="selected+hover-right" transform="matrix(1,0,0,3.0000017,-123.14285,-2395.5728)">
  <path id="path4167-1-9" style="fill:url(#linearGradient1053);fill-opacity:1;fill-rule:nonzero;stroke:none" d="m 325.14286,829.85712 v 16 h -4 v -16 z"/>
 </g>
 <g id="selected-bottomright" transform="rotate(180,134.07142,446.42855)">
  <path id="path4131-3" style="opacity:1;fill:url(#linearGradient1183);fill-opacity:1;fill-rule:nonzero;stroke:none" d="m 186.14285,829.8571 h 4 v -4 h -1.46875 c -1.40502,0 -2.53125,1.11588 -2.53125,2.53125 z"/>
 </g>
 <g id="selected-bottom" transform="matrix(0.36641221,0,0,-1,-39.670665,892.85714)">
  <path id="path4143-6" style="opacity:1;fill:url(#linearGradient1159);fill-opacity:1;fill-rule:nonzero;stroke:none" d="m 190.14286,825.85714 v 4 h 131 v -4 z"/>
 </g>
 <g id="selected-bottomleft" transform="rotate(180,175.57142,446.42857)">
  <path id="path4155-5" style="opacity:1;fill:#3daee9;fill-opacity:1;fill-rule:nonzero;stroke:none" d="m 321.14285,825.85714 v 4 h 4 v -1.46875 c 0,-1.40502 -1.11588,-2.53125 -2.53125,-2.53125 z"/>
 </g>
 <g id="hover-bottomright" transform="rotate(180,141.57143,485.92847)">
  <path id="path3133-3" style="opacity:1;fill:url(#linearGradient1135);fill-opacity:1;fill-rule:nonzero;stroke:none" d="m 186.14285,829.8571 h 4 v -4 h -1.46875 c -1.40502,0 -2.53125,1.11588 -2.53125,2.53125 z"/>
 </g>
 <g id="hover-bottom" transform="matrix(0.36641221,0,0,-1,-24.670665,971.85714)">
  <path id="path4143-7-6" style="opacity:1;fill:url(#linearGradient1127);fill-opacity:1;fill-rule:nonzero;stroke:none" d="m 190.14286,825.85714 v 4 h 131 v -4 z"/>
 </g>
 <g id="hover-bottomleft" transform="rotate(180,183.07142,485.92842)">
  <path id="path4155-3-03" style="opacity:1;fill:#3daee9;fill-opacity:1;fill-rule:nonzero;stroke:none" d="m 321.14285,825.85714 v 4 h 4 v -1.46875 c 0,-1.40502 -1.11588,-2.53125 -2.53125,-2.53125 z"/>
 </g>
 <g id="selected_hover-bottomright" transform="rotate(180,194.07143,485.92855)">
  <path id="path4131-9-7-7" style="fill:url(#linearGradient1077);fill-opacity:1;fill-rule:nonzero;stroke:none" d="m 186.14285,829.8571 h 4 v -4 h -1.46875 c -1.40502,0 -2.53125,1.11588 -2.53125,2.53125 z"/>
 </g>
 <g id="selected_hover-bottom" transform="matrix(-0.36641221,0,0,-1,267.67067,971.857)">
  <path id="path4143-7-8-4" style="fill:url(#linearGradient1061);fill-opacity:1;fill-rule:nonzero;stroke:none" d="m 321.14286,825.85714 v 4 h -131 v -4 z"/>
 </g>
 <g id="selected_hover-bottomleft" transform="rotate(180,235.57142,485.92855)">
  <path id="path4155-3-0-0" style="fill:#3daee9;fill-opacity:1;fill-rule:nonzero;stroke:none" d="m 321.14285,825.85714 v 4 h 4 v -1.46875 c 0,-1.40502 -1.11588,-2.53125 -2.53125,-2.53125 z"/>
 </g>
 <rect id="hint-stretch-borders" style="opacity:0.875;fill:#0000ff;fill-opacity:1;stroke:none;stroke-width:0.79999894" width="4" height="4" x="0" y="77"/>
</svg>
