<svg xmlns="http://www.w3.org/2000/svg" xmlns:xlink="http://www.w3.org/1999/xlink" width="284" height="142" version="1.1">
 <defs id="rounded">
  <linearGradient id="linearGradient1003" x1="148" x2="148" y1="143" y2="128.5" gradientTransform="matrix(0,1.9999998,-1.9999998,0,551.99997,-208.99996)" gradientUnits="userSpaceOnUse" xlink:href="#linearGradient985"/>
  <linearGradient id="linearGradient985">
   <stop style="stop-color:#000000;stop-opacity:1" offset="0"/>
   <stop style="stop-color:#000000;stop-opacity:0" offset="1"/>
  </linearGradient>
  <linearGradient id="linearGradient1007" x1="148" x2="148" y1="143" y2="128.5" gradientTransform="matrix(0,1.9999998,1.9999998,0,-103.99996,-208.99996)" gradientUnits="userSpaceOnUse" xlink:href="#linearGradient985"/>
  <radialGradient id="radialGradient882" cx="129.71" cy="144.271" r="11" fx="129.71" fy="144.271" gradientTransform="matrix(1.8641918,1.8641918,2.1818194,-2.1818194,-372.5768,201.96938)" gradientUnits="userSpaceOnUse" xlink:href="#linearGradient985"/>
  <linearGradient id="linearGradient1022" x1="148" x2="148" y1="143" y2="128.5" gradientTransform="matrix(1.9999998,0,0,-1.9999998,-73.999963,416.99997)" gradientUnits="userSpaceOnUse" xlink:href="#linearGradient985"/>
  <radialGradient id="radialGradient884" cx="129.71" cy="144.271" r="11" fx="129.71" fy="144.271" gradientTransform="matrix(-1.8641918,1.8641918,-2.1818194,-2.1818194,820.5768,201.96938)" gradientUnits="userSpaceOnUse" xlink:href="#linearGradient985"/>
  <radialGradient id="radialGradient987" cx="129.71" cy="144.271" r="11" fx="129.71" fy="144.271" gradientTransform="matrix(1.8641918,-1.8641918,2.1818194,2.1818194,-372.5768,-23.969379)" gradientUnits="userSpaceOnUse" xlink:href="#linearGradient985"/>
  <linearGradient id="linearGradient995" x1="148" x2="148" y1="143" y2="128.5" gradientTransform="matrix(1.9999998,0,0,1.9999998,-73.999963,-238.99996)" gradientUnits="userSpaceOnUse" xlink:href="#linearGradient985"/>
  <radialGradient id="radialGradient876" cx="129.71" cy="144.271" r="11" fx="129.71" fy="144.271" gradientTransform="matrix(-1.8641918,-1.8641918,-2.1818194,2.1818194,820.5768,-23.969379)" gradientUnits="userSpaceOnUse" xlink:href="#linearGradient985"/>
  <linearGradient id="linearGradient933" x1="148" x2="148" y1="143" y2="130.5" gradientTransform="matrix(1.9999998,0,0,-1.9999998,-73.999963,416.99997)" gradientUnits="userSpaceOnUse" xlink:href="#linearGradient985"/>
  <radialGradient id="radialGradient935" cx="129.71" cy="144.271" r="11" fx="129.71" fy="144.271" gradientTransform="matrix(1.5454134,1.5454132,1.9517156,-1.9517158,-298.03074,210.12088)" gradientUnits="userSpaceOnUse" xlink:href="#linearGradient985"/>
  <linearGradient id="linearGradient937" x1="148" x2="148" y1="143" y2="130.5" gradientTransform="matrix(0,1.9999998,1.9999998,0,-103.99996,-208.99996)" gradientUnits="userSpaceOnUse" xlink:href="#linearGradient985"/>
  <linearGradient id="linearGradient961" x1="148" x2="148" y1="143" y2="132.409" gradientTransform="matrix(1.9999998,0,0,-1.9999998,-73.999963,416.99997)" gradientUnits="userSpaceOnUse" xlink:href="#linearGradient985"/>
  <radialGradient id="radialGradient963" cx="129.71" cy="144.271" r="11" fx="129.71" fy="144.271" gradientTransform="matrix(-0.87721682,2.3739146,1.8707538,0.69128695,27.889062,-278.65268)" gradientUnits="userSpaceOnUse" xlink:href="#linearGradient985"/>
  <linearGradient id="linearGradient965" x1="148" x2="148" y1="143" y2="130.5" gradientTransform="matrix(0,1.9999998,1.9999998,0,-103.99996,-208.99996)" gradientUnits="userSpaceOnUse" xlink:href="#linearGradient985"/>
  <radialGradient id="radialGradient979" cx="129.71" cy="144.271" r="11" fx="129.71" fy="144.271" gradientTransform="matrix(1.5454134,1.5454132,1.9517156,-1.9517158,-298.03074,210.12088)" gradientUnits="userSpaceOnUse" xlink:href="#linearGradient985"/>
  <radialGradient id="radialGradient991" cx="129.71" cy="144.271" r="11" fx="129.71" fy="144.271" gradientTransform="matrix(-0.87721682,2.3739146,1.8707538,0.69128695,27.889062,-278.65268)" gradientUnits="userSpaceOnUse" xlink:href="#linearGradient985"/>
 </defs>
 <rect id="hint-tile-center" style="fill:#ff0000" width="7" height="7" x="0" y="-7"/>
 <rect id="decoration-center" style="fill:#31363b" width="80" height="80" x="31" y="31"/>
 <g id="decoration-topright" transform="translate(-153,-17.999999)">
  <path id="shadow-topright" style="fill:url(#radialGradient876)" d="M 295,18.000002 V 49 h -7 c 0,-20 -4,-24 -24,-24 v -6.999998 z"/>
  <path style="fill:#31363b" d="m 264,25 v 23.999998 h 24 C 288,28.999083 284,25 264,25 Z"/>
 </g>
 <g id="decoration-top" transform="translate(-153,-17.999999)">
  <path style="fill:url(#linearGradient995)" d="m 184,17.999998 v 6.999998 h 80 v -6.999998 z"/>
  <rect style="fill:#31363b" width="80" height="24" x="184" y="25"/>
 </g>
 <g id="decoration-topleft" transform="translate(-153,-17.999999)">
  <path id="shadow-topleft" style="fill:url(#radialGradient987)" d="M 153,18.000002 V 49 h 7 c 0,-20 4,-24 24,-24 v -6.999998 z"/>
  <path style="fill:#31363b" d="M 184,25 V 48.999998 H 160 C 160,28.999998 164,25 184,25 Z"/>
 </g>
 <g id="decoration-bottomright" transform="translate(-153,-17.999999)">
  <path id="shadow-bottomright" style="fill:url(#radialGradient884)" d="m 295,160 v -31 h -7 c 0,20 -4,24 -24,24 v 7 z"/>
  <path style="fill:#31363b" d="m 264,153 v -24 h 24 c 0,20.00092 -4,24 -24,24 z"/>
 </g>
 <g id="decoration-bottom" transform="translate(-153,-17.999999)">
  <path style="fill:url(#linearGradient1022)" d="m 184,153 v 7 h 80 v -7 z"/>
  <rect style="fill:#31363b" width="80" height="24" x="184" y="-153" transform="scale(1,-1)"/>
 </g>
 <g id="decoration-bottomleft" transform="translate(-153,-17.999999)">
  <path id="shadow-bottomleft" style="fill:url(#radialGradient882)" d="m 153,160 v -31 h 7 c 0,20 4,24 24,24 v 7 z"/>
  <path style="fill:#31363b" d="m 184,153 v -24 h -24 c 0,20 3.99998,24 24,24 z"/>
 </g>
 <g id="decoration-left" transform="translate(-153,-17.999999)">
  <path style="fill:url(#linearGradient1007)" d="M 153,48.999996 V 129 h 7 V 48.999996 Z"/>
  <rect style="fill:#31363b" width="80" height="24" x="49" y="-184" transform="rotate(90)"/>
 </g>
 <g id="decoration-right" transform="translate(-153,-17.999999)">
  <path style="fill:url(#linearGradient1003)" d="M 288,48.999996 V 129 h 7 V 48.999996 Z"/>
  <rect style="fill:#31363b" width="80" height="24" x="49" y="-288" transform="rotate(90)"/>
 </g>
 <rect id="hint-top-margin" style="fill:#00ff29" width="4" height="24" x="69" y="7"/>
 <rect id="shadow-hint-top-margin" style="fill:#ff00ff" width="4" height="7" x="69" y="0"/>
 <rect id="shadow-hint-bottom-margin" style="fill:#ff00ff" width="4" height="7" x="69" y="135"/>
 <rect id="shadow-hint-right-margin" style="fill:#ff00ff" width="7" height="4" x="135" y="69"/>
 <rect id="shadow-hint-left-margin" style="fill:#ff00ff" width="7" height="4" x="0" y="69"/>
 <rect id="hint-bottom-margin" style="fill:#00ff29" width="4" height="24" x="69" y="111"/>
 <rect id="hint-right-margin" style="fill:#00ff29" width="4" height="24" x="69" y="-135" transform="rotate(90)"/>
 <rect id="hint-left-margin" style="fill:#00ff29" width="4" height="24" x="69" y="-31" transform="rotate(90)"/>
 <rect id="decoration-inactive-center" style="fill:#31363b" width="80" height="80" x="173" y="31"/>
 <g id="decoration-inactive-bottom" transform="translate(-11,-17.999999)">
  <path style="fill:url(#linearGradient933)" d="m 184,153 v 7 h 80 v -7 z"/>
  <rect style="fill:#31363b" width="80" height="24" x="184" y="-153" transform="scale(1,-1)"/>
 </g>
 <g id="decoration-inactive-bottomleft" transform="translate(-11,-17.999999)">
  <path style="fill:url(#radialGradient935)" d="m 153,160 v -31 h 7 c 0,20 4,24 24,24 v 7 z"/>
  <path style="fill:#31363b" d="m 184,153 v -24 h -24 c 0,20 3.99998,24 24,24 z"/>
 </g>
 <g id="decoration-inactive-left" transform="translate(-11,-17.999999)">
  <path style="fill:url(#linearGradient937)" d="M 153,48.999996 V 129 h 7 V 48.999996 Z"/>
  <rect style="fill:#31363b" width="80" height="24" x="49" y="-184" transform="rotate(90)"/>
 </g>
 <g id="decoration-inactive-top" transform="rotate(180,218.5,80)">
  <path style="fill:url(#linearGradient961)" d="m 184,153 v 7 h 80 v -7 z"/>
  <rect style="fill:#31363b" width="80" height="24" x="184" y="-153" transform="scale(1,-1)"/>
 </g>
 <g id="decoration-inactive-topleft" transform="rotate(90,227.5,74.499999)">
  <path style="fill:url(#radialGradient963)" d="m 153,160 v -31 h 7 c 0,20 4,24 24,24 v 7 z"/>
  <path style="fill:#31363b" d="m 184,153 v -24 h -24 c 0,20 3.99998,24 24,24 z"/>
 </g>
 <g id="decoration-inactive-right" transform="rotate(180,218.5,80)">
  <path style="fill:url(#linearGradient965)" d="M 153,48.999996 V 129 h 7 V 48.999996 Z"/>
  <rect style="fill:#31363b" width="80" height="24" x="49" y="-184" transform="rotate(90)"/>
 </g>
 <g id="decoration-inactive-bottomright" transform="matrix(-1,0,0,1,437,-17.999999)">
  <path style="fill:url(#radialGradient979)" d="m 153,160 v -31 h 7 c 0,20 4,24 24,24 v 7 z"/>
  <path style="fill:#31363b" d="m 184,153 v -24 h -24 c 0,20 3.99998,24 24,24 z"/>
 </g>
 <g id="decoration-inactive-topright" transform="matrix(0,1,1,0,124,-153)">
  <path style="fill:url(#radialGradient991)" d="m 153,160 v -31 h 7 c 0,20 4,24 24,24 v 7 z"/>
  <path style="fill:#31363b" d="m 184,153 v -24 h -24 c 0,20 3.99998,24 24,24 z"/>
 </g>
</svg>
