<svg xmlns="http://www.w3.org/2000/svg" xmlns:xlink="http://www.w3.org/1999/xlink" width="398" height="142" version="1">
 <defs id="rounded">
  <linearGradient id="linearGradient985">
   <stop style="stop-color:#000000;stop-opacity:1" offset="0"/>
   <stop style="stop-color:#000000;stop-opacity:0" offset="1"/>
  </linearGradient>
  <radialGradient id="radialGradient987" cx="129.71" cy="143.29" r="11" fx="129.71" fy="143.29" gradientTransform="matrix(3.1045738e-7,-2.6363652,2.6363644,3.104573e-7,-92.76557,370.96204)" gradientUnits="userSpaceOnUse" xlink:href="#linearGradient985"/>
  <linearGradient id="linearGradient995" x1="148" x2="148" y1="143" y2="128.5" gradientTransform="matrix(1.9999998,0,0,1.9999998,-73.999963,-238.99996)" gradientUnits="userSpaceOnUse" xlink:href="#linearGradient985"/>
  <radialGradient id="radialGradient1001" cx="129.71" cy="143.29" r="11" fx="129.71" fy="143.29" gradientTransform="matrix(-7.4080608e-8,-2.6363636,-2.6363624,7.408057e-8,746.76522,370.96186)" gradientUnits="userSpaceOnUse" xlink:href="#linearGradient985"/>
  <linearGradient id="linearGradient1003" x1="148" x2="148" y1="143" y2="128.5" gradientTransform="matrix(0,1.9999998,-1.9999998,0,551.99997,-208.99996)" gradientUnits="userSpaceOnUse" xlink:href="#linearGradient985"/>
  <linearGradient id="linearGradient1007" x1="148" x2="148" y1="143" y2="128.5" gradientTransform="matrix(0,1.9999998,1.9999998,0,-103.99996,-208.99996)" gradientUnits="userSpaceOnUse" xlink:href="#linearGradient985"/>
  <radialGradient id="radialGradient1020" cx="129.71" cy="143.29" r="11" fx="129.71" fy="143.29" gradientTransform="matrix(-6.2619994e-7,2.6363634,2.636365,6.2620036e-7,-92.76552,-228.96194)" gradientUnits="userSpaceOnUse" xlink:href="#linearGradient985"/>
  <linearGradient id="linearGradient1022" x1="148" x2="148" y1="143" y2="128.5" gradientTransform="matrix(1.9999998,0,0,-1.9999998,-73.999963,416.99997)" gradientUnits="userSpaceOnUse" xlink:href="#linearGradient985"/>
  <radialGradient id="radialGradient1024" cx="129.71" cy="143.29" r="11" fx="129.71" fy="143.29" gradientTransform="matrix(-1.01646e-7,2.6363628,-2.636362,-1.0164597e-7,746.76518,-228.9618)" gradientUnits="userSpaceOnUse" xlink:href="#linearGradient985"/>
  <style type="text/css" id="current-color-scheme">
        .ColorScheme-Text {
        color:#eff0f1;
        }
        .ColorScheme-NegativeText {
        color:#da4453;
        }
        .ColorScheme-Highlight {
        color:#3daee9;
        }
        .ColorScheme-Background {
        color:#31363b;
      }
      .ColorScheme-ButtonBackground {
        color:#444c53;
      }
    </style>
 </defs>
 <rect id="hint-tile-center" style="fill:#ff0000" width="10" height="10" x="0" y="-10"/>
 <path id="topright" style="opacity:0.8;fill:currentColor" class="ColorScheme-Background" d="M 232,11.00092 V 35.00092 H 256 C 256,21.70492 245.296,11.00092 232,11.00092 Z"/>
 <rect id="top" style="opacity:0.8;fill:currentColor" class="ColorScheme-Background" width="80" height="24" x="152" y="11"/>
 <rect id="center" style="opacity:0.8;fill:currentColor" class="ColorScheme-Background" width="80" height="80" x="152" y="35"/>
 <path id="topleft" style="opacity:0.8;fill:currentColor" class="ColorScheme-Background" d="M 152.00002,11 V 35 H 128.00002 C 128.00002,21.704 138.70402,11 152.00002,11 Z"/>
 <path id="bottomright" style="opacity:0.8;fill:currentColor" class="ColorScheme-Background" d="M 232,138.99908 V 114.99908 H 256 C 256,128.2951 245.296,138.99908 232,138.99908 Z"/>
 <rect id="bottom" style="opacity:0.8;fill:currentColor" class="ColorScheme-Background" width="80" height="24" x="152" y="-139" transform="scale(1,-1)"/>
 <path id="bottomleft" style="opacity:0.8;fill:currentColor" class="ColorScheme-Background" d="M 152.00002,139 V 115 H 128.00002 C 128.00002,128.29602 138.70402,139 152.00002,139 Z"/>
 <rect id="left" style="opacity:0.8;fill:currentColor" class="ColorScheme-Background" width="80" height="24" x="35" y="-152" transform="rotate(90)"/>
 <rect id="right" style="opacity:0.8;fill:currentColor" class="ColorScheme-Background" width="80" height="24" x="35" y="-256" transform="rotate(90)"/>
 <rect id="thick-hint-top-margin" style="fill:#ff00ff" width="8" height="16" x="186" y="11"/>
 <rect id="hint-top-margin" style="fill:#ff0000" width="8" height="4" x="186" y="11"/>
 <rect id="thick-hint-left-margin" style="fill:#ff00ff" width="8" height="16" x="69" y="-144" transform="rotate(90)"/>
 <rect id="hint-left-margin" style="fill:#ff0000" width="4" height="8" x="128" y="69"/>
 <rect id="thick-right-margin" style="fill:#ff00ff" width="8" height="16" x="69" y="-256" transform="rotate(90)"/>
 <rect id="hint-right-margin" style="fill:#ff0000" width="4" height="8" x="252" y="69"/>
 <rect id="thick-hint-bottom-margin" style="fill:#ff00ff" width="8" height="16" x="188" y="123"/>
 <rect id="hint-bottom-margin" style="fill:#ff0000" width="8" height="4" x="188" y="135"/>
 <path id="mask-topright" style="opacity:1" d="M 104,11 V 35 H 128 C 128,21.704 117.296,11 104,11 Z"/>
 <rect id="mask-top" style="opacity:1" width="80" height="24" x="24" y="11"/>
 <rect id="mask-center" style="opacity:1" width="80" height="80" x="24" y="35"/>
 <path id="mask-topleft" style="opacity:1" d="M 24,10.99908 V 34.99908 H 0 C 0,21.70308 10.704,10.99908 24,10.99908 Z"/>
 <path id="mask-bottomright" style="opacity:1" d="M 104,138.99816 V 114.99816 H 128 C 128,128.29416 117.296,138.99816 104,138.99816 Z"/>
 <rect id="mask-bottom" style="opacity:1" width="80" height="24" x="24" y="-139" transform="scale(1,-1)"/>
 <path id="mask-bottomleft" style="opacity:1" d="M 24,138.99908 V 114.99908 H 0 C 0,128.29508 10.704,138.99908 24,138.99908 Z"/>
 <rect id="mask-left" style="opacity:1" width="80" height="24" x="35" y="-24" transform="rotate(90)"/>
 <rect id="mask-right" style="opacity:1" width="80" height="24" x="35" y="-128" transform="rotate(90)"/>
 <path id="shadow-topleft" style="fill:url(#radialGradient987)" d="M 256,0 V 31 H 263 C 263,17.704 273.704,7 287,7 V 0 Z"/>
 <g id="shadow-top" transform="translate(103,-18)">
  <path style="opacity:0.00100002" d="M 184,18 H 264 V 49 H 184 Z"/>
  <path style="fill:url(#linearGradient995)" d="M 184,17.999998 V 24.999996 H 264 V 17.999998 Z"/>
 </g>
 <path id="shadow-topright" style="fill:url(#radialGradient1001)" d="M 367,0 V 7 C 380.296,7 391,17.704 391,31 H 398 V 0 Z"/>
 <g id="shadow-right" transform="translate(103,-18)">
  <path style="opacity:0.00100002" transform="rotate(90)" d="M 49,-295 H 129 V -264 H 49 Z"/>
  <path style="fill:url(#linearGradient1003)" d="M 288,48.999996 V 129 H 295 V 48.999996 Z"/>
 </g>
 <g id="shadow-left" transform="translate(103,-18)">
  <path style="opacity:0.00100002" transform="rotate(90)" d="M 49,-184 H 129 V -153 H 49 Z"/>
  <path style="fill:url(#linearGradient1007)" d="M 153,48.999996 V 129 H 160 V 48.999996 Z"/>
 </g>
 <path id="shadow-bottomleft" style="fill:url(#radialGradient1020)" d="M 256,111 V 142 H 287 V 135 C 273.704,135 263,124.296 263,111 Z"/>
 <g id="shadow-bottom" transform="translate(103,-18)">
  <path style="opacity:0.00100002" d="M 184,129 H 264 V 160 H 184 Z"/>
  <path style="fill:url(#linearGradient1022)" d="M 184,153 V 160 H 264 V 153 Z"/>
 </g>
 <path id="shadow-bottomright" style="fill:url(#radialGradient1024)" d="M 391,111 C 391,124.296 380.296,135 367,135 V 142 H 398 V 111 Z"/>
 <rect id="shadow-hint-right-margin" style="fill:#ff0000" width="7" height="8" x="391" y="61"/>
 <rect id="shadow-hint-bottom-margin" style="fill:#ff0000" width="8" height="7" x="323" y="135"/>
 <rect id="shadow-hint-left-margin" style="fill:#ff0000" width="7" height="8" x="256" y="61"/>
 <rect id="shadow-hint-top-margin" style="fill:#ff0000" width="8" height="7" x="323" y="0"/>
 <rect id="shadow-center" style="opacity:0.00100002" width="80" height="80" x="287" y="31"/>
 <rect id="hint-stretch-borders" style="fill:#ff0000" width="10" height="10" x="10" y="-10"/>
 <rect id="shadow-hint-top-inset" style="fill:#00ff00" width="8" height="7" x="331" y="135"/>
 <rect id="shadow-hint-bottom-inset" style="fill:#00ff00" width="8" height="7" x="331" y="0"/>
 <rect id="shadow-hint-right-inset" style="fill:#00ff00" width="8" height="7" x="69" y="-398" transform="rotate(90)"/>
 <rect id="shadow-hint-left-inset" style="fill:#00ff00" width="8" height="7" x="69" y="-263" transform="rotate(90)"/>
 <rect id="thick-center" style="fill:#800080" width="4" height="4" x="20" y="-4"/>
</svg>
