<svg xmlns="http://www.w3.org/2000/svg" xmlns:xlink="http://www.w3.org/1999/xlink" id="svg7080" width="257" height="161" version="1">
 <defs id="defs7082">
  <linearGradient id="linearGradient1043">
   <stop id="stop1039" style="stop-color:#3daee9;stop-opacity:1" offset="0"/>
   <stop id="stop1041" style="stop-color:#3daee9;stop-opacity:0.3137255" offset="1"/>
  </linearGradient>
  <linearGradient id="linearGradient1045" x1="150" x2="198" y1="117.263" y2="117.263" gradientTransform="translate(0,0.7367)" gradientUnits="userSpaceOnUse" xlink:href="#linearGradient1043"/>
  <linearGradient id="linearGradient1061" x1="190.143" x2="321.143" y1="827.857" y2="827.857" gradientTransform="matrix(-1,0,0,1,511.28572,0)" gradientUnits="userSpaceOnUse" xlink:href="#linearGradient1043"/>
  <linearGradient id="linearGradient1093" x1="190.143" x2="321.143" y1="827.857" y2="827.857" gradientUnits="userSpaceOnUse" xlink:href="#linearGradient1043"/>
  <linearGradient id="linearGradient1111" x1="45" x2="93" y1="117.468" y2="117.468" gradientTransform="translate(0,0.53144)" gradientUnits="userSpaceOnUse" xlink:href="#linearGradient1043"/>
  <linearGradient id="linearGradient1119" x1="190.143" x2="321.143" y1="827.857" y2="827.857" gradientUnits="userSpaceOnUse" xlink:href="#linearGradient1043"/>
  <linearGradient id="linearGradient1127" x1="190.143" x2="321.143" y1="827.857" y2="827.857" gradientUnits="userSpaceOnUse" xlink:href="#linearGradient1043"/>
  <linearGradient id="linearGradient1159" x1="190.143" x2="321.143" y1="827.857" y2="827.857" gradientUnits="userSpaceOnUse" xlink:href="#linearGradient1043"/>
  <linearGradient id="linearGradient1167" x1="30" x2="78" y1="39.016" y2="39.016" gradientUnits="userSpaceOnUse" xlink:href="#linearGradient1043"/>
  <linearGradient id="linearGradient1175" x1="190.143" x2="321.143" y1="827.857" y2="827.857" gradientUnits="userSpaceOnUse" xlink:href="#linearGradient1043"/>
 </defs>
 <path id="selected-center" style="opacity:1;fill:url(#linearGradient1167)" d="m 30,15.01572 v 48 h 48 v -48 z"/>
 <g id="selected-left" transform="matrix(1,0,0,3,-160.14285,-2474.5713)">
  <path id="path4119" style="opacity:1;fill:#3daee9" d="m 186.14285,829.85712 v 16 h 4 v -16 z"/>
 </g>
 <g id="selected-topleft" transform="translate(-160.14285,-814.85718)">
  <path id="path4131" style="opacity:1;fill:#3daee9" d="m 186.14285,829.8571 h 4 v -4 h -1.46875 c -1.40502,0 -2.53125,1.11588 -2.53125,2.53125 z"/>
 </g>
 <g id="selected-top" transform="matrix(0.36641221,0,0,1,-39.670666,-814.85714)">
  <path id="path4143" style="opacity:1;fill:url(#linearGradient1175)" d="m 190.14286,825.85714 v 4 h 131 v -4 z"/>
 </g>
 <g id="selected-topright" transform="translate(-243.14285,-814.85714)">
  <path id="path4155" style="opacity:0.31;fill:#3daee9" d="m 321.14285,825.85714 v 4 h 4 v -1.46875 c 0,-1.40502 -1.11588,-2.53125 -2.53125,-2.53125 z"/>
 </g>
 <g id="selected-right" transform="matrix(1,0,0,3.0000017,-243.14285,-2474.5728)">
  <path id="path4167" style="opacity:0.31;fill:#3daee9" d="m 325.14286,829.85712 v 16 h -4 v -16 z"/>
 </g>
 <path id="hover-center" style="opacity:1;fill:url(#linearGradient1111)" d="m 45,93.99972 v 48 h 48 v -48 z"/>
 <g id="hover-left" transform="matrix(1,0,0,3,-145.14285,-2395.5717)">
  <path id="path4119-9" style="opacity:1;fill:#3daee9" d="m 186.14285,829.85712 v 16 h 4 v -16 z"/>
 </g>
 <g id="hover-topleft" transform="translate(-145.14285,-735.8571)">
  <path id="path3133" style="opacity:1;fill:#3daee9" d="m 186.14285,829.8571 h 4 v -4 h -1.46875 c -1.40502,0 -2.53125,1.11588 -2.53125,2.53125 z"/>
 </g>
 <g id="hover-top" transform="matrix(0.36641221,0,0,1,-24.670666,-735.8574)">
  <path id="path4143-7" style="opacity:1;fill:url(#linearGradient1119)" d="m 190.14286,825.85714 v 4 h 131 v -4 z"/>
 </g>
 <g id="hover-topright" transform="translate(-228.14285,-735.8574)">
  <path id="path4155-3" style="opacity:0.31;fill:#3daee9" d="m 321.14285,825.85714 v 4 h 4 v -1.46875 c 0,-1.40502 -1.11588,-2.53125 -2.53125,-2.53125 z"/>
 </g>
 <g id="hover-right" transform="matrix(1,0,0,3.0000017,-228.14285,-2395.573)">
  <path id="path4167-1" style="opacity:0.31;fill:#3daee9" d="m 325.14286,829.85712 v 16 h -4 v -16 z"/>
 </g>
 <path id="selected+hover-center" style="fill:url(#linearGradient1045)" d="m 150,93.99994 v 48 h 48 v -48 z"/>
 <g id="selected+hover-left" transform="matrix(1,0,0,3,-40.14285,-2395.5715)">
  <path id="path4119-9-6" style="fill:#3daee9" d="m 186.14285,829.85712 v 16 h 4 v -16 z"/>
 </g>
 <g id="selected+hover-topleft" transform="translate(-40.14285,-735.8571)">
  <path id="path4131-9-7" style="fill:#3daee9" d="m 186.14285,829.8571 h 4 v -4 h -1.46875 c -1.40502,0 -2.53125,1.11588 -2.53125,2.53125 z"/>
 </g>
 <g id="selected+hover-top" transform="matrix(0.36641221,0,0,1,80.329334,-735.85718)">
  <path id="path4143-7-8" style="fill:url(#linearGradient1093)" d="m 190.14286,825.85714 v 4 h 131 v -4 z"/>
 </g>
 <g id="selected+hover-topright" transform="translate(-123.14285,-735.85718)">
  <path id="path4155-3-0" style="fill:#3daee9;opacity:0.31" d="m 321.14285,825.85714 v 4 h 4 v -1.46875 c 0,-1.40502 -1.11588,-2.53125 -2.53125,-2.53125 z"/>
 </g>
 <g id="selected+hover-right" transform="matrix(1,0,0,3.0000017,-123.14285,-2395.5728)">
  <path id="path4167-1-9" style="fill:#3daee9;opacity:0.31" d="m 325.14286,829.85712 v 16 h -4 v -16 z"/>
 </g>
 <g id="selected-bottomright" transform="rotate(180,134.07142,446.42855)">
  <path id="path4131-3" style="opacity:0.31;fill:#3daee9" d="m 186.14285,829.8571 h 4 v -4 h -1.46875 c -1.40502,0 -2.53125,1.11588 -2.53125,2.53125 z"/>
 </g>
 <g id="selected-bottom" transform="matrix(0.36641221,0,0,-1,-39.670665,892.85714)">
  <path id="path4143-6" style="opacity:1;fill:url(#linearGradient1159)" d="m 190.14286,825.85714 v 4 h 131 v -4 z"/>
 </g>
 <g id="selected-bottomleft" transform="rotate(180,175.57142,446.42857)">
  <path id="path4155-5" style="opacity:1;fill:#3daee9" d="m 321.14285,825.85714 v 4 h 4 v -1.46875 c 0,-1.40502 -1.11588,-2.53125 -2.53125,-2.53125 z"/>
 </g>
 <g id="hover-bottomright" transform="rotate(180,141.57143,485.92847)">
  <path id="path3133-3" style="opacity:0.31;fill:#3daee9" d="m 186.14285,829.8571 h 4 v -4 h -1.46875 c -1.40502,0 -2.53125,1.11588 -2.53125,2.53125 z"/>
 </g>
 <g id="hover-bottom" transform="matrix(0.36641221,0,0,-1,-24.670665,971.85714)">
  <path id="path4143-7-6" style="opacity:1;fill:url(#linearGradient1127)" d="m 190.14286,825.85714 v 4 h 131 v -4 z"/>
 </g>
 <g id="hover-bottomleft" transform="rotate(180,183.07142,485.92842)">
  <path id="path4155-3-03" style="opacity:1;fill:#3daee9" d="m 321.14285,825.85714 v 4 h 4 v -1.46875 c 0,-1.40502 -1.11588,-2.53125 -2.53125,-2.53125 z"/>
 </g>
 <g id="selected_hover-bottomright" transform="rotate(180,194.07143,485.92855)">
  <path id="path4131-9-7-7" style="fill:#3daee9;opacity:0.31" d="m 186.14285,829.8571 h 4 v -4 h -1.46875 c -1.40502,0 -2.53125,1.11588 -2.53125,2.53125 z"/>
 </g>
 <g id="selected_hover-bottom" transform="matrix(-0.36641221,0,0,-1,267.67067,971.857)">
  <path id="path4143-7-8-4" style="fill:url(#linearGradient1061)" d="m 321.14286,825.85714 v 4 h -131 v -4 z"/>
 </g>
 <g id="selected_hover-bottomleft" transform="rotate(180,235.57142,485.92855)">
  <path id="path4155-3-0-0" style="fill:#3daee9" d="m 321.14285,825.85714 v 4 h 4 v -1.46875 c 0,-1.40502 -1.11588,-2.53125 -2.53125,-2.53125 z"/>
 </g>
 <rect id="hint-stretch-borders" style="opacity:1;fill:#ff0000" width="4" height="4" x="0" y="77"/>
</svg>
