<svg xmlns="http://www.w3.org/2000/svg" id="svg20" width="22" height="22" version="1.1">
 <g id="akonadi">
  <path id="path2" style="opacity:0.001" d="M 0,2.5e-7 H 22 V 22 H 0 Z"/>
  <path id="path839" style="opacity:1;fill:#232627" d="M 8.0019531 3 C 5.795054 4.2739076 4.4304903 6.4317524 4.0898438 8.7636719 C 4.3312286 8.649147 4.580506 8.54683 4.8359375 8.4648438 C 5.9378894 8.1111481 7.1671312 8.0051178 8.453125 8 C 10.233741 7.9929137 12.135218 8.2250012 13.919922 8.5664062 C 12.530826 5.5682343 10.524073 2.9883483 8.0019531 3 z M 12.242188 4.1171875 C 13.284935 5.2360683 14.134114 6.6485561 14.828125 8.1464844 L 15.146484 8.8339844 C 16.1095 9.0535358 17.033238 9.2902494 17.837891 9.5429688 C 17.245192 6.7671602 15.034948 4.6240338 12.242188 4.1171875 z M 8.4570312 9 C 5.9988957 9.0097826 3.8923126 9.4379738 3 11 C 3 15.418 6.5817 19 11 19 C 15.418 19 19 15.418 19 11 C 16.659086 10.084609 12.159712 8.9852645 8.4570312 9 z M 8.4609375 10 C 11.665637 9.9872463 15.519351 10.902043 17.857422 11.712891 C 17.485897 15.235802 14.624442 18 11 18 C 7.2469778 18 4.2624327 15.054896 4.0703125 11.351562 C 4.3746567 10.933897 4.758954 10.590113 5.4472656 10.369141 C 6.2363756 10.115808 7.288796 10.004665 8.4609375 10 z"/>
 </g>
</svg>
