<svg xmlns="http://www.w3.org/2000/svg" id="svg36" width="22" height="22" version="1.1">
 <g id="audio-volume-high">
  <path id="path22" style="opacity:0.001" d="M 0,0 H 22 V 22 H 0 Z"/>
  <path id="path892" style="opacity:1;fill:#232627" d="M 14.480469 2.9980469 C 13.926598 3.0116269 13.802586 3.782051 14.324219 3.96875 C 14.324219 3.96875 15.200262 4.2895043 16.126953 5.3320312 C 17.053644 6.3745592 18 8.111111 18 11 C 18 13.888889 17.053644 15.625442 16.126953 16.667969 C 15.200262 17.710496 14.324219 18.03125 14.324219 18.03125 C 13.699219 18.265625 14.050781 19.203125 14.675781 18.96875 C 14.675781 18.96875 15.799738 18.539504 16.873047 17.332031 C 17.946356 16.124558 19 14.111111 19 11 C 19 7.888889 17.946356 5.8754418 16.873047 4.6679688 C 15.799738 3.4604957 14.675781 3.03125 14.675781 3.03125 C 14.613541 3.00727 14.547136 2.9959769 14.480469 2.9980469 z M 11.175781 3 C 10.972263 3.0069 10.778786 3.0998614 10.634766 3.2597656 L 6.3691406 8 L 5 8 C 3.892 8 3 8.8921468 3 10 L 3 12 C 3 12.654928 3.3169711 13.227469 3.8007812 13.591797 L 3.8007812 13.599609 L 3.8066406 13.599609 C 4.1401017 13.848528 4.5499868 13.998047 5 13.998047 L 6.3691406 13.998047 L 10.634766 18.738281 C 11.138934 19.297164 11.999701 18.900614 12 18.109375 L 12 3.8886719 C 12.000053 3.3872302 11.626945 2.984881 11.175781 3 z M 11 4.3496094 L 11 17.648438 L 7.1132812 13.332031 A 1.0001 0.99996766 0 0 0 7 13.226562 L 7 8.7753906 A 1.0001 0.99996766 0 0 0 7.1132812 8.6679688 L 11 4.3496094 z M 13.472656 5.9960938 C 12.998825 6.0153738 12.815458 6.6217946 13.199219 6.9003906 C 13.199219 6.9003906 15 8.222222 15 11 C 15 13.777778 13.199219 15.099609 13.199219 15.099609 C 12.665365 15.50065 13.266929 16.301432 13.800781 15.900391 C 13.800781 15.900391 16 14.222222 16 11 C 16 7.777778 13.800781 6.0996094 13.800781 6.0996094 C 13.707091 6.0273794 13.590832 5.9906997 13.472656 5.9960938 z"/>
 </g>
 <g id="audio-volume-medium" transform="translate(-3,42)">
  <path id="path913" style="opacity:0.001" d="m 25,-42 h 22 v 22 H 25 Z"/>
  <path id="path935" style="opacity:0.5;fill:#232627" d="m 39.480469,-39.001953 a 0.50005,0.50005 0 0 0 -0.15625,0.970703 c 0,0 0.876043,0.320754 1.802734,1.363281 C 42.053644,-35.625441 43,-33.888889 43,-31 c 0,2.888889 -0.946356,4.625442 -1.873047,5.667969 -0.926691,1.042527 -1.802734,1.363281 -1.802734,1.363281 a 0.50062513,0.50062513 0 1 0 0.351562,0.9375 c 0,0 1.123957,-0.429246 2.197266,-1.636719 C 42.946356,-25.875442 44,-27.888889 44,-31 c 0,-3.111111 -1.053644,-5.124558 -2.126953,-6.332031 -1.073309,-1.207473 -2.197266,-1.636719 -2.197266,-1.636719 a 0.50005,0.50005 0 0 0 -0.195312,-0.0332 z"/>
  <path id="path933" style="opacity:1;fill:#232627" transform="translate(3,-42)" d="M 33.175781 3 C 32.972263 3.0069 32.778786 3.0998646 32.634766 3.2597656 L 28.369141 8 L 27 8 C 25.892 8 25 8.892146 25 10 L 25 12 C 25 12.654928 25.316971 13.229422 25.800781 13.59375 L 25.800781 13.599609 L 25.806641 13.599609 C 26.140102 13.848528 26.549987 14 27 14 L 28.369141 14 L 32.634766 18.738281 C 33.138934 19.297163 33.999701 18.900614 34 18.109375 L 34 3.8886719 C 34.000053 3.3872309 33.626945 2.984881 33.175781 3 z M 33 4.3496094 L 33 17.648438 L 29.113281 13.332031 A 1.0001 0.99996766 0 0 0 29 13.226562 L 29 8.7753906 A 1.0001 0.99996766 0 0 0 29.113281 8.6679688 L 33 4.3496094 z M 35.472656 5.9960938 C 34.998825 6.0153754 34.815459 6.6217946 35.199219 6.9003906 C 35.199219 6.9003906 37 8.222222 37 11 C 37 13.777778 35.199219 15.099609 35.199219 15.099609 C 34.665365 15.50065 35.266929 16.301432 35.800781 15.900391 C 35.800781 15.900391 38 14.222222 38 11 C 38 7.777778 35.800781 6.0996094 35.800781 6.0996094 C 35.707094 6.0273774 35.590832 5.9906996 35.472656 5.9960938 z"/>
 </g>
 <path id="path846" style="opacity:1;fill:#232627" d="m 33.175782,3.000662 c -0.203518,0.0069 -0.396995,0.09983 -0.541015,0.259731 L 28.369141,8 h -1.36914 c -1.108,0 -2,0.891882 -2,1.999736 v 1.999736 c 0,0.654928 0.316971,1.229211 0.800781,1.593539 v 0.0059 h 0.0059 c 0.333461,0.248919 0.743346,0.400296 1.193359,0.400296 h 1.36914 l 4.265626,4.739607 c 0.504168,0.558882 1.364935,0.162416 1.365234,-0.628823 V 3.889216 C 34.000094,3.387775 33.626986,2.985543 33.175822,3.000662 Z M 33.000001,4.350093 V 17.649115 L 29.113282,13.331326 A 1.0001,0.99996766 0 0 0 29.000001,13.225871 V 8.775288 a 1.0001,0.99996766 0 0 0 0.113281,-0.107407 z"/>
 <g id="audio-volume-low">
  <path id="path919" style="opacity:0.001" d="M 44,0 H 66 V 22 H 44 Z"/>
  <path id="path941" style="opacity:0.5;fill:#232627" d="M 58.480469,2.9980469 A 0.50005,0.50005 0 0 0 58.324219,3.96875 c 0,0 0.876043,0.3207543 1.802734,1.3632812 C 61.053644,6.3745592 62,8.111111 62,11 c 0,2.888889 -0.946356,4.625442 -1.873047,5.667969 -0.926691,1.042527 -1.802734,1.363281 -1.802734,1.363281 a 0.50062513,0.50062513 0 1 0 0.351562,0.9375 c 0,0 1.123957,-0.429246 2.197266,-1.636719 C 61.946356,16.124558 63,14.111111 63,11 63,7.888889 61.946356,5.8754418 60.873047,4.6679688 59.799738,3.4604957 58.675781,3.03125 58.675781,3.03125 A 0.50005,0.50005 0 0 0 58.480469,2.9980469 Z M 57.472656,5.9960938 A 0.50005,0.50005 0 0 0 57.199219,6.9003906 C 57.199219,6.9003906 59,8.222222 59,11 c 0,2.777778 -1.800781,4.099609 -1.800781,4.099609 a 0.50078155,0.50078155 0 0 0 0.601562,0.800782 C 57.800781,15.900391 60,14.222222 60,11 60,7.777778 57.800781,6.0996094 57.800781,6.0996094 A 0.50005,0.50005 0 0 0 57.472656,5.9960938 Z"/>
  <path id="path848" style="opacity:1;fill:#232627" d="m 55.175782,3.000662 c -0.203518,0.0069 -0.396995,0.09983 -0.541015,0.259731 L 50.369141,8 h -1.36914 c -1.108,0 -2,0.891882 -2,1.999736 v 1.999736 c 0,0.654928 0.316971,1.229211 0.800781,1.593539 v 0.0059 h 0.0059 c 0.333461,0.248919 0.743346,0.400296 1.193359,0.400296 h 1.36914 l 4.265626,4.739607 c 0.504168,0.558882 1.364935,0.162416 1.365234,-0.628823 V 3.889216 C 56.000094,3.387775 55.626986,2.985543 55.175822,3.000662 Z M 55.000001,4.350093 V 17.649115 L 51.113282,13.331326 A 1.0001,0.99996766 0 0 0 51.000001,13.225871 V 8.775288 a 1.0001,0.99996766 0 0 0 0.113281,-0.107407 z"/>
 </g>
 <g id="audio-volume-muted">
  <path id="path925" style="opacity:0.001" d="M 66,0 H 88 V 22 H 66 Z"/>
  <path id="path857" style="opacity:1;fill:#da4453" d="m 77.175782,3.000662 c -0.203518,0.0069 -0.396995,0.09983 -0.541015,0.259731 L 72.369141,8 h -1.36914 c -1.108,0 -2,0.891882 -2,1.999736 v 1.999736 c 0,0.654928 0.316971,1.229211 0.800781,1.593539 v 0.0059 h 0.0059 c 0.333461,0.248919 0.743346,0.400296 1.193359,0.400296 h 1.36914 l 4.265626,4.739607 c 0.504168,0.558882 1.364935,0.162416 1.365234,-0.628823 V 3.889216 C 78.000094,3.387775 77.626986,2.985543 77.175822,3.000662 Z M 77.000001,4.350093 V 17.649115 L 73.113282,13.331326 A 1.0001,0.99996766 0 0 0 73.000001,13.225871 V 8.775288 a 1.0001,0.99996766 0 0 0 0.113281,-0.107407 z"/>
 </g>
</svg>
