<svg xmlns="http://www.w3.org/2000/svg" id="svg7229" width="22" height="22" version="1.0">
 <g id="Unavailable" transform="translate(-214.53572,-404.50504)">
  <rect id="rect1161" style="opacity:0.001" width="22" height="22" x="169.54" y="404.5"/>
  <g id="g1167" transform="translate(-90.000077,-22.000057)">
   <rect id="rect1163" style="opacity:1;fill:#da4453" width="8" height="8" x="273.54" y="440.5" ry=".8"/>
   <path id="path1165" style="opacity:1;fill:#ffffff" d="m 275.24275,441.50504 -0.70703,0.70703 2.29297,2.29297 -2.29297,2.29297 0.70703,0.70703 2.29297,-2.29297 2.29297,2.29297 0.70703,-0.70703 -2.29297,-2.29297 2.29297,-2.29297 -0.70703,-0.70703 -2.29297,2.29297 z"/>
  </g>
 </g>
 <g id="AcAdapter" transform="translate(-214.53572,-404.50504)">
  <rect id="rect1171" style="opacity:0.001" width="22" height="22" x="147.54" y="404.5"/>
  <path id="path1173" style="opacity:1;fill:#2abb9b" d="m 159.53572,412.50498 a 3,3 0 0 0 -2.82617,2 h -1.17383 v 2 h 1.17578 a 3,3 0 0 0 2.82422,2 v -1 h 2 v -0.0996 -0.90039 h -2 v -0.0996 -1.90039 h 2 v -1 h -2 z"/>
 </g>
 <g id="Battery" transform="translate(-214.53564,-404.50504)">
  <rect id="rect968" style="opacity:0.001" width="22" height="22" x="214.54" y="404.5"/>
  <path id="rect983" style="opacity:1;fill:#232627" d="m 224.03572,407.50504 c -0.277,0 -0.5,0.223 -0.5,0.5 v 0.5 h -1.5 c -0.831,0 -1.5,0.669 -1.5,1.5 v 11 c 0,0.831 0.669,1.5 1.5,1.5 h 7 c 0.831,0 1.5,-0.669 1.5,-1.5 v -11 c 0,-0.831 -0.669,-1.5 -1.5,-1.5 h -1.5 v -0.5 c 0,-0.277 -0.223,-0.5 -0.5,-0.5 z m -2,2 h 7 c 0.29429,0 0.5,0.2057 0.5,0.5 v 11 c 0,0.2943 -0.20571,0.5 -0.5,0.5 h -7 c -0.2943,0 -0.5,-0.2057 -0.5,-0.5 v -11 c 0,-0.2943 0.2057,-0.5 0.5,-0.5 z"/>
 </g>
 <g id="Fill100" transform="translate(-192.53564,-404.50504)">
  <rect id="rect1014" style="opacity:0.001" width="22" height="22" x="214.54" y="404.5"/>
  <path id="path1016" style="opacity:1;fill:#232627" d="m 224.03572,407.50504 c -0.277,0 -0.5,0.223 -0.5,0.5 v 0.5 h -1.5 c -0.831,0 -1.5,0.669 -1.5,1.5 v 11 c 0,0.831 0.669,1.5 1.5,1.5 h 7 c 0.831,0 1.5,-0.669 1.5,-1.5 v -11 c 0,-0.831 -0.669,-1.5 -1.5,-1.5 h -1.5 v -0.5 c 0,-0.277 -0.223,-0.5 -0.5,-0.5 z m -2,2 h 7 c 0.29429,0 0.5,0.2057 0.5,0.5 v 11 c 0,0.2943 -0.20571,0.5 -0.5,0.5 h -7 c -0.2943,0 -0.5,-0.2057 -0.5,-0.5 v -11 c 0,-0.2943 0.2057,-0.5 0.5,-0.5 z m 0.5,1 v 10 h 6 v -10 z"/>
 </g>
 <g id="Fill90" transform="translate(-170.53564,-404.50504)">
  <rect id="rect1020" style="opacity:0.001" width="22" height="22" x="214.54" y="404.5"/>
  <path id="path1022" style="opacity:1;fill:#232627" d="m 224.03572,407.50504 c -0.277,0 -0.5,0.223 -0.5,0.5 v 0.5 h -1.5 c -0.831,0 -1.5,0.669 -1.5,1.5 v 11 c 0,0.831 0.669,1.5 1.5,1.5 h 7 c 0.831,0 1.5,-0.669 1.5,-1.5 v -11 c 0,-0.831 -0.669,-1.5 -1.5,-1.5 h -1.5 v -0.5 c 0,-0.277 -0.223,-0.5 -0.5,-0.5 z m -2,2 h 7 c 0.29429,0 0.5,0.2057 0.5,0.5 v 11 c 0,0.2943 -0.20571,0.5 -0.5,0.5 h -7 c -0.2943,0 -0.5,-0.2057 -0.5,-0.5 v -11 c 0,-0.2943 0.2057,-0.5 0.5,-0.5 z m 0.5,2 v 9 h 6 v -9 z"/>
 </g>
 <g id="Fill80" transform="translate(-148.53564,-404.50504)">
  <rect id="rect1069" style="opacity:0.001" width="22" height="22" x="214.54" y="404.5"/>
  <path id="path1071" style="opacity:1;fill:#232627" d="m 224.03572,407.50504 c -0.277,0 -0.5,0.223 -0.5,0.5 v 0.5 h -1.5 c -0.831,0 -1.5,0.669 -1.5,1.5 v 11 c 0,0.831 0.669,1.5 1.5,1.5 h 7 c 0.831,0 1.5,-0.669 1.5,-1.5 v -11 c 0,-0.831 -0.669,-1.5 -1.5,-1.5 h -1.5 v -0.5 c 0,-0.277 -0.223,-0.5 -0.5,-0.5 z m -2,2 h 7 c 0.29429,0 0.5,0.2057 0.5,0.5 v 11 c 0,0.2943 -0.20571,0.5 -0.5,0.5 h -7 c -0.2943,0 -0.5,-0.2057 -0.5,-0.5 v -11 c 0,-0.2943 0.2057,-0.5 0.5,-0.5 z m 0.5,3 v 8 h 6 v -8 z"/>
 </g>
 <g id="Fill70" transform="translate(-126.53565,-404.50504)">
  <rect id="rect1075" style="opacity:0.001" width="22" height="22" x="214.54" y="404.5"/>
  <path id="path1077" style="opacity:1;fill:#232627" d="m 224.03572,407.50504 c -0.277,0 -0.5,0.223 -0.5,0.5 v 0.5 h -1.5 c -0.831,0 -1.5,0.669 -1.5,1.5 v 11 c 0,0.831 0.669,1.5 1.5,1.5 h 7 c 0.831,0 1.5,-0.669 1.5,-1.5 v -11 c 0,-0.831 -0.669,-1.5 -1.5,-1.5 h -1.5 v -0.5 c 0,-0.277 -0.223,-0.5 -0.5,-0.5 z m -2,2 h 7 c 0.29429,0 0.5,0.2057 0.5,0.5 v 11 c 0,0.2943 -0.20571,0.5 -0.5,0.5 h -7 c -0.2943,0 -0.5,-0.2057 -0.5,-0.5 v -11 c 0,-0.2943 0.2057,-0.5 0.5,-0.5 z m 0.5,4 v 7 h 6 v -7 z"/>
 </g>
 <g id="Fill60" transform="translate(-104.53565,-404.50504)">
  <rect id="rect1081" style="opacity:0.001" width="22" height="22" x="214.54" y="404.5"/>
  <path id="path1083" style="opacity:1;fill:#232627" d="m 224.03572,407.50504 c -0.277,0 -0.5,0.223 -0.5,0.5 v 0.5 h -1.5 c -0.831,0 -1.5,0.669 -1.5,1.5 v 11 c 0,0.831 0.669,1.5 1.5,1.5 h 7 c 0.831,0 1.5,-0.669 1.5,-1.5 v -11 c 0,-0.831 -0.669,-1.5 -1.5,-1.5 h -1.5 v -0.5 c 0,-0.277 -0.223,-0.5 -0.5,-0.5 z m -2,2 h 7 c 0.29429,0 0.5,0.2057 0.5,0.5 v 11 c 0,0.2943 -0.20571,0.5 -0.5,0.5 h -7 c -0.2943,0 -0.5,-0.2057 -0.5,-0.5 v -11 c 0,-0.2943 0.2057,-0.5 0.5,-0.5 z m 0.5,5 v 6 h 6 v -6 z"/>
 </g>
 <g id="Fill50" transform="translate(-82.53565,-404.50504)">
  <rect id="rect1087" style="opacity:0.001" width="22" height="22" x="214.54" y="404.5"/>
  <path id="path1089" style="opacity:1;fill:#232627" d="m 224.03572,407.50504 c -0.277,0 -0.5,0.223 -0.5,0.5 v 0.5 h -1.5 c -0.831,0 -1.5,0.669 -1.5,1.5 v 11 c 0,0.831 0.669,1.5 1.5,1.5 h 7 c 0.831,0 1.5,-0.669 1.5,-1.5 v -11 c 0,-0.831 -0.669,-1.5 -1.5,-1.5 h -1.5 v -0.5 c 0,-0.277 -0.223,-0.5 -0.5,-0.5 z m -2,2 h 7 c 0.29429,0 0.5,0.2057 0.5,0.5 v 11 c 0,0.2943 -0.20571,0.5 -0.5,0.5 h -7 c -0.2943,0 -0.5,-0.2057 -0.5,-0.5 v -11 c 0,-0.2943 0.2057,-0.5 0.5,-0.5 z m 0.5,6 v 5 h 6 v -5 z"/>
 </g>
 <g id="Fill40" transform="translate(-60.53565,-404.50504)">
  <rect id="rect1093" style="opacity:0.001" width="22" height="22" x="214.54" y="404.5"/>
  <path id="path1095" style="opacity:1;fill:#232627" d="m 224.03572,407.50504 c -0.277,0 -0.5,0.223 -0.5,0.5 v 0.5 h -1.5 c -0.831,0 -1.5,0.669 -1.5,1.5 v 11 c 0,0.831 0.669,1.5 1.5,1.5 h 7 c 0.831,0 1.5,-0.669 1.5,-1.5 v -11 c 0,-0.831 -0.669,-1.5 -1.5,-1.5 h -1.5 v -0.5 c 0,-0.277 -0.223,-0.5 -0.5,-0.5 z m -2,2 h 7 c 0.29429,0 0.5,0.2057 0.5,0.5 v 11 c 0,0.2943 -0.20571,0.5 -0.5,0.5 h -7 c -0.2943,0 -0.5,-0.2057 -0.5,-0.5 v -11 c 0,-0.2943 0.2057,-0.5 0.5,-0.5 z m 0.5,7 v 4 h 6 v -4 z"/>
 </g>
 <g id="Fill30" transform="translate(-38.53565,-404.50504)">
  <rect id="rect1099" style="opacity:0.001" width="22" height="22" x="214.54" y="404.5"/>
  <path id="path1101" style="opacity:1;fill:#232627" d="m 224.03572,407.50504 c -0.277,0 -0.5,0.223 -0.5,0.5 v 0.5 h -1.5 c -0.831,0 -1.5,0.669 -1.5,1.5 v 11 c 0,0.831 0.669,1.5 1.5,1.5 h 7 c 0.831,0 1.5,-0.669 1.5,-1.5 v -11 c 0,-0.831 -0.669,-1.5 -1.5,-1.5 h -1.5 v -0.5 c 0,-0.277 -0.223,-0.5 -0.5,-0.5 z m -2,2 h 7 c 0.29429,0 0.5,0.2057 0.5,0.5 v 11 c 0,0.2943 -0.20571,0.5 -0.5,0.5 h -7 c -0.2943,0 -0.5,-0.2057 -0.5,-0.5 v -11 c 0,-0.2943 0.2057,-0.5 0.5,-0.5 z m 0.5,8 v 3 h 6 v -3 z"/>
 </g>
 <g id="Fill20" transform="translate(-16.53565,-404.50504)">
  <rect id="rect1105" style="opacity:0.001" width="22" height="22" x="214.54" y="404.5"/>
  <path id="path1107" style="opacity:1;fill:#232627" d="m 224.03572,407.50504 c -0.277,0 -0.5,0.223 -0.5,0.5 v 0.5 h -1.5 c -0.831,0 -1.5,0.669 -1.5,1.5 v 11 c 0,0.831 0.669,1.5 1.5,1.5 h 7 c 0.831,0 1.5,-0.669 1.5,-1.5 v -11 c 0,-0.831 -0.669,-1.5 -1.5,-1.5 h -1.5 v -0.5 c 0,-0.277 -0.223,-0.5 -0.5,-0.5 z m -2,2 h 7 c 0.29429,0 0.5,0.2057 0.5,0.5 v 11 c 0,0.2943 -0.20571,0.5 -0.5,0.5 h -7 c -0.2943,0 -0.5,-0.2057 -0.5,-0.5 v -11 c 0,-0.2943 0.2057,-0.5 0.5,-0.5 z m 0.5,9 v 2 h 6 v -2 z"/>
 </g>
 <g id="Fill10" transform="translate(5.46435,-404.50504)">
  <rect id="rect1111" style="opacity:0.001" width="22" height="22" x="214.54" y="404.5"/>
  <path id="path1113" style="opacity:1;fill:#da4453" d="m 224.03572,407.50504 c -0.277,0 -0.5,0.223 -0.5,0.5 v 0.5 h -1.5 c -0.831,0 -1.5,0.669 -1.5,1.5 v 11 c 0,0.831 0.669,1.5 1.5,1.5 h 7 c 0.831,0 1.5,-0.669 1.5,-1.5 v -11 c 0,-0.831 -0.669,-1.5 -1.5,-1.5 h -1.5 v -0.5 c 0,-0.277 -0.223,-0.5 -0.5,-0.5 z m -2,2 h 7 c 0.29429,0 0.5,0.2057 0.5,0.5 v 11 c 0,0.2943 -0.20571,0.5 -0.5,0.5 h -7 c -0.2943,0 -0.5,-0.2057 -0.5,-0.5 v -11 c 0,-0.2943 0.2057,-0.5 0.5,-0.5 z m 0.5,10 v 1 h 6 v -1 z"/>
 </g>
 <g id="Fill0" transform="translate(27.46435,-404.50504)">
  <rect id="rect1117" style="opacity:0.001" width="22" height="22" x="214.54" y="404.5"/>
  <path id="path1119" style="opacity:1;fill:#da4453" d="m 224.03572,407.50504 c -0.277,0 -0.5,0.223 -0.5,0.5 v 0.5 h -1.5 c -0.831,0 -1.5,0.669 -1.5,1.5 v 11 c 0,0.831 0.669,1.5 1.5,1.5 h 7 c 0.831,0 1.5,-0.669 1.5,-1.5 v -11 c 0,-0.831 -0.669,-1.5 -1.5,-1.5 h -1.5 v -0.5 c 0,-0.277 -0.223,-0.5 -0.5,-0.5 z m -2,2 h 7 c 0.29429,0 0.5,0.2057 0.5,0.5 v 11 c 0,0.2943 -0.20571,0.5 -0.5,0.5 h -7 c -0.2943,0 -0.5,-0.2057 -0.5,-0.5 v -11 c 0,-0.2943 0.2057,-0.5 0.5,-0.5 z"/>
 </g>
 <g id="g1159" transform="translate(-236.53564,-404.50504)">
  <rect id="rect1125" style="opacity:0.001" width="22" height="22" x="214.54" y="404.5"/>
  <path id="rect1127" style="opacity:1;fill:#232627" transform="translate(214.53572,404.50504)" d="M 6.5,3 C 5.669,3 5,3.669 5,4.5 v 13 C 5,18.331 5.669,19 6.5,19 h 9 C 16.331,19 17,18.331 17,17.5 V 4.5 C 17,3.669 16.331,3 15.5,3 Z m 0,1 h 9 C 15.79429,4 16,4.2057 16,4.5 v 13 c 0,0.2943 -0.20571,0.5 -0.5,0.5 h -9 C 6.2057,18 6,17.7943 6,17.5 V 4.5 C 6,4.2057 6.2057,4 6.5,4 Z M 11,5 9,10 h 2 v 3 L 13,8 H 11 Z M 7,15 v 2 h 1 v -2 z m 2,0 v 2 h 1 v -2 z m 2,0 v 2 h 1 v -2 z m 3,0 a 1,1 0 0 0 -1,1 1,1 0 0 0 1,1 1,1 0 0 0 1,-1 1,1 0 0 0 -1,-1 z"/>
 </g>
</svg>
