<svg xmlns="http://www.w3.org/2000/svg" id="svg24" width="22" height="22" version="1.1">
 <g id="face-laughing">
  <rect id="rect2" style="opacity:0.001" width="22" height="22" x="0" y="0"/>
  <path id="path823" style="opacity:1;fill:#232627" d="m 11,2.9999997 c -4.418278,0 -8,3.5817217 -8,8.0000003 0,4.418278 3.581722,8 8,8 4.418278,0 8,-3.581722 8,-8 0,-4.4182786 -3.581722,-8.0000003 -8,-8.0000003 z m 0,1 c 3.865993,0 7,3.1340067 7,7.0000003 0,3.865993 -3.134007,7 -7,7 C 7.134007,18 4,14.865993 4,11 4,7.1340064 7.134007,3.9999998 11,3.9999997 Z M 8,6.9999994 c -0.554,0 -1,0.446 -1,1 0,0.554 0.446,1 1,1 0.554,0 1,-0.446 1,-1 0,-0.554 -0.446,-1 -1,-1 z m 6,0 c -0.554,0 -1,0.446 -1,1 0,0.554 0.446,1 1,1 0.554,0 1,-0.446 1,-1 0,-0.554 -0.446,-1 -1,-1 z M 7.15625,13 c 0.443289,1.72689 1.974792,3 3.84375,3 1.868958,0 3.400461,-1.27311 3.84375,-3 z"/>
 </g>
</svg>
