<svg xmlns="http://www.w3.org/2000/svg" id="svg34" width="22" height="22" version="1.1">
 <g id="jami">
  <rect id="rect2" style="opacity:0.001" width="22" height="22" x="0" y="0"/>
  <path id="path861" style="opacity:1;fill:#232627" d="M 8.0917969 3.5859375 C 7.9133141 3.5957848 7.738011 3.645971 7.578125 3.7382812 L 6.421875 4.40625 C 5.7823311 4.7754908 5.6251594 5.6893863 6.0683594 6.4570312 L 7.5371094 9 L 4.5996094 9 C 3.7132094 9 3 9.5935495 3 10.332031 L 3 11.667969 C 3 12.406451 3.7132094 13 4.5996094 13 L 7.5390625 13 L 6.0683594 15.546875 C 5.6251594 16.31452 5.784284 17.230368 6.4238281 17.599609 L 7.578125 18.267578 C 8.2176691 18.636819 9.0900031 18.31452 9.5332031 17.546875 L 11.001953 15.001953 L 12.46875 17.542969 C 12.91195 18.310614 13.782331 18.63096 14.421875 18.261719 L 15.578125 17.59375 C 16.217669 17.224509 16.374841 16.310614 15.931641 15.542969 L 14.462891 13 L 17.400391 13 C 18.286791 13 19 12.406451 19 11.667969 L 19 10.332031 C 19 9.5935495 18.286791 9 17.400391 9 L 14.46875 9 L 15.933594 6.4628906 C 16.376794 5.6952457 16.217669 4.7793972 15.578125 4.4101562 L 14.423828 3.7441406 C 14.263942 3.6518304 14.088736 3.6016579 13.910156 3.5917969 C 13.374417 3.5622139 12.80115 3.8871569 12.46875 4.4628906 L 11.001953 7.0039062 L 9.53125 4.4570312 C 9.19885 3.8812976 8.6272451 3.5563955 8.0917969 3.5859375 z M 8.1738281 4.5859375 C 8.2990266 4.589505 8.5012935 4.6717244 8.6660156 4.9570312 L 10.423828 8.0039062 L 9.8496094 9 L 8.6894531 9 L 6.9335938 5.9570312 C 6.7139643 5.5766218 6.8402287 5.3186229 6.921875 5.2714844 L 8.078125 4.6035156 C 8.0985365 4.5917311 8.1320953 4.5847483 8.1738281 4.5859375 z M 13.828125 4.5917969 C 13.870108 4.5905407 13.903416 4.5975905 13.923828 4.609375 L 15.080078 5.2753906 C 15.161728 5.3225291 15.286035 5.5824806 15.066406 5.9628906 L 13.3125 9 L 12.152344 9 L 11.578125 8.0039062 L 13.333984 4.9628906 C 13.498707 4.6775828 13.702176 4.5955653 13.828125 4.5917969 z M 4.5996094 10 L 8.1152344 10 L 8.6933594 11.001953 L 8.1171875 12 L 4.5996094 12 C 4.1603498 12 4 11.762246 4 11.667969 L 4 10.332031 C 4 10.237754 4.1603498 10 4.5996094 10 z M 9.2675781 10 L 9.2714844 10 L 9.2695312 10.003906 L 9.2675781 10 z M 10.425781 10 L 11.578125 10 L 12.15625 11.001953 L 11.580078 12 L 10.423828 12 L 9.8476562 11.003906 L 10.425781 10 z M 12.730469 10 L 12.734375 10 L 12.732422 10.003906 L 12.730469 10 z M 13.890625 10 L 17.400391 10 C 17.83965 10 18 10.237754 18 10.332031 L 18 11.667969 C 18 11.762246 17.83965 12 17.400391 12 L 13.886719 12 L 13.310547 11.003906 L 13.890625 10 z M 8.6933594 13 L 9.8457031 13 L 10.423828 14.001953 L 8.6660156 17.046875 C 8.4463861 17.427286 8.1617241 17.447531 8.0800781 17.400391 L 6.9238281 16.732422 C 6.8421821 16.685283 6.7159174 16.427285 6.9355469 16.046875 L 8.6933594 13 z M 11 13 L 11.003906 13 L 11.001953 13.001953 L 11 13 z M 12.160156 13 L 13.308594 13 L 15.066406 16.042969 C 15.286036 16.423379 15.159765 16.681378 15.078125 16.728516 L 13.921875 17.396484 C 13.840225 17.443624 13.553614 17.42338 13.333984 17.042969 L 11.580078 14.003906 L 12.160156 13 z"/>
 </g>
</svg>
