<svg xmlns="http://www.w3.org/2000/svg" id="svg4153" width="22" height="22" version="1.1">
 <g id="kmail">
  <rect id="rect4193" style="opacity:0.001" width="22" height="22" x="0" y="0"/>
  <path id="path830" style="opacity:1;fill:#232627" d="M 4.6992188 4 C 3.2034187 4 2 5.17075 2 6.625 L 2 15.375 C 2 16.82925 3.2034187 18 4.6992188 18 L 17.300781 18 C 18.796581 18 20 16.82925 20 15.375 L 20 6.625 C 20 5.17075 18.796581 4 17.300781 4 L 4.6992188 4 z M 4.6992188 5 L 17.300781 5 C 18.274787 5 19 5.7227871 19 6.625 L 19 15.375 C 19 16.277213 18.274787 17 17.300781 17 L 4.6992188 17 C 3.7252131 17 3 16.277213 3 15.375 L 3 6.625 C 3 5.7227871 3.7252131 5 4.6992188 5 z M 4.4785156 5.9960938 A 0.50005 0.50005 0 0 0 4.1953125 6.8964844 L 10.695312 11.896484 A 0.50005 0.50005 0 0 0 11.304688 11.896484 L 17.804688 6.8964844 A 0.50005 0.50005 0 1 0 17.195312 6.1035156 L 11 10.869141 L 4.8046875 6.1035156 A 0.50005 0.50005 0 0 0 4.4785156 5.9960938 z"/>
 </g>
</svg>
