<svg xmlns="http://www.w3.org/2000/svg" id="svg52" width="22" height="22" version="1">
 <g id="plasma-browser-integration">
  <rect id="rect45" style="opacity:0.001" width="22" height="22" x="0" y="0"/>
  <path id="path851" style="opacity:1;fill:#232627" d="M 7.5 2 C 6.669 2 6 2.669 6 3.5 C 6 4.331 6.669 5 7.5 5 C 8.331 5 9 4.331 9 3.5 C 9 2.669 8.331 2 7.5 2 z M 15 2 L 13 4 L 16 7 L 13 10 L 15 12 L 18 9 L 20 7 L 15 2 z M 4 7 C 3.446 7 3 7.446 3 8 C 3 8.554 3.446 9 4 9 C 4.554 9 5 8.554 5 8 C 5 7.446 4.554 7 4 7 z M 8 9 C 6.172116 9.0002125 4.3719329 10.057223 3.5605469 11.708984 C 2.7372109 13.240956 2.8335849 15.187974 3.7636719 16.650391 C 4.8685969 18.456551 7.1981427 19.402107 9.2460938 18.835938 C 11.066181 18.399218 12.516488 16.834562 12.884766 15.009766 C 13.207543 13.604053 12.832574 12.08539 11.955078 10.949219 C 11.035198 9.7347071 9.5209619 8.9949703 7.9980469 9.0019531 L 8 9 z M 7.9980469 9.6269531 C 8.7094709 9.6309931 9.4138756 9.8181594 10.048828 10.134766 C 9.7269836 10.240438 10.200223 10.548837 9.9589844 10.710938 C 10.20891 10.874125 10.543111 10.561262 10.197266 10.398438 C 9.8918091 9.9162237 10.977399 10.540958 10.414062 10.712891 C 10.222219 10.88723 9.7540311 10.817827 10.134766 11.134766 C 10.165476 11.442544 9.4693536 11.073511 9.5566406 11.580078 C 9.5903506 11.807912 9.6839251 11.883341 9.3457031 12.087891 C 9.0789621 12.457998 8.5811905 12.765765 8.6640625 13.326172 C 8.5301205 13.769338 9.0031206 13.996301 9.3847656 14.091797 C 9.7803576 14.065787 10.722725 13.809456 10.884766 14.304688 C 10.71644 14.74307 11.622664 15.177934 11.240234 15.613281 C 10.992026 16.020663 11.288444 16.162828 11.208984 16.582031 C 11.515002 17.022493 10.415291 17.666384 10.080078 17.863281 C 9.0678786 18.457826 7.769975 18.536698 6.65625 18.152344 C 6.218491 17.887002 6.7543391 17.678747 6.8925781 17.544922 C 6.7012071 17.17945 6.9990651 17.399823 7.0019531 17.011719 C 7.0058531 16.424748 7.7856507 16.522209 7.7304688 15.912109 C 7.7467787 15.548441 8.312766 15.051866 7.6875 14.904297 C 7.220081 14.815197 6.838564 14.845913 6.59375 14.441406 C 6.167906 14.384776 6.1621975 13.9367 5.6640625 14.017578 C 5.3125355 13.808317 4.8336056 14.548257 4.6191406 14.015625 C 4.6999506 13.742813 4.5399194 13.316189 4.3027344 13.371094 C 4.4164264 13.166686 4.4154598 12.762943 4.1523438 13.091797 C 3.7248757 13.470743 3.6277861 12.830187 3.8457031 12.556641 C 4.1202071 12.198765 4.7801891 12.220905 5.0019531 12.542969 C 4.9794331 12.021502 5.5410342 11.94436 5.7851562 11.542969 C 6.0625643 11.400055 6.3462554 11.070804 6.6152344 11.224609 C 6.8023564 11.197279 6.9985412 10.981969 6.6914062 11.091797 C 6.5442542 11.020007 6.8366368 10.773012 6.5742188 10.837891 C 6.7933058 10.781411 7.0228206 10.741364 7.2441406 10.732422 C 6.7588466 11.019627 7.792012 11.110774 7.359375 10.792969 C 7.488758 10.459945 7.2380567 10.366768 7.1523438 10.085938 C 6.9164758 10.095237 6.89669 10.171001 6.765625 9.9355469 C 6.302686 9.6704022 7.2105135 10.012252 7.2734375 9.78125 C 7.4517525 9.5833032 7.762002 9.6507267 8 9.6289062 L 7.9980469 9.6269531 z M 6.4355469 9.9199219 L 6.4375 9.9199219 C 6.334625 10.273922 6.0355641 10.532096 5.7988281 10.642578 C 5.7324081 10.445836 5.8169263 10.388148 5.6132812 10.341797 C 5.8417923 10.134211 6.1611709 10.052005 6.4355469 9.9199219 z M 9.7949219 10.388672 C 9.4168639 10.495698 9.8274511 10.838163 9.9082031 10.462891 C 9.9092031 10.405931 9.8408319 10.383995 9.7949219 10.390625 L 9.7949219 10.388672 z M 11.125 11.111328 C 11.445469 11.275334 11.984731 11.904181 11.830078 12.119141 C 11.554821 12.052151 11.647588 12.407883 11.341797 12.191406 C 10.931778 12.128256 10.927999 11.52949 10.429688 11.777344 C 10.251395 11.902758 9.5436602 11.951177 10.074219 11.742188 C 10.306432 11.49079 10.66714 11.036367 11.072266 11.351562 C 11.19383 11.492816 11.434183 11.772974 11.447266 11.474609 C 11.355951 11.390258 10.955687 11.277588 11.125 11.111328 z M 3.8027344 13.373047 L 3.8046875 13.373047 C 4.2023382 13.495368 4.470642 14.208911 4.8164062 14.275391 C 5.2780812 14.136151 4.8606187 14.902332 4.7617188 15.095703 C 4.8508188 15.574301 5.1693661 15.788036 5.5957031 16.041016 C 5.8265391 16.56892 5.6952383 17.185038 5.8007812 17.740234 C 5.2557823 17.489172 4.770516 16.979126 4.40625 16.478516 C 3.841743 15.678445 3.5711688 14.675011 3.6367188 13.701172 C 3.6702092 13.593623 3.6679846 13.404128 3.8027344 13.373047 z"/>
 </g>
</svg>
