<svg xmlns="http://www.w3.org/2000/svg" id="svg124" width="22" height="22" version="1.1">
 <g id="preferences-desktop-notification" transform="translate(22,-40)">
  <rect id="rect2" style="opacity:0.001" width="22" height="22" x="0" y="40"/>
  <path id="path4" style="opacity:1;fill:#3daee9" d="m 11,43 c -4.418278,0 -8,3.581722 -8,8 0,4.418278 3.581722,8 8,8 4.418278,0 8,-3.581722 8,-8 0,-4.418278 -3.581722,-8 -8,-8 z"/>
  <path id="path6" style="fill:#ffffff" d="m 10,47 v 6 h 2 v -6 z m 1,7 c -0.453152,0 -1,0.518427 -1,0.980469 C 10,55.442512 10.546848,56 11,56 11.453152,56 12,55.442512 12,54.980469 12,54.518427 11.453152,54 11,54 Z"/>
 </g>
 <g id="preferences-system-windows" transform="translate(39,-5)">
  <rect id="rect100" style="opacity:0.001" width="22" height="22" x="5" y="5"/>
  <path id="path102" style="opacity:1;fill:#232627" d="M 13.5,9 C 13,9 13,9.5 13,9.5 v 8 c 0,0.5 0.5,0.5 0.5,0.5 h 10 c 0,0 0.5,0 0.5,-0.5 v -8 C 24,9 23.5,9 23.5,9 Z m 0.5,2 h 9 v 6 H 14 Z M 7.519531,14 C 7.519531,14 7,14 7,14.5 v 8 C 7,23 7.5,23 7.5,23 h 10 c 0,0 0.5,-0.02 0.5,-0.5 V 19 h -1 v 3 H 8 v -6 h 4 v -2 z"/>
 </g>
 <g id="preferences-desktop-display-randr" transform="translate(0,-291.17917)">
  <rect id="rect843" style="opacity:0.001" width="22" height="22" x="0" y="291.18"/>
  <path id="path845" style="opacity:1;fill:#232627" transform="translate(0,291.17917)" d="M 6,3 C 4.338,3 3,4.338 3,6 v 7 c 0,1.662 1.338,3 3,3 h 3 v 2 H 7.5 A 0.5,0.5 0 0 0 7,18.5 0.5,0.5 0 0 0 7.5,19 h 7 A 0.5,0.5 0 0 0 15,18.5 0.5,0.5 0 0 0 14.5,18 H 13 v -2 h 3 c 1.662,0 3,-1.338 3,-3 V 6 C 19,4.338 17.662,3 16,3 Z m 0,1 h 10 c 1.125297,0 2,0.8747 2,2 v 7 c 0,1.12529 -0.874703,2 -2,2 H 6 C 4.8747028,15 4,14.12529 4,13 V 6 C 4,4.8747 4.8747028,4 6,4 Z M 5.5,5 C 5.223,5 5,5.223 5,5.5 v 1 2 C 5,8.777 5.223,9 5.5,9 h 1 C 6.777,9 7,8.777 7,8.5 V 7 H 8.5 C 8.777,7 9,6.777 9,6.5 v -1 C 9,5.223 8.777,5 8.5,5 h -2 z m 10,5 C 15.223,10 15,10.223 15,10.5 V 12 H 13.5 C 13.223,12 13,12.223 13,12.5 v 1 c 0,0.277 0.223,0.5 0.5,0.5 h 2 1 c 0.277,0 0.5,-0.223 0.5,-0.5 v -1 -2 C 17,10.223 16.777,10 16.5,10 Z"/>
 </g>
 <g id="preferences-system-bluetooth-activated">
  <rect id="rect835" style="opacity:0.001" width="22" height="22" x="66" y="0"/>
  <path id="path843" style="opacity:1;fill:#232627" d="M 76.464844,3 C 76.202529,3.0185134 75.999374,3.2370336 76,3.5 V 9.765625 L 72.820312,7.1152344 C 72.307288,6.6881164 71.666664,7.4576476 72.179688,7.8847656 L 76,11.068359 v 0.285157 l -3.792969,2.740234 c -0.541666,0.390625 0.04427,1.203125 0.585938,0.8125 L 76,12.589844 V 18.5 c -5.74e-4,0.405042 0.455455,0.642675 0.787109,0.410156 l 5,-3.5 c 0.270878,-0.188983 0.287377,-0.584008 0.0332,-0.794922 L 77.816406,11.279297 81.792969,8.40625 c 0.258337,-0.1867999 0.27826,-0.5643955 0.04102,-0.7773438 l -5,-4.5 C 76.746412,3.0496972 76.633636,3.004033 76.515625,3 76.498709,2.99914 76.48176,2.99914 76.464844,3 Z M 77,4.6210938 80.705078,7.9570312 77.021484,10.617188 77,10.597656 Z M 71,10 c -0.552285,0 -1,0.447715 -1,1 0,0.552285 0.447715,1 1,1 0.552285,0 1,-0.447715 1,-1 0,-0.552285 -0.447715,-1 -1,-1 z m 12,0 c -0.552285,0 -1,0.447715 -1,1 0,0.552285 0.447715,1 1,1 0.552285,0 1,-0.447715 1,-1 0,-0.552285 -0.447715,-1 -1,-1 z m -6,1.902344 3.675781,3.0625 L 77,17.539062 Z"/>
 </g>
 <g id="preferences-system-bluetooth" transform="translate(22)">
  <rect id="rect857" style="opacity:0.001" width="22" height="22" x="66" y="0"/>
  <path id="path859" style="opacity:1;fill:#232627" d="M 76.464844,3 C 76.202529,3.0185134 75.999374,3.2370336 76,3.5 V 9.765625 L 72.820312,7.1152344 C 72.307288,6.6881164 71.666664,7.4576476 72.179688,7.8847656 L 76,11.068359 v 0.285157 l -3.792969,2.740234 c -0.541666,0.390625 0.04427,1.203125 0.585938,0.8125 L 76,12.589844 V 18.5 c -5.74e-4,0.405042 0.455455,0.642675 0.787109,0.410156 l 5,-3.5 c 0.270877,-0.188984 0.287375,-0.584009 0.0332,-0.794922 L 77.816406,11.279297 81.792969,8.40625 c 0.258338,-0.1867983 0.278264,-0.5643939 0.04102,-0.7773438 l -5,-4.5 C 76.746416,3.0496961 76.633638,3.0040318 76.515625,3 76.498709,2.99914 76.48176,2.99914 76.464844,3 Z M 77,4.6210938 80.705078,7.9570312 77.021484,10.617188 77,10.597656 Z m 0,7.2812502 3.675781,3.0625 L 77,17.539062 Z"/>
 </g>
 <g id="preferences-system-bluetooth-inactive" transform="translate(44)">
  <rect id="rect863" style="opacity:0.001" width="22" height="22" x="66" y="0"/>
  <path id="path865" style="opacity:0.5;fill:#232627" d="M 76.464844,3 C 76.202529,3.0185134 75.999374,3.2370336 76,3.5 V 9.765625 L 72.820312,7.1152344 C 72.307288,6.6881164 71.666664,7.4576476 72.179688,7.8847656 L 76,11.068359 v 0.285157 l -3.792969,2.740234 c -0.541666,0.390625 0.04427,1.203125 0.585938,0.8125 L 76,12.589844 V 18.5 c -5.74e-4,0.405042 0.455455,0.642675 0.787109,0.410156 l 5,-3.5 c 0.270877,-0.188984 0.287375,-0.584009 0.0332,-0.794922 L 77.816406,11.279297 81.792969,8.40625 c 0.258338,-0.1867983 0.278264,-0.5643939 0.04102,-0.7773438 l -5,-4.5 C 76.746416,3.0496961 76.633638,3.0040318 76.515625,3 76.498709,2.99914 76.48176,2.99914 76.464844,3 Z M 77,4.6210938 80.705078,7.9570312 77.021484,10.617188 77,10.597656 Z m 0,7.2812502 3.675781,3.0625 L 77,17.539062 Z"/>
 </g>
</svg>
