<svg xmlns="http://www.w3.org/2000/svg" id="svg" width="100%" height="100%" version="1.1" viewBox="0 0 22 22">
 <g id="printer">
  <rect id="rect3009" style="opacity:0.001" width="22" height="22" x="0" y="0"/>
  <path id="path847" style="opacity:1;fill:#232627" d="M 8 3 C 6.892 3 6 3.892 6 5 L 6 7 L 5 7 C 3.892 7 3 7.892 3 9 L 3 13 C 3 14.108 3.892 15 5 15 L 6 15 L 6 17 C 6 18.108 6.892 19 8 19 L 14 19 C 15.108 19 16 18.108 16 17 L 16 15 L 17 15 C 18.108 15 19 14.108 19 13 L 19 9 C 19 7.892 18.108 7 17 7 L 16 7 L 16 5 C 16 3.892 15.108 3 14 3 L 8 3 z M 8 4 L 14 4 C 14.571297 4 15 4.4287028 15 5 L 15 7 L 7 7 L 7 5 C 7 4.4287028 7.4287028 4 8 4 z M 6 10 A 1 1 0 0 1 7 11 A 1 1 0 0 1 6 12 A 1 1 0 0 1 5 11 A 1 1 0 0 1 6 10 z M 7 13 L 15 13 L 15 15 L 15 17 C 15 17.571297 14.571297 18 14 18 L 8 18 C 7.4287028 18 7 17.571297 7 17 L 7 15 L 7 13 z M 8.5 14 A 0.50005 0.50005 0 1 0 8.5 15 L 13.5 15 A 0.50005 0.50005 0 1 0 13.5 14 L 8.5 14 z M 8.5 16 A 0.50005 0.50005 0 1 0 8.5 17 L 13.5 17 A 0.50005 0.50005 0 1 0 13.5 16 L 8.5 16 z"/>
 </g>
</svg>
