<svg xmlns="http://www.w3.org/2000/svg" id="svg20" width="22" height="22" version="1">
 <g id="strawberry">
  <rect id="rect2" style="opacity:0.001" width="22" height="22" x="0" y="0"/>
  <path id="path834" style="opacity:1;fill:#232627" d="m 13.087373,3.0000203 c -0.08879,0 -0.115275,0.181015 -0.06055,0.4199219 0,0 0.15734,0.7619522 1.21289,1.3203125 0.734159,0.3629505 0.733731,0.573374 -0.0039,0.7910156 -0.321469,0.094846 -0.713233,0.273527 -0.86914,0.3984375 -0.257133,0.2060136 -0.163188,0.290926 1.009765,0.9160156 0.711194,0.3790096 1.425049,0.8002842 1.585938,0.9355469 0.279332,0.2348395 0.267634,0.2672029 -0.277344,0.7226562 -0.608397,0.5084535 -1.328125,1.6971555 -1.328125,2.1933595 0,0.268262 0.119072,0.291638 1.121094,0.207031 0.616429,-0.05205 1.293297,-0.118481 1.505859,-0.146485 l 0.386719,-0.05078 -0.05469,1.34961 c -0.03035,0.74213 -0.11895,1.534076 -0.197265,1.759765 -0.07831,0.22569 -0.110753,0.44416 -0.07227,0.486328 0.162017,0.17752 0.822036,-0.213548 1.275391,-0.755859 0.463478,-0.554422 0.493251,-0.566767 0.591796,-0.226563 0.331871,0.609879 0.479188,1.145229 0.994141,1.679688 0.114993,0.01131 0.201612,-0.136263 0.275391,-0.439453 0.227139,-0.933414 0.10531,-1.836435 -0.373047,-2.769531 -0.257766,-0.502807 -0.509504,-1.295915 -0.560544,-1.76172 -0.05104,-0.4658049 -0.134056,-1.0065695 -0.185547,-1.2031248 -0.07824,-0.2986775 0.07175,-0.4742129 0.921875,-1.0625 0.967991,-0.6698438 1.219598,-1.0509254 0.853516,-1.2988281 -0.09096,-0.061593 -0.571545,0.125064 -1.066406,0.4140624 -0.494862,0.2889975 -0.996348,0.5253907 -1.115235,0.5253907 -0.118886,0 -0.491278,-0.3625728 -0.828125,-0.8046875 -0.585419,-0.7683677 -0.613281,-0.8561844 -0.613281,-1.9902344 0,-1.0775591 -0.03025,-1.1900384 -0.326172,-1.2363281 -0.239184,-0.037414 -0.378069,0.085476 -0.521484,0.4648437 -0.107448,0.2842238 -0.24821,0.5175782 -0.314453,0.5175782 -0.06624,0 -0.727156,-0.3050904 -1.466797,-0.6777344 -0.739656,-0.372642 -1.414223,-0.6777344 -1.5,-0.6777344 z m -0.873047,1.0410156 c -0.06635,0.00626 -0.09727,0.00375 -0.171875,0.011719 -2.4426544,0.260912 -4.4795644,1.774117 -6.8105454,5.0546873 -0.703828,0.9905528 -1.608029,2.2616538 -2.009766,2.8261718 -1.692378,2.378122 -1.620267,4.819444 0.173828,5.845703 1.159538,0.663275 2.279051,0.925376 4.052735,0.951172 0.891515,0.01295 2.198516,0.07777 2.9023434,0.142578 1.963706,0.180839 2.209598,0.17624 3.591795,-0.06445 1.546994,-0.269402 2.73888,-0.83045 3.697266,-1.738282 0.38599,-0.365628 0.852472,-1.062621 1.242187,-1.771484 -0.135912,-0.219608 -0.216507,-0.4261 -0.328124,-0.648437 -0.157601,0.132513 -0.299836,0.304158 -0.46875,0.404297 -0.180998,0.107294 -0.360995,0.200902 -0.619141,0.257812 -0.258146,0.05691 -0.766022,0.09377 -1.158203,-0.335938 -0.347774,-0.381027 -0.272544,-0.5705 -0.277344,-0.697265 -0.0048,-0.126766 0.0069,-0.213818 0.01953,-0.298828 0.02531,-0.170015 0.06514,-0.3253 0.123047,-0.492188 -0.04121,0.118766 0.03562,-0.17892 0.06836,-0.470703 0.03274,-0.291783 0.06203,-0.656165 0.07617,-1.001953 l 0.0078,-0.189453 c -0.271467,0.02598 -0.456151,0.04825 -0.763672,0.07422 -0.511484,0.04319 -0.771607,0.09436 -1.201172,0.01563 -0.214783,-0.03938 -0.573515,-0.17616 -0.791016,-0.488282 -0.217487,-0.312122 -0.21289,-0.589621 -0.21289,-0.730468 0,-0.7316494 0.279178,-1.1124668 0.580078,-1.6093751 C 14.141994,8.7493678 14.422605,8.4626057 14.690888,8.1679891 14.448626,8.028104 14.186941,7.8773568 13.907685,7.7285359 13.314383,7.4123537 13.019005,7.2933499 12.665498,6.9726765 12.577118,6.8925085 12.473108,6.7892054 12.378388,6.6074422 12.283678,6.4256789 12.222226,6.1348192 12.270966,5.8828328 12.368446,5.37886 12.630001,5.2414439 12.743623,5.1504109 12.855942,5.0604219 12.957834,5.0601939 13.061982,4.9980672 12.848776,4.7982545 12.526626,4.6066957 12.403779,4.4199422 12.314329,4.283957 12.267074,4.1618981 12.214326,4.0410359 Z m -0.757812,1.2871094 c -0.05208,0.1309597 -0.139077,0.2158767 -0.167969,0.3652344 -0.100795,0.5211216 -0.01609,0.9246172 0.177735,1.3183594 -0.08766,-0.01127 -0.179852,-0.014615 -0.275391,-0.00195 -0.32117,0.042563 -0.664493,0.2094159 -0.880858,0.4257813 -0.3846534,0.3846491 -0.4164984,0.9780336 -0.07031,1.3242187 0.346183,0.3461847 0.939569,0.3143404 1.324218,-0.070312 0.242895,-0.2428941 0.403433,-0.640227 0.416016,-0.9921875 0.0037,0.00345 0.01012,0.012406 0.01367,0.015625 0.384151,0.3484723 0.761459,0.5189479 1.185546,0.7382813 -0.03274,0.048977 -0.06594,0.06676 -0.09766,0.1191406 -0.2762,0.4561189 -0.724609,1.1409209 -0.724609,2.1269525 0,0.119083 0.01237,0.757085 0.392578,1.302734 0.156033,0.223913 0.331476,0.379275 0.509766,0.507812 -0.325124,0.383793 -0.346122,0.925365 -0.01953,1.251955 0.346184,0.346184 0.939569,0.314336 1.324219,-0.07031 0.191003,-0.191003 0.341878,-0.480972 0.404297,-0.767579 0.09267,-0.0081 0.186364,-0.01522 0.279297,-0.02344 -2.49e-4,0.0022 2.49e-4,0.0056 0,0.0078 -0.01091,0.0972 -0.0332,0.221389 -0.05078,0.314454 -0.0088,0.04653 -0.01294,0.04576 -0.02734,0.164063 -4.38e-4,0.0036 -0.0015,0.0115 -0.002,0.01563 -0.03985,0.142581 -0.08507,0.28344 -0.107422,0.433593 -0.01402,0.09437 -0.03708,0.27696 -0.0293,0.482422 -0.0058,-0.152837 -0.03538,0.128051 0.03516,0.4375 0.07053,0.309449 0.250178,0.618493 0.503906,0.896485 0.44717,0.489958 0.959,0.613146 1.417969,0.642578 -0.0078,0.0079 -0.02792,0.04393 -0.03516,0.05078 -0.807207,0.764627 -1.780304,1.236432 -3.181641,1.480469 -0.875125,0.152392 -1.226627,0.197284 -1.857421,0.167969 0.230858,-0.01896 0.465378,-0.117723 0.65039,-0.302735 0.38465,-0.384651 0.61181,-1.173347 0.265625,-1.519531 -0.08655,-0.08654 -0.201484,-0.136813 -0.330078,-0.158203 -0.09644,-0.01609 -0.201537,-0.01614 -0.308594,-0.002 -0.321168,0.04256 -0.664491,0.209416 -0.880858,0.425781 -0.384651,0.38465 -0.416497,0.978033 -0.07031,1.324219 0.153619,0.153618 0.357228,0.219616 0.56836,0.226562 -0.336446,-0.01935 -0.734577,-0.0513 -1.365234,-0.109375 -0.7556714,-0.06948 -2.0546474,-0.132986 -2.9804274,-0.146433 -1.681317,-0.02445 -2.553017,-0.23645 -3.570312,-0.81836 -0.605406,-0.346304 -0.868291,-0.825576 -0.890625,-1.578125 -0.02233,-0.752548 0.286585,-1.768424 1.035156,-2.820312 0.401905,-0.564755 1.30567,-1.835242 2.009766,-2.8261717 1.994863,-2.8075254 3.617815,-3.9425382 5.4101554,-4.359375 z M 7.1908896,9.0097859 c -0.32117,0.042563 -0.664494,0.2094157 -0.880859,0.4257813 -0.384651,0.3846493 -0.416498,0.9780398 -0.07031,1.3242188 0.346185,0.346185 0.939569,0.314337 1.324219,-0.07031 0.38465,-0.38465 0.61181,-1.1733458 0.265625,-1.5195308 -0.08655,-0.086546 -0.201484,-0.1368131 -0.330078,-0.1582031 -0.09644,-0.01604 -0.201537,-0.016141 -0.308594,-0.00195 z M 10.19089,11.009786 c -0.3211704,0.04256 -0.6644934,0.209415 -0.8808594,0.425781 -0.384649,0.38465 -0.416498,0.978034 -0.07031,1.324219 0.346184,0.346184 0.9395694,0.314336 1.3242174,-0.07031 0.384651,-0.384649 0.61181,-1.173345 0.265625,-1.519531 -0.08655,-0.08654 -0.201485,-0.136813 -0.330077,-0.158203 -0.09645,-0.01609 -0.201538,-0.01614 -0.308594,-0.002 z m -5.0000004,2 c -0.32117,0.04256 -0.664493,0.209415 -0.880859,0.425781 -0.384649,0.38465 -0.416498,0.978034 -0.07031,1.324219 0.346184,0.346184 0.939569,0.314336 1.324218,-0.07031 0.38465,-0.38465 0.611811,-1.173346 0.265625,-1.519531 -0.08655,-0.08655 -0.201484,-0.136816 -0.330078,-0.158206 -0.09644,-0.01609 -0.201537,-0.01614 -0.308594,-0.002 z m 4,2 c -0.32117,0.04256 -0.664494,0.209415 -0.880859,0.425781 -0.38465,0.384648 -0.416498,0.978033 -0.07031,1.324219 0.346184,0.346184 0.93957,0.314336 1.324218,-0.07031 0.384651,-0.38465 0.6118104,-1.173345 0.265625,-1.519531 -0.08655,-0.08655 -0.201484,-0.136816 -0.330078,-0.158206 -0.09645,-0.01609 -0.201537,-0.01614 -0.308594,-0.002 z"/>
 </g>
</svg>
