<svg xmlns="http://www.w3.org/2000/svg" width="32" height="32" version="1.1">
<defs id="rounded">
    <style type="text/css" id="current-color-scheme">
        .ColorScheme-Text {
        color:#eff0f1;
        }
        .ColorScheme-NegativeText {
        color:#da4453;
        }
        .ColorScheme-Highlight {
        color:#3daee9;
        }
        .ColorScheme-Background {
        color:#31363b;
      }
      .ColorScheme-ButtonBackground {
        color:#444c53;
      }
    </style>
</defs>
 <g id="ring-kde">
  <rect style="opacity:0.001" width="32" height="32" x="0" y="0"/>
  <path style="fill:currentColor" class="ColorScheme-Text" d="M 13.970703 2 C 13.073095 1.9979399 12.491519 5.1929819 12.207031 9.4003906 C 9.173818 7.9009209 6.6124165 6.9024771 5.53125 7.0078125 C 5.2839462 7.0319067 5.1136909 7.1130092 5.03125 7.2578125 L 3.0527344 10.732422 C 2.6078731 11.513798 5.0586402 13.631547 8.5195312 15.998047 C 5.0545699 18.366643 2.6075291 20.485651 3.0527344 21.267578 L 5.03125 24.742188 C 5.4751698 25.521911 8.4949245 24.432654 12.234375 22.582031 C 12.536499 26.790422 13.131744 29.988175 14.029297 29.990234 L 18.029297 30 C 18.927179 30.002088 19.508579 26.805032 19.792969 22.595703 C 23.519801 24.438067 26.525905 25.520024 26.96875 24.742188 L 28.947266 21.267578 C 29.392471 20.485651 26.94543 18.366643 23.480469 15.998047 C 26.94136 13.631547 29.392127 11.513798 28.947266 10.732422 L 26.96875 7.2578125 C 26.886309 7.1130092 26.716054 7.0319067 26.46875 7.0078125 C 25.384086 6.9021363 22.809856 7.9063945 19.763672 9.4140625 C 19.461454 5.2076447 18.867977 2.011825 17.970703 2.0097656 L 13.970703 2 z M 14.271484 3 L 17.671875 3.0097656 C 17.729422 3.1093571 17.80917 3.2536029 17.898438 3.5253906 C 18.11356 4.1803592 18.32334 5.2356159 18.488281 6.5136719 C 18.617131 7.5120691 18.716121 8.6768762 18.796875 9.9003906 C 17.888058 10.366759 16.949377 10.873269 16 11.402344 C 15.041859 10.868385 14.094337 10.356677 13.177734 9.8867188 C 13.253536 8.6607784 13.347686 7.4940718 13.472656 6.4941406 C 13.632279 5.2169457 13.836702 4.1628898 14.048828 3.5097656 C 14.136433 3.2400347 14.214974 3.0986971 14.271484 3 z M 5.75 8.0175781 C 5.8613083 8.0183035 6.0137259 8.0206453 6.2832031 8.078125 C 6.9445485 8.2191905 7.947975 8.5663208 9.1191406 9.0644531 C 10.028155 9.4510845 11.063137 9.9468963 12.138672 10.486328 C 12.082961 11.532734 12.042383 12.619222 12.021484 13.734375 C 11.119821 14.289633 10.245358 14.845467 9.4140625 15.396484 C 8.4028438 14.713352 7.4512555 14.04558 6.6582031 13.433594 C 5.6472306 12.653441 4.8492129 11.946064 4.3964844 11.433594 C 4.2067056 11.218772 4.1221434 11.073456 4.0664062 10.974609 L 5.75 8.0175781 z M 26.25 8.0175781 L 27.933594 10.974609 C 27.877857 11.073456 27.793294 11.218772 27.603516 11.433594 C 27.150787 11.946064 26.352769 12.653441 25.341797 13.433594 C 24.548745 14.04558 23.597156 14.713352 22.585938 15.396484 C 21.751218 14.843197 20.872373 14.286024 19.966797 13.728516 C 19.941104 12.618639 19.897792 11.539687 19.837891 10.498047 C 20.922159 9.9537481 21.965209 9.4539073 22.880859 9.0644531 C 24.052025 8.5663208 25.055451 8.2191905 25.716797 8.078125 C 25.986274 8.0206453 26.138692 8.0183035 26.25 8.0175781 z M 13.111328 10.974609 C 13.720629 11.29106 14.347144 11.627144 14.976562 11.972656 C 14.326126 12.344763 13.677686 12.725683 13.035156 13.111328 C 13.053451 12.385751 13.078057 11.668212 13.111328 10.974609 z M 18.867188 10.986328 C 18.903049 11.673692 18.929875 12.384684 18.951172 13.103516 C 18.313029 12.720631 17.669324 12.342159 17.023438 11.972656 C 17.645574 11.631141 18.264618 11.2995 18.867188 10.986328 z M 16 12.546875 C 16.49147 12.824135 16.982375 13.099525 17.472656 13.386719 C 17.979205 13.683441 18.476474 13.987921 18.974609 14.291016 C 18.985003 14.863515 18.998804 15.435391 19 16.011719 C 19.001176 16.578227 18.992119 17.14035 18.984375 17.703125 C 18.483085 18.008214 17.982494 18.314632 17.472656 18.613281 C 16.982376 18.900474 16.49147 19.175865 16 19.453125 C 15.50853 19.175865 15.017624 18.900474 14.527344 18.613281 C 14.020796 18.31656 13.523525 18.012079 13.025391 17.708984 C 13.014997 17.136485 13.001196 16.564608 13 15.988281 C 12.998824 15.421774 13.007881 14.859649 13.015625 14.296875 C 13.516915 13.991786 14.017505 13.685369 14.527344 13.386719 C 15.017625 13.099525 15.50853 12.824135 16 12.546875 z M 19.984375 14.910156 C 20.567022 15.274078 21.142695 15.639016 21.693359 16 C 21.144608 16.35973 20.57077 16.723276 19.990234 17.085938 C 19.995874 16.35882 19.993209 15.637225 19.984375 14.910156 z M 12.009766 14.914062 C 12.004127 15.641179 12.006791 16.362776 12.015625 17.089844 C 11.432978 16.725922 10.857305 16.360984 10.306641 16 C 10.855392 15.64027 11.42923 15.276724 12.009766 14.914062 z M 9.4140625 16.605469 C 10.2509 17.160149 11.12523 17.718466 12.033203 18.277344 C 12.058911 19.385211 12.102312 20.462135 12.162109 21.501953 C 11.077841 22.046252 10.034789 22.546093 9.1191406 22.935547 C 7.947978 23.433678 6.9445463 23.78081 6.2832031 23.921875 C 6.0137268 23.979355 5.8613076 23.981696 5.75 23.982422 L 4.0664062 21.025391 C 4.1221403 20.926548 4.2067079 20.781227 4.3964844 20.566406 C 4.8492073 20.05394 5.6472322 19.346558 6.6582031 18.566406 C 7.4510147 17.954605 8.4032012 17.288382 9.4140625 16.605469 z M 22.585938 16.605469 C 23.596799 17.288382 24.548985 17.954605 25.341797 18.566406 C 26.352768 19.346558 27.150793 20.05394 27.603516 20.566406 C 27.793292 20.781227 27.87786 20.926548 27.933594 21.025391 L 26.25 23.982422 C 26.138692 23.981696 25.986273 23.979355 25.716797 23.921875 C 25.055454 23.78081 24.052022 23.433678 22.880859 22.935547 C 21.971848 22.548916 20.936864 22.053104 19.861328 21.513672 C 19.916974 20.468479 19.957601 19.383346 19.978516 18.269531 C 20.882312 17.713055 21.752755 17.157726 22.585938 16.605469 z M 18.964844 18.880859 C 18.946537 19.609171 18.922065 20.329255 18.888672 21.025391 C 18.276856 20.707634 17.647692 20.370478 17.015625 20.023438 C 17.670844 19.648662 18.317644 19.269376 18.964844 18.880859 z M 13.048828 18.888672 C 13.691628 19.274418 14.33372 19.651273 14.984375 20.023438 C 14.359589 20.36648 13.737899 20.699192 13.132812 21.013672 C 13.096819 20.323775 13.070149 19.610236 13.048828 18.888672 z M 16 20.601562 C 16.96029 21.136772 17.903697 21.640405 18.822266 22.111328 C 18.74645 23.338013 18.652381 24.505397 18.527344 25.505859 C 18.367721 26.783052 18.163297 27.837117 17.951172 28.490234 C 17.863567 28.759962 17.785024 28.901308 17.728516 29 L 14.328125 28.990234 C 14.270578 28.890643 14.19083 28.746396 14.101562 28.474609 C 13.886443 27.819643 13.676659 26.764381 13.511719 25.486328 C 13.382801 24.487401 13.283896 23.321915 13.203125 22.097656 C 14.113535 21.630492 15.048896 21.131653 16 20.601562 z"/>
 </g>
 <g id="22-22-ring-kde">
  <rect style="opacity:0.001" width="22" height="22" x="32" y="10"/>
  <path style="fill:currentColor" class="ColorScheme-Text" d="M 41.986328 13 C 41.510641 12.998753 41.215756 15.066737 41.083984 17.685547 C 39.146222 16.700158 37.462227 15.977931 36.808594 16 C 36.66965 16.004691 36.575287 16.042663 36.533203 16.115234 L 35.523438 17.855469 C 35.283542 18.269155 36.930993 19.56505 39.140625 20.996094 C 36.918443 22.433761 35.28265 23.729309 35.523438 24.144531 L 36.533203 25.884766 C 36.77413 26.300231 38.736373 25.516592 41.097656 24.314453 C 41.238646 26.928915 41.538622 28.992895 42.013672 28.994141 L 44.013672 29 C 44.488854 29.001247 44.784021 26.937048 44.916016 24.322266 C 47.270494 25.51998 49.226381 26.299349 49.466797 25.884766 L 50.476562 24.144531 C 50.71735 23.729309 49.081557 22.433761 46.859375 20.996094 C 49.069007 19.56505 50.716458 18.269155 50.476562 17.855469 L 49.466797 16.115234 C 49.424713 16.042663 49.33035 16.004691 49.191406 16 C 48.536452 15.977886 46.84714 16.702813 44.904297 17.691406 C 44.763467 15.073851 44.461768 13.007106 43.986328 13.005859 L 41.986328 13 z M 42.503906 14.001953 L 43.46875 14.003906 C 43.564 14.344276 43.666461 14.913949 43.746094 15.619141 C 43.829339 16.356324 43.892788 17.237156 43.935547 18.183594 C 43.62536 18.349128 43.315535 18.52621 43 18.701172 C 42.680871 18.524218 42.368315 18.345028 42.054688 18.177734 C 42.094014 17.228788 42.153602 16.344086 42.234375 15.605469 C 42.310966 14.905088 42.410575 14.34203 42.503906 14.001953 z M 37.140625 17.060547 C 37.485184 17.148763 38.036207 17.346675 38.691406 17.632812 C 39.38155 17.934212 40.188727 18.329189 41.042969 18.773438 C 41.032177 19.121642 41.026822 19.476374 41.021484 19.833984 C 40.695767 20.028567 40.393762 20.221348 40.080078 20.416016 C 39.268396 19.900589 38.522126 19.402034 37.916016 18.957031 C 37.342242 18.535771 36.897455 18.163274 36.648438 17.910156 L 37.140625 17.060547 z M 48.859375 17.060547 L 49.351562 17.910156 C 49.102545 18.163274 48.657758 18.535771 48.083984 18.957031 C 47.477874 19.402034 46.731604 19.900589 45.919922 20.416016 C 45.604243 20.220111 45.300502 20.025887 44.972656 19.830078 C 44.966085 19.476054 44.959152 19.124075 44.947266 18.779297 C 45.805108 18.332966 46.615841 17.935351 47.308594 17.632812 C 47.963793 17.346675 48.514816 17.148763 48.859375 17.060547 z M 43 19.845703 C 43.172492 19.943087 43.339697 20.025936 43.511719 20.125 C 43.675465 20.219298 43.823693 20.316663 43.986328 20.412109 C 43.988469 20.614523 43.999632 20.804936 44 21.007812 C 44.000358 21.204838 43.989598 21.38935 43.988281 21.585938 C 43.824867 21.68185 43.676257 21.780246 43.511719 21.875 C 43.339697 21.974064 43.172492 22.056913 43 22.154297 C 42.827508 22.056913 42.660303 21.974064 42.488281 21.875 C 42.324535 21.780702 42.176307 21.683337 42.013672 21.587891 C 42.011531 21.385477 42.000368 21.195064 42 20.992188 C 41.999642 20.795162 42.010402 20.61065 42.011719 20.414062 C 42.175133 20.31815 42.323743 20.219754 42.488281 20.125 C 42.660303 20.025936 42.827508 19.943087 43 19.845703 z M 40.076172 21.583984 C 40.386151 21.776261 40.705628 21.966012 41.027344 22.158203 C 41.033928 22.516245 41.040715 22.872082 41.052734 23.220703 C 40.194892 23.667034 39.384159 24.064649 38.691406 24.367188 C 38.036207 24.653325 37.485184 24.851237 37.140625 24.939453 L 36.648438 24.089844 C 36.897455 23.836726 37.342242 23.464229 37.916016 23.042969 C 38.521452 22.598461 39.265548 22.098803 40.076172 21.583984 z M 45.923828 21.583984 C 46.734452 22.098803 47.478548 22.598461 48.083984 23.042969 C 48.657758 23.464229 49.102547 23.836726 49.351562 24.089844 L 48.859375 24.939453 C 48.514816 24.851237 47.963793 24.653323 47.308594 24.367188 C 46.61845 24.065788 45.811273 23.670811 44.957031 23.226562 C 44.967942 22.874512 44.97318 22.515929 44.978516 22.154297 C 45.298139 21.963311 45.615812 21.775044 45.923828 21.583984 z M 43 23.292969 C 43.317781 23.469087 43.633018 23.644025 43.945312 23.810547 C 43.905999 24.763775 43.846716 25.653001 43.765625 26.394531 C 43.689034 27.094912 43.589425 27.65797 43.496094 27.998047 L 42.53125 27.996094 C 42.436 27.655724 42.333539 27.086051 42.253906 26.380859 C 42.170387 25.641249 42.107215 24.756643 42.064453 23.806641 C 42.3738 23.641625 42.685298 23.467381 43 23.292969 z"/>
 </g>
</svg>
