<svg xmlns="http://www.w3.org/2000/svg" width="16" height="16" version="1.1">
<defs id="rounded">
    <style type="text/css" id="current-color-scheme">
        .ColorScheme-Text {
        color:#eff0f1;
        }
        .ColorScheme-NegativeText {
        color:#da4453;
        }
        .ColorScheme-Highlight {
        color:#3daee9;
        }
        .ColorScheme-Background {
        color:#31363b;
      }
      .ColorScheme-ButtonBackground {
        color:#444c53;
      }
    </style>
</defs>
 <g id="window-list" transform="translate(54.000001,-4.55e-5)">
  <rect style="opacity:0.001" width="32" height="32" x="16" y="-16" ry="0"/>
  <path style="fill:currentColor" class="ColorScheme-Text" d="m 22.5,-12 c -1.385,0 -2.5,1.115 -2.5,2.5 v 5 c 0,1.385 1.115,2.5 2.5,2.5 h 5 c 1.385,0 2.5,-1.115 2.5,-2.5 v -5 c 0,-1.385 -1.115,-2.5 -2.5,-2.5 z m 14,0 c -1.385,0 -2.5,1.115 -2.5,2.5 v 5 c 0,1.385 1.115,2.5 2.5,2.5 h 5 c 1.385,0 2.5,-1.115 2.5,-2.5 v -5 c 0,-1.385 -1.115,-2.5 -2.5,-2.5 z m -14,1 h 5 c 0.848297,0 1.5,0.651703 1.5,1.5 v 5 c 0,0.8482972 -0.651703,1.5 -1.5,1.5 h -5 C 21.651703,-3 21,-3.6517028 21,-4.5 v -5 c 0,-0.848297 0.651703,-1.5 1.5,-1.5 z m 14,0 h 5 c 0.848297,0 1.5,0.651703 1.5,1.5 v 5 c 0,0.8482972 -0.651703,1.5 -1.5,1.5 h -5 C 35.651703,-3 35,-3.6517028 35,-4.5 v -5 c 0,-0.848297 0.651703,-1.5 1.5,-1.5 z M 22.5,2 C 21.115,2 20,3.115 20,4.5 v 5 c 0,1.385 1.115,2.5 2.5,2.5 h 5 C 28.885,12 30,10.885 30,9.5 v -5 C 30,3.115 28.885,2 27.5,2 Z m 14,0 C 35.115,2 34,3.115 34,4.5 v 5 c 0,1.385 1.115,2.5 2.5,2.5 h 5 C 42.885,12 44,10.885 44,9.5 v -5 C 44,3.115 42.885,2 41.5,2 Z m -14,1 h 5 C 28.348297,3 29,3.651703 29,4.5 v 5 c 0,0.848297 -0.651703,1.5 -1.5,1.5 h -5 C 21.651703,11 21,10.348297 21,9.5 v -5 C 21,3.651703 21.651703,3 22.5,3 Z m 14,0 h 5 C 42.348297,3 43,3.651703 43,4.5 v 5 c 0,0.848297 -0.651703,1.5 -1.5,1.5 h -5 C 35.651703,11 35,10.348297 35,9.5 v -5 C 35,3.651703 35.651703,3 36.5,3 Z"/>
 </g>
 <g id="16-16-window-close" transform="matrix(3.7798254,0,0,3.7798254,-52.010398,-960.60482)">
  <rect style="opacity:0.001" width="4.233" height="4.233" x="13.76" y="254.14"/>
  <path style="fill:currentColor" class="ColorScheme-Text" transform="matrix(0.26458332,0,0,0.26458332,-0.5291667,249.37493)" d="M 62,20 A 6.0000003,6.0000003 0 0 0 56,26 6.0000003,6.0000003 0 0 0 62,32 6.0000003,6.0000003 0 0 0 68,26 6.0000003,6.0000003 0 0 0 62,20 Z M 62,21 A 5,5 0 0 1 67,26 5,5 0 0 1 62,31 5,5 0 0 1 57,26 5,5 0 0 1 62,21 Z M 63.978516,23 A 0.99520404,0.99716875 0 0 0 63.966796,23.002 0.99520404,0.99716875 0 0 0 63.283202,23.304735 L 61.998046,24.591844 60.714843,23.304735 A 0.99520404,0.99716875 0 0 0 60,23.001953 0.99520404,0.99716875 0 0 0 59.302734,24.716797 L 60.587891,26.005859 59.302734,27.292969 A 0.99821769,1.0001884 0 1 0 60.714844,28.707031 L 61.998047,27.417969 63.283203,28.707031 A 0.99821734,1.000188 0 1 0 64.695312,27.292969 L 63.410156,26.005859 64.695312,24.716797 A 0.99520404,0.99716875 0 0 0 63.978516,23 Z"/>
 </g>
 <g id="22-22-window-close" transform="translate(19,-3.0000741)">
  <rect style="opacity:0.001" width="22" height="22" x="-3" y="-3"/>
  <path style="fill:currentColor" class="ColorScheme-Text" d="M 8,0 A 8.0000006,8.0000006 0 0 0 0,8 8.0000006,8.0000006 0 0 0 8,16 8.0000006,8.0000006 0 0 0 16,8 8.0000006,8.0000006 0 0 0 8,0 Z M 8,1 A 6.9999999,6.9999999 0 0 1 15,8 6.9999999,6.9999999 0 0 1 8,15 6.9999999,6.9999999 0 0 1 1,8 6.9999999,6.9999999 0 0 1 8,1 Z M 4.9902344,3.9902344 A 1.0001,1.0001 0 0 0 4.2929688,5.7070312 L 6.5859375,8 4.2929688,10.292969 a 1.0001,1.0001 0 1 0 1.4140624,1.414062 L 8,9.4140625 10.292969,11.707031 a 1.0001,1.0001 0 1 0 1.414062,-1.414062 L 9.4140625,8 11.707031,5.7070312 a 1.0001,1.0001 0 0 0 -0.726562,-1.7167968 1.0001,1.0001 0 0 0 -0.6875,0.3027344 L 8,6.5859375 5.7070312,4.2929688 A 1.0001,1.0001 0 0 0 4.9902344,3.9902344 Z"/>
 </g>
 <g id="window-close" transform="translate(46.000001,-8.0000455)">
  <rect style="opacity:0.001" width="32" height="32" x="-8" y="-8"/>
  <path style="fill:currentColor" class="ColorScheme-Text" d="M 8,-4 A 12.000001,12.000001 0 0 0 -4,8 12.000001,12.000001 0 0 0 8,20 12.000001,12.000001 0 0 0 20,8 12.000001,12.000001 0 0 0 8,-4 Z m 0,1 A 11,11 0 0 1 19,8 11,11 0 0 1 8,19 11,11 0 0 1 -3,8 11,11 0 0 1 8,-3 Z M 2.9902344,1.9902344 A 1.0001,1.0001 0 0 0 2.2929688,3.7070312 L 6.5859375,8 2.2929688,12.292969 a 1.0001,1.0001 0 1 0 1.4140624,1.414062 L 8,9.4140625 12.292969,13.707031 a 1.0001,1.0001 0 1 0 1.414062,-1.414062 L 9.4140625,8 13.707031,3.7070312 a 1.0001,1.0001 0 0 0 -0.726562,-1.7167968 1.0001,1.0001 0 0 0 -0.6875,0.3027344 L 8,6.5859375 3.7070312,2.2929688 A 1.0001,1.0001 0 0 0 2.9902344,1.9902344 Z"/>
 </g>
 <rect style="opacity:0.001" width="8" height="8" x="6.5" y="-11.18"/>
 <g id="16-16-window-pin" transform="translate(5.3755111e-7,-15.999995)">
  <rect width="16" height="16" x="0" y="0" style="opacity:0.001"/>
  <path d="M 9.5,2 C 8.916122,2.583878 8.7974705,3.6265159 9.476555,4.7656249 L 6.289055,6.8984375 C 5.8927504,6.7385315 5.4673594,6.619301 5.0468674,6.6171875 4.500305,6.6144125 3.96875,6.78125 3.5,7.25 L 5.7499999,9.5 2.75,12.5 2,14 3.5,13.25 6.5,10.25 8.75,12.5 C 9.580223,11.669777 9.473561,10.619174 9.1015625,9.7109369 L 11.234375,6.5234375 C 12.373484,7.2025295 13.416122,7.083878 14,6.5 Z" style="fill:currentColor" class="ColorScheme-Text"/>
 </g>
 <g id="22-22-window-pin" transform="translate(3.0000005,-34.999995)">
  <rect style="opacity:0.001" width="22" height="22" x="-3" y="-3"/>
  <path style="fill:currentColor" class="ColorScheme-Text" d="M 10,0 C 9.221496,0.778504 9.063294,2.1686879 9.9687399,3.6874998 L 5.71874,6.53125 C 5.1903339,6.318042 4.6231459,6.159068 4.0624899,6.15625 3.33374,6.15255 2.625,6.375 2,7 L 4.9999999,10 1,14 0,16 2,15 6,11 9,14 C 10.106964,12.893036 9.9647476,11.492232 9.46875,10.281249 L 12.3125,6.03125 C 13.831312,6.936706 15.221496,6.778504 16,6 Z"/>
 </g>
 <g id="window-pin" transform="translate(8.0000015,-61.999995)">
  <rect width="32" height="32" x="-8" y="-8" style="opacity:0.001"/>
  <path d="M 11,-4 C 9.832244,-2.832244 9.594941,-0.7469681 10.95311,1.5312497 L 4.57811,5.796875 C 3.7855008,5.477063 2.9347189,5.238602 2.0937348,5.234375 1.00061,5.228825 -0.0625,5.5625 -1,6.5 L 3.4999999,11 -2.5,17 -4,20 -1,18.499999 5,12.499999 9.5,17 C 11.160446,15.339553 10.947122,13.238348 10.203125,11.421873 L 14.46875,5.046875 C 16.746968,6.405059 18.832245,6.167756 20,5 Z" style="fill:currentColor" class="ColorScheme-Text"/>
 </g>
  <g id="8-8-window-pin" transform="translate(-12,-11.999995)">
  <rect width="8" height="8" x="4" y="4" style="opacity:0.001"/>
  <path d="M 9.0000001,4 C 8.610748,4.389252 8.531647,5.084344 8.9843701,5.84375 L 6.85937,7.265625 C 6.595167,7.159021 6.311573,7.079534 6.031245,7.078125 5.66687,7.076275 5.3125,7.1875 5,7.5 L 6.5,9 4.5,11 4,12 5,11.5 7,9.5 8.5,11 C 9.0534821,10.446518 8.9823741,9.746116 8.734375,9.1406246 L 10.15625,7.015625 C 10.915656,7.468353 11.610748,7.389252 12,7 Z" style="fill:currentColor" class="ColorScheme-Text"/>
 </g>
</svg>
