<svg xmlns="http://www.w3.org/2000/svg" width="32" height="32" version="1.1">
<defs id="rounded">
    <style type="text/css" id="current-color-scheme">
        .ColorScheme-Text {
        color:#eff0f1;
        }
        .ColorScheme-NegativeText {
        color:#da4453;
        }
        .ColorScheme-Highlight {
        color:#3daee9;
        }
        .ColorScheme-Background {
        color:#31363b;
      }
      .ColorScheme-ButtonBackground {
        color:#444c53;
      }
    </style>
</defs>
 <g id="yakuake">
  <rect style="opacity:0.001" width="32" height="32" x="0" y="0"/>
  <path style="opacity:0.5;fill:currentColor" class="ColorScheme-Text" d="m 19.490234,5.9960938 a 0.50005,0.50005 0 0 0 -0.34375,0.1503906 l -7.5,7.4999996 -1,1 a 0.50005,0.50005 0 1 0 0.707032,0.707032 l 1,-1 7.5,-7.5000004 A 0.50005,0.50005 0 0 0 19.490234,5.9960938 Z"/>
  <path style="fill:currentColor" class="ColorScheme-Text" d="M 4.4941406,5.9941406 A 0.50005,0.50005 0 0 0 4.1464844,6.8535156 L 11.292969,14 4.1464844,21.146484 a 0.50005,0.50005 0 1 0 0.7070312,0.707032 l 7.4335934,-7.435547 a 0.50005,0.50005 0 0 0 0.0078,-0.0059 0.50005,0.50005 0 0 0 0.201172,-0.318359 0.50005,0.50005 0 0 0 0.0078,-0.07422 0.50005,0.50005 0 0 0 -0.0039,-0.08008 0.50005,0.50005 0 0 0 -0.0078,-0.04883 0.50005,0.50005 0 0 0 -0.195313,-0.300781 L 4.8535156,6.1464844 A 0.50005,0.50005 0 0 0 4.4941406,5.9941406 Z M 15.5,25 a 0.50005,0.50005 0 1 0 0,1 h 12 a 0.50005,0.50005 0 1 0 0,-1 z"/>
 </g>
 <g id="22-22-yakuake" transform="translate(27,5)">
  <rect style="opacity:0.001" width="22" height="22" x="5" y="5"/>
  <path style="opacity:0.5;fill:currentColor" class="ColorScheme-Text" d="m 18.490234,8.9960938 a 0.50005,0.50005 0 0 0 -0.34375,0.1503906 l -6,5.9999996 a 0.50005,0.50005 0 1 0 0.707032,0.707032 l 6,-6.0000004 A 0.50005,0.50005 0 0 0 18.490234,8.9960938 Z"/>
  <path style="fill:currentColor" class="ColorScheme-Text" transform="translate(-29.5,-4.5)" d="m 37.994141,13.494141 a 0.50005,0.50005 0 0 0 -0.347657,0.859375 L 42.292969,19 37.646484,23.646484 a 0.50005,0.50005 0 1 0 0.707032,0.707032 l 4.933593,-4.935547 a 0.50005,0.50005 0 0 0 0.0078,-0.0059 0.50005,0.50005 0 0 0 0.201172,-0.318359 0.50005,0.50005 0 0 0 0.0078,-0.07422 0.50005,0.50005 0 0 0 -0.0039,-0.08008 0.50005,0.50005 0 0 0 -0.0078,-0.04883 0.50005,0.50005 0 0 0 -0.195313,-0.300781 l -4.943359,-4.94336 A 0.50005,0.50005 0 0 0 37.994141,13.494141 Z M 45,26.5 a 0.50005,0.50005 0 1 0 0,1 h 8 a 0.50005,0.50005 0 1 0 0,-1 z"/>
 </g>
</svg>
