<svg xmlns="http://www.w3.org/2000/svg" width="29" height="12" version="1.1">
 <rect style="fill:#31363b" width="29" height="12" x="0" y="0"/>
 <path style="fill:#ffffff;opacity:0.1" d="M 10.101562 1 C 8.9476615 1 8 1.9476611 8 3.1015625 L 8 9.8984375 C 8 11.052339 8.9476615 12 10.101562 12 L 13 12 L 16.898438 12 L 20.101562 12 L 24 12 L 26.898438 12 C 28.052339 12 29 11.052339 29 9.8984375 L 29 3.1015625 C 29 1.9476611 28.052338 1 26.898438 1 L 24 1 L 20.101562 1 L 16.898438 1 L 13 1 L 10.101562 1 z"/>
 <path style="fill:#eff0f1" d="m 23,3 h 1 v 3 h 3 v 1 h -3 v 3 H 23 V 7 H 20 V 6 h 3 z"/>
</svg>
