<svg xmlns="http://www.w3.org/2000/svg" xmlns:xlink="http://www.w3.org/1999/xlink" width="90" height="55" version="1.0">
 <defs id="defs4">
  <linearGradient id="linearGradient991">
   <stop style="stop-color:#a22f66;stop-opacity:1" offset="0"/>
   <stop style="stop-color:#1b77a0;stop-opacity:1" offset="1"/>
  </linearGradient>
  <linearGradient id="linearGradient1186" x1="33" x2="66" y1="16.5" y2="16.5" gradientUnits="userSpaceOnUse" xlink:href="#linearGradient991"/>
  <linearGradient id="linearGradient1188" x1="33" x2="65" y1="5.5" y2="5.5" gradientUnits="userSpaceOnUse" xlink:href="#linearGradient991"/>
  <linearGradient id="linearGradient1190" x1="33" x2="66" y1="5.5" y2="5.5" gradientUnits="userSpaceOnUse" xlink:href="#linearGradient991"/>
  <linearGradient id="linearGradient1192" x1="33" x2="66" y1="5.5" y2="5.5" gradientUnits="userSpaceOnUse" xlink:href="#linearGradient991"/>
  <linearGradient id="linearGradient1194" x1="33" x2="66" y1="16.5" y2="16.5" gradientUnits="userSpaceOnUse" xlink:href="#linearGradient991"/>
  <linearGradient id="linearGradient1196" x1="33" x2="66" y1="16.5" y2="16.5" gradientUnits="userSpaceOnUse" xlink:href="#linearGradient991"/>
  <linearGradient id="linearGradient1198" x1="33" x2="66" y1="27.5" y2="27.5" gradientUnits="userSpaceOnUse" xlink:href="#linearGradient991"/>
  <linearGradient id="linearGradient1200" x1="33" x2="66" y1="27.5" y2="27.5" gradientUnits="userSpaceOnUse" xlink:href="#linearGradient991"/>
  <linearGradient id="linearGradient1202" x1="33" x2="66" y1="27.5" y2="27.5" gradientUnits="userSpaceOnUse" xlink:href="#linearGradient991"/>
 </defs>
 <g id="handle" transform="matrix(1.1,0,0,1.1,46.299,35.101)">
  <rect style="opacity:0.001" width="20" height="20" x="-42.09" y="-1.91"/>
  <path style="fill:#444c53" transform="matrix(1.0227273,0,0,1.0227273,0.63711821,-0.0918182)" d="m -24,8 a 8,8 0 0 1 -8,8 8,8 0 0 1 -8,-8 8,8 0 0 1 8,-8 8,8 0 0 1 8,8 z"/>
 </g>
 <g id="handle-hover" transform="matrix(1.1,0,0,1.1,68.299,35.101)">
  <rect style="opacity:0.001" width="20" height="20" x="-42.09" y="-1.91"/>
  <path style="opacity:0.1;fill:#ffffff" transform="matrix(1.0227273,0,0,1.0227273,0.63711821,-0.0918182)" d="m -24,8 a 8,8 0 0 1 -8,8 8,8 0 0 1 -8,-8 8,8 0 0 1 8,-8 8,8 0 0 1 8,8 z"/>
 </g>
 <g id="handle-focus" transform="matrix(1.1,0,0,1.1,90.299,35.101)">
  <rect style="opacity:0.001" width="20" height="20" x="-42.09" y="-1.91"/>
  <path style="opacity:0.2;fill:#ffffff" transform="matrix(1.0227273,0,0,1.0227273,0.63711821,-0.0918182)" d="m -24,8 a 8,8 0 0 1 -8,8 8,8 0 0 1 -8,-8 8,8 0 0 1 8,-8 8,8 0 0 1 8,8 z"/>
 </g>
 <g id="handle-shadow" transform="matrix(1.1,0,0,1.1,112.299,35.101)">
  <rect style="opacity:0.001" width="20" height="20" x="-42.09" y="-1.91"/>
 </g>
 <path id="groove-bottomright" style="opacity:0.2" d="M 22,22 V 33 C 33.000001,33 33.000001,22 33.000001,22 Z"/>
 <path id="groove-right" style="opacity:0.2" d="M 22,11 V 22 H 33.000001 V 11 Z"/>
 <path id="groove-topright" style="opacity:0.2" d="M 22,-3.6716472e-8 V 11 H 33.000001 C 33.000001,-3.6716472e-8 22,-3.6716472e-8 22,-3.6716472e-8 Z"/>
 <path id="groove-bottomleft" style="opacity:0.2" d="m 8.3215332e-7,22 c 0,0 0,11 11.00000016784668,11 V 22 Z"/>
 <path id="groove-left" style="opacity:0.2" d="M 8.3215332e-7,11 V 22 H 11.000001 V 11 Z"/>
 <path id="groove-topleft" style="opacity:0.2" d="m 11.000001,-3.6716472e-8 c 0,0 -11.00000016784668,0 -11.00000016784668,11.000000036716471 H 11.000001 Z"/>
 <path id="groove-bottom" style="opacity:0.2" d="M 11.000001,22 V 33 H 22 V 22 Z"/>
 <path id="groove-center" style="opacity:0.2" d="M 22,11 H 11.000001 V 22 H 22 Z"/>
 <path id="groove-top" style="opacity:0.2" d="M 11.000001,-3.6716472e-8 V 11 H 22 V -3.6716472e-8 Z"/>
 <path id="groove-highlight-bottomright" style="fill:url(#linearGradient1202);opacity:0.8" d="M 54.999998,22 V 33 C 66.000001,33 66.000001,22 66.000001,22 Z"/>
 <path id="groove-highlight-right" style="fill:url(#linearGradient1194);opacity:0.8" d="M 54.999998,11 V 22 H 66.000001 V 11 Z"/>
 <path id="groove-highlight-topright" style="fill:url(#linearGradient1192);opacity:0.8" d="M 54.999998,-3.6716472e-8 V 11 h 11.000003 c 0,0 0,-11.000000036716471 -11.000003,-11.000000036716471 z"/>
 <path id="groove-highlight-bottomleft" style="fill:url(#linearGradient1198);opacity:0.8" d="m 33.000001,22 c 0,0 0,11 10.999999,11 V 22 Z"/>
 <path id="groove-highlight-left" style="fill:url(#linearGradient1186);opacity:0.8" d="M 33.000001,11 V 22 H 44 V 11 Z"/>
 <path id="groove-highlight-topleft" style="fill:url(#linearGradient1188);opacity:0.8" d="M 44,-3.6716472e-8 C 33.000001,-3.6716472e-8 33.000001,11 33.000001,11 H 44 Z"/>
 <path id="groove-highlight-bottom" style="fill:url(#linearGradient1200);opacity:0.8" d="M 44,22 V 33 H 54.999998 V 22 Z"/>
 <path id="groove-highlight-center" style="fill:url(#linearGradient1196);opacity:0.8" d="M 54.999998,11 H 44 v 11 h 10.999998 z"/>
 <path id="groove-highlight-top" style="fill:url(#linearGradient1190);opacity:0.8" d="M 44,-3.6716472e-8 V 11 H 54.999998 V -3.6716472e-8 Z"/>
 <rect style="fill:#ff0000" id="hint-handle-size" width="24" height="18" x="66" y="15"/>
 <rect id="hint-stretch-borders" style="fill:#ff0000" width="4" height="4" x="86" y="1"/>
</svg>
