<svg xmlns="http://www.w3.org/2000/svg" id="svg8" width="22" height="22" version="1.1">
 <g id="layer1" transform="translate(0,-291.17917)">
  <g id="akregator" transform="translate(0,1.2988281e-6)">
   <rect id="rect950" style="opacity:0.001" width="22" height="22" x="0" y="291.18"/>
   <path id="path952" style="opacity:1;fill:#eff0f1" transform="translate(0,291.17917)" d="M 4.5 4 A 0.50005 0.50005 0 1 0 4.5 5 C 8.6617647 5 11.760968 6.0930056 13.833984 8.1660156 C 15.907 10.239036 17 13.33823 17 17.5 A 0.50005 0.50005 0 1 0 18 17.5 C 18 13.16176 16.843 9.7609744 14.541016 7.4589844 C 12.239032 5.1570044 8.8382353 4 4.5 4 z M 5.5 7 A 0.50005 0.50005 0 1 0 5.5 8 C 8.1439394 8 10.250193 8.8322256 11.708984 10.291016 C 13.167775 11.749806 14 13.85606 14 16.5 A 0.50005 0.50005 0 1 0 15 16.5 C 15 13.64394 14.082225 11.250194 12.416016 9.5839844 C 10.749807 7.9177744 8.3560606 7 5.5 7 z M 6.5 10 A 0.50005 0.50005 0 1 0 6.5 11 C 7.5833333 11 8.7250518 11.557086 9.5839844 12.416016 C 10.442917 13.274956 11 14.41666 11 15.5 A 0.50005 0.50005 0 1 0 12 15.5 C 12 14.08333 11.307083 12.725054 10.291016 11.708984 C 9.2749478 10.692914 7.9166667 10 6.5 10 z M 6 13 A 3 3 0 0 0 3 16 A 3 3 0 0 0 6 19 A 3 3 0 0 0 9 16 A 3 3 0 0 0 6 13 z"/>
  </g>
 </g>
</svg>
