<svg xmlns="http://www.w3.org/2000/svg" width="32" height="32" version="1">
 <g id="antimicro">
  <rect style="opacity:0.001" width="32" height="32" x="0" y="0"/>
  <path style="fill:#eff0f1" d="M 15.958984,4 C 7.5870959,3.9999998 6.6128187,4.1309405 4.9316406,5.4765625 3.1321457,6.9168859 2.9343647,7.6708734 2.3710938,15.302734 c -0.2776801,3.762325 -0.4341745,7.20412 -0.3476563,7.650391 0.1955593,1.008717 1.267003,2.270995 2.296875,2.705078 1.9967963,0.841638 3.7649178,0.143878 5.6328125,-2.220703 l 1.15625,-1.462891 h 4.46875 c 3.262804,0.0055 5.126693,0.124439 5.394531,0.335938 0.209736,0.165621 0.946686,0.855411 1.636719,1.654297 0.690035,0.798886 1.604648,1.608048 2.033203,1.796875 0.45283,0.199528 1.047571,0.269812 1.65625,0.226562 1.392537,-0.111289 2.714599,-0.872058 3.34961,-2.251953 0.463155,-1.018079 0.463768,-1.213632 0.03125,-7.068359 -0.147765,-2.000192 -0.279784,-3.627356 -0.371094,-4.626953 0.05615,-1.041844 -0.0016,-1.781025 -0.16211,-2.6718754 C 28.766401,7.2812708 28.224206,6.5135866 27.111328,5.5917969 25.342949,4.1270605 24.460213,4 15.958984,4 Z m 0,1 c 4.245629,0 6.584994,0.040094 7.958985,0.2363281 1.37399,0.1962342 1.72251,0.4357135 2.554687,1.125 1.025705,0.849585 1.331647,1.2220011 1.689453,3.1875 0.150566,0.8359799 0.2012,1.4585889 0.148438,2.4374999 a 1.0001,1.0001 0 0 0 0.002,0.146484 c 0.09031,0.98865 0.221664,2.613091 0.369141,4.609376 0.216196,2.926511 0.321973,4.44569 0.318359,5.269531 -0.0036,0.82384 -0.04007,0.823323 -0.261719,1.310547 -0.472197,1.021981 -1.433482,1.578923 -2.509765,1.667968 h -0.002 c -0.485461,0.03415 -0.945553,-0.0405 -1.18164,-0.144531 0.02782,0.01226 -0.325762,-0.208056 -0.658203,-0.501953 -0.332442,-0.293897 -0.710161,-0.672769 -1.021485,-1.033203 -0.734128,-0.849937 -1.397996,-1.488684 -1.773437,-1.785156 -0.473913,-0.374227 -0.647854,-0.294738 -0.962891,-0.34375 -0.315036,-0.04901 -0.696345,-0.08568 -1.167968,-0.115235 -0.943246,-0.05911 -2.237633,-0.08902 -3.88086,-0.0918 a 1.0001,1.0001 0 0 0 -0.002,0 h -4.46875 a 1.0001,1.0001 0 0 0 -0.785156,0.38086 l -1.1562502,1.46289 C 8.2995471,23.917762 7.5072696,24.548652 6.8183594,24.820312 6.1294492,25.091976 5.5188924,25.0777 4.7089844,24.736328 4.3993604,24.605824 3.9585711,24.270543 3.6210938,23.873047 3.2836162,23.475551 3.0535266,23.009545 3.0058594,22.763672 c 0.034802,0.179511 -0.01049,-0.222749 -0.00391,-0.650391 0.00659,-0.427641 0.027375,-1.0104 0.058594,-1.697265 0.062437,-1.373731 0.1703864,-3.166473 0.3085937,-5.039063 C 3.6503248,11.567184 3.853886,9.4800944 4.15625,8.3203125 4.458614,7.1605306 4.7094013,6.9359464 5.5566406,6.2578125 6.3360076,5.6340039 6.6894074,5.4093069 8.0683594,5.2246094 9.4473114,5.0399118 11.778258,4.9999999 15.958984,5 Z M 8.75,7 C 8.3345,7 8,7.3345 8,7.75 V 10 H 5.75 C 5.3345,10 5,10.3345 5,10.75 v 1.5 C 5,12.6655 5.3345,13 5.75,13 H 8 v 2.25 C 8,15.6655 8.3345,16 8.75,16 h 1.5 C 10.6655,16 11,15.6655 11,15.25 V 13 h 2.25 C 13.6655,13 14,12.6655 14,12.25 v -1.5 C 14,10.3345 13.6655,10 13.25,10 H 11 V 7.75 C 11,7.3345 10.6655,7 10.25,7 Z M 22.5,7 A 1.5,1.5 0 0 0 21,8.5 1.5,1.5 0 0 0 22.5,10 1.5,1.5 0 0 0 24,8.5 1.5,1.5 0 0 0 22.5,7 Z m -3,3 A 1.5,1.5 0 0 0 18,11.5 1.5,1.5 0 0 0 19.5,13 1.5,1.5 0 0 0 21,11.5 1.5,1.5 0 0 0 19.5,10 Z m 6,0 A 1.5,1.5 0 0 0 24,11.5 1.5,1.5 0 0 0 25.5,13 1.5,1.5 0 0 0 27,11.5 1.5,1.5 0 0 0 25.5,10 Z m -3,3 A 1.5,1.5 0 0 0 21,14.5 1.5,1.5 0 0 0 22.5,16 1.5,1.5 0 0 0 24,14.5 1.5,1.5 0 0 0 22.5,13 Z"/>
 </g>
 <g id="22-22-antimicro" transform="translate(27,5)">
  <rect style="opacity:0.001" width="22" height="22" x="5" y="5"/>
  <path style="fill:#eff0f1" d="M 15.970703,8 C 9.9908776,7.9999998 9.2945722,8.095618 8.09375,9.0742188 6.8084171,10.121691 6.667955,10.670449 6.265625,16.220703 c -0.1983397,2.736142 -0.3098452,5.23795 -0.2480469,5.5625 0.1396827,0.733586 0.9050139,1.651111 1.640625,1.966797 1.42626,0.61208 2.6892489,0.106356 4.0234379,-1.613281 l 0.826171,-1.115235 h 3.191407 c 2.330537,0.004 3.662206,0.09032 3.853515,0.244141 0.149809,0.120447 0.675096,0.672919 1.167969,1.253906 0.492874,0.580988 1.147019,1.169317 1.453125,1.306641 0.323445,0.145106 0.746877,0.195516 1.181641,0.164062 0.994653,-0.08093 1.939006,-0.633192 2.392578,-1.636718 0.33082,-0.740395 0.332375,-0.882788 0.02344,-5.140625 C 25.66594,15.758257 25.57108,14.57461 25.505859,13.847656 25.545969,13.089977 25.505316,12.552167 25.390625,11.904297 25.119143,10.385898 24.7324,9.8285726 23.9375,9.1582031 22.674392,8.0929769 22.042912,8 15.970703,8 Z m 0,1 c 3.031029,0 4.700652,0.032952 5.642578,0.1699219 0.941927,0.1369699 1.097975,0.2630197 1.677735,0.7519531 0.708093,0.597162 0.865278,0.760197 1.115234,2.158203 0.105025,0.593801 0.138399,1.018998 0.101562,1.714844 a 1.0001,1.0001 0 0 0 0.002,0.142578 c 0.06426,0.716198 0.158407,1.89686 0.263672,3.347656 0.154409,2.128081 0.229051,3.234814 0.226562,3.8125 -0.0025,0.576403 -0.0093,0.499792 -0.164062,0.845703 v 0.002 c -0.296172,0.651179 -0.882408,0.993248 -1.558594,1.048829 -0.307274,0.021 -0.591067,-0.03331 -0.695313,-0.08008 0.09126,0.04094 -0.169113,-0.113699 -0.396484,-0.318359 -0.227371,-0.20466 -0.487988,-0.47136 -0.701172,-0.722656 -0.259014,-0.305319 -0.52409,-0.599459 -0.748047,-0.837891 -0.223957,-0.238431 -0.348261,-0.379719 -0.558594,-0.548828 -0.45357,-0.364689 -0.583565,-0.272424 -0.824218,-0.310547 -0.240654,-0.03812 -0.519001,-0.0641 -0.861328,-0.08594 -0.684655,-0.04368 -1.613705,-0.06634 -2.791016,-0.06836 a 1.0001,1.0001 0 0 0 -0.002,0 h -3.191407 a 1.0001,1.0001 0 0 0 -0.804687,0.404297 l -0.814453,1.09961 c -0.60164,0.77474 -1.1351428,1.196003 -1.5566408,1.365234 C 8.9099733,23.060038 8.5755319,23.05639 8.0527344,22.832031 7.8922477,22.763159 7.6011183,22.545004 7.3828125,22.283203 7.1855186,22.046601 7.0557539,21.775062 7.015625,21.640625 7.0164712,21.594525 6.998749,21.389568 7.001953,21.177734 7.006593,20.870957 7.020743,20.449062 7.042969,19.951172 7.087421,18.955391 7.1651127,17.652618 7.2636721,16.292969 7.4644011,13.523894 7.6131495,12.008455 7.8183596,11.207031 8.0235695,10.405607 8.13623,10.330696 8.7265625,9.8496094 9.2659545,9.410036 9.4267767,9.2894687 10.375,9.1601562 11.323223,9.030844 12.986102,8.9999999 15.970703,9 Z M 10.5,11 C 10.223,11 10,11.223 10,11.5 V 13 H 8.5 C 8.223,13 8,13.223 8,13.5 v 1 C 8,14.777 8.223,15 8.5,15 H 10 v 1.5 c 0,0.277 0.223,0.5 0.5,0.5 h 1 C 11.777,17 12,16.777 12,16.5 V 15 h 1.5 c 0.277,0 0.5,-0.223 0.5,-0.5 v -1 C 14,13.223 13.777,13 13.5,13 H 12 V 11.5 C 12,11.223 11.777,11 11.5,11 Z M 21,11 a 1,1 0 0 0 -1,1 1,1 0 0 0 1,1 1,1 0 0 0 1,-1 1,1 0 0 0 -1,-1 z m -2,2 a 1,1 0 0 0 -1,1 1,1 0 0 0 1,1 1,1 0 0 0 1,-1 1,1 0 0 0 -1,-1 z m 4,0 a 1,1 0 0 0 -1,1 1,1 0 0 0 1,1 1,1 0 0 0 1,-1 1,1 0 0 0 -1,-1 z m -2,2 a 1,1 0 0 0 -1,1 1,1 0 0 0 1,1 1,1 0 0 0 1,-1 1,1 0 0 0 -1,-1 z"/>
 </g>
</svg>
