<svg xmlns="http://www.w3.org/2000/svg" id="svg2" width="22" height="22" version="1.1">
 <g id="apport" transform="translate(0,-10)">
  <path id="path839" style="opacity:1;fill:#eff0f1" d="M 5.8574219,13 C 4.2746438,13 3,14.274644 3,15.857422 V 26.142578 C 3,27.725356 4.2746438,29 5.8574219,29 H 16.142578 C 17.725356,29 19,27.725356 19,26.142578 V 15.857422 C 19,14.274644 17.725356,13 16.142578,13 Z m 0,1 H 16.142578 C 17.188653,14 18,14.811347 18,15.857422 V 26.142578 C 18,27.188653 17.188653,28 16.142578,28 H 5.8574219 C 4.8113466,28 4,27.188653 4,26.142578 V 15.857422 C 4,14.811347 4.8113466,14 5.8574219,14 Z M 7,17 c -0.5522847,0 -1,0.447715 -1,1 0,0.552285 0.4477153,1 1,1 0.5522847,0 1,-0.447715 1,-1 0,-0.552285 -0.4477153,-1 -1,-1 z m 8,0 c -0.552285,0 -1,0.447715 -1,1 0,0.552285 0.447715,1 1,1 0.552285,0 1,-0.447715 1,-1 0,-0.552285 -0.447715,-1 -1,-1 z m -4,4 c -2.209139,0 -4,1.790861 -4,4 h 8 c 0,-2.209139 -1.790861,-4 -4,-4 z"/>
  <path id="path9" style="opacity:0.001" d="M 0,10 V 32 H 22 V 10 Z"/>
 </g>
</svg>
