<svg xmlns="http://www.w3.org/2000/svg" id="svg21" width="22" height="22" version="1.1">
 <g id="audacious">
  <rect id="rect2" style="opacity:0.001" width="22" height="22" x="0" y="0"/>
  <path id="path4489" style="opacity:1;fill:#eff0f1" d="M 11,2.9999999 A 8,8 0 0 0 3,11 a 8,8 0 0 0 8,8 8,8 0 0 0 8,-8 8,8 0 0 0 -8,-8.0000001 z m 0,1 c 3.877838,0 7,3.1221621 7,7.0000001 0,3.877838 -3.122162,7 -7,7 C 7.122162,18 4,14.877838 4,11 4,7.122162 7.122162,4 11,3.9999999 Z M 10.884766,7.001953 c -0.12448,-0.0047 -0.24966,0.0017 -0.38086,0.0078 -0.7791,0.036 -2.157712,0.0069 -2.695312,0.683594 -0.328501,0.4134 -0.175276,1.374709 0.328125,1.474609 0.6272,0.1244 1.687387,-0.1832219 2.367187,-0.107422 0.474,0.0529 0.60961,0.4580351 0.22461,0.7402351 -0.409,0.2991989 -1.336288,0.2093739 -1.804688,0.3593739 -1.6192,0.519 -2.201088,1.617422 -1.804688,3.107422 0.2586,0.971 1.175528,1.691422 2.173829,1.732422 1.92,-0.005 1.560234,-1.038 2.490234,-0.5 0.306,0.377 0.924141,0.497422 1.244141,0.232422 0.51379,-0.4254 1.286754,-0.652648 0.740234,-1.523438 -0.26172,-0.417 0.350191,-0.958103 0.212891,-3.033203 -0.1219,-1.840799 -1.22645,-3.103198 -3.09375,-3.173828 z m -0.248047,4.449219 c 0.43251,0 0.773437,0.322799 0.773437,0.724609 0,0.40183 -0.340937,0.732422 -0.773437,0.732422 -0.43251,0 -0.791016,-0.330572 -0.791016,-0.732422 0,-0.40183 0.358536,-0.724609 0.791016,-0.724609 z"/>
 </g>
</svg>
