<svg xmlns="http://www.w3.org/2000/svg" id="svg36" width="32" height="32" version="1.1">
 <g id="audio-volume-high">
  <path id="path835" style="opacity:0.001" d="M 0,0 H 32.000001 V 32.000001 H 0 Z"/>
  <path id="path870" style="opacity:1;fill:#eff0f1" d="M 21.460938 3.9960938 A 0.50005 0.50005 0 0 0 21.251953 4.9335938 C 25.804411 7.5413813 27.338127 12.373418 26.966797 16.957031 C 26.595466 21.540644 24.24359 25.772109 21.302734 27.041016 A 0.50005 0.50005 0 1 0 21.697266 27.958984 C 25.179405 26.456528 27.568745 21.904299 27.962891 17.039062 C 28.357036 12.173826 26.680488 6.8918595 21.748047 4.0664062 A 0.50005 0.50005 0 0 0 21.511719 3.9960938 A 0.50005 0.50005 0 0 0 21.460938 3.9960938 z M 15.808594 4 C 15.514622 4.010349 15.235373 4.1507698 15.027344 4.390625 L 8.4667969 12 L 6.8886719 12 C 5.2882264 12 4 13.340185 4 15.001953 L 4 17 C 4 17.982385 4.4574126 18.842185 5.15625 19.388672 L 5.15625 19.400391 L 5.1660156 19.400391 C 5.6476811 19.773785 6.2386531 20.001017 6.8886719 20 L 8.4667969 20 L 15.027344 27.607422 C 15.755591 28.445737 16.999567 27.850912 17 26.664062 L 17 5.3339844 C 17.000078 4.5818272 16.460276 3.9773217 15.808594 4 z M 15.84375 5 C 15.860006 4.9994343 16.000028 5.0595532 16 5.3339844 L 16 26.664062 C 15.999911 26.908352 15.89615 26.974679 15.855469 26.994141 C 15.814789 27.013601 15.885763 27.069232 15.783203 26.951172 L 9.2246094 19.347656 A 1.0001 1.0001 0 0 0 9 19.154297 L 9 12.84375 A 1.0001 1.0001 0 0 0 9.2246094 12.652344 L 15.785156 5.0429688 C 15.825057 4.9986084 15.843167 5.0000205 15.84375 5 z M 19.482422 7.9960938 A 0.50005 0.50005 0 0 0 19.232422 8.921875 C 22.289461 10.85478 23.266019 13.754661 23.011719 16.529297 C 22.757418 19.303933 21.205363 21.913 19.246094 23.070312 A 0.50005 0.50005 0 1 0 19.753906 23.929688 C 22.068988 22.562202 23.725592 19.700379 24.007812 16.621094 C 24.290035 13.541809 23.130979 10.204738 19.767578 8.078125 A 0.50005 0.50005 0 0 0 19.482422 7.9960938 z"/>
 </g>
 <g id="22-22-audio-volume-high" transform="translate(0,-22)">
  <path id="path22" style="opacity:0.001" d="M 0,0 H 22 V 22 H 0 Z"/>
  <path id="path892" style="opacity:1;fill:#eff0f1" d="m 14.480469,2.9980469 c -0.553871,0.01358 -0.677883,0.7840041 -0.15625,0.9707031 0,0 0.876043,0.3207543 1.802734,1.3632812 C 17.053644,6.3745592 18,8.111111 18,11 c 0,2.888889 -0.946356,4.625442 -1.873047,5.667969 -0.926691,1.042527 -1.802734,1.363281 -1.802734,1.363281 -0.625,0.234375 -0.273438,1.171875 0.351562,0.9375 0,0 1.123957,-0.429246 2.197266,-1.636719 C 17.946356,16.124558 19,14.111111 19,11 19,7.888889 17.946356,5.8754418 16.873047,4.6679688 15.799738,3.4604957 14.675781,3.03125 14.675781,3.03125 14.613541,3.00727 14.547136,2.9959769 14.480469,2.9980469 Z M 11.175781,3 C 10.972263,3.0069 10.778786,3.099861 10.634766,3.2597656 L 6.3691406,8 H 5 C 3.892,8 3,8.8921468 3,10 v 2 c 0,0.654928 0.3169711,1.227469 0.8007812,1.591797 v 0.0078 h 0.00586 C 4.1401017,13.848528 4.5499868,13.998047 5,13.998047 h 1.3691406 l 4.2656254,4.740234 C 11.138934,19.297164 11.999701,18.900614 12,18.109375 V 3.8886719 C 12.000053,3.3872302 11.626945,2.984881 11.175781,3 Z M 11,4.3496094 V 17.648438 L 7.1132812,13.332031 A 1.0001,0.99996766 0 0 0 7,13.226562 V 8.7753906 A 1.0001,0.99996766 0 0 0 7.1132812,8.6679688 Z m 2.472656,1.6464844 c -0.473831,0.01928 -0.657198,0.6257008 -0.273437,0.9042968 0,0 1.800781,1.3218314 1.800781,4.0996094 0,2.777778 -1.800781,4.099609 -1.800781,4.099609 -0.533854,0.401041 0.06771,1.201823 0.601562,0.800782 C 13.800781,15.900391 16,14.222222 16,11 16,7.777778 13.800781,6.0996094 13.800781,6.0996094 13.707091,6.0273794 13.590832,5.9906997 13.472656,5.9960938 Z"/>
 </g>
 <g id="22-22-audio-volume-medium" transform="translate(7.000001,20)">
  <path id="path913" style="opacity:0.001" d="m 25,-42 h 22 v 22 H 25 Z"/>
  <path id="path935" style="opacity:0.5;fill:#eff0f1" d="m 39.480469,-39.001953 a 0.50005,0.50005 0 0 0 -0.15625,0.970703 c 0,0 0.876043,0.320754 1.802734,1.363281 C 42.053644,-35.625441 43,-33.888889 43,-31 c 0,2.888889 -0.946356,4.625442 -1.873047,5.667969 -0.926691,1.042527 -1.802734,1.363281 -1.802734,1.363281 a 0.50062513,0.50062513 0 1 0 0.351562,0.9375 c 0,0 1.123957,-0.429246 2.197266,-1.636719 C 42.946356,-25.875442 44,-27.888889 44,-31 c 0,-3.111111 -1.053644,-5.124558 -2.126953,-6.332031 -1.073309,-1.207473 -2.197266,-1.636719 -2.197266,-1.636719 a 0.50005,0.50005 0 0 0 -0.195312,-0.0332 z"/>
  <path id="path933" style="opacity:1;fill:#eff0f1" transform="translate(3,-42)" d="M 33.175781,3 C 32.972263,3.0069 32.778786,3.099865 32.634766,3.2597656 L 28.369141,8 H 27 c -1.108,0 -2,0.892146 -2,2 v 2 c 0,0.654928 0.316971,1.229422 0.800781,1.59375 v 0.0059 h 0.0059 C 26.140102,13.848528 26.549987,14 27,14 h 1.369141 l 4.265625,4.738281 C 33.138934,19.297163 33.999701,18.900614 34,18.109375 V 3.8886719 C 34.000053,3.3872309 33.626945,2.984881 33.175781,3 Z M 33,4.3496094 V 17.648438 L 29.113281,13.332031 A 1.0001,0.99996766 0 0 0 29,13.226562 V 8.7753906 a 1.0001,0.99996766 0 0 0 0.113281,-0.1074218 z m 2.472656,1.6464844 C 34.998825,6.0153754 34.815459,6.6217946 35.199219,6.9003906 35.199219,6.9003906 37,8.222222 37,11 c 0,2.777778 -1.800781,4.099609 -1.800781,4.099609 -0.533854,0.401041 0.06771,1.201823 0.601562,0.800782 C 35.800781,15.900391 38,14.222222 38,11 38,7.777778 35.800781,6.0996094 35.800781,6.0996094 35.707094,6.0273774 35.590832,5.9906996 35.472656,5.9960938 Z"/>
 </g>
 <g id="22-22-audio-volume-low" transform="translate(20.000002,-22)">
  <path id="path919" style="opacity:0.001" d="M 44,0 H 66 V 22 H 44 Z"/>
  <path id="path941" style="opacity:0.5;fill:#eff0f1" d="M 58.480469,2.9980469 A 0.50005,0.50005 0 0 0 58.324219,3.96875 c 0,0 0.876043,0.3207543 1.802734,1.3632812 C 61.053644,6.3745592 62,8.111111 62,11 c 0,2.888889 -0.946356,4.625442 -1.873047,5.667969 -0.926691,1.042527 -1.802734,1.363281 -1.802734,1.363281 a 0.50062513,0.50062513 0 1 0 0.351562,0.9375 c 0,0 1.123957,-0.429246 2.197266,-1.636719 C 61.946356,16.124558 63,14.111111 63,11 63,7.888889 61.946356,5.8754418 60.873047,4.6679688 59.799738,3.4604957 58.675781,3.03125 58.675781,3.03125 A 0.50005,0.50005 0 0 0 58.480469,2.9980469 Z M 57.472656,5.9960938 A 0.50005,0.50005 0 0 0 57.199219,6.9003906 C 57.199219,6.9003906 59,8.222222 59,11 c 0,2.777778 -1.800781,4.099609 -1.800781,4.099609 a 0.50078155,0.50078155 0 0 0 0.601562,0.800782 C 57.800781,15.900391 60,14.222222 60,11 60,7.777778 57.800781,6.0996094 57.800781,6.0996094 A 0.50005,0.50005 0 0 0 57.472656,5.9960938 Z"/>
  <path id="path848" style="opacity:1;fill:#eff0f1" d="m 55.175782,3.000662 c -0.203518,0.0069 -0.396995,0.09983 -0.541015,0.259731 L 50.369141,8 h -1.36914 c -1.108,0 -2,0.891882 -2,1.999736 v 1.999736 c 0,0.654928 0.316971,1.229211 0.800781,1.593539 v 0.0059 h 0.0059 c 0.333461,0.248919 0.743346,0.400296 1.193359,0.400296 h 1.36914 l 4.265626,4.739607 c 0.504168,0.558882 1.364935,0.162416 1.365234,-0.628823 V 3.889216 C 56.000094,3.387775 55.626986,2.985543 55.175822,3.000662 Z M 55.000001,4.350093 V 17.649115 L 51.113282,13.331326 A 1.0001,0.99996766 0 0 0 51.000001,13.225871 V 8.775288 a 1.0001,0.99996766 0 0 0 0.113281,-0.107407 z"/>
 </g>
 <g id="22-22-audio-volume-muted" transform="translate(30.000003,-22)">
  <path id="path925" style="opacity:0.001" d="M 66,0 H 88 V 22 H 66 Z"/>
  <path id="path857" style="opacity:1;fill:#da4453" d="m 77.175782,3.000662 c -0.203518,0.0069 -0.396995,0.09983 -0.541015,0.259731 L 72.369141,8 h -1.36914 c -1.108,0 -2,0.891882 -2,1.999736 v 1.999736 c 0,0.654928 0.316971,1.229211 0.800781,1.593539 v 0.0059 h 0.0059 c 0.333461,0.248919 0.743346,0.400296 1.193359,0.400296 h 1.36914 l 4.265626,4.739607 c 0.504168,0.558882 1.364935,0.162416 1.365234,-0.628823 V 3.889216 C 78.000094,3.387775 77.626986,2.985543 77.175822,3.000662 Z M 77.000001,4.350093 V 17.649115 L 73.113282,13.331326 A 1.0001,0.99996766 0 0 0 73.000001,13.225871 V 8.775288 a 1.0001,0.99996766 0 0 0 0.113281,-0.107407 z"/>
 </g>
 <g id="audio-volume-medium" transform="translate(32.000001)">
  <path id="path883" style="opacity:0.001" d="M 0,0 H 32.000001 V 32.000001 H 0 Z"/>
  <path id="path907" style="opacity:0.5;fill:#eff0f1" d="m 21.460938,3.9960938 a 0.50005,0.50005 0 0 0 -0.208985,0.9375 c 4.552458,2.6077875 6.086174,7.4398242 5.714844,12.0234372 -0.371331,4.583613 -2.723207,8.815078 -5.664063,10.083985 a 0.50005,0.50005 0 1 0 0.394532,0.917968 C 25.179405,26.456528 27.568745,21.904299 27.962891,17.039062 28.357036,12.173826 26.680488,6.8918595 21.748047,4.0664062 a 0.50005,0.50005 0 0 0 -0.236328,-0.070312 0.50005,0.50005 0 0 0 -0.05078,0 z"/>
  <path id="path905" style="opacity:1;fill:#eff0f1" transform="translate(-32.000001)" d="M 47.808594 4 C 47.514622 4.010349 47.235373 4.1507698 47.027344 4.390625 L 40.466797 12 L 38.888672 12 C 37.288226 12 36 13.340185 36 15.001953 L 36 17 C 36 17.982385 36.457413 18.842185 37.15625 19.388672 L 37.15625 19.400391 L 37.166016 19.400391 C 37.647677 19.773784 38.238653 20.001017 38.888672 20 L 40.466797 20 L 47.027344 27.607422 C 47.755591 28.445737 48.999567 27.850912 49 26.664062 L 49 5.3339844 C 49.000078 4.5818272 48.460276 3.9773217 47.808594 4 z M 47.84375 5 C 47.860002 4.9994343 48.000028 5.0595532 48 5.3339844 L 48 26.664062 C 47.999911 26.908352 47.89615 26.974679 47.855469 26.994141 C 47.814789 27.013601 47.885763 27.069232 47.783203 26.951172 L 41.224609 19.347656 A 1.0001 1.0001 0 0 0 41 19.154297 L 41 12.84375 A 1.0001 1.0001 0 0 0 41.224609 12.652344 L 47.785156 5.0429688 C 47.825057 4.9986084 47.843167 5.0000205 47.84375 5 z M 51.482422 7.9960938 A 0.50005 0.50005 0 0 0 51.232422 8.921875 C 54.289461 10.85478 55.266019 13.754661 55.011719 16.529297 C 54.757418 19.303933 53.205363 21.913 51.246094 23.070312 A 0.50005 0.50005 0 1 0 51.753906 23.929688 C 54.068988 22.562202 55.725592 19.700379 56.007812 16.621094 C 56.290035 13.541809 55.130979 10.204738 51.767578 8.078125 A 0.50005 0.50005 0 0 0 51.482422 7.9960938 z"/>
 </g>
 <g id="audio-volume-low" transform="translate(64.000002)">
  <path id="path889" style="opacity:0.001" d="M 0,0 H 32.000001 V 32.000001 H 0 Z"/>
  <path id="path918" style="opacity:0.5;fill:#eff0f1" transform="translate(-64.000002)" d="M 85.460938 3.9960938 A 0.50005 0.50005 0 0 0 85.251953 4.9335938 C 89.804411 7.5413813 91.338127 12.373418 90.966797 16.957031 C 90.595466 21.540644 88.24359 25.772109 85.302734 27.041016 A 0.50005 0.50005 0 1 0 85.697266 27.958984 C 89.179405 26.456528 91.568745 21.904299 91.962891 17.039062 C 92.357036 12.173826 90.680488 6.8918595 85.748047 4.0664062 A 0.50005 0.50005 0 0 0 85.511719 3.9960938 A 0.50005 0.50005 0 0 0 85.460938 3.9960938 z M 83.482422 7.9960938 A 0.50005 0.50005 0 0 0 83.232422 8.921875 C 86.289461 10.85478 87.266019 13.754661 87.011719 16.529297 C 86.757418 19.303933 85.205363 21.913 83.246094 23.070312 A 0.50005 0.50005 0 1 0 83.753906 23.929688 C 86.068988 22.562202 87.725592 19.700379 88.007812 16.621094 C 88.290036 13.541809 87.130979 10.204738 83.767578 8.078125 A 0.50005 0.50005 0 0 0 83.482422 7.9960938 z"/>
  <path id="path916" style="opacity:1;fill:#eff0f1" transform="translate(-64.000002)" d="M 79.808594 4 C 79.514622 4.010349 79.235373 4.1507698 79.027344 4.390625 L 72.466797 12 L 70.888672 12 C 69.288226 12 68 13.340185 68 15.001953 L 68 17 C 68 17.982385 68.457413 18.842185 69.15625 19.388672 L 69.15625 19.400391 L 69.166016 19.400391 C 69.647677 19.773784 70.238653 20.001017 70.888672 20 L 72.466797 20 L 79.027344 27.607422 C 79.755591 28.445737 80.999567 27.850912 81 26.664062 L 81 5.3339844 C 81.000078 4.5818272 80.460276 3.9773217 79.808594 4 z M 79.84375 5 C 79.860002 4.9994343 80.000028 5.0595532 80 5.3339844 L 80 26.664062 C 79.999911 26.908352 79.89615 26.974679 79.855469 26.994141 C 79.814789 27.013601 79.885763 27.069232 79.783203 26.951172 L 73.224609 19.347656 A 1.0001 1.0001 0 0 0 73 19.154297 L 73 12.84375 A 1.0001 1.0001 0 0 0 73.224609 12.652344 L 79.785156 5.0429688 C 79.825057 4.9986084 79.843167 5.0000205 79.84375 5 z"/>
 </g>
 <g id="audio-volume-muted" transform="translate(96.000003)">
  <path id="path895" style="opacity:0.001" d="M 0,0 H 32.000001 V 32.000001 H 0 Z"/>
  <path id="path897" style="opacity:1;fill:#da4453" d="m 15.808594,4 c -0.293972,0.010349 -0.573221,0.1507698 -0.78125,0.390625 L 8.4667969,12 H 6.8886719 C 5.2882264,12 4,13.340185 4,15.001953 V 17 c 0,0.982385 0.4574126,1.842185 1.15625,2.388672 v 0.01172 H 5.16602 C 5.6476811,19.773785 6.2386531,20.001017 6.8886719,20 h 1.578125 l 6.5605471,7.607422 C 15.755591,28.445737 16.999567,27.850912 17,26.664062 V 5.3339844 C 17.000078,4.5818272 16.460276,3.9773217 15.808594,4 Z m 0.03516,1 C 15.860006,4.9994343 16.000028,5.0595532 16,5.3339844 V 26.664062 c -8.9e-5,0.24429 -0.10385,0.310617 -0.144531,0.330079 -0.04068,0.01946 0.03029,0.07509 -0.07227,-0.04297 L 9.2246094,19.347656 C 9.1597582,19.272406 9.0840574,19.207237 9,19.154297 V 12.84375 c 0.083923,-0.05234 0.1596164,-0.116848 0.2246094,-0.191406 L 15.785156,5.0429688 C 15.825057,4.9986084 15.843167,5.0000205 15.84375,5 Z"/>
 </g>
</svg>
