<svg xmlns="http://www.w3.org/2000/svg" id="svg7229" width="32" height="32" version="1.0">
 <g id="22-22-Unavailable" transform="translate(-265.53999,-426.50001)">
  <rect id="rect1161" style="opacity:0.001" width="22" height="22" x="169.54" y="404.5"/>
  <g id="g1167" transform="translate(-90.000077,-22.000057)">
   <rect id="rect1163" style="opacity:1;fill:#da4453" width="8" height="8" x="273.54" y="440.5" ry=".8"/>
   <path id="path1165" style="opacity:1;fill:#ffffff" d="m 275.24275,441.50504 -0.70703,0.70703 2.29297,2.29297 -2.29297,2.29297 0.70703,0.70703 2.29297,-2.29297 2.29297,2.29297 0.70703,-0.70703 -2.29297,-2.29297 2.29297,-2.29297 -0.70703,-0.70703 -2.29297,2.29297 z"/>
  </g>
 </g>
 <g id="22-22-Battery" transform="translate(-246.53999,-426.5)">
  <rect id="rect968" style="opacity:0.001" width="22" height="22" x="214.54" y="404.5"/>
  <path id="rect983" style="opacity:1;fill:#eff0f1" d="m 224.03572,407.50504 c -0.277,0 -0.5,0.223 -0.5,0.5 v 0.5 h -1.5 c -0.831,0 -1.5,0.669 -1.5,1.5 v 11 c 0,0.831 0.669,1.5 1.5,1.5 h 7 c 0.831,0 1.5,-0.669 1.5,-1.5 v -11 c 0,-0.831 -0.669,-1.5 -1.5,-1.5 h -1.5 v -0.5 c 0,-0.277 -0.223,-0.5 -0.5,-0.5 z m -2,2 h 7 c 0.29429,0 0.5,0.2057 0.5,0.5 v 11 c 0,0.2943 -0.20571,0.5 -0.5,0.5 h -7 c -0.2943,0 -0.5,-0.2057 -0.5,-0.5 v -11 c 0,-0.2943 0.2057,-0.5 0.5,-0.5 z"/>
 </g>
 <g id="22-22-Fill100" transform="translate(-214.53999,-426.5)">
  <rect id="rect1014" style="opacity:0.001" width="22" height="22" x="214.54" y="404.5"/>
  <path id="path1016" style="opacity:1;fill:#eff0f1" d="m 224.03572,407.50504 c -0.277,0 -0.5,0.223 -0.5,0.5 v 0.5 h -1.5 c -0.831,0 -1.5,0.669 -1.5,1.5 v 11 c 0,0.831 0.669,1.5 1.5,1.5 h 7 c 0.831,0 1.5,-0.669 1.5,-1.5 v -11 c 0,-0.831 -0.669,-1.5 -1.5,-1.5 h -1.5 v -0.5 c 0,-0.277 -0.223,-0.5 -0.5,-0.5 z m -2,2 h 7 c 0.29429,0 0.5,0.2057 0.5,0.5 v 11 c 0,0.2943 -0.20571,0.5 -0.5,0.5 h -7 c -0.2943,0 -0.5,-0.2057 -0.5,-0.5 v -11 c 0,-0.2943 0.2057,-0.5 0.5,-0.5 z m 0.5,1 v 10 h 6 v -10 z"/>
 </g>
 <g id="22-22-Fill90" transform="translate(-182.53999,-426.5)">
  <rect id="rect1020" style="opacity:0.001" width="22" height="22" x="214.54" y="404.5"/>
  <path id="path1022" style="opacity:1;fill:#eff0f1" d="m 224.03572,407.50504 c -0.277,0 -0.5,0.223 -0.5,0.5 v 0.5 h -1.5 c -0.831,0 -1.5,0.669 -1.5,1.5 v 11 c 0,0.831 0.669,1.5 1.5,1.5 h 7 c 0.831,0 1.5,-0.669 1.5,-1.5 v -11 c 0,-0.831 -0.669,-1.5 -1.5,-1.5 h -1.5 v -0.5 c 0,-0.277 -0.223,-0.5 -0.5,-0.5 z m -2,2 h 7 c 0.29429,0 0.5,0.2057 0.5,0.5 v 11 c 0,0.2943 -0.20571,0.5 -0.5,0.5 h -7 c -0.2943,0 -0.5,-0.2057 -0.5,-0.5 v -11 c 0,-0.2943 0.2057,-0.5 0.5,-0.5 z m 0.5,2 v 9 h 6 v -9 z"/>
 </g>
 <g id="22-22-Fill80" transform="translate(-150.53999,-426.5)">
  <rect id="rect1069" style="opacity:0.001" width="22" height="22" x="214.54" y="404.5"/>
  <path id="path1071" style="opacity:1;fill:#eff0f1" d="m 224.03572,407.50504 c -0.277,0 -0.5,0.223 -0.5,0.5 v 0.5 h -1.5 c -0.831,0 -1.5,0.669 -1.5,1.5 v 11 c 0,0.831 0.669,1.5 1.5,1.5 h 7 c 0.831,0 1.5,-0.669 1.5,-1.5 v -11 c 0,-0.831 -0.669,-1.5 -1.5,-1.5 h -1.5 v -0.5 c 0,-0.277 -0.223,-0.5 -0.5,-0.5 z m -2,2 h 7 c 0.29429,0 0.5,0.2057 0.5,0.5 v 11 c 0,0.2943 -0.20571,0.5 -0.5,0.5 h -7 c -0.2943,0 -0.5,-0.2057 -0.5,-0.5 v -11 c 0,-0.2943 0.2057,-0.5 0.5,-0.5 z m 0.5,3 v 8 h 6 v -8 z"/>
 </g>
 <g id="22-22-Fill70" transform="translate(-118.53999,-426.5)">
  <rect id="rect1075" style="opacity:0.001" width="22" height="22" x="214.54" y="404.5"/>
  <path id="path1077" style="opacity:1;fill:#eff0f1" d="m 224.03572,407.50504 c -0.277,0 -0.5,0.223 -0.5,0.5 v 0.5 h -1.5 c -0.831,0 -1.5,0.669 -1.5,1.5 v 11 c 0,0.831 0.669,1.5 1.5,1.5 h 7 c 0.831,0 1.5,-0.669 1.5,-1.5 v -11 c 0,-0.831 -0.669,-1.5 -1.5,-1.5 h -1.5 v -0.5 c 0,-0.277 -0.223,-0.5 -0.5,-0.5 z m -2,2 h 7 c 0.29429,0 0.5,0.2057 0.5,0.5 v 11 c 0,0.2943 -0.20571,0.5 -0.5,0.5 h -7 c -0.2943,0 -0.5,-0.2057 -0.5,-0.5 v -11 c 0,-0.2943 0.2057,-0.5 0.5,-0.5 z m 0.5,4 v 7 h 6 v -7 z"/>
 </g>
 <g id="22-22-Fill60" transform="translate(-86.539993,-426.5)">
  <rect id="rect1081" style="opacity:0.001" width="22" height="22" x="214.54" y="404.5"/>
  <path id="path1083" style="opacity:1;fill:#eff0f1" d="m 224.03572,407.50504 c -0.277,0 -0.5,0.223 -0.5,0.5 v 0.5 h -1.5 c -0.831,0 -1.5,0.669 -1.5,1.5 v 11 c 0,0.831 0.669,1.5 1.5,1.5 h 7 c 0.831,0 1.5,-0.669 1.5,-1.5 v -11 c 0,-0.831 -0.669,-1.5 -1.5,-1.5 h -1.5 v -0.5 c 0,-0.277 -0.223,-0.5 -0.5,-0.5 z m -2,2 h 7 c 0.29429,0 0.5,0.2057 0.5,0.5 v 11 c 0,0.2943 -0.20571,0.5 -0.5,0.5 h -7 c -0.2943,0 -0.5,-0.2057 -0.5,-0.5 v -11 c 0,-0.2943 0.2057,-0.5 0.5,-0.5 z m 0.5,5 v 6 h 6 v -6 z"/>
 </g>
 <g id="22-22-Fill50" transform="translate(-54.539993,-426.5)">
  <rect id="rect1087" style="opacity:0.001" width="22" height="22" x="214.54" y="404.5"/>
  <path id="path1089" style="opacity:1;fill:#eff0f1" d="m 224.03572,407.50504 c -0.277,0 -0.5,0.223 -0.5,0.5 v 0.5 h -1.5 c -0.831,0 -1.5,0.669 -1.5,1.5 v 11 c 0,0.831 0.669,1.5 1.5,1.5 h 7 c 0.831,0 1.5,-0.669 1.5,-1.5 v -11 c 0,-0.831 -0.669,-1.5 -1.5,-1.5 h -1.5 v -0.5 c 0,-0.277 -0.223,-0.5 -0.5,-0.5 z m -2,2 h 7 c 0.29429,0 0.5,0.2057 0.5,0.5 v 11 c 0,0.2943 -0.20571,0.5 -0.5,0.5 h -7 c -0.2943,0 -0.5,-0.2057 -0.5,-0.5 v -11 c 0,-0.2943 0.2057,-0.5 0.5,-0.5 z m 0.5,6 v 5 h 6 v -5 z"/>
 </g>
 <g id="22-22-Fill40" transform="translate(-22.539993,-426.5)">
  <rect id="rect1093" style="opacity:0.001" width="22" height="22" x="214.54" y="404.5"/>
  <path id="path1095" style="opacity:1;fill:#eff0f1" d="m 224.03572,407.50504 c -0.277,0 -0.5,0.223 -0.5,0.5 v 0.5 h -1.5 c -0.831,0 -1.5,0.669 -1.5,1.5 v 11 c 0,0.831 0.669,1.5 1.5,1.5 h 7 c 0.831,0 1.5,-0.669 1.5,-1.5 v -11 c 0,-0.831 -0.669,-1.5 -1.5,-1.5 h -1.5 v -0.5 c 0,-0.277 -0.223,-0.5 -0.5,-0.5 z m -2,2 h 7 c 0.29429,0 0.5,0.2057 0.5,0.5 v 11 c 0,0.2943 -0.20571,0.5 -0.5,0.5 h -7 c -0.2943,0 -0.5,-0.2057 -0.5,-0.5 v -11 c 0,-0.2943 0.2057,-0.5 0.5,-0.5 z m 0.5,7 v 4 h 6 v -4 z"/>
 </g>
 <g id="22-22-Fill30" transform="translate(9.4600067,-426.5)">
  <rect id="rect1099" style="opacity:0.001" width="22" height="22" x="214.54" y="404.5"/>
  <path id="path1101" style="opacity:1;fill:#eff0f1" d="m 224.03572,407.50504 c -0.277,0 -0.5,0.223 -0.5,0.5 v 0.5 h -1.5 c -0.831,0 -1.5,0.669 -1.5,1.5 v 11 c 0,0.831 0.669,1.5 1.5,1.5 h 7 c 0.831,0 1.5,-0.669 1.5,-1.5 v -11 c 0,-0.831 -0.669,-1.5 -1.5,-1.5 h -1.5 v -0.5 c 0,-0.277 -0.223,-0.5 -0.5,-0.5 z m -2,2 h 7 c 0.29429,0 0.5,0.2057 0.5,0.5 v 11 c 0,0.2943 -0.20571,0.5 -0.5,0.5 h -7 c -0.2943,0 -0.5,-0.2057 -0.5,-0.5 v -11 c 0,-0.2943 0.2057,-0.5 0.5,-0.5 z m 0.5,8 v 3 h 6 v -3 z"/>
 </g>
 <g id="22-22-Fill20" transform="translate(41.460007,-426.5)">
  <rect id="rect1105" style="opacity:0.001" width="22" height="22" x="214.54" y="404.5"/>
  <path id="path1107" style="opacity:1;fill:#eff0f1" d="m 224.03572,407.50504 c -0.277,0 -0.5,0.223 -0.5,0.5 v 0.5 h -1.5 c -0.831,0 -1.5,0.669 -1.5,1.5 v 11 c 0,0.831 0.669,1.5 1.5,1.5 h 7 c 0.831,0 1.5,-0.669 1.5,-1.5 v -11 c 0,-0.831 -0.669,-1.5 -1.5,-1.5 h -1.5 v -0.5 c 0,-0.277 -0.223,-0.5 -0.5,-0.5 z m -2,2 h 7 c 0.29429,0 0.5,0.2057 0.5,0.5 v 11 c 0,0.2943 -0.20571,0.5 -0.5,0.5 h -7 c -0.2943,0 -0.5,-0.2057 -0.5,-0.5 v -11 c 0,-0.2943 0.2057,-0.5 0.5,-0.5 z m 0.5,9 v 2 h 6 v -2 z"/>
 </g>
 <g id="22-22-Fill10" transform="translate(73.460007,-426.5)">
  <rect id="rect1111" style="opacity:0.001" width="22" height="22" x="214.54" y="404.5"/>
  <path id="path1113" style="opacity:1;fill:#da4453" d="m 224.03572,407.50504 c -0.277,0 -0.5,0.223 -0.5,0.5 v 0.5 h -1.5 c -0.831,0 -1.5,0.669 -1.5,1.5 v 11 c 0,0.831 0.669,1.5 1.5,1.5 h 7 c 0.831,0 1.5,-0.669 1.5,-1.5 v -11 c 0,-0.831 -0.669,-1.5 -1.5,-1.5 h -1.5 v -0.5 c 0,-0.277 -0.223,-0.5 -0.5,-0.5 z m -2,2 h 7 c 0.29429,0 0.5,0.2057 0.5,0.5 v 11 c 0,0.2943 -0.20571,0.5 -0.5,0.5 h -7 c -0.2943,0 -0.5,-0.2057 -0.5,-0.5 v -11 c 0,-0.2943 0.2057,-0.5 0.5,-0.5 z m 0.5,10 v 1 h 6 v -1 z"/>
 </g>
 <g id="22-22-Fill0" transform="translate(105.46001,-426.5)">
  <rect id="rect1117" style="opacity:0.001" width="22" height="22" x="214.54" y="404.5"/>
  <path id="path1119" style="opacity:1;fill:#da4453" d="m 224.03572,407.50504 c -0.277,0 -0.5,0.223 -0.5,0.5 v 0.5 h -1.5 c -0.831,0 -1.5,0.669 -1.5,1.5 v 11 c 0,0.831 0.669,1.5 1.5,1.5 h 7 c 0.831,0 1.5,-0.669 1.5,-1.5 v -11 c 0,-0.831 -0.669,-1.5 -1.5,-1.5 h -1.5 v -0.5 c 0,-0.277 -0.223,-0.5 -0.5,-0.5 z m -2,2 h 7 c 0.29429,0 0.5,0.2057 0.5,0.5 v 11 c 0,0.2943 -0.20571,0.5 -0.5,0.5 h -7 c -0.2943,0 -0.5,-0.2057 -0.5,-0.5 v -11 c 0,-0.2943 0.2057,-0.5 0.5,-0.5 z"/>
 </g>
 <g id="22-22-battery-ups" transform="translate(-278.53999,-426.50001)">
  <rect id="rect1125" style="opacity:0.001" width="22" height="22" x="214.54" y="404.5"/>
  <path id="rect1127" style="opacity:1;fill:#eff0f1" transform="translate(214.53572,404.50504)" d="M 6.5,3 C 5.669,3 5,3.669 5,4.5 v 13 C 5,18.331 5.669,19 6.5,19 h 9 C 16.331,19 17,18.331 17,17.5 V 4.5 C 17,3.669 16.331,3 15.5,3 Z m 0,1 h 9 C 15.79429,4 16,4.2057 16,4.5 v 13 c 0,0.2943 -0.20571,0.5 -0.5,0.5 h -9 C 6.2057,18 6,17.7943 6,17.5 V 4.5 C 6,4.2057 6.2057,4 6.5,4 Z M 11,5 9,10 h 2 v 3 L 13,8 H 11 Z M 7,15 v 2 h 1 v -2 z m 2,0 v 2 h 1 v -2 z m 2,0 v 2 h 1 v -2 z m 3,0 a 1,1 0 0 0 -1,1 1,1 0 0 0 1,1 1,1 0 0 0 1,-1 1,1 0 0 0 -1,-1 z"/>
 </g>
 <g id="Fill100">
  <rect id="rect864" style="opacity:0.001" width="32" height="32" x="0" y="0"/>
  <path id="path876" style="opacity:1;fill:#eff0f1" d="M 13.800781,4 C 13.357581,4 13,4.3575812 13,4.8007812 V 6 H 10.400391 C 9.07079,6 8,7.0707906 8,8.4003906 V 25.599609 C 8,26.92921 9.07079,28 10.400391,28 H 21.599609 C 22.929209,28 24,26.92921 24,25.599609 V 8.4003906 C 24,7.0707906 22.928227,6.0511006 21.599609,6 H 19 V 4.8007812 C 19,4.3575812 18.642419,4 18.199219,4 Z m -3.40039,3 H 13 19 21.5625 C 22.401423,7.0322662 23,7.6079858 23,8.4003906 V 25.599609 C 23,26.392508 22.392507,27 21.599609,27 H 10.400391 C 9.6074925,27 9,26.392508 9,25.599609 V 8.4003906 C 9,7.6074934 9.6074924,7 10.400391,7 Z M 10,8 V 26 H 22 V 8 Z"/>
 </g>
 <g id="Fill90" transform="translate(32)">
  <rect id="rect900" style="opacity:0.001" width="32" height="32" x="0" y="0"/>
  <path id="path902" style="opacity:1;fill:#eff0f1" d="M 13.800781,4 C 13.357581,4 13,4.3575812 13,4.8007812 V 6 H 10.400391 C 9.07079,6 8,7.0707906 8,8.4003906 V 25.599609 C 8,26.92921 9.07079,28 10.400391,28 H 21.599609 C 22.929209,28 24,26.92921 24,25.599609 V 8.4003906 C 24,7.0707906 22.928227,6.0511006 21.599609,6 H 19 V 4.8007812 C 19,4.3575812 18.642419,4 18.199219,4 Z m -3.40039,3 H 13 19 21.5625 C 22.401423,7.0322662 23,7.6079858 23,8.4003906 V 25.599609 C 23,26.392508 22.392507,27 21.599609,27 H 10.400391 C 9.6074925,27 9,26.392508 9,25.599609 V 8.4003906 C 9,7.6074934 9.6074924,7 10.400391,7 Z M 10,10 V 26 H 22 V 10 Z"/>
 </g>
 <g id="Fill80" transform="translate(64)">
  <rect id="rect906" style="opacity:0.001" width="32" height="32" x="0" y="0"/>
  <path id="path908" style="opacity:1;fill:#eff0f1" d="M 13.800781,4 C 13.357581,4 13,4.3575812 13,4.8007812 V 6 H 10.400391 C 9.07079,6 8,7.0707906 8,8.4003906 V 25.599609 C 8,26.92921 9.07079,28 10.400391,28 H 21.599609 C 22.929209,28 24,26.92921 24,25.599609 V 8.4003906 C 24,7.0707906 22.928227,6.0511006 21.599609,6 H 19 V 4.8007812 C 19,4.3575812 18.642419,4 18.199219,4 Z m -3.40039,3 H 13 19 21.5625 C 22.401423,7.0322662 23,7.6079858 23,8.4003906 V 25.599609 C 23,26.392508 22.392507,27 21.599609,27 H 10.400391 C 9.6074925,27 9,26.392508 9,25.599609 V 8.4003906 C 9,7.6074934 9.6074924,7 10.400391,7 Z M 10,12 V 26 H 22 V 12 Z"/>
 </g>
 <g id="Fill70" transform="translate(96)">
  <rect id="rect912" style="opacity:0.001" width="32" height="32" x="0" y="0"/>
  <path id="path914" style="opacity:1;fill:#eff0f1" d="M 13.800781,4 C 13.357581,4 13,4.3575812 13,4.8007812 V 6 H 10.400391 C 9.07079,6 8,7.0707906 8,8.4003906 V 25.599609 C 8,26.92921 9.07079,28 10.400391,28 H 21.599609 C 22.929209,28 24,26.92921 24,25.599609 V 8.4003906 C 24,7.0707906 22.928227,6.0511006 21.599609,6 H 19 V 4.8007812 C 19,4.3575812 18.642419,4 18.199219,4 Z m -3.40039,3 H 13 19 21.5625 C 22.401423,7.0322662 23,7.6079858 23,8.4003906 V 25.599609 C 23,26.392508 22.392507,27 21.599609,27 H 10.400391 C 9.6074925,27 9,26.392508 9,25.599609 V 8.4003906 C 9,7.6074934 9.6074924,7 10.400391,7 Z M 10,14 V 26 H 22 V 14 Z"/>
 </g>
 <g id="Fill60" transform="translate(128)">
  <rect id="rect918" style="opacity:0.001" width="32" height="32" x="0" y="0"/>
  <path id="path920" style="opacity:1;fill:#eff0f1" d="M 13.800781,4 C 13.357581,4 13,4.3575812 13,4.8007812 V 6 H 10.400391 C 9.07079,6 8,7.0707906 8,8.4003906 V 25.599609 C 8,26.92921 9.07079,28 10.400391,28 H 21.599609 C 22.929209,28 24,26.92921 24,25.599609 V 8.4003906 C 24,7.0707906 22.928227,6.0511006 21.599609,6 H 19 V 4.8007812 C 19,4.3575812 18.642419,4 18.199219,4 Z m -3.40039,3 H 13 19 21.5625 C 22.401423,7.0322662 23,7.6079858 23,8.4003906 V 25.599609 C 23,26.392508 22.392507,27 21.599609,27 H 10.400391 C 9.6074925,27 9,26.392508 9,25.599609 V 8.4003906 C 9,7.6074934 9.6074924,7 10.400391,7 Z M 10,16 V 26 H 22 V 16 Z"/>
 </g>
 <g id="Fill50" transform="translate(160)">
  <rect id="rect924" style="opacity:0.001" width="32" height="32" x="0" y="0"/>
  <path id="path926" style="opacity:1;fill:#eff0f1" d="M 13.800781,4 C 13.357581,4 13,4.3575812 13,4.8007812 V 6 H 10.400391 C 9.07079,6 8,7.0707906 8,8.4003906 V 25.599609 C 8,26.92921 9.07079,28 10.400391,28 H 21.599609 C 22.929209,28 24,26.92921 24,25.599609 V 8.4003906 C 24,7.0707906 22.928227,6.0511006 21.599609,6 H 19 V 4.8007812 C 19,4.3575812 18.642419,4 18.199219,4 Z m -3.40039,3 H 13 19 21.5625 C 22.401423,7.0322662 23,7.6079858 23,8.4003906 V 25.599609 C 23,26.392508 22.392507,27 21.599609,27 H 10.400391 C 9.6074925,27 9,26.392508 9,25.599609 V 8.4003906 C 9,7.6074934 9.6074924,7 10.400391,7 Z M 10,18 v 8 h 12 v -8 z"/>
 </g>
 <g id="Fill40" transform="translate(192)">
  <rect id="rect932" style="opacity:0.001" width="32" height="32" x="0" y="0"/>
  <path id="path934" style="opacity:1;fill:#eff0f1" d="M 13.800781,4 C 13.357581,4 13,4.3575812 13,4.8007812 V 6 H 10.400391 C 9.07079,6 8,7.0707906 8,8.4003906 V 25.599609 C 8,26.92921 9.07079,28 10.400391,28 H 21.599609 C 22.929209,28 24,26.92921 24,25.599609 V 8.4003906 C 24,7.0707906 22.928227,6.0511006 21.599609,6 H 19 V 4.8007812 C 19,4.3575812 18.642419,4 18.199219,4 Z m -3.40039,3 H 13 19 21.5625 C 22.401423,7.0322662 23,7.6079858 23,8.4003906 V 25.599609 C 23,26.392508 22.392507,27 21.599609,27 H 10.400391 C 9.6074925,27 9,26.392508 9,25.599609 V 8.4003906 C 9,7.6074934 9.6074924,7 10.400391,7 Z M 10,20 v 6 h 12 v -6 z"/>
 </g>
 <g id="Fill30" transform="translate(224)">
  <rect id="rect938" style="opacity:0.001" width="32" height="32" x="0" y="0"/>
  <path id="path940" style="opacity:1;fill:#eff0f1" d="M 13.800781,4 C 13.357581,4 13,4.3575812 13,4.8007812 V 6 H 10.400391 C 9.07079,6 8,7.0707906 8,8.4003906 V 25.599609 C 8,26.92921 9.07079,28 10.400391,28 H 21.599609 C 22.929209,28 24,26.92921 24,25.599609 V 8.4003906 C 24,7.0707906 22.928227,6.0511006 21.599609,6 H 19 V 4.8007812 C 19,4.3575812 18.642419,4 18.199219,4 Z m -3.40039,3 H 13 19 21.5625 C 22.401423,7.0322662 23,7.6079858 23,8.4003906 V 25.599609 C 23,26.392508 22.392507,27 21.599609,27 H 10.400391 C 9.6074925,27 9,26.392508 9,25.599609 V 8.4003906 C 9,7.6074934 9.6074924,7 10.400391,7 Z M 10,22 v 4 h 12 v -4 z"/>
 </g>
 <g id="Fill20" transform="translate(256)">
  <rect id="rect944" style="opacity:0.001" width="32" height="32" x="0" y="0"/>
  <path id="path946" style="opacity:1;fill:#eff0f1" d="M 13.800781,4 C 13.357581,4 13,4.3575812 13,4.8007812 V 6 H 10.400391 C 9.07079,6 8,7.0707906 8,8.4003906 V 25.599609 C 8,26.92921 9.07079,28 10.400391,28 H 21.599609 C 22.929209,28 24,26.92921 24,25.599609 V 8.4003906 C 24,7.0707906 22.928227,6.0511006 21.599609,6 H 19 V 4.8007812 C 19,4.3575812 18.642419,4 18.199219,4 Z m -3.40039,3 H 13 19 21.5625 C 22.401423,7.0322662 23,7.6079858 23,8.4003906 V 25.599609 C 23,26.392508 22.392507,27 21.599609,27 H 10.400391 C 9.6074925,27 9,26.392508 9,25.599609 V 8.4003906 C 9,7.6074934 9.6074924,7 10.400391,7 Z M 10,24 v 2 h 12 v -2 z"/>
 </g>
 <g id="Fill10" transform="translate(288)">
  <rect id="rect950" style="opacity:0.001" width="32" height="32" x="0" y="0"/>
  <path id="path952" style="opacity:1;fill:#da4453" d="M 13.800781,4 C 13.357581,4 13,4.3575812 13,4.8007812 V 6 H 10.400391 C 9.07079,6 8,7.0707906 8,8.4003906 V 25.599609 C 8,26.92921 9.07079,28 10.400391,28 H 21.599609 C 22.929209,28 24,26.92921 24,25.599609 V 8.4003906 C 24,7.0707906 22.928227,6.0511006 21.599609,6 H 19 V 4.8007812 C 19,4.3575812 18.642419,4 18.199219,4 Z m -3.40039,3 H 13 19 21.5625 C 22.401423,7.0322662 23,7.6079858 23,8.4003906 V 25.599609 C 23,26.392508 22.392507,27 21.599609,27 H 10.400391 C 9.6074925,27 9,26.392508 9,25.599609 V 8.4003906 C 9,7.6074934 9.6074924,7 10.400391,7 Z M 10,25 v 1 h 12 v -1 z"/>
 </g>
 <g id="Fill0" transform="translate(320)">
  <rect id="rect956" style="opacity:0.001" width="32" height="32" x="0" y="0"/>
  <path id="path958" style="opacity:1;fill:#da4453" d="M 13.800781,4 C 13.357581,4 13,4.3575812 13,4.8007812 V 6 H 10.400391 C 9.07079,6 8,7.0707906 8,8.4003906 V 25.599609 C 8,26.92921 9.07079,28 10.400391,28 H 21.599609 C 22.929209,28 24,26.92921 24,25.599609 V 8.4003906 C 24,7.0707906 22.928227,6.0511006 21.599609,6 H 19 V 4.8007812 C 19,4.3575812 18.642419,4 18.199219,4 Z m -3.40039,3 H 13 19 21.5625 C 22.401423,7.0322662 23,7.6079858 23,8.4003906 V 25.599609 C 23,26.392508 22.392507,27 21.599609,27 H 10.400391 C 9.6074925,27 9,26.392508 9,25.599609 V 8.4003906 C 9,7.6074934 9.6074924,7 10.400391,7 Z"/>
 </g>
 <g id="Battery" transform="translate(-32)">
  <rect id="rect962" style="opacity:0.001" width="32" height="32" x="0" y="0"/>
  <path id="path964" style="opacity:1;fill:#eff0f1" d="M 13.800781,4 C 13.357581,4 13,4.3575812 13,4.8007812 V 6 H 10.400391 C 9.07079,6 8,7.0707906 8,8.4003906 V 25.599609 C 8,26.92921 9.07079,28 10.400391,28 H 21.599609 C 22.929209,28 24,26.92921 24,25.599609 V 8.4003906 C 24,7.0707906 22.928227,6.0511006 21.599609,6 H 19 V 4.8007812 C 19,4.3575812 18.642419,4 18.199219,4 Z m -3.40039,3 H 13 19 21.5625 C 22.401423,7.0322662 23,7.6079858 23,8.4003906 V 25.599609 C 23,26.392508 22.392507,27 21.599609,27 H 10.400391 C 9.6074925,27 9,26.392508 9,25.599609 V 8.4003906 C 9,7.6074934 9.6074924,7 10.400391,7 Z"/>
 </g>
 <g id="battery-ups" transform="translate(-64,5.25e-6)">
  <rect id="rect969" style="opacity:0.001" width="32" height="32" x="0" y="0"/>
  <path id="path989" style="opacity:1;fill:#eff0f1" d="M 9.25,4 C 8.0035,4 7,5.0035 7,6.25 v 19.5 C 7,26.9965 8.0035,28 9.25,28 h 13.5 C 23.996501,28 25,26.9965 25,25.75 V 6.25 C 25,5.0035 23.996501,4 22.75,4 Z m 0,1 h 13.5 C 23.459799,5 24,5.5402028 24,6.25 v 19.5 C 24,26.459797 23.459799,27 22.75,27 H 9.25 C 8.5402028,27 8,26.459797 8,25.75 V 6.25 C 8,5.5402028 8.5402028,5 9.25,5 Z M 16,7 13,14 h 3 v 5 l 3,-7 h -3 z m -6,15 v 3 h 1 v -3 z m 3,0 v 3 h 1 v -3 z m 3,0 v 3 h 1 v -3 z m 4.5,0 A 1.5,1.5 0 0 0 19,23.5 1.5,1.5 0 0 0 20.5,25 1.5,1.5 0 0 0 22,23.5 1.5,1.5 0 0 0 20.5,22 Z"/>
 </g>
 <g id="Unavailable" transform="translate(-96)">
  <rect id="rect1001" style="opacity:0.001" width="32" height="32" x="0" y="0"/>
  <g id="g1028" transform="translate(9.9999971,10)">
   <rect id="rect1003" style="opacity:1;fill:#da4453" width="12" height="12" x="10" y="10" ry="1.2"/>
   <path id="path1017" style="opacity:1;fill:#ffffff" d="M 12.353516,11.646484 11.646484,12.353516 15.292969,16 11.646484,19.646484 12.353516,20.353516 16,16.707031 19.646484,20.353516 20.353516,19.646484 16.707031,16 20.353516,12.353516 19.646484,11.646484 16,15.292969 Z"/>
  </g>
 </g>
 <g id="AcAdapter" transform="translate(-128,-6.75e-6)">
  <rect id="rect1042" style="opacity:0.001" width="32" height="32" x="0" y="0"/>
  <path id="path1068" style="opacity:1;fill:#2abb9b" d="m 16,11 -3,7 h 3 v 5 l 3,-7 h -3 z"/>
 </g>
 <g id="22-22-AcAdapter" transform="translate(-133,-27.000007)">
  <rect id="rect1084" style="opacity:0.001" width="22" height="22" x="5" y="5"/>
  <path id="path1102" style="opacity:1;fill:#2abb9b" d="m 16,12 -2,5 h 2 v 3 l 2,-5 h -2 z"/>
 </g>
</svg>
