<svg xmlns="http://www.w3.org/2000/svg" id="svg7" width="22" height="22" version="1.1">
 <g id="choqok">
  <rect id="rect1054" style="opacity:0.001" width="22" height="22" x="0" y="0"/>
  <path id="path861" style="opacity:1;fill:#eff0f1" d="m 16.683594,2.9984217 c 0,0 -0.287316,0.6339999 0,1 -1.09756,-1.0000001 -2.074219,-0.5 -2.074219,-0.5 0,0 0.245474,0.6560001 0.609375,1 -0.584877,-0.2875 -1.21875,0 -1.21875,0 0,0 0.330839,0.5 0.609375,0.5 H 3.8886719 C 3.3977724,4.99847 3.0000491,5.3901865 3,5.8734217 v 0.5253906 4.9960937 4.779297 c 4.91e-5,0.483235 0.3977724,0.824171 0.8886719,0.824219 h 8.4492191 l 2.255859,1.837891 c 0.58843,0.412332 1.406032,-0.0018 1.40625,-0.712891 v -1.125 h 2.111328 c 0.4909,-4.8e-5 0.888623,-0.340984 0.888672,-0.824219 v -9.1757813 -1.125 -0.875 -0.054687 L 18.9941,4.9320152 C 18.92506,3.4852902 16.683594,2.9984217 16.683594,2.9984217 Z m -11.7519534,3 H 14.533203 C 14.059124,6.723646 13.839612,7.4292129 14.136719,8.3343592 14.672877,9.9674967 16.451793,10.237369 18,9.8128748 v 6.1855472 h -2 c -0.552262,5.5e-5 -0.999945,0.447738 -1,1 v 0.878906 L 12.96875,16.223031 C 12.790522,16.077892 12.56774,15.998573 12.337891,15.998422 H 4 V 11.891 c 0.2329713,0.06406 0.4742203,0.107422 0.7265625,0.107422 C 6.3158496,11.998422 8,11.254831 8,9.5980311 8,8.0183486 6.4692759,6.1975096 4.9492188,6.0296717 c -0.00446,-0.011575 -0.012572,-0.020002 -0.017578,-0.03125 z m 11.0683594,1 c 0.552285,0 1,0.4477153 1,1 0,0.5522847 -0.447715,1 -1,1 -0.552285,0 -1,-0.4477153 -1,-1 0,-0.5522847 0.447715,-1 1,-1 z m -10,1 c 0.5522847,0 1,0.4477153 1,1 0,0.5522847 -0.4477153,1 -1,1 -0.5522847,0 -1,-0.4477153 -1,-1 0,-0.5522847 0.4477153,-1 1,-1 z m 7.509766,3.0019533 C 12.956068,10.988645 12.30575,11.057995 11.558594,11.266 10.010052,11.611789 8.7935902,12.680337 8.0371094,13.861703 8.0312937,13.877763 8,13.943738 8,13.943734 h 0.00195 c 1.0581856,1.101004 2.97199,2.083631 4.462891,2.048829 2.768512,-0.342009 3.372302,-2.175068 3.505859,-4.185547 0,0 -0.799844,-0.771444 -2.460937,-0.806641 z M 14,13.998422 v 1 h -3 c 0.331288,-1.0296 3,-1 3,-1 z"/>
 </g>
</svg>
