<svg xmlns="http://www.w3.org/2000/svg" id="svg8" width="32" height="32" version="1.1">
 <g id="22-22-computer-laptop" transform="translate(32,-313.17999)">
  <rect id="rect832" style="opacity:0.001" width="22" height="22" x="0" y="291.18"/>
  <path id="rect863" style="opacity:1;fill:#eff0f1" transform="translate(0,291.17916)" d="M 6,3 C 4.338,3 3,4.338 3,6 v 6 1 3 h 3 10 3 V 13 12 6 C 19,4.338 17.662,3 16,3 Z m 0,1 h 10 c 1.125297,0 2,0.8747 2,2 v 6 1 2 H 16 6 4 V 13 12 6 C 4,4.8747 4.8747028,4 6,4 Z M 4,17 c -0.554,0 -1,0.446 -1,1 0,0.554 0.446,1 1,1 h 3.5 7 3.5 c 0.554,0 1,-0.446 1,-1 0,-0.554 -0.446,-1 -1,-1 h -5 v 1 H 9 v -1 z"/>
 </g>
 <g id="22-22-computer" transform="translate(0,-313.17999)">
  <rect id="rect843" style="opacity:0.001" width="22" height="22" x="0" y="291.18"/>
  <path id="path845" style="opacity:1;fill:#eff0f1" transform="translate(0,291.17916)" d="M 6,3 C 4.338,3 3,4.338 3,6 v 7 c 0,1.662 1.338,3 3,3 h 3 v 2 H 7.5 A 0.5,0.5 0 0 0 7,18.5 0.5,0.5 0 0 0 7.5,19 h 7 A 0.5,0.5 0 0 0 15,18.5 0.5,0.5 0 0 0 14.5,18 H 13 v -2 h 3 c 1.662,0 3,-1.338 3,-3 V 6 C 19,4.338 17.662,3 16,3 Z m 0,1 h 10 c 1.125297,0 2,0.8747 2,2 v 7 c 0,1.12529 -0.874703,2 -2,2 H 6 C 4.8747028,15 4,14.12529 4,13 V 6 C 4,4.8747 4.8747028,4 6,4 Z"/>
 </g>
 <g id="computer" transform="translate(0,-281.17999)">
  <rect id="rect915" style="opacity:0.001" width="32" height="32" x="0" y="281.18"/>
  <path id="path917" style="opacity:1;fill:#eff0f1" transform="translate(0,281.17916)" d="M 8.5,4 C 6.007,4 4,6.007 4,8.5 v 11 C 4,21.993 6.007,24 8.5,24 H 13 v 3 h -2.5 a 0.50005,0.50005 0 1 0 0,1 h 11 a 0.50005,0.50005 0 1 0 0,-1 H 19 v -3 h 4.5 C 25.993,24 28,21.993 28,19.5 V 8.5 C 28,6.007 25.993,4 23.5,4 Z m 0,1 h 15 C 25.456297,5 27,6.5437 27,8.5 v 11 C 27,21.45629 25.456297,23 23.5,23 H 8.5 C 6.5437028,23 5,21.45629 5,19.5 V 8.5 C 5,6.5437 6.5437028,5 8.5,5 Z"/>
 </g>
 <g id="computer-laptop" transform="translate(32,-281.17999)">
  <rect id="rect887" style="opacity:0.001" width="32" height="32" x="0" y="281.18"/>
  <path id="rect923" style="opacity:1;fill:#eff0f1" transform="translate(0,281.17916)" d="M 8.5,4 C 6.007,4 4,6.007 4,8.5 V 19 19.5 24 h 4.5 15 4.5 V 19.5 19 8.5 C 28,6.007 25.993,4 23.5,4 Z m 0,1 h 15 C 25.456297,5 27,6.5437 27,8.5 V 19 19.5 23 H 23.5 8.5 5 V 19.5 19 8.5 C 5,6.5437 6.5437028,5 8.5,5 Z M 5.8007812,25 C 4.8035813,25 4,25.669 4,26.5 4,27.33101 4.8035813,28 5.8007812,28 H 26.199219 C 27.196419,28 28,27.33101 28,26.5 28,25.669 27.196419,25 26.199219,25 H 19 v 1 h -6 v -1 z"/>
 </g>
</svg>
