<svg xmlns="http://www.w3.org/2000/svg" id="svg2" width="32" height="32" version="1.1">
 <g id="22-22-configure" transform="translate(0,-22)">
  <rect id="rect856" style="opacity:0.001" width="22" height="22" x="0" y="0"/>
  <path id="path848" style="opacity:1;fill:#eff0f1" d="m 16,3 c 1.594,0 2.900141,1.2454063 2.994141,2.8164062 v 0.00977 l 0.002,0.00977 v 0.00195 0.00781 0.00195 0.00781 0.00195 0.00781 0.00195 0.00586 l 0.002,0.00391 v 0.00781 0.00195 0.00781 0.00195 0.00586 0.00391 0.00586 0.00586 0.00586 0.00391 0.00391 0.00586 0.00391 L 19,5.9472656 v 0.00391 0.00586 0.00391 0.00586 0.00391 0.00586 0.00391 0.00586 0.00391 V 6 c 0,1.656 -1.344,3 -3,3 H 6 C 4.344,9 3,7.656 3,6 3,4.344 4.344,3 6,3 Z M 13.765625,4 H 6 C 4.896,4 4,4.896 4,6 4,7.104 4.896,8 6,8 h 7.765625 C 13.289625,7.469 13,6.768 13,6 13,5.232 13.289625,4.531 13.765625,4 Z M 16,13 c 1.656,0 3,1.344 3,3 0,1.656 -1.344,3 -3,3 H 6 C 4.344,19 3,17.656 3,16 V 15.9902 15.95114 L 3.00195,15.90622 3.0039,15.85739 3.00585,15.81637 C 3.099859,14.245406 4.406,13 6,13 Z m 0,1 H 8.234375 C 8.710375,14.531 9,15.232 9,16 9,16.768 8.710375,17.469 8.234375,18 H 16 c 1.104,0 2,-0.896 2,-2 0,-1.104 -0.896,-2 -2,-2 z"/>
 </g>
 <g id="16-16-configure" transform="translate(-3,-41)">
  <rect id="rect817" style="opacity:0.001" width="16" height="16" x="3" y="3"/>
  <path id="path844" style="opacity:1;fill:#eff0f1" d="M 7.5,5 A 2.5,2.5 0 0 0 5,7.5 2.5,2.5 0 0 0 7.5,10 h 7 A 2.5,2.5 0 0 0 17,7.5 2.5,2.5 0 0 0 14.5,5 Z m 0,1 h 5.011719 C 12.195356,6.4187732 12,6.9347127 12,7.5 12,8.0652873 12.195356,8.5812268 12.511719,9 H 7.5 C 6.6597282,9 6,8.3402718 6,7.5 6,6.6597282 6.6597282,6 7.5,6 Z m 0,6 A 2.5,2.5 0 0 0 5,14.5 2.5,2.5 0 0 0 7.5,17 h 7 A 2.5,2.5 0 0 0 17,14.5 2.5,2.5 0 0 0 14.5,12 Z m 1.9882812,1 H 14.5 c 0.840272,0 1.5,0.659728 1.5,1.5 0,0.840272 -0.659728,1.5 -1.5,1.5 H 9.4882812 C 9.8046442,15.581227 10,15.065287 10,14.5 10,13.934713 9.8046442,13.418773 9.4882812,13 Z"/>
 </g>
 <g id="configure">
  <rect id="rect820" style="opacity:0.001" width="32" height="32" x="0" y="0"/>
  <path id="path836" style="opacity:1;fill:#eff0f1" d="M 9 4 A 5 5 0 0 0 4 9 A 5 5 0 0 0 9 14 L 23 14 A 5 5 0 0 0 28 9 A 5 5 0 0 0 23 4 L 9 4 z M 9 5 L 20.009766 5 C 18.792324 5.9119605 18 7.3618187 18 9 C 18 10.641087 18.798404 12.088351 20.019531 13 L 9 13 C 6.7790164 13 5 11.220984 5 9 C 5 6.7790164 6.7790164 5 9 5 z M 9 18 A 5 5 0 0 0 4 23 A 5 5 0 0 0 9 28 L 23 28 A 5 5 0 0 0 28 23 A 5 5 0 0 0 23 18 L 9 18 z M 11.980469 19 L 23 19 C 25.220984 19 27 20.779016 27 23 C 27 25.220984 25.220984 27 23 27 L 11.990234 27 C 13.207676 26.08804 14 24.638181 14 23 C 14 21.358913 13.201596 19.911649 11.980469 19 z"/>
 </g>
</svg>
