<svg xmlns="http://www.w3.org/2000/svg" id="svg3869" width="32" height="32" version="1.1">
 <g id="22-22-device-notifier" transform="translate(-293.99999,-524.36217)">
  <rect id="rect884" style="opacity:0.001" width="22" height="22" x="326" y="534.36"/>
  <path id="path886" style="opacity:1;fill:#eff0f1" transform="translate(325.99999,534.36217)" d="M 8,3 V 6 7 H 6 v 3 3 3 c 0,1.662 1.338,3 3,3 h 4 c 1.662,0 3,-1.338 3,-3 V 13 10 7 H 14 V 6 3 Z m 1,1 h 1 V 6 H 9 Z m 3,0 h 1 V 6 H 12 Z M 7,8 h 2 4 2 v 2 3 3 c 0,1.1253 -0.8747,2 -2,2 H 9 C 7.8747,18 7,17.1253 7,16 v -3 -3 z m 1.4492188,5 A 0.50064427,0.50064427 0 0 0 8.5,14 h 5 a 0.50005,0.50005 0 1 0 0,-1 h -5 a 0.50005,0.50005 0 0 0 -0.050781,0 z m 1,2 A 0.50064427,0.50064427 0 0 0 9.5,16 h 3 a 0.50005,0.50005 0 1 0 0,-1 h -3 a 0.50005,0.50005 0 0 0 -0.050781,0 z"/>
 </g>
 <g id="device-notifier">
  <rect id="rect818" style="opacity:0.001" width="32" height="32" x="0" y="0"/>
  <path id="path844" style="opacity:1;fill:#eff0f1" d="M 12 4 L 12 10 L 9 10 L 9 14.5 L 9 19 L 9 23.5 C 9 25.993 11.006999 28 13.5 28 L 19.5 28 C 21.993 28 24 25.993 24 23.5 L 24 19 L 24 14.5 L 24 10 L 21 10 L 21 4 L 12 4 z M 13 5 L 15 5 L 15 9 L 13 9 L 13 5 z M 18 5 L 20 5 L 20 9 L 18 9 L 18 5 z M 10 11 L 12 11 L 21 11 L 23 11 L 23 14.5 L 23 19 L 23 23.5 C 23 25.456297 21.456297 27 19.5 27 L 13.5 27 C 11.543702 27 10 25.456297 10 23.5 L 10 19 L 10 14.5 L 10 11 z M 12.5 20 C 12.223 20 12 20.223 12 20.5 C 12 20.777 12.223 21 12.5 21 L 20.5 21 C 20.777 21 21 20.777 21 20.5 C 21 20.223 20.777 20 20.5 20 L 12.5 20 z M 13.5 23 C 13.223 23 13 23.223 13 23.5 C 13 23.777 13.223 24 13.5 24 L 19.5 24 C 19.777 24 20 23.777 20 23.5 C 20 23.223 19.777 23 19.5 23 L 13.5 23 z"/>
 </g>
</svg>
