<svg xmlns="http://www.w3.org/2000/svg" id="svg" width="22" height="22" version="1.1">
 <g id="document-encrypt" transform="translate(22)">
  <rect id="rect11" style="opacity:0.001" width="22" height="22" x="0" y="0"/>
  <path id="path13" style="opacity:1;fill:#eff0f1" d="M 11,3 C 8.784,3 7,4.784 7,7 V 9 C 5.892,9 5,9.892 5,11 v 6 c 0,1.108 0.892,2 2,2 h 8 c 1.108,0 2,-0.892 2,-2 V 11 C 17,9.892 16.108,9 15,9 V 7 C 15,4.784 13.216,3 11,3 Z m 0,1 c 1.662,0 3,1.561 3,3.5 V 9 H 8 V 7.5 C 8,5.561 9.338,4 11,4 Z m 0,7 a 2,2 0 0 1 2,2 2,2 0 0 1 -1,1.728516 V 17 H 10 V 14.730469 A 2,2 0 0 1 9,13 2,2 0 0 1 11,11 Z"/>
 </g>
 <g id="document-open-recent" transform="translate(0,-32)">
  <rect id="rect23-7" style="opacity:0.001" width="22" height="22" x="0" y="32"/>
  <path id="path872" style="opacity:1;fill:#eff0f1" d="m 6,35 c -1.108,0 -2,0.892 -2,2 v 12 c 0,1.108 0.892,2 2,2 h 5.677734 A 4.5,4.5 0 0 1 10.761719,50 H 6 C 5.428703,50 5,49.571297 5,49 V 37 c 0,-0.571297 0.428703,-1 1,-1 h 10 c 0.571297,0 1,0.428703 1,1 v 6.759766 a 4.5,4.5 0 0 1 1,0.914062 V 37 c 0,-1.108 -0.892,-2 -2,-2 z m 8.5,9 C 12.561004,44 11,45.561004 11,47.5 11,49.438996 12.561004,51 14.5,51 16.438996,51 18,49.438996 18,47.5 18,45.561004 16.438996,44 14.5,44 Z M 14,45 h 0.900391 v 2 H 17 v 1 H 14.900391 14 v -1 z"/>
 </g>
 <g id="document-decrypt" transform="translate(44)">
  <rect id="rect847" style="opacity:0.001" width="22" height="22" x="0" y="0"/>
  <path id="path849" style="opacity:1;fill:#eff0f1" transform="translate(-22)" d="m 33,3 c -1.86855,0 -3.417636,1.2737034 -3.861328,3 h 1.171875 C 30.788834,4.8196149 31.801919,4 33,4 c 1.662,0 3,1.561 3,3.5 V 9 h -4 -2 -1 c -1.108,0 -2,0.892 -2,2 v 6 c 0,1.108 0.892,2 2,2 h 8 c 1.108,0 2,-0.892 2,-2 V 11 C 39,9.892 38.108,9 37,9 V 7 C 37,4.784 35.216,3 33,3 Z m 0,8 a 2,2 0 0 1 2,2 2,2 0 0 1 -1,1.728516 V 17 H 32 V 14.730469 A 2,2 0 0 1 31,13 2,2 0 0 1 33,11 Z"/>
 </g>
</svg>
