<svg xmlns="http://www.w3.org/2000/svg" id="svg3869" version="1.1" viewBox="0 0 22 22">
 <g id="go-home">
  <rect id="rect907" style="opacity:0.001" width="22" height="22" x="0" y="0"/>
  <path id="rect848" style="opacity:1;fill:#eff0f1" d="M 10.974609,3 C 10.856524,3.0061 10.744421,3.053848 10.658203,3.1347656 L 5.015625,8.4003906 H 5 c 3.1e-6,0.00575 -3e-6,0.00988 0,0.015625 L 3.1582031,10.134766 c -0.4870853,0.455725 0.1965085,1.186193 0.6835938,0.730468 L 5,9.7832031 C 4.9999895,12.273343 4.99687,14.411105 5.00195,17.103516 5.025866,18.202137 6.0795997,19.104997 7.1660125,19 9.8116731,18.9983 12.457906,19.004 15.103513,18.998 16.20214,18.974138 17.104997,17.920397 17,16.833984 V 9.7832031 l 1.158203,1.0820309 c 0.486983,0.455861 1.170577,-0.274607 0.683594,-0.730468 L 17,8.4160156 V 8.4003906 H 16.98437 L 16,7.4824219 V 4 H 14 V 5.6152344 L 11.341797,3.1347656 C 11.242775,3.0418526 11.110226,2.9932042 10.974609,3 Z M 11,4.1835938 16,8.8496094 C 15.9981,11.802619 16.0051,14.069123 15.9941,17.105469 15.964771,17.701853 15.359273,18.079695 14.800781,18 14.200508,17.999225 13.600298,17.997832 13,17.998047 V 14 c 0,-0.554 -0.446,-1 -1,-1 h -2 c -0.554,0 -1,0.446 -1,1 v 3.996094 c -0.7011919,-7.1e-4 -1.4023838,0.0012 -2.1035156,-0.002 C 6.2389158,17.925098 5.935405,17.191882 6,16.601562 V 8.8515625 Z"/>
 </g>
 <g id="go-previous" transform="matrix(-1,0,0,1,44,0)">
  <rect id="rect845" style="opacity:0.001" width="22" height="22" x="-22" y="0" transform="scale(-1,1)"/>
  <path id="path859" style="opacity:1;fill:#eff0f1" d="M 5.8925781,3.0005964 A 1.8492194,1.8973976 0 0 0 4,4.8970101 v 6.1032879 6.101335 a 1.8492194,1.8973976 0 0 0 2.7734375,1.64447 l 5.1503905,-3.050668 5.152344,-3.05262 a 1.8492194,1.8973976 0 0 0 0,-3.2850337 L 11.923828,6.3051607 6.7734375,3.2544932 A 1.8492194,1.8973976 0 0 0 5.8925781,3.0005964 Z m -0.023437,0.9999627 c 0.1379004,0.00329 0.2721513,0.042806 0.3945313,0.1152302 v -0.00195 l 5.1503906,3.0526206 5.152343,3.0526201 c 0.603249,0.357909 0.603249,1.206486 0,1.564395 l -5.152343,3.050667 -5.1503906,3.050669 C 5.6596682,18.242524 4.9999939,17.858891 5,17.101633 V 11.000298 4.8970101 c 7.88e-5,-0.5305327 0.394052,-0.9079163 0.8691411,-0.896451 z"/>
 </g>
 <g id="go-next" transform="translate(44)">
  <rect id="rect871" style="opacity:0.001" width="22" height="22" x="-22" y="0" transform="scale(-1,1)"/>
  <path id="path873" style="opacity:1;fill:#eff0f1" d="M 5.8925781,3.0005964 A 1.8492194,1.8973976 0 0 0 4,4.8970101 v 6.1032879 6.101335 a 1.8492194,1.8973976 0 0 0 2.7734375,1.64447 l 5.1503905,-3.050668 5.152344,-3.05262 a 1.8492194,1.8973976 0 0 0 0,-3.2850337 L 11.923828,6.3051607 6.7734375,3.2544932 A 1.8492194,1.8973976 0 0 0 5.8925781,3.0005964 Z m -0.023437,0.9999627 c 0.1379004,0.00329 0.2721513,0.042806 0.3945313,0.1152302 v -0.00195 l 5.1503906,3.0526206 5.152343,3.0526201 c 0.603249,0.357909 0.603249,1.206486 0,1.564395 l -5.152343,3.050667 -5.1503906,3.050669 C 5.6596682,18.242524 4.9999939,17.858891 5,17.101633 V 11.000298 4.8970101 c 7.88e-5,-0.5305327 0.394052,-0.9079163 0.8691411,-0.896451 z"/>
 </g>
 <g id="go-up" transform="rotate(-90,44,-22)">
  <rect id="rect877" style="opacity:0.001" width="22" height="22" x="-22" y="0" transform="scale(-1,1)"/>
  <path id="path879" style="opacity:1;fill:#eff0f1" d="M 5.8925781,3.0005964 A 1.8492194,1.8973976 0 0 0 4,4.8970101 v 6.1032879 6.101335 a 1.8492194,1.8973976 0 0 0 2.7734375,1.64447 l 5.1503905,-3.050668 5.152344,-3.05262 a 1.8492194,1.8973976 0 0 0 0,-3.2850337 L 11.923828,6.3051607 6.7734375,3.2544932 A 1.8492194,1.8973976 0 0 0 5.8925781,3.0005964 Z m -0.023437,0.9999627 c 0.1379004,0.00329 0.2721513,0.042806 0.3945313,0.1152302 v -0.00195 l 5.1503906,3.0526206 5.152343,3.0526201 c 0.603249,0.357909 0.603249,1.206486 0,1.564395 l -5.152343,3.050667 -5.1503906,3.050669 C 5.6596682,18.242524 4.9999939,17.858891 5,17.101633 V 11.000298 4.8970101 c 7.88e-5,-0.5305327 0.394052,-0.9079163 0.8691411,-0.896451 z"/>
 </g>
 <g id="go-down" transform="rotate(90,55,55)">
  <rect id="rect883" style="opacity:0.001" width="22" height="22" x="-22" y="0" transform="scale(-1,1)"/>
  <path id="path885" style="opacity:1;fill:#eff0f1" d="M 5.8925781,3.0005964 A 1.8492194,1.8973976 0 0 0 4,4.8970101 v 6.1032879 6.101335 a 1.8492194,1.8973976 0 0 0 2.7734375,1.64447 l 5.1503905,-3.050668 5.152344,-3.05262 a 1.8492194,1.8973976 0 0 0 0,-3.2850337 L 11.923828,6.3051607 6.7734375,3.2544932 A 1.8492194,1.8973976 0 0 0 5.8925781,3.0005964 Z m -0.023437,0.9999627 c 0.1379004,0.00329 0.2721513,0.042806 0.3945313,0.1152302 v -0.00195 l 5.1503906,3.0526206 5.152343,3.0526201 c 0.603249,0.357909 0.603249,1.206486 0,1.564395 l -5.152343,3.050667 -5.1503906,3.050669 C 5.6596682,18.242524 4.9999939,17.858891 5,17.101633 V 11.000298 4.8970101 c 7.88e-5,-0.5305327 0.394052,-0.9079163 0.8691411,-0.896451 z"/>
 </g>
</svg>
