<svg xmlns="http://www.w3.org/2000/svg" id="svg3869" width="32" height="32" version="1.1">
 <g id="22-22-go-home" transform="translate(0,-22)">
  <rect id="rect907" style="opacity:0.001" width="22" height="22" x="0" y="0"/>
  <path id="rect848" style="opacity:1;fill:#eff0f1" d="M 10.974609,3 C 10.856524,3.0061 10.744421,3.053848 10.658203,3.1347656 L 5.015625,8.4003906 H 5 c 3.1e-6,0.00575 -3e-6,0.00988 0,0.015625 L 3.1582031,10.134766 c -0.4870853,0.455725 0.1965085,1.186193 0.6835938,0.730468 L 5,9.7832031 C 4.9999895,12.273343 4.99687,14.411105 5.00195,17.103516 5.025866,18.202137 6.0795997,19.104997 7.1660125,19 9.8116731,18.9983 12.457906,19.004 15.103513,18.998 16.20214,18.974138 17.104997,17.920397 17,16.833984 V 9.7832031 l 1.158203,1.0820309 c 0.486983,0.455861 1.170577,-0.274607 0.683594,-0.730468 L 17,8.4160156 V 8.4003906 H 16.98437 L 16,7.4824219 V 4 H 14 V 5.6152344 L 11.341797,3.1347656 C 11.242775,3.0418526 11.110226,2.9932042 10.974609,3 Z M 11,4.1835938 16,8.8496094 C 15.9981,11.802619 16.0051,14.069123 15.9941,17.105469 15.964771,17.701853 15.359273,18.079695 14.800781,18 14.200508,17.999225 13.600298,17.997832 13,17.998047 V 14 c 0,-0.554 -0.446,-1 -1,-1 h -2 c -0.554,0 -1,0.446 -1,1 v 3.996094 c -0.7011919,-7.1e-4 -1.4023838,0.0012 -2.1035156,-0.002 C 6.2389158,17.925098 5.935405,17.191882 6,16.601562 V 8.8515625 Z"/>
 </g>
 <g id="22-22-go-previous" transform="matrix(-1,0,0,1,54,-22)">
  <rect id="rect845" style="opacity:0.001" width="22" height="22" x="-22" y="0" transform="scale(-1,1)"/>
  <path id="path859" style="opacity:1;fill:#eff0f1" d="M 5.8925781,3.0005964 A 1.8492194,1.8973976 0 0 0 4,4.8970101 v 6.1032879 6.101335 a 1.8492194,1.8973976 0 0 0 2.7734375,1.64447 l 5.1503905,-3.050668 5.152344,-3.05262 a 1.8492194,1.8973976 0 0 0 0,-3.2850337 L 11.923828,6.3051607 6.7734375,3.2544932 A 1.8492194,1.8973976 0 0 0 5.8925781,3.0005964 Z m -0.023437,0.9999627 c 0.1379004,0.00329 0.2721513,0.042806 0.3945313,0.1152302 v -0.00195 l 5.1503906,3.0526206 5.152343,3.0526201 c 0.603249,0.357909 0.603249,1.206486 0,1.564395 l -5.152343,3.050667 -5.1503906,3.050669 C 5.6596682,18.242524 4.9999939,17.858891 5,17.101633 V 11.000298 4.8970101 c 7.88e-5,-0.5305327 0.394052,-0.9079163 0.8691411,-0.896451 z"/>
 </g>
 <g id="22-22-go-next" transform="translate(63.999999,-22)">
  <rect id="rect871" style="opacity:0.001" width="22" height="22" x="-22" y="0" transform="scale(-1,1)"/>
  <path id="path873" style="opacity:1;fill:#eff0f1" d="M 5.8925781,3.0005964 A 1.8492194,1.8973976 0 0 0 4,4.8970101 v 6.1032879 6.101335 a 1.8492194,1.8973976 0 0 0 2.7734375,1.64447 l 5.1503905,-3.050668 5.152344,-3.05262 a 1.8492194,1.8973976 0 0 0 0,-3.2850337 L 11.923828,6.3051607 6.7734375,3.2544932 A 1.8492194,1.8973976 0 0 0 5.8925781,3.0005964 Z m -0.023437,0.9999627 c 0.1379004,0.00329 0.2721513,0.042806 0.3945313,0.1152302 v -0.00195 l 5.1503906,3.0526206 5.152343,3.0526201 c 0.603249,0.357909 0.603249,1.206486 0,1.564395 l -5.152343,3.050667 -5.1503906,3.050669 C 5.6596682,18.242524 4.9999939,17.858891 5,17.101633 V 11.000298 4.8970101 c 7.88e-5,-0.5305327 0.394052,-0.9079163 0.8691411,-0.896451 z"/>
 </g>
 <g id="22-22-go-up" transform="rotate(-90,47.999999,-47.999999)">
  <rect id="rect877" style="opacity:0.001" width="22" height="22" x="-22" y="0" transform="scale(-1,1)"/>
  <path id="path879" style="opacity:1;fill:#eff0f1" d="M 5.8925781,3.0005964 A 1.8492194,1.8973976 0 0 0 4,4.8970101 v 6.1032879 6.101335 a 1.8492194,1.8973976 0 0 0 2.7734375,1.64447 l 5.1503905,-3.050668 5.152344,-3.05262 a 1.8492194,1.8973976 0 0 0 0,-3.2850337 L 11.923828,6.3051607 6.7734375,3.2544932 A 1.8492194,1.8973976 0 0 0 5.8925781,3.0005964 Z m -0.023437,0.9999627 c 0.1379004,0.00329 0.2721513,0.042806 0.3945313,0.1152302 v -0.00195 l 5.1503906,3.0526206 5.152343,3.0526201 c 0.603249,0.357909 0.603249,1.206486 0,1.564395 l -5.152343,3.050667 -5.1503906,3.050669 C 5.6596682,18.242524 4.9999939,17.858891 5,17.101633 V 11.000298 4.8970101 c 7.88e-5,-0.5305327 0.394052,-0.9079163 0.8691411,-0.896451 z"/>
 </g>
 <g id="22-22-go-down" transform="rotate(90,85.999999,63.999999)">
  <rect id="rect883" style="opacity:0.001" width="22" height="22" x="-22" y="0" transform="scale(-1,1)"/>
  <path id="path885" style="opacity:1;fill:#eff0f1" d="M 5.8925781,3.0005964 A 1.8492194,1.8973976 0 0 0 4,4.8970101 v 6.1032879 6.101335 a 1.8492194,1.8973976 0 0 0 2.7734375,1.64447 l 5.1503905,-3.050668 5.152344,-3.05262 a 1.8492194,1.8973976 0 0 0 0,-3.2850337 L 11.923828,6.3051607 6.7734375,3.2544932 A 1.8492194,1.8973976 0 0 0 5.8925781,3.0005964 Z m -0.023437,0.9999627 c 0.1379004,0.00329 0.2721513,0.042806 0.3945313,0.1152302 v -0.00195 l 5.1503906,3.0526206 5.152343,3.0526201 c 0.603249,0.357909 0.603249,1.206486 0,1.564395 l -5.152343,3.050667 -5.1503906,3.050669 C 5.6596682,18.242524 4.9999939,17.858891 5,17.101633 V 11.000298 4.8970101 c 7.88e-5,-0.5305327 0.394052,-0.9079163 0.8691411,-0.896451 z"/>
 </g>
 <g id="go-home">
  <rect id="rect829" style="opacity:0.001" width="32" height="32" x="0" y="0"/>
  <path id="rect839" style="opacity:1;fill:#eff0f1" d="M 15.982422,4 A 0.50005,0.50005 0 0 0 15.654297,4.1386719 L 4.1542969,15.138672 a 0.50006855,0.50006855 0 1 0 0.6914062,0.722656 L 7,13.800781 V 25 c 0,1.662 1.338,3 3,3 h 12 c 1.662,0 3,-1.338 3,-3 V 13.800781 l 2.154297,2.060547 a 0.50006848,0.50006848 0 1 0 0.691406,-0.722656 L 24,11.460938 V 5 H 21 V 8.5898438 L 16.345703,4.1386719 A 0.50005,0.50005 0 0 0 15.982422,4 Z M 16,5.1914062 24,12.84375 V 25 c 0,1.125297 -0.874703,2 -2,2 H 19 V 20.5 C 19,19.669 18.331,19 17.5,19 h -3 C 13.669,19 13,19.669 13,20.5 V 27 H 10 C 8.8747028,27 8,26.125297 8,25 V 12.84375 Z"/>
 </g>
 <g id="go-previous" transform="translate(32.000001)">
  <rect id="rect874" style="opacity:0.001" width="32" height="32" x="0" y="0"/>
  <path id="path884" style="opacity:1;fill:#eff0f1" d="M 23.160241,4.0008385 A 2.7738181,2.8459971 0 0 0 21.839968,4.3816846 L 14.113635,8.9576965 6.3853499,13.537614 a 2.7738181,2.8459971 0 0 0 0,4.927563 l 7.7282851,4.577965 7.726333,4.576012 A 2.7738181,2.8459971 0 0 0 26,25.152443 V 16.000419 6.8464422 A 2.7738181,2.8459971 0 0 0 23.160241,4.0008385 Z m 0.02344,0.9999651 h 0.002 c 0.993564,-0.023159 1.814549,0.7828359 1.814399,1.8456386 v 9.1539768 9.152024 c 8.12e-4,1.487748 -1.429472,2.328125 -2.650312,1.605412 L 14.623386,22.181844 6.8951003,17.603879 c -1.2176985,-0.723668 -1.2185661,-2.48399 0,-3.20692 L 14.623386,9.8170415 22.349718,5.2410296 c 0.255736,-0.151588 0.542055,-0.2326341 0.83396,-0.240226 z"/>
 </g>
 <g id="go-next" transform="matrix(-1,0,0,1,95.999997,0)">
  <rect id="rect896" style="opacity:0.001" width="32" height="32" x="0" y="0"/>
  <path id="path898" style="opacity:1;fill:#eff0f1" d="M 23.160241,4.0008385 A 2.7738181,2.8459971 0 0 0 21.839968,4.3816846 L 14.113635,8.9576965 6.3853499,13.537614 a 2.7738181,2.8459971 0 0 0 0,4.927563 l 7.7282851,4.577965 7.726333,4.576012 A 2.7738181,2.8459971 0 0 0 26,25.152443 V 16.000419 6.8464422 A 2.7738181,2.8459971 0 0 0 23.160241,4.0008385 Z m 0.02344,0.9999651 h 0.002 c 0.993564,-0.023159 1.814549,0.7828359 1.814399,1.8456386 v 9.1539768 9.152024 c 8.12e-4,1.487748 -1.429472,2.328125 -2.650312,1.605412 L 14.623386,22.181844 6.8951003,17.603879 c -1.2176985,-0.723668 -1.2185661,-2.48399 0,-3.20692 L 14.623386,9.8170415 22.349718,5.2410296 c 0.255736,-0.151588 0.542055,-0.2326341 0.83396,-0.240226 z"/>
 </g>
 <g id="go-up" transform="matrix(0,1,1,0,95.999998,5e-7)">
  <rect id="rect902" style="opacity:0.001" width="32" height="32" x="0" y="0"/>
  <path id="path904" style="opacity:1;fill:#eff0f1" d="M 23.160241,4.0008385 A 2.7738181,2.8459971 0 0 0 21.839968,4.3816846 L 14.113635,8.9576965 6.3853499,13.537614 a 2.7738181,2.8459971 0 0 0 0,4.927563 l 7.7282851,4.577965 7.726333,4.576012 A 2.7738181,2.8459971 0 0 0 26,25.152443 V 16.000419 6.8464422 A 2.7738181,2.8459971 0 0 0 23.160241,4.0008385 Z m 0.02344,0.9999651 h 0.002 c 0.993564,-0.023159 1.814549,0.7828359 1.814399,1.8456386 v 9.1539768 9.152024 c 8.12e-4,1.487748 -1.429472,2.328125 -2.650312,1.605412 L 14.623386,22.181844 6.8951003,17.603879 c -1.2176985,-0.723668 -1.2185661,-2.48399 0,-3.20692 L 14.623386,9.8170415 22.349718,5.2410296 c 0.255736,-0.151588 0.542055,-0.2326341 0.83396,-0.240226 z"/>
 </g>
 <g id="go-down" transform="rotate(-90,79.999999,-48.000001)">
  <rect id="rect908" style="opacity:0.001" width="32" height="32" x="0" y="0"/>
  <path id="path910" style="opacity:1;fill:#eff0f1" d="M 23.160241,4.0008385 A 2.7738181,2.8459971 0 0 0 21.839968,4.3816846 L 14.113635,8.9576965 6.3853499,13.537614 a 2.7738181,2.8459971 0 0 0 0,4.927563 l 7.7282851,4.577965 7.726333,4.576012 A 2.7738181,2.8459971 0 0 0 26,25.152443 V 16.000419 6.8464422 A 2.7738181,2.8459971 0 0 0 23.160241,4.0008385 Z m 0.02344,0.9999651 h 0.002 c 0.993564,-0.023159 1.814549,0.7828359 1.814399,1.8456386 v 9.1539768 9.152024 c 8.12e-4,1.487748 -1.429472,2.328125 -2.650312,1.605412 L 14.623386,22.181844 6.8951003,17.603879 c -1.2176985,-0.723668 -1.2185661,-2.48399 0,-3.20692 L 14.623386,9.8170415 22.349718,5.2410296 c 0.255736,-0.151588 0.542055,-0.2326341 0.83396,-0.240226 z"/>
 </g>
</svg>
