<svg xmlns="http://www.w3.org/2000/svg" id="svg3869" width="22" height="22" version="1.1">
 <g id="input-mouse-battery" transform="translate(154,-1.9073486e-6)">
  <rect id="rect8" style="opacity:0.001" width="22" height="22" x="0" y="0" ry="0"/>
  <path id="path10" style="opacity:1;fill:#eff0f1" d="M 11.5,3 C 8.453,3 6,5.676 6,9 v 4 c 0,3.324 2.453,6 5.5,6 3.047,0 5.5,-2.676 5.5,-6 V 9 C 17,5.676 14.547,3 11.5,3 Z M 11,4.046875 V 8 H 7.0507812 C 7.2828369,5.9136345 8.916344,4.2793076 11,4.046875 Z m 1,0 C 14.083656,4.2793076 15.717163,5.9136345 15.949219,8 H 12 Z M 7,9 h 9 v 4.5 C 16,15.993 13.993,18 11.5,18 9.007,18 7,15.993 7,13.5 Z m 5,1 -2.5,4 H 11 v 3 l 2.5,-4 H 12 Z"/>
 </g>
 <g id="input-caps-on" transform="translate(22)">
  <rect id="rect1010" style="opacity:0.001" width="22" height="22" x="0" y="0"/>
  <path id="path1012" style="opacity:1;fill:#eff0f1" d="M 5.5,3 C 4.115,3 3,4.115 3,5.5 v 9 2 C 3,17.885 4.115,19 5.5,19 h 11 c 1.385,0 2.5,-1.115 2.5,-2.5 v -2 -9 C 19,4.115 17.885,3 16.5,3 Z m 0,1 h 11 C 17.348297,4 18,4.6517028 18,5.5 V 16.492188 C 17.581836,16.80699 17.066048,17 16.5,17 H 5.5 C 4.9339516,17 4.4181638,16.80699 4,16.492188 V 5.5 C 4,4.6517028 4.6517028,4 5.5,4 Z M 11,7 v 1 h -1 v 1 h 1 v 3 h -1 v 1 h 1 1 1 V 12 H 12 V 7 Z"/>
 </g>
 <g id="input-num-on">
  <rect id="rect1032" style="opacity:0.001" width="22" height="22" x="0" y="0"/>
  <path id="path1034" style="opacity:1;fill:#eff0f1" d="M 5.5,3 C 4.115,3 3,4.115 3,5.5 v 9 2 C 3,17.885 4.115,19 5.5,19 h 11 c 1.385,0 2.5,-1.115 2.5,-2.5 v -2 -9 C 19,4.115 17.885,3 16.5,3 Z m 0,1 h 11 C 17.348297,4 18,4.6517028 18,5.5 V 16.492188 C 17.581836,16.80699 17.066048,17 16.5,17 H 5.5 C 4.9339516,17 4.4181638,16.80699 4,16.492188 V 5.5 C 4,4.6517028 4.6517028,4 5.5,4 Z M 9,7 v 1 2 1 2 h 1 v -2 h 2 v 2 h 1 V 11 10 8 7 h -1 -2 z m 1,1 h 2 v 2 h -2 z"/>
 </g>
 <g id="input-keyboard-battery" transform="translate(44)">
  <rect id="rect1057" style="opacity:0.001" width="22" height="22" x="0" y="0"/>
  <path id="path1059" style="opacity:1;fill:#eff0f1" d="M 5.5,3 C 4.115,3 3,4.115 3,5.5 v 9 2 C 3,17.885 4.115,19 5.5,19 h 11 c 1.385,0 2.5,-1.115 2.5,-2.5 v -2 -9 C 19,4.115 17.885,3 16.5,3 Z m 0,1 h 11 C 17.348297,4 18,4.6517028 18,5.5 V 16.492188 C 17.581836,16.80699 17.066048,17 16.5,17 H 5.5 C 4.9339516,17 4.4181638,16.80699 4,16.492188 V 5.5 C 4,4.6517028 4.6517028,4 5.5,4 Z M 11,6 9,11 h 2 v 3 l 2,-5 h -2 z"/>
 </g>
 <g id="input-keyboard-brightness" transform="translate(66)">
  <rect id="rect1073" style="opacity:0.001" width="22" height="22" x="0" y="0"/>
  <path id="path1075" style="opacity:1;fill:#eff0f1" d="M 5.5,3 C 4.115,3 3,4.115 3,5.5 v 9 2 C 3,17.885 4.115,19 5.5,19 h 11 c 1.385,0 2.5,-1.115 2.5,-2.5 v -2 -9 C 19,4.115 17.885,3 16.5,3 Z m 0,1 h 11 C 17.348297,4 18,4.6517028 18,5.5 V 16.492188 C 17.581836,16.80699 17.066048,17 16.5,17 H 5.5 C 4.9339516,17 4.4181638,16.80699 4,16.492188 V 5.5 C 4,4.6517028 4.6517028,4 5.5,4 Z M 11,7 a 3,3 0 0 0 -3,3 3,3 0 0 0 3,3 3,3 0 0 0 3,-3 3,3 0 0 0 -3,-3 z m 0,1 v 4 A 2,2 0 0 1 9,10 2,2 0 0 1 11,8 Z"/>
 </g>
 <g id="input-keyboard" transform="translate(88)">
  <rect id="rect1093" style="opacity:0.001" width="22" height="22" x="0" y="0"/>
  <path id="path1095" style="opacity:1;fill:#eff0f1" d="M 5,5 C 3.892,5 3,5.892 3,7 v 8 c 0,1.108 0.892,2 2,2 h 11 c 1.108,0 2,-0.892 2,-2 V 7 C 18,5.892 17.108,5 16,5 Z m 0,1 h 11 c 0.571297,0 1,0.4287028 1,1 v 8 c 0,0.571297 -0.428703,1 -1,1 H 5 C 4.4287028,16 4,15.571297 4,15 V 7 C 4,6.4287028 4.4287028,6 5,6 Z M 5.5,7 C 5.223,7 5,7.223 5,7.5 v 1 C 5,8.777 5.223,9 5.5,9 h 1 C 6.777,9 7,8.777 7,8.5 v -1 C 7,7.223 6.777,7 6.5,7 Z m 3,0 C 8.223,7 8,7.223 8,7.5 v 1 C 8,8.777 8.223,9 8.5,9 h 1 C 9.777,9 10,8.777 10,8.5 v -1 C 10,7.223 9.777,7 9.5,7 Z m 3,0 C 11.223,7 11,7.223 11,7.5 v 1 C 11,8.777 11.223,9 11.5,9 h 1 C 12.777,9 13,8.777 13,8.5 v -1 C 13,7.223 12.777,7 12.5,7 Z m 3,0 C 14.223,7 14,7.223 14,7.5 v 1 C 14,8.777 14.223,9 14.5,9 h 1 C 15.777,9 16,8.777 16,8.5 v -1 C 16,7.223 15.777,7 15.5,7 Z m -9,3 C 5.223,10 5,10.223 5,10.5 v 1 C 5,11.777 5.223,12 5.5,12 h 1 C 6.777,12 7,11.777 7,11.5 v -1 C 7,10.223 6.777,10 6.5,10 Z m 3,0 C 8.223,10 8,10.223 8,10.5 v 1 C 8,11.777 8.223,12 8.5,12 h 1 C 9.777,12 10,11.777 10,11.5 v -1 C 10,10.223 9.777,10 9.5,10 Z m 3,0 C 11.223,10 11,10.223 11,10.5 v 1 c 0,0.277 0.223,0.5 0.5,0.5 h 1 c 0.277,0 0.5,-0.223 0.5,-0.5 v -1 C 13,10.223 12.777,10 12.5,10 Z m 3,0 C 14.223,10 14,10.223 14,10.5 v 1 c 0,0.277 0.223,0.5 0.5,0.5 h 1 c 0.277,0 0.5,-0.223 0.5,-0.5 v -1 C 16,10.223 15.777,10 15.5,10 Z m -9,3 C 5.223,13 5,13.223 5,13.5 v 1 C 5,14.777 5.223,15 5.5,15 h 1 C 6.777,15 7,14.777 7,14.5 v -1 C 7,13.223 6.777,13 6.5,13 Z m 3,0 C 8.223,13 8,13.223 8,13.5 v 1 C 8,14.777 8.223,15 8.5,15 h 1 2.5 0.5 c 0.277,0 0.5,-0.223 0.5,-0.5 v -1 C 13,13.223 12.777,13 12.5,13 H 12 9.5 Z m 6,0 C 14.223,13 14,13.223 14,13.5 v 1 c 0,0.277 0.223,0.5 0.5,0.5 h 1 c 0.277,0 0.5,-0.223 0.5,-0.5 v -1 C 16,13.223 15.777,13 15.5,13 Z"/>
 </g>
 <g id="input-keyboard-virtual-on" transform="translate(110)">
  <rect id="rect1262" style="opacity:0.001" width="22" height="22" x="0" y="0"/>
  <path id="path1264" style="opacity:1;fill:#eff0f1" d="M 5,5 C 3.892,5 3,5.892 3,7 v 8 c 0,1.108 0.892,2 2,2 h 11 c 1.108,0 2,-0.892 2,-2 V 7 C 18,5.892 17.108,5 16,5 Z m 0,1 h 11 c 0.571297,0 1,0.4287028 1,1 v 8 c 0,0.571297 -0.428703,1 -1,1 H 5 C 4.4287028,16 4,15.571297 4,15 V 7 C 4,6.4287028 4.4287028,6 5,6 Z M 5.5,7 C 5.223,7 5,7.223 5,7.5 v 1 C 5,8.777 5.223,9 5.5,9 h 1 C 6.777,9 7,8.777 7,8.5 v -1 C 7,7.223 6.777,7 6.5,7 Z m 3,0 C 8.223,7 8,7.223 8,7.5 v 1 C 8,8.777 8.223,9 8.5,9 h 1 C 9.777,9 10,8.777 10,8.5 v -1 C 10,7.223 9.777,7 9.5,7 Z m 3,0 C 11.223,7 11,7.223 11,7.5 v 1 C 11,8.777 11.223,9 11.5,9 h 1 C 12.777,9 13,8.777 13,8.5 v -1 C 13,7.223 12.777,7 12.5,7 Z m 3,0 C 14.223,7 14,7.223 14,7.5 v 1 C 14,8.777 14.223,9 14.5,9 h 1 C 15.777,9 16,8.777 16,8.5 v -1 C 16,7.223 15.777,7 15.5,7 Z m -9,3 C 5.223,10 5,10.223 5,10.5 v 1 C 5,11.777 5.223,12 5.5,12 h 1 C 6.777,12 7,11.777 7,11.5 v -1 C 7,10.223 6.777,10 6.5,10 Z m 3,0 C 8.223,10 8,10.223 8,10.5 v 1 C 8,11.777 8.223,12 8.5,12 h 1 C 9.777,12 10,11.777 10,11.5 v -1 C 10,10.223 9.777,10 9.5,10 Z m 3,0 C 11.223,10 11,10.223 11,10.5 v 1 c 0,0.277 0.223,0.5 0.5,0.5 h 1 c 0.277,0 0.5,-0.223 0.5,-0.5 v -1 C 13,10.223 12.777,10 12.5,10 Z m 3,0 C 14.223,10 14,10.223 14,10.5 v 1 c 0,0.277 0.223,0.5 0.5,0.5 h 1 c 0.277,0 0.5,-0.223 0.5,-0.5 v -1 C 16,10.223 15.777,10 15.5,10 Z m -9,3 C 5.223,13 5,13.223 5,13.5 v 1 C 5,14.777 5.223,15 5.5,15 h 1 C 6.777,15 7,14.777 7,14.5 v -1 C 7,13.223 6.777,13 6.5,13 Z m 3,0 C 8.223,13 8,13.223 8,13.5 v 1 C 8,14.777 8.223,15 8.5,15 h 1 2.5 0.5 c 0.277,0 0.5,-0.223 0.5,-0.5 v -1 C 13,13.223 12.777,13 12.5,13 H 12 9.5 Z m 6,0 C 14.223,13 14,13.223 14,13.5 v 1 c 0,0.277 0.223,0.5 0.5,0.5 h 1 c 0.277,0 0.5,-0.223 0.5,-0.5 v -1 C 16,13.223 15.777,13 15.5,13 Z"/>
 </g>
 <g id="input-keyboard-virtual-off" transform="translate(132)">
  <rect id="rect1268" style="opacity:0.001" width="22" height="22" x="0" y="0"/>
  <path id="path1270" style="opacity:0.5;fill:#eff0f1" d="M 5,5 C 3.892,5 3,5.892 3,7 v 8 c 0,1.108 0.892,2 2,2 h 11 c 1.108,0 2,-0.892 2,-2 V 7 C 18,5.892 17.108,5 16,5 Z m 0,1 h 11 c 0.571297,0 1,0.4287028 1,1 v 8 c 0,0.571297 -0.428703,1 -1,1 H 5 C 4.4287028,16 4,15.571297 4,15 V 7 C 4,6.4287028 4.4287028,6 5,6 Z M 5.5,7 C 5.223,7 5,7.223 5,7.5 v 1 C 5,8.777 5.223,9 5.5,9 h 1 C 6.777,9 7,8.777 7,8.5 v -1 C 7,7.223 6.777,7 6.5,7 Z m 3,0 C 8.223,7 8,7.223 8,7.5 v 1 C 8,8.777 8.223,9 8.5,9 h 1 C 9.777,9 10,8.777 10,8.5 v -1 C 10,7.223 9.777,7 9.5,7 Z m 3,0 C 11.223,7 11,7.223 11,7.5 v 1 C 11,8.777 11.223,9 11.5,9 h 1 C 12.777,9 13,8.777 13,8.5 v -1 C 13,7.223 12.777,7 12.5,7 Z m 3,0 C 14.223,7 14,7.223 14,7.5 v 1 C 14,8.777 14.223,9 14.5,9 h 1 C 15.777,9 16,8.777 16,8.5 v -1 C 16,7.223 15.777,7 15.5,7 Z m -9,3 C 5.223,10 5,10.223 5,10.5 v 1 C 5,11.777 5.223,12 5.5,12 h 1 C 6.777,12 7,11.777 7,11.5 v -1 C 7,10.223 6.777,10 6.5,10 Z m 3,0 C 8.223,10 8,10.223 8,10.5 v 1 C 8,11.777 8.223,12 8.5,12 h 1 C 9.777,12 10,11.777 10,11.5 v -1 C 10,10.223 9.777,10 9.5,10 Z m 3,0 C 11.223,10 11,10.223 11,10.5 v 1 c 0,0.277 0.223,0.5 0.5,0.5 h 1 c 0.277,0 0.5,-0.223 0.5,-0.5 v -1 C 13,10.223 12.777,10 12.5,10 Z m 3,0 C 14.223,10 14,10.223 14,10.5 v 1 c 0,0.277 0.223,0.5 0.5,0.5 h 1 c 0.277,0 0.5,-0.223 0.5,-0.5 v -1 C 16,10.223 15.777,10 15.5,10 Z m -9,3 C 5.223,13 5,13.223 5,13.5 v 1 C 5,14.777 5.223,15 5.5,15 h 1 C 6.777,15 7,14.777 7,14.5 v -1 C 7,13.223 6.777,13 6.5,13 Z m 3,0 C 8.223,13 8,13.223 8,13.5 v 1 C 8,14.777 8.223,15 8.5,15 h 1 2.5 0.5 c 0.277,0 0.5,-0.223 0.5,-0.5 v -1 C 13,13.223 12.777,13 12.5,13 H 12 9.5 Z m 6,0 C 14.223,13 14,13.223 14,13.5 v 1 c 0,0.277 0.223,0.5 0.5,0.5 h 1 c 0.277,0 0.5,-0.223 0.5,-0.5 v -1 C 16,13.223 15.777,13 15.5,13 Z"/>
 </g>
</svg>
