<svg xmlns="http://www.w3.org/2000/svg" id="svg12" width="22" height="22" version="1">
 <g id="kate">
  <rect id="rect23-7" style="opacity:0.001" width="22" height="22" x="0" y="0"/>
  <path id="path872" style="opacity:1;fill:#eff0f1" d="M 6,4 C 4.892,4 4,4.892 4,6 v 11 c 0,1.108 0.892,2 2,2 h 5 5 c 1.108,0 2,-0.892 2,-2 V 6 C 18,4.892 17.108,4 16,4 h -5 z m 0,1 h 5 5 c 0.571297,0 1,0.428703 1,1 v 11 c 0,0.571297 -0.428703,1 -1,1 H 11 6 C 5.428703,18 5,17.571297 5,17 V 6 C 5,5.428703 5.428703,5 6,5 Z m 1.5,2 c -0.6761613,-0.00956 -0.6761613,1.0095626 0,1 h 7 c 0.676161,0.00956 0.676161,-1.0095626 0,-1 z m 0,2 c -0.6761613,-0.00956 -0.6761613,1.009563 0,1 h 7 c 0.676161,0.0096 0.676161,-1.0095626 0,-1 z m 0,2 c -0.6761613,-0.0096 -0.6761613,1.009563 0,1 h 7 c 0.676161,0.0096 0.676161,-1.009563 0,-1 z m 0,2 c -0.6761613,-0.0096 -0.6761613,1.009563 0,1 h 7 c 0.676161,0.0096 0.676161,-1.009563 0,-1 z m 0,2 c -0.6761613,-0.0096 -0.6761613,1.009563 0,1 h 7 c 0.676161,0.0096 0.676161,-1.009563 0,-1 z"/>
 </g>
</svg>
