<svg xmlns="http://www.w3.org/2000/svg" id="svg3869" width="22" height="22" version="1.1">
 <g id="kgpg">
  <rect id="rect11" style="opacity:0.001" width="22" height="22" x="0" y="0"/>
  <path id="path833" style="opacity:1;fill:#eff0f1" d="M 11,3 C 8.784,3 7,4.784 7,7 V 9 C 5.892,9 5,9.892 5,11 v 6 c 0,1.108 0.892,2 2,2 h 8 c 1.108,0 2,-0.892 2,-2 V 11 C 17,9.892 16.108,9 15,9 V 7 C 15,4.784 13.216,3 11,3 Z m 0,1 c 1.662,0 3,1.561 3,3.5 V 9 H 8 V 7.5 C 8,5.561 9.338,4 11,4 Z m -4,6 h 1 6 1 c 0.5713,0 1,0.4287 1,1 v 6 c 0,0.5713 -0.4287,1 -1,1 H 7 C 6.4287,18 6,17.5713 6,17 v -6 c 0,-0.5713 0.4287,-1 1,-1 z"/>
 </g>
</svg>
