<svg xmlns="http://www.w3.org/2000/svg" id="svg8" width="22" height="22" version="1.1">
 <g id="kleopatra">
  <rect id="rect4764" style="opacity:0.001" width="22" height="22" x="0" y="0"/>
  <path id="path4716" style="opacity:1;fill:#eff0f1" d="m 8.9981993,2.9999888 c -3.2205386,0 -6.7445211,2.05111 -6.7445211,2.05111 -0.5699133,0.33089 -0.080751,1.18186 0.4958345,0.86271 0,0 3.4723602,-1.92124 6.2486866,-1.92124 1.3603997,0 3.2151167,0.19522 5.0891367,0.81557 1.87402,0.62039 3.767345,1.26596 5.405377,1.26596 0.676383,0.0112 0.676383,-1.00268 0,-0.99258 -1.360399,0 -3.215116,-0.59324 -5.089136,-1.21363 -1.874021,-0.62036 -3.767345,-0.8679 -5.4053777,-0.8679 z m 0.4997385,4.06831 v 0.002 c -0.082846,9.9e-4 -0.165589,0.008 -0.247917,0.015 -0.00521,-3e-5 -0.010426,-3e-5 -0.015601,0 -4.1894806,0.16545 -7.1329896,4.0546902 -7.1329896,4.0546902 -0.1804661,0.23897 -0.1090296,0.581 0.1522641,0.72897 0,0 0.8078743,0.73901 2.7466109,1.32992 v 5.28612 c -0.00956,0.67115 1.0090391,0.67115 0.9994777,0 v -5.02055 c 0.6895931,0.16769 1.9236274,0.30237 2.7036649,0.37805 0.115782,0.13617 0.6423894,0.75045 1.4406522,1.54319 0.891371,0.88529 2.025452,1.90233 3.129225,2.45047 2.046369,1.0161 3.584895,1.39449 4.86074,1.02556 0.587015,-0.16994 1.042083,-0.39334 1.370377,-0.72896 0.328296,-0.33539 0.488026,-0.68731 0.488026,-1.13724 0,-0.53639 -0.271417,-1.00043 -0.63053,-1.35708 -0.359113,-0.35677 -0.828267,-0.62812 -1.368425,-0.62812 -1.125969,0.13055 -1.956783,0.71339 -1.998955,1.48887 -0.0075,0.52496 0.613972,0.63931 0.880568,0.34327 0.476871,-0.94505 1.605442,-0.67558 1.78015,-0.50207 0.213813,0.21234 0.337713,0.48991 0.337713,0.65529 0,0.2521 -0.05279,0.29151 -0.20497,0.44706 -0.152179,0.15569 -0.445526,0.32563 -0.935058,0.46722 -0.877249,0.2536 -2.183017,0.0112 -4.134558,-0.96157 -0.895181,-0.44459 -2.009926,-1.41252 -2.86764,-2.26435 -0.297845,-0.29562 -0.511018,-0.52931 -0.733992,-0.76967 4.135141,-0.0484 6.721087,-2.56418 9.534078,-3.49539 0.492074,-0.16469 0.435871,-0.8733202 -0.07613,-0.9596502 -2.958467,-0.48905 -4.388856,-0.98554 -5.643536,-1.48405 -1.19151,-0.47329 -2.284138,-0.85362 -4.1540783,-0.89177 -0.00846,-10e-4 -0.016923,-10e-4 -0.025385,-0.002 -0.00129,-1.2e-4 -0.00261,1.5e-4 -0.00389,0 -0.01171,-7.2e-4 -0.023421,-9.9e-4 -0.035131,-0.002 -0.071471,-0.008 -0.1430143,-0.0112 -0.2147312,-0.0112 z m 2.1473162,1.21745 c 0.604402,0.16131 1.392303,0.40314 1.915013,0.61072 1.000305,0.39732 2.425751,0.77842 4.441038,1.2184402 -2.5276,1.16271 -4.783979,2.81103 -8.0036283,2.81103 -3.2895984,0 -5.8512635,-1.24765 -6.6293469,-1.64787 0.3958824,-0.46883 2.1382756,-1.9609902 3.8944485,-2.8294702 -0.1723772,0.34252 -0.2625777,0.72015 -0.2635334,1.1031 0,1.3705202 1.1187034,2.3816502 2.4986937,2.3816502 1.3799904,0 2.4986944,-1.01113 2.4986944,-2.3816502 -5.35e-4,-0.44564 -0.121909,-0.88295 -0.351379,-1.26595 z"/>
 </g>
</svg>
