<svg xmlns="http://www.w3.org/2000/svg" id="svg12" width="22" height="22" version="1">
 <g id="klipper">
  <rect id="rect23-7" style="opacity:0.001" width="22" height="22" x="0" y="0"/>
  <path id="path872" style="opacity:1;fill:#eff0f1" d="M 10,2 C 9.446,2 9,2.446 9,3 H 8 C 7.446,3 7,3.446 7,4 H 6 C 4.892,4 4,4.892 4,6 v 10 c 0,1.108 0.9135166,1.782703 2,2 h 5 4 c 1.108,0 2,-0.892 2,-2 V 6 C 17,4.892 16.108,4 15,4 H 14 C 14,3.446 13.554,3 13,3 H 12 C 12,2.446 11.554,2 11,2 Z m 0,1 h 1 V 4 H 10 Z M 6,5 h 1 c 0,0.554 0.446,1 1,1 h 5 c 0.554,0 1,-0.446 1,-1 h 1 c 0.571297,0 1,0.428703 1,1 v 10 c 0,0.571297 -0.445761,0.86144 -1,1 H 11 6 C 5.428703,17 5,16.571297 5,16 V 6 C 5,5.428703 5.428703,5 6,5 Z M 6.5,7 C 5.8238387,6.99044 5.8238387,8.0095626 6.5,8 h 6 c 0.676161,0.00956 0.676161,-1.0095626 0,-1 z m 0,2 c -0.6761613,-0.00956 -0.6761613,1.009563 0,1 h 3 c 0.676161,0.0096 0.676161,-1.0095626 0,-1 z m 0,2 c -0.6761613,-0.0096 -0.6761613,1.009563 0,1 h 5 c 0.676161,0.0096 0.676161,-1.009563 0,-1 z m 0,2 c -0.6761613,-0.0096 -0.6761613,1.009563 0,1 h 2 c 0.676161,0.0096 0.676161,-1.009563 0,-1 z"/>
 </g>
</svg>
