<svg xmlns="http://www.w3.org/2000/svg" id="svg12" width="32" height="32" version="1">
 <g id="22-22-klipper" transform="translate(32,10)">
  <rect id="rect23-7" style="opacity:0.001" width="22" height="22" x="0" y="0"/>
  <path id="path872" style="opacity:1;fill:#eff0f1" d="M 10,2 C 9.446,2 9,2.446 9,3 H 8 C 7.446,3 7,3.446 7,4 H 6 C 4.892,4 4,4.892 4,6 v 10 c 0,1.108 0.9135166,1.782703 2,2 h 5 4 c 1.108,0 2,-0.892 2,-2 V 6 C 17,4.892 16.108,4 15,4 H 14 C 14,3.446 13.554,3 13,3 H 12 C 12,2.446 11.554,2 11,2 Z m 0,1 h 1 V 4 H 10 Z M 6,5 h 1 c 0,0.554 0.446,1 1,1 h 5 c 0.554,0 1,-0.446 1,-1 h 1 c 0.571297,0 1,0.428703 1,1 v 10 c 0,0.571297 -0.445761,0.86144 -1,1 H 11 6 C 5.428703,17 5,16.571297 5,16 V 6 C 5,5.428703 5.428703,5 6,5 Z M 6.5,7 C 5.8238387,6.99044 5.8238387,8.0095626 6.5,8 h 6 c 0.676161,0.00956 0.676161,-1.0095626 0,-1 z m 0,2 c -0.6761613,-0.00956 -0.6761613,1.009563 0,1 h 3 c 0.676161,0.0096 0.676161,-1.0095626 0,-1 z m 0,2 c -0.6761613,-0.0096 -0.6761613,1.009563 0,1 h 5 c 0.676161,0.0096 0.676161,-1.009563 0,-1 z m 0,2 c -0.6761613,-0.0096 -0.6761613,1.009563 0,1 h 2 c 0.676161,0.0096 0.676161,-1.009563 0,-1 z"/>
 </g>
 <g id="klipper">
  <rect id="rect817" style="opacity:0.001" width="32" height="32" x="0" y="0"/>
  <path id="path827" style="opacity:1;fill:#eff0f1" d="M 15.300781 4 C 14.580581 4 14 4.5805813 14 5.3007812 L 14 6 L 12.300781 6 C 11.580581 6 11 6.5805813 11 7.3007812 L 11 8 L 10 8 C 8.338 8 7 9.338 7 11 L 7 25 C 7 26.662 8.338 28 10 28 L 23 28 C 24.662 28 26 26.662 26 25 L 26 11 C 26 9.338 24.662 8 23 8 L 22 8 L 22 7.3007812 C 22 6.5805814 21.419419 6 20.699219 6 L 19.699219 6 L 19 6 L 19 5.3007812 C 19 4.5805814 18.419419 4 17.699219 4 L 15.300781 4 z M 16 5 L 17 5 L 17 6 L 16 6 L 16 5 z M 10 9 L 11 9 L 11 9.6992188 C 11 10.419419 11.580581 11 12.300781 11 L 20.699219 11 C 21.419419 11 22 10.419419 22 9.6992188 L 22 9 L 23 9 C 24.125297 9 25 9.8747028 25 11 L 25 25 C 25 26.125297 24.125297 27 23 27 L 10 27 C 8.8747028 27 8 26.125297 8 25 L 8 11 C 8 9.8747028 8.8747028 9 10 9 z M 10.5 13 C 9.8238387 12.9904 9.8238387 14.009563 10.5 14 L 19.5 14 C 20.176161 14.0096 20.176161 12.990437 19.5 13 L 10.5 13 z M 10.5 16 C 9.8238387 15.9904 9.8238387 17.009563 10.5 17 L 15.5 17 C 16.176161 17.0096 16.176161 15.990437 15.5 16 L 10.5 16 z M 10.5 19 C 9.8238387 18.9904 9.8238387 20.009563 10.5 20 L 17.5 20 C 18.176161 20.0096 18.176161 18.990437 17.5 19 L 10.5 19 z M 10.5 22 C 9.8238387 21.9904 9.8238387 23.009563 10.5 23 L 13.5 23 C 14.176161 23.0096 14.176161 21.990437 13.5 22 L 10.5 22 z"/>
 </g>
</svg>
