<svg xmlns="http://www.w3.org/2000/svg" id="svg3869" width="32" height="32" version="1.1">
 <g id="22-22-konv_message" transform="translate(32,10)">
  <rect id="rect4170" style="opacity:0.001" width="22" height="22" x="0" y="0"/>
  <path id="rect842" style="opacity:1;fill:#3daee9" d="M 18.083984,4 A 0.88841875,0.89722402 0 0 0 17.849609,4.039063 L 6.6269531,7.5273438 A 0.88841875,0.89722402 0 0 0 6,8.3828125 v 5.2304685 a 0.88841875,0.89722402 0 0 0 0.6269531,0.859375 L 17.849609,17.958984 A 0.88841875,0.89722402 0 0 0 19,17.101562 V 8.3828125 4.8964844 A 0.88841875,0.89722402 0 0 0 18.083984,4 Z M 18,5.0390625 V 8.3847656 16.960938 L 7,13.541016 V 8.4589844 Z M 4,8 C 3.446,8 3,8.446 3,9 v 4 c 0,0.554 0.446,1 1,1 0.554,0 1,-0.446 1,-1 V 9 C 5,8.446 4.554,8 4,8 Z m 2,7 c -0.554,0 -1,0.446 -1,1 v 1 c 0,0.554 0.446,1 1,1 0.554,0 1,-0.446 1,-1 V 16 C 7,15.446 6.554,15 6,15 Z"/>
 </g>
 <g id="konv_message">
  <rect id="rect817" style="opacity:0.001" width="32" height="32" x="0" y="0"/>
  <path id="path833" style="opacity:1;fill:#3daee9" d="m 26.589844,5 c -0.12191,0.00365 -0.242775,0.023361 -0.359375,0.058594 L 8.9648438,10.291016 C 8.3924855,10.464431 8.0014166,10.984537 8,11.574219 v 7.847656 c -0.0012,0.591847 0.3903846,1.115011 0.9648438,1.289063 L 26.230469,25.939453 C 27.109153,26.206248 27.999321,25.559746 28,24.654297 V 11.574219 6.3457031 C 28.000274,5.5854622 27.361499,4.9758833 26.589844,5 Z m 0.0293,1 h 0.002 C 26.849358,5.9930132 26.999931,6.1460375 27,6.3457031 v 5.2285159 13.080078 c 2.6e-5,0.250617 -0.209009,0.410022 -0.478516,0.328125 h -0.002 L 9.2539062,19.753906 C 9.0909842,19.704503 8.9996806,19.57339 9,19.423828 v -0.002 -7.84375 c 3.404e-4,-0.148958 0.091632,-0.280871 0.2539062,-0.330078 L 26.519531,6.015625 C 26.551905,6.0058457 26.58495,6.0009924 26.619141,6 Z M 5.984375,10.986328 C 5.4328588,10.994949 4.9924473,11.448468 5,12 v 7 c -0.019125,1.352323 2.0191252,1.352323 2,0 v -7 c 0.00772,-0.56377 -0.451871,-1.022477 -1.015625,-1.013672 z m 2,11 C 7.4328588,21.994949 6.9924473,22.448468 7,23 v 3 c -0.019125,1.352323 2.0191252,1.352323 2,0 v -3 c 0.00772,-0.56377 -0.451871,-1.022477 -1.015625,-1.013672 z"/>
 </g>
</svg>
