<svg xmlns="http://www.w3.org/2000/svg" id="svg4153" width="22" height="22" version="1.1">
 <g id="kopete">
  <path id="path864" style="opacity:1;fill:#eff0f1" d="M 3.8886719,4.0002047 C 3.3977719,4.000253 3.000049,4.3920172 3,4.8752047 v 0.5253906 2.5996094 2.3964843 0.603516 4.173828 c 4.9e-5,0.483187 0.3977719,0.824171 0.8886719,0.824219 H 6 v 1.125 c 2.18e-4,0.710991 0.81782,1.125181 1.40625,0.712891 L 9.6621094,15.998252 H 18.111328 C 18.602228,15.998204 18.999951,15.65722 19,15.174033 V 10.396689 5.4005953 4.8752047 c -4.9e-5,-0.4831875 -0.397772,-0.8749517 -0.888672,-0.875 H 10 9 Z M 4,5.0002047 H 4.9316406 9 10 17.068359 18 v 5.8925783 4.105469 0.002 H 9.6503906 c -0.225568,0.0029 -0.4440346,0.08007 -0.6191406,0.222656 L 7,16.877158 V 15.998252 C 6.999945,15.449509 6.5572446,15.005805 6.0097656,15.000205 H 4 v -0.002 -3.998047 -0.107422 -2.0781252 -0.8144531 z m 9.486328,0.9960938 a 0.50005,0.50005 0 0 0 -0.21289,0.9492187 c 0,0 1.726562,0.843988 1.726562,3.0546878 0,2.2107 -1.726563,3.054687 -1.726562,3.054688 a 0.50005,0.50005 0 1 0 0.453124,0.890624 c 0,0 2.273438,-1.196884 2.273438,-3.945312 C 16,7.2517762 13.726563,6.0548922 13.726562,6.0548922 A 0.50005,0.50005 0 0 0 13.486328,5.9962985 Z M 6.5,6.0002047 c -0.277,0 -0.5,0.223 -0.5,0.5 v 1 c 0,0.277 0.223,0.5 0.5,0.5 h 1 c 0.277,0 0.5,-0.223 0.5,-0.5 v -1 c 0,-0.277 -0.223,-0.5 -0.5,-0.5 z m 3,3 c -0.277,0 -0.5,0.223 -0.5,0.5 v 1.0000003 c 0,0.277 0.223,0.5 0.5,0.5 h 3 c 0.277,0 0.5,-0.223 0.5,-0.5 V 9.5002047 c 0,-0.277 -0.223,-0.5 -0.5,-0.5 z m -3,3.0000003 c -0.277,0 -0.5,0.223 -0.5,0.5 v 1 c 0,0.277 0.223,0.5 0.5,0.5 h 1 c 0.277,0 0.5,-0.223 0.5,-0.5 v -1 c 0,-0.277 -0.223,-0.5 -0.5,-0.5 z"/>
  <rect id="rect869" style="opacity:0.001" width="22" height="22" x="0" y="0"/>
 </g>
</svg>
