<svg xmlns="http://www.w3.org/2000/svg" id="svg4153" width="22" height="22" version="1.1">
 <g id="kteatime">
  <rect id="rect3825" style="opacity:0.001" width="22" height="22" x="0" y="0"/>
  <path id="path837" style="opacity:1;fill:#eff0f1" d="M 10.5 2 C 10.223858 2 10 2.2238576 10 2.5 L 10 3.5 C 10 3.7761424 10.223858 4 10.5 4 C 10.776142 4 11 3.7761424 11 3.5 L 11 2.5 C 11 2.2238576 10.776142 2 10.5 2 z M 7.5 3 C 7.2238576 3 7 3.2238576 7 3.5 C 7 3.7761424 7.2238576 4 7.5 4 C 7.7761424 4 8 3.7761424 8 3.5 C 8 3.2238576 7.7761424 3 7.5 3 z M 13.5 3 C 13.223858 3 13 3.2238576 13 3.5 C 13 3.7761424 13.223858 4 13.5 4 C 13.776142 4 14 3.7761424 14 3.5 C 14 3.2238576 13.776142 3 13.5 3 z M 7 5 C 5.892 5 5 5.892 5 7 L 5 15 C 5 16.108 5.892 17 7 17 L 15 17 C 16.108 17 17 16.108 17 15 L 17 13.958984 A 3.5 3.5 0 0 0 20 10.5 A 3.5 3.5 0 0 0 17 7.0390625 L 17 7 C 17 5.892 16.108 5 15 5 L 7 5 z M 7 6 L 9 6 L 9 9 L 8.5 9 C 8.223 9 8 9.223 8 9.5 L 8 12.5 C 8 12.777 8.223 13 8.5 13 L 10.5 13 C 10.777 13 11 12.777 11 12.5 L 11 9.5 C 11 9.223 10.777 9 10.5 9 L 10 9 L 10 6 L 15 6 C 15.571297 6 16 6.4287028 16 7 L 16 15 C 16 15.571297 15.571297 16 15 16 L 7 16 C 6.4287028 16 6 15.571297 6 15 L 6 7 C 6 6.4287028 6.4287028 6 7 6 z M 17 8.0507812 A 2.5 2.5 0 0 1 19 10.5 A 2.5 2.5 0 0 1 17 12.945312 L 17 8.0507812 z M 3.5 18 C 3.2238576 18 3 18.223858 3 18.5 C 3 18.776142 3.2238576 19 3.5 19 L 18.5 19 C 18.776142 19 19 18.776142 19 18.5 C 19 18.223858 18.776142 18 18.5 18 L 3.5 18 z"/>
 </g>
</svg>
