<svg xmlns="http://www.w3.org/2000/svg" id="svg7" width="22" height="22" version="1">
 <g id="kup">
  <rect id="rect820" style="opacity:0.001" width="22" height="22" x="0" y="0"/>
  <path id="path828" style="opacity:1;fill:#eff0f1" d="M 18.496094 2.9921875 A 0.50005 0.50005 0 0 0 18.146484 3.1464844 L 15.578125 5.7148438 A 7 7 0 0 0 11 4 A 7 7 0 0 0 6.4199219 5.7128906 L 3.8535156 3.1464844 A 0.50005 0.50005 0 0 0 3.4941406 2.9941406 A 0.50005 0.50005 0 0 0 3.1464844 3.8535156 L 5.7148438 6.421875 A 7 7 0 0 0 4 11 A 7 7 0 0 0 5.7128906 15.580078 L 3.1464844 18.146484 A 0.50005 0.50005 0 1 0 3.8535156 18.853516 L 6.421875 16.285156 A 7 7 0 0 0 11 18 A 7 7 0 0 0 15.580078 16.287109 L 18.146484 18.853516 A 0.50005 0.50005 0 1 0 18.853516 18.146484 L 16.285156 15.578125 A 7 7 0 0 0 18 11 A 7 7 0 0 0 16.287109 6.4199219 L 18.853516 3.8535156 A 0.50005 0.50005 0 0 0 18.496094 2.9921875 z M 11 5 A 6 6 0 0 1 14.875 6.4179688 L 11 10.292969 L 7.1308594 6.4238281 A 6 6 0 0 1 11 5 z M 6.4179688 7.125 L 10.292969 11 L 6.4238281 14.869141 A 6 6 0 0 1 5 11 A 6 6 0 0 1 6.4179688 7.125 z M 15.576172 7.1308594 A 6 6 0 0 1 17 11 A 6 6 0 0 1 15.582031 14.875 L 11.707031 11 L 15.576172 7.1308594 z M 11 11.707031 L 14.869141 15.576172 A 6 6 0 0 1 11 17 A 6 6 0 0 1 7.125 15.582031 L 11 11.707031 z"/>
 </g>
</svg>
