<svg xmlns="http://www.w3.org/2000/svg" id="svg175" version="1.1" viewBox="0 0 22 22">
 <g id="media-playback-start">
  <path id="path988" style="opacity:0.001" d="M 0,0 H 22 V 22 H 0 Z"/>
  <path id="path990" style="opacity:1;fill:#eff0f1" d="m 11,3 a 8,8 0 0 0 -8,8 8,8 0 0 0 8,8 8,8 0 0 0 8,-8 8,8 0 0 0 -8,-8 z m 0,1 a 7,7 0 0 1 7,7 7,7 0 0 1 -7,7 7,7 0 0 1 -7,-7 7,7 0 0 1 7,-7 z M 9.8027344,8 A 0.83348795,1.000244 0 0 0 9,9 v 4 a 0.83348795,1.000244 0 0 0 1.205078,0.894531 l 3.333984,-2 a 0.83348795,1.000244 0 0 0 0,-1.789062 L 10.205078,8.1054688 A 0.83348795,1.000244 0 0 0 9.8027344,8 Z"/>
 </g>
 <g id="media-playback-stop" transform="translate(44)">
  <path id="path998" style="opacity:0.001" d="M 0,0 H 22 V 22 H 0 Z"/>
  <path id="path1000" style="opacity:1;fill:#eff0f1" d="m 11,3 a 8,8 0 0 0 -8,8 8,8 0 0 0 8,8 8,8 0 0 0 8,-8 8,8 0 0 0 -8,-8 z m 0,1 a 7,7 0 0 1 7,7 7,7 0 0 1 -7,7 7,7 0 0 1 -7,-7 7,7 0 0 1 7,-7 z M 9.5,8 C 8.669,8 8,8.669 8,9.5 v 3 C 8,13.331 8.669,14 9.5,14 h 3 c 0.831,0 1.5,-0.669 1.5,-1.5 v -3 C 14,8.669 13.331,8 12.5,8 Z"/>
 </g>
 <g id="media-playback-pause" transform="translate(22)">
  <path id="path1008" style="opacity:0.001" d="M 0,0 H 22 V 22 H 0 Z"/>
  <path id="path1014" style="opacity:1;fill:#eff0f1" d="m 11,3 a 8,8 0 0 0 -8,8 8,8 0 0 0 8,8 8,8 0 0 0 8,-8 8,8 0 0 0 -8,-8 z m 0,1 a 7,7 0 0 1 7,7 7,7 0 0 1 -7,7 7,7 0 0 1 -7,-7 7,7 0 0 1 7,-7 z M 8.984375,7.9863281 A 1.0001,1.0001 0 0 0 8,9 v 4 a 1.0001,1.0001 0 1 0 2,0 V 9 A 1.0001,1.0001 0 0 0 8.984375,7.9863281 Z m 4,0 A 1.0001,1.0001 0 0 0 12,9 v 4 a 1.0001,1.0001 0 1 0 2,0 V 9 A 1.0001,1.0001 0 0 0 12.984375,7.9863281 Z"/>
 </g>
 <g id="media-skip-forward" transform="translate(88)">
  <path id="path1093" style="opacity:0.001" d="M 0,0 H 22 V 22 H 0 Z"/>
  <path id="path1107" style="opacity:1;fill:#eff0f1" d="m 11,3 a 8,8 0 0 0 -8,8 8,8 0 0 0 8,8 8,8 0 0 0 8,-8 8,8 0 0 0 -8,-8 z m 0,1 a 7,7 0 0 1 7,7 7,7 0 0 1 -7,7 7,7 0 0 1 -7,-7 7,7 0 0 1 7,-7 z m 1.984375,3.9863281 A 1.0001,1.0001 0 0 0 12,9 V 11.007812 13 a 1.0001,1.0001 0 1 0 2,0 V 9 A 1.0001,1.0001 0 0 0 12.984375,7.9863281 Z M 12,11.007812 A 0.83348795,1.000244 0 0 0 11.539062,10.105469 L 8.2050781,8.1054688 A 0.83348795,1.000244 0 0 0 7.8027344,8 0.83348795,1.000244 0 0 0 7,9 v 4 a 0.83348795,1.000244 0 0 0 1.2050781,0.894531 l 3.3339839,-2 A 0.83348795,1.000244 0 0 0 12,11.007812 Z"/>
 </g>
 <g id="media-skip-backward" transform="matrix(-1,0,0,1,88,0)">
  <path id="path1118" style="opacity:0.001" d="M 0,0 H 22 V 22 H 0 Z"/>
  <path id="path1120" style="opacity:1;fill:#eff0f1" d="m 11,3 a 8,8 0 0 0 -8,8 8,8 0 0 0 8,8 8,8 0 0 0 8,-8 8,8 0 0 0 -8,-8 z m 0,1 a 7,7 0 0 1 7,7 7,7 0 0 1 -7,7 7,7 0 0 1 -7,-7 7,7 0 0 1 7,-7 z m 1.984375,3.9863281 A 1.0001,1.0001 0 0 0 12,9 V 11.007812 13 a 1.0001,1.0001 0 1 0 2,0 V 9 A 1.0001,1.0001 0 0 0 12.984375,7.9863281 Z M 12,11.007812 A 0.83348795,1.000244 0 0 0 11.539062,10.105469 L 8.2050781,8.1054688 A 0.83348795,1.000244 0 0 0 7.8027344,8 0.83348795,1.000244 0 0 0 7,9 v 4 a 0.83348795,1.000244 0 0 0 1.2050781,0.894531 l 3.3339839,-2 A 0.83348795,1.000244 0 0 0 12,11.007812 Z"/>
 </g>
 <g id="media-seek-forward" transform="translate(132)">
  <path id="path1124" style="opacity:0.001" d="M 0,0 H 22 V 22 H 0 Z"/>
  <path id="path1136" style="opacity:1;fill:#eff0f1" d="m 11,3 a 8,8 0 0 0 -8,8 8,8 0 0 0 8,8 8,8 0 0 0 8,-8 8,8 0 0 0 -8,-8 z m 0,1 a 7,7 0 0 1 7,7 7,7 0 0 1 -7,7 7,7 0 0 1 -7,-7 7,7 0 0 1 7,-7 z M 6.8027344,8 A 0.83348795,1.000244 0 0 0 6,9 v 4 a 0.83348795,1.000244 0 0 0 1.2050781,0.894531 l 3.3339839,-2 A 0.83348795,1.000244 0 0 0 11,11.007812 0.83348795,1.000244 0 0 0 10.539062,10.105469 L 7.2050781,8.1054688 A 0.83348795,1.000244 0 0 0 6.8027344,8 Z M 11,11.007812 V 13 a 0.83348795,1.000244 0 0 0 1.205078,0.894531 l 3.333984,-2 a 0.83348795,1.000244 0 0 0 0,-1.789062 L 12.205078,8.1054688 A 0.83348795,1.000244 0 0 0 11.802734,8 0.83348795,1.000244 0 0 0 11,9 Z"/>
 </g>
 <g id="media-seek-backward" transform="matrix(-1,0,0,1,132,0)">
  <path id="path1148" style="opacity:0.001" d="M 0,0 H 22 V 22 H 0 Z"/>
  <path id="path1150" style="opacity:1;fill:#eff0f1" d="m 11,3 a 8,8 0 0 0 -8,8 8,8 0 0 0 8,8 8,8 0 0 0 8,-8 8,8 0 0 0 -8,-8 z m 0,1 a 7,7 0 0 1 7,7 7,7 0 0 1 -7,7 7,7 0 0 1 -7,-7 7,7 0 0 1 7,-7 z M 6.8027344,8 A 0.83348795,1.000244 0 0 0 6,9 v 4 a 0.83348795,1.000244 0 0 0 1.2050781,0.894531 l 3.3339839,-2 A 0.83348795,1.000244 0 0 0 11,11.007812 0.83348795,1.000244 0 0 0 10.539062,10.105469 L 7.2050781,8.1054688 A 0.83348795,1.000244 0 0 0 6.8027344,8 Z M 11,11.007812 V 13 a 0.83348795,1.000244 0 0 0 1.205078,0.894531 l 3.333984,-2 a 0.83348795,1.000244 0 0 0 0,-1.789062 L 12.205078,8.1054688 A 0.83348795,1.000244 0 0 0 11.802734,8 0.83348795,1.000244 0 0 0 11,9 Z"/>
 </g>
 <g id="media-eject" transform="translate(154)">
  <path id="path1154" style="opacity:0.001" d="M 0,0 H 22 V 22 H 0 Z"/>
  <path id="path1166" style="opacity:1;fill:#eff0f1" d="m 11,3 a 8,8 0 0 0 -8,8 8,8 0 0 0 8,8 8,8 0 0 0 8,-8 8,8 0 0 0 -8,-8 z m 0,1 a 7,7 0 0 1 7,7 7,7 0 0 1 -7,7 7,7 0 0 1 -7,-7 7,7 0 0 1 7,-7 z m 0.0078,3 A 1.000244,0.83348795 0 0 0 10.105469,7.4609375 L 8.1054688,10.794922 A 1.000244,0.83348795 0 0 0 8,11.197266 1.000244,0.83348795 0 0 0 9,12 h 4 a 1.000244,0.83348795 0 0 0 0.894531,-1.205078 l -2,-3.3339845 A 1.000244,0.83348795 0 0 0 11.007812,7 Z M 9,13 a 1.0001,1.0001 0 1 0 0,2 h 4 a 1.0001,1.0001 0 1 0 0,-2 z"/>
 </g>
 <g id="media-record" transform="translate(176)">
  <path id="path1179" style="opacity:0.001" d="M 0,0 H 22 V 22 H 0 Z"/>
  <path id="path1191" style="opacity:1;fill:#da4453" d="m 11,3 a 8,8 0 0 0 -8,8 8,8 0 0 0 8,8 8,8 0 0 0 8,-8 8,8 0 0 0 -8,-8 z m 0,1 a 7,7 0 0 1 7,7 7,7 0 0 1 -7,7 7,7 0 0 1 -7,-7 7,7 0 0 1 7,-7 z m 0,4 a 3,3 0 0 0 -3,3 3,3 0 0 0 3,3 3,3 0 0 0 3,-3 3,3 0 0 0 -3,-3 z"/>
 </g>
 <g id="media-playback-playing" transform="translate(0,-22)">
  <path id="path1201" style="opacity:0.001" d="M 0,0 H 22 V 22 H 0 Z"/>
  <path id="path1203" style="opacity:1;fill:#eff0f1" d="m 11,3 a 8,8 0 0 0 -8,8 8,8 0 0 0 8,8 8,8 0 0 0 8,-8 8,8 0 0 0 -8,-8 z m 0,1 a 7,7 0 0 1 7,7 7,7 0 0 1 -7,7 7,7 0 0 1 -7,-7 7,7 0 0 1 7,-7 z M 9.8027344,8 A 0.83348795,1.000244 0 0 0 9,9 v 4 a 0.83348795,1.000244 0 0 0 1.205078,0.894531 l 3.333984,-2 a 0.83348795,1.000244 0 0 0 0,-1.789062 L 10.205078,8.1054688 A 0.83348795,1.000244 0 0 0 9.8027344,8 Z"/>
 </g>
 <g id="media-playback-stopped" transform="translate(44,-22)">
  <path id="path1207" style="opacity:0.001" d="M 0,0 H 22 V 22 H 0 Z"/>
  <path id="path1209" style="opacity:1;fill:#eff0f1" d="m 11,3 a 8,8 0 0 0 -8,8 8,8 0 0 0 8,8 8,8 0 0 0 8,-8 8,8 0 0 0 -8,-8 z m 0,1 a 7,7 0 0 1 7,7 7,7 0 0 1 -7,7 7,7 0 0 1 -7,-7 7,7 0 0 1 7,-7 z M 9.5,8 C 8.669,8 8,8.669 8,9.5 v 3 C 8,13.331 8.669,14 9.5,14 h 3 c 0.831,0 1.5,-0.669 1.5,-1.5 v -3 C 14,8.669 13.331,8 12.5,8 Z"/>
 </g>
 <g id="media-playback-paused" transform="translate(22,-22)">
  <path id="path1213" style="opacity:0.001" d="M 0,0 H 22 V 22 H 0 Z"/>
  <path id="path1215" style="opacity:1;fill:#eff0f1" d="m 11,3 a 8,8 0 0 0 -8,8 8,8 0 0 0 8,8 8,8 0 0 0 8,-8 8,8 0 0 0 -8,-8 z m 0,1 a 7,7 0 0 1 7,7 7,7 0 0 1 -7,7 7,7 0 0 1 -7,-7 7,7 0 0 1 7,-7 z M 8.984375,7.9863281 A 1.0001,1.0001 0 0 0 8,9 v 4 a 1.0001,1.0001 0 1 0 2,0 V 9 A 1.0001,1.0001 0 0 0 8.984375,7.9863281 Z m 4,0 A 1.0001,1.0001 0 0 0 12,9 v 4 a 1.0001,1.0001 0 1 0 2,0 V 9 A 1.0001,1.0001 0 0 0 12.984375,7.9863281 Z"/>
 </g>
</svg>
