<svg xmlns="http://www.w3.org/2000/svg" id="svg175" width="32" height="32" version="1.1">
 <g id="22-22-media-playback-start" transform="translate(0,-22)">
  <path id="path988" style="opacity:0.001" d="M 0,0 H 22 V 22 H 0 Z"/>
  <path id="path990" style="opacity:1;fill:#eff0f1" d="m 11,3 a 8,8 0 0 0 -8,8 8,8 0 0 0 8,8 8,8 0 0 0 8,-8 8,8 0 0 0 -8,-8 z m 0,1 a 7,7 0 0 1 7,7 7,7 0 0 1 -7,7 7,7 0 0 1 -7,-7 7,7 0 0 1 7,-7 z M 9.8027344,8 A 0.83348795,1.000244 0 0 0 9,9 v 4 a 0.83348795,1.000244 0 0 0 1.205078,0.894531 l 3.333984,-2 a 0.83348795,1.000244 0 0 0 0,-1.789062 L 10.205078,8.1054688 A 0.83348795,1.000244 0 0 0 9.8027344,8 Z"/>
 </g>
 <g id="22-22-media-playback-stop" transform="translate(64.000002,-22)">
  <path id="path998" style="opacity:0.001" d="M 0,0 H 22 V 22 H 0 Z"/>
  <path id="path1000" style="opacity:1;fill:#eff0f1" d="m 11,3 a 8,8 0 0 0 -8,8 8,8 0 0 0 8,8 8,8 0 0 0 8,-8 8,8 0 0 0 -8,-8 z m 0,1 a 7,7 0 0 1 7,7 7,7 0 0 1 -7,7 7,7 0 0 1 -7,-7 7,7 0 0 1 7,-7 z M 9.5,8 C 8.669,8 8,8.669 8,9.5 v 3 C 8,13.331 8.669,14 9.5,14 h 3 c 0.831,0 1.5,-0.669 1.5,-1.5 v -3 C 14,8.669 13.331,8 12.5,8 Z"/>
 </g>
 <g id="22-22-media-playback-pause" transform="translate(32.000001,-22)">
  <path id="path1008" style="opacity:0.001" d="M 0,0 H 22 V 22 H 0 Z"/>
  <path id="path1014" style="opacity:1;fill:#eff0f1" d="m 11,3 a 8,8 0 0 0 -8,8 8,8 0 0 0 8,8 8,8 0 0 0 8,-8 8,8 0 0 0 -8,-8 z m 0,1 a 7,7 0 0 1 7,7 7,7 0 0 1 -7,7 7,7 0 0 1 -7,-7 7,7 0 0 1 7,-7 z M 8.984375,7.9863281 A 1.0001,1.0001 0 0 0 8,9 v 4 a 1.0001,1.0001 0 1 0 2,0 V 9 A 1.0001,1.0001 0 0 0 8.984375,7.9863281 Z m 4,0 A 1.0001,1.0001 0 0 0 12,9 v 4 a 1.0001,1.0001 0 1 0 2,0 V 9 A 1.0001,1.0001 0 0 0 12.984375,7.9863281 Z"/>
 </g>
 <g id="22-22-media-skip-forward" transform="translate(128,-22)">
  <path id="path1093" style="opacity:0.001" d="M 0,0 H 22 V 22 H 0 Z"/>
  <path id="path1107" style="opacity:1;fill:#eff0f1" d="m 11,3 a 8,8 0 0 0 -8,8 8,8 0 0 0 8,8 8,8 0 0 0 8,-8 8,8 0 0 0 -8,-8 z m 0,1 a 7,7 0 0 1 7,7 7,7 0 0 1 -7,7 7,7 0 0 1 -7,-7 7,7 0 0 1 7,-7 z m 1.984375,3.9863281 A 1.0001,1.0001 0 0 0 12,9 V 11.007812 13 a 1.0001,1.0001 0 1 0 2,0 V 9 A 1.0001,1.0001 0 0 0 12.984375,7.9863281 Z M 12,11.007812 A 0.83348795,1.000244 0 0 0 11.539062,10.105469 L 8.2050781,8.1054688 A 0.83348795,1.000244 0 0 0 7.8027344,8 0.83348795,1.000244 0 0 0 7,9 v 4 a 0.83348795,1.000244 0 0 0 1.2050781,0.894531 l 3.3339839,-2 A 0.83348795,1.000244 0 0 0 12,11.007812 Z"/>
 </g>
 <g id="22-22-media-skip-backward" transform="matrix(-1,0,0,1,118,-22)">
  <path id="path1118" style="opacity:0.001" d="M 0,0 H 22 V 22 H 0 Z"/>
  <path id="path1120" style="opacity:1;fill:#eff0f1" d="m 11,3 a 8,8 0 0 0 -8,8 8,8 0 0 0 8,8 8,8 0 0 0 8,-8 8,8 0 0 0 -8,-8 z m 0,1 a 7,7 0 0 1 7,7 7,7 0 0 1 -7,7 7,7 0 0 1 -7,-7 7,7 0 0 1 7,-7 z m 1.984375,3.9863281 A 1.0001,1.0001 0 0 0 12,9 V 11.007812 13 a 1.0001,1.0001 0 1 0 2,0 V 9 A 1.0001,1.0001 0 0 0 12.984375,7.9863281 Z M 12,11.007812 A 0.83348795,1.000244 0 0 0 11.539062,10.105469 L 8.2050781,8.1054688 A 0.83348795,1.000244 0 0 0 7.8027344,8 0.83348795,1.000244 0 0 0 7,9 v 4 a 0.83348795,1.000244 0 0 0 1.2050781,0.894531 l 3.3339839,-2 A 0.83348795,1.000244 0 0 0 12,11.007812 Z"/>
 </g>
 <g id="22-22-media-seek-forward" transform="translate(192,-22)">
  <path id="path1124" style="opacity:0.001" d="M 0,0 H 22 V 22 H 0 Z"/>
  <path id="path1136" style="opacity:1;fill:#eff0f1" d="m 11,3 a 8,8 0 0 0 -8,8 8,8 0 0 0 8,8 8,8 0 0 0 8,-8 8,8 0 0 0 -8,-8 z m 0,1 a 7,7 0 0 1 7,7 7,7 0 0 1 -7,7 7,7 0 0 1 -7,-7 7,7 0 0 1 7,-7 z M 6.8027344,8 A 0.83348795,1.000244 0 0 0 6,9 v 4 a 0.83348795,1.000244 0 0 0 1.2050781,0.894531 l 3.3339839,-2 A 0.83348795,1.000244 0 0 0 11,11.007812 0.83348795,1.000244 0 0 0 10.539062,10.105469 L 7.2050781,8.1054688 A 0.83348795,1.000244 0 0 0 6.8027344,8 Z M 11,11.007812 V 13 a 0.83348795,1.000244 0 0 0 1.205078,0.894531 l 3.333984,-2 a 0.83348795,1.000244 0 0 0 0,-1.789062 L 12.205078,8.1054688 A 0.83348795,1.000244 0 0 0 11.802734,8 0.83348795,1.000244 0 0 0 11,9 Z"/>
 </g>
 <g id="22-22-media-seek-backward" transform="matrix(-1,0,0,1,182,-22)">
  <path id="path1148" style="opacity:0.001" d="M 0,0 H 22 V 22 H 0 Z"/>
  <path id="path1150" style="opacity:1;fill:#eff0f1" d="m 11,3 a 8,8 0 0 0 -8,8 8,8 0 0 0 8,8 8,8 0 0 0 8,-8 8,8 0 0 0 -8,-8 z m 0,1 a 7,7 0 0 1 7,7 7,7 0 0 1 -7,7 7,7 0 0 1 -7,-7 7,7 0 0 1 7,-7 z M 6.8027344,8 A 0.83348795,1.000244 0 0 0 6,9 v 4 a 0.83348795,1.000244 0 0 0 1.2050781,0.894531 l 3.3339839,-2 A 0.83348795,1.000244 0 0 0 11,11.007812 0.83348795,1.000244 0 0 0 10.539062,10.105469 L 7.2050781,8.1054688 A 0.83348795,1.000244 0 0 0 6.8027344,8 Z M 11,11.007812 V 13 a 0.83348795,1.000244 0 0 0 1.205078,0.894531 l 3.333984,-2 a 0.83348795,1.000244 0 0 0 0,-1.789062 L 12.205078,8.1054688 A 0.83348795,1.000244 0 0 0 11.802734,8 0.83348795,1.000244 0 0 0 11,9 Z"/>
 </g>
 <g id="22-22-media-eject" transform="translate(224,-22)">
  <path id="path1154" style="opacity:0.001" d="M 0,0 H 22 V 22 H 0 Z"/>
  <path id="path1166" style="opacity:1;fill:#eff0f1" d="m 11,3 a 8,8 0 0 0 -8,8 8,8 0 0 0 8,8 8,8 0 0 0 8,-8 8,8 0 0 0 -8,-8 z m 0,1 a 7,7 0 0 1 7,7 7,7 0 0 1 -7,7 7,7 0 0 1 -7,-7 7,7 0 0 1 7,-7 z m 0.0078,3 A 1.000244,0.83348795 0 0 0 10.105469,7.4609375 L 8.1054688,10.794922 A 1.000244,0.83348795 0 0 0 8,11.197266 1.000244,0.83348795 0 0 0 9,12 h 4 a 1.000244,0.83348795 0 0 0 0.894531,-1.205078 l -2,-3.3339845 A 1.000244,0.83348795 0 0 0 11.007812,7 Z M 9,13 a 1.0001,1.0001 0 1 0 0,2 h 4 a 1.0001,1.0001 0 1 0 0,-2 z"/>
 </g>
 <g id="22-22-media-record" transform="translate(256,-22)">
  <path id="path1179" style="opacity:0.001" d="M 0,0 H 22 V 22 H 0 Z"/>
  <path id="path1191" style="opacity:1;fill:#da4453" d="m 11,3 a 8,8 0 0 0 -8,8 8,8 0 0 0 8,8 8,8 0 0 0 8,-8 8,8 0 0 0 -8,-8 z m 0,1 a 7,7 0 0 1 7,7 7,7 0 0 1 -7,7 7,7 0 0 1 -7,-7 7,7 0 0 1 7,-7 z m 0,4 a 3,3 0 0 0 -3,3 3,3 0 0 0 3,3 3,3 0 0 0 3,-3 3,3 0 0 0 -3,-3 z"/>
 </g>
 <g id="22-22-media-playback-playing" transform="translate(0,64.000002)">
  <path id="path1201" style="opacity:0.001" d="M 0,0 H 22 V 22 H 0 Z"/>
  <path id="path1203" style="opacity:1;fill:#eff0f1" d="m 11,3 a 8,8 0 0 0 -8,8 8,8 0 0 0 8,8 8,8 0 0 0 8,-8 8,8 0 0 0 -8,-8 z m 0,1 a 7,7 0 0 1 7,7 7,7 0 0 1 -7,7 7,7 0 0 1 -7,-7 7,7 0 0 1 7,-7 z M 9.8027344,8 A 0.83348795,1.000244 0 0 0 9,9 v 4 a 0.83348795,1.000244 0 0 0 1.205078,0.894531 l 3.333984,-2 a 0.83348795,1.000244 0 0 0 0,-1.789062 L 10.205078,8.1054688 A 0.83348795,1.000244 0 0 0 9.8027344,8 Z"/>
 </g>
 <g id="22-22-media-playback-stopped" transform="translate(64.000002,64.000002)">
  <path id="path1207" style="opacity:0.001" d="M 0,0 H 22 V 22 H 0 Z"/>
  <path id="path1209" style="opacity:1;fill:#eff0f1" d="m 11,3 a 8,8 0 0 0 -8,8 8,8 0 0 0 8,8 8,8 0 0 0 8,-8 8,8 0 0 0 -8,-8 z m 0,1 a 7,7 0 0 1 7,7 7,7 0 0 1 -7,7 7,7 0 0 1 -7,-7 7,7 0 0 1 7,-7 z M 9.5,8 C 8.669,8 8,8.669 8,9.5 v 3 C 8,13.331 8.669,14 9.5,14 h 3 c 0.831,0 1.5,-0.669 1.5,-1.5 v -3 C 14,8.669 13.331,8 12.5,8 Z"/>
 </g>
 <g id="22-22-media-playback-paused" transform="translate(32.000001,64.000002)">
  <path id="path1213" style="opacity:0.001" d="M 0,0 H 22 V 22 H 0 Z"/>
  <path id="path1215" style="opacity:1;fill:#eff0f1" d="m 11,3 a 8,8 0 0 0 -8,8 8,8 0 0 0 8,8 8,8 0 0 0 8,-8 8,8 0 0 0 -8,-8 z m 0,1 a 7,7 0 0 1 7,7 7,7 0 0 1 -7,7 7,7 0 0 1 -7,-7 7,7 0 0 1 7,-7 z M 8.984375,7.9863281 A 1.0001,1.0001 0 0 0 8,9 v 4 a 1.0001,1.0001 0 1 0 2,0 V 9 A 1.0001,1.0001 0 0 0 8.984375,7.9863281 Z m 4,0 A 1.0001,1.0001 0 0 0 12,9 v 4 a 1.0001,1.0001 0 1 0 2,0 V 9 A 1.0001,1.0001 0 0 0 12.984375,7.9863281 Z"/>
 </g>
 <g id="media-playback-start">
  <path id="path850" style="opacity:0.001" d="M 0,0 H 32.000001 V 32.000001 H 0 Z"/>
  <path id="path862" style="opacity:1;fill:#eff0f1" d="M 16,4 A 12,12 0 0 0 4,16 12,12 0 0 0 16,28 12,12 0 0 0 28,16 12,12 0 0 0 16,4 Z m 0,1 A 11.000001,11.000001 0 0 1 27,16 11.000001,11.000001 0 0 1 16,27 11.000001,11.000001 0 0 1 5,16 11.000001,11.000001 0 0 1 16,5 Z m -1.714844,6.001953 A 1.3336839,1.6670637 0 0 0 13,12.667969 v 6.666015 a 1.3336839,1.6670637 0 0 0 1.927734,1.490235 l 5.335938,-3.332031 a 1.3336839,1.6670637 0 0 0 0,-2.982422 l -5.335938,-3.332032 a 1.3336839,1.6670637 0 0 0 -0.642578,-0.175781 z"/>
 </g>
 <g id="media-playback-pause" transform="translate(32.000001)">
  <path id="path870" style="opacity:0.001" d="M 0,0 H 32.000001 V 32.000001 H 0 Z"/>
  <path id="path884" style="opacity:1;fill:#eff0f1" d="M 16,4 A 12,12 0 0 0 4,16 12,12 0 0 0 16,28 12,12 0 0 0 28,16 12,12 0 0 0 16,4 Z m 0,1 A 11.000001,11.000001 0 0 1 27,16 11.000001,11.000001 0 0 1 16,27 11.000001,11.000001 0 0 1 5,16 11.000001,11.000001 0 0 1 16,5 Z m -3.015625,5.986328 A 1.0001,1.0001 0 0 0 12,12 v 8 a 1.0001,1.0001 0 1 0 2,0 v -8 a 1.0001,1.0001 0 0 0 -1.015625,-1.013672 z m 6,0 A 1.0001,1.0001 0 0 0 18,12 v 8 a 1.0001,1.0001 0 1 0 2,0 v -8 a 1.0001,1.0001 0 0 0 -1.015625,-1.013672 z"/>
 </g>
 <g id="media-playback-stop" transform="translate(64.000002)">
  <path id="path902" style="opacity:0.001" d="M 0,0 H 32.000001 V 32.000001 H 0 Z"/>
  <path id="path914" style="opacity:1;fill:#eff0f1" d="M 16,4 A 12,12 0 0 0 4,16 12,12 0 0 0 16,28 12,12 0 0 0 28,16 12,12 0 0 0 16,4 Z m 0,1 A 11.000001,11.000001 0 0 1 27,16 11.000001,11.000001 0 0 1 16,27 11.000001,11.000001 0 0 1 5,16 11.000001,11.000001 0 0 1 16,5 Z m -2.5,6 C 12.115001,11 11,12.115 11,13.5 v 5 c 0,1.384999 1.115001,2.5 2.5,2.5 h 5 c 1.385,0 2.5,-1.115001 2.5,-2.5 v -5 C 21,12.115 19.885,11 18.5,11 Z"/>
 </g>
 <g id="media-skip-backward" transform="translate(96.000004)">
  <path id="path922" style="opacity:0.001" d="M 32,-5e-7 H -1e-6 V 32 H 32 Z"/>
  <path id="path936" style="opacity:1;fill:#eff0f1" d="M 16,4 A 12,12 0 0 0 4,16 12,12 0 0 0 16,28 12,12 0 0 0 28,16 12,12 0 0 0 16,4 Z m 0,1 A 11,11 0 0 1 27,16 11,11 0 0 1 16,27 11,11 0 0 1 5,16 11,11 0 0 1 16,5 Z m -4.015625,5.986328 A 1.0001,1.0001 0 0 0 11,12 v 8 a 1.0001,1.0001 0 1 0 2,0 v -3.986328 a 1.333574,1.6670636 0 0 0 0.738281,1.478516 l 5.333985,3.332031 A 1.333574,1.6670636 0 0 0 21,19.333984 v -6.666015 a 1.333574,1.6670636 0 0 0 -1.285156,-1.666016 1.333574,1.6670636 0 0 0 -0.642578,0.175781 l -5.333985,3.332032 A 1.333574,1.6670636 0 0 0 13,15.988281 V 12 a 1.0001,1.0001 0 0 0 -1.015625,-1.013672 z"/>
 </g>
 <g id="media-seek-backward" transform="translate(160)">
  <path id="path949" style="opacity:0.001" d="M 32,-5e-7 H -1e-6 V 32 H 32 Z"/>
  <path id="path963" style="opacity:1;fill:#eff0f1" d="M 16,4 A 12,12 0 0 0 4,16 12,12 0 0 0 16,28 12,12 0 0 0 28,16 12,12 0 0 0 16,4 Z m 0,1 A 11,11 0 0 1 27,16 11,11 0 0 1 16,27 11,11 0 0 1 5,16 11,11 0 0 1 16,5 Z m -2.123047,6.001953 A 1.1669734,1.6670637 0 0 0 13.3125,11.177734 l -4.6679688,3.332032 a 1.1669734,1.6670637 0 0 0 0,2.982422 L 13.3125,20.824219 A 1.1669734,1.6670637 0 0 0 15,19.333984 V 16.013672 12.667969 A 1.1669734,1.6670637 0 0 0 13.876953,11.001953 Z M 15,16.013672 a 1.1668776,1.6670637 0 0 0 0.644531,1.478516 L 20.3125,20.824219 A 1.1668776,1.6670637 0 0 0 22,19.333984 V 12.667969 A 1.1668776,1.6670637 0 0 0 20.876953,11.001953 1.1668776,1.6670637 0 0 0 20.3125,11.177734 l -4.667969,3.332032 A 1.1668776,1.6670637 0 0 0 15,16.013672 Z"/>
 </g>
 <g id="media-eject" transform="translate(224)">
  <path id="path971" style="opacity:0.001" d="M 32,-5e-7 H -1e-6 V 32 H 32 Z"/>
  <path id="path983" style="opacity:1;fill:#eff0f1" d="M 16,4 A 12,12 0 0 0 4,16 12,12 0 0 0 16,28 12,12 0 0 0 28,16 12,12 0 0 0 16,4 Z m 0,1 A 11,11 0 0 1 27,16 11,11 0 0 1 16,27 11,11 0 0 1 5,16 11,11 0 0 1 16,5 Z m 0.01367,4 A 1.6670634,1.3335741 0 0 0 14.509766,9.7382812 L 11.177734,15.072266 A 1.6670634,1.3335741 0 0 0 11.001953,15.714844 1.6670634,1.3335741 0 0 0 12.667969,17 h 6.666015 a 1.6670634,1.3335741 0 0 0 1.490235,-1.927734 L 17.492188,9.7382812 A 1.6670634,1.3335741 0 0 0 16.013672,9 Z M 12,19 a 1.0001,1.0001 0 1 0 0,2 h 8 a 1.0001,1.0001 0 1 0 0,-2 z"/>
 </g>
 <g id="media-record" transform="translate(256)">
  <path id="path1018" style="opacity:0.001" d="M 0,0 H 32.000001 V 32.000001 H 0 Z"/>
  <path id="path1030" style="opacity:1;fill:#da4453" d="M 16,4 A 12,12 0 0 0 4,16 12,12 0 0 0 16,28 12,12 0 0 0 28,16 12,12 0 0 0 16,4 Z m 0,1 A 11.000001,11.000001 0 0 1 27,16 11.000001,11.000001 0 0 1 16,27 11.000001,11.000001 0 0 1 5,16 11.000001,11.000001 0 0 1 16,5 Z m 0,6 a 5,5 0 0 0 -5,5 5,5 0 0 0 5,5 5,5 0 0 0 5,-5 5,5 0 0 0 -5,-5 z"/>
 </g>
 <g id="media-skip-forward" transform="matrix(-1,0,0,1,160,0)">
  <path id="path1040" style="opacity:0.001" d="M 32,-5e-7 H -1e-6 V 32 H 32 Z"/>
  <path id="path1042" style="opacity:1;fill:#eff0f1" d="M 16,4 A 12,12 0 0 0 4,16 12,12 0 0 0 16,28 12,12 0 0 0 28,16 12,12 0 0 0 16,4 Z m 0,1 A 11,11 0 0 1 27,16 11,11 0 0 1 16,27 11,11 0 0 1 5,16 11,11 0 0 1 16,5 Z m -4.015625,5.986328 A 1.0001,1.0001 0 0 0 11,12 v 8 a 1.0001,1.0001 0 1 0 2,0 v -3.986328 a 1.333574,1.6670636 0 0 0 0.738281,1.478516 l 5.333985,3.332031 A 1.333574,1.6670636 0 0 0 21,19.333984 v -6.666015 a 1.333574,1.6670636 0 0 0 -1.285156,-1.666016 1.333574,1.6670636 0 0 0 -0.642578,0.175781 l -5.333985,3.332032 A 1.333574,1.6670636 0 0 0 13,15.988281 V 12 a 1.0001,1.0001 0 0 0 -1.015625,-1.013672 z"/>
 </g>
 <g id="media-seek-forward" transform="matrix(-1,0,0,1,224,0)">
  <path id="path1046" style="opacity:0.001" d="M 32,-5e-7 H -1e-6 V 32 H 32 Z"/>
  <path id="path1048" style="opacity:1;fill:#eff0f1" d="M 16,4 A 12,12 0 0 0 4,16 12,12 0 0 0 16,28 12,12 0 0 0 28,16 12,12 0 0 0 16,4 Z m 0,1 A 11,11 0 0 1 27,16 11,11 0 0 1 16,27 11,11 0 0 1 5,16 11,11 0 0 1 16,5 Z m -2.123047,6.001953 A 1.1669734,1.6670637 0 0 0 13.3125,11.177734 l -4.6679688,3.332032 a 1.1669734,1.6670637 0 0 0 0,2.982422 L 13.3125,20.824219 A 1.1669734,1.6670637 0 0 0 15,19.333984 V 16.013672 12.667969 A 1.1669734,1.6670637 0 0 0 13.876953,11.001953 Z M 15,16.013672 a 1.1668776,1.6670637 0 0 0 0.644531,1.478516 L 20.3125,20.824219 A 1.1668776,1.6670637 0 0 0 22,19.333984 V 12.667969 A 1.1668776,1.6670637 0 0 0 20.876953,11.001953 1.1668776,1.6670637 0 0 0 20.3125,11.177734 l -4.667969,3.332032 A 1.1668776,1.6670637 0 0 0 15,16.013672 Z"/>
 </g>
 <g id="media-playback-playing" transform="translate(0,32.000001)">
  <path id="path1052" style="opacity:0.001" d="M 0,0 H 32.000001 V 32.000001 H 0 Z"/>
  <path id="path1054" style="opacity:1;fill:#eff0f1" d="M 16,4 A 12,12 0 0 0 4,16 12,12 0 0 0 16,28 12,12 0 0 0 28,16 12,12 0 0 0 16,4 Z m 0,1 A 11.000001,11.000001 0 0 1 27,16 11.000001,11.000001 0 0 1 16,27 11.000001,11.000001 0 0 1 5,16 11.000001,11.000001 0 0 1 16,5 Z m -1.714844,6.001953 A 1.3336839,1.6670637 0 0 0 13,12.667969 v 6.666015 a 1.3336839,1.6670637 0 0 0 1.927734,1.490235 l 5.335938,-3.332031 a 1.3336839,1.6670637 0 0 0 0,-2.982422 l -5.335938,-3.332032 a 1.3336839,1.6670637 0 0 0 -0.642578,-0.175781 z"/>
 </g>
 <g id="media-playback-paused" transform="translate(32.000001,32.000001)">
  <path id="path1058" style="opacity:0.001" d="M 0,0 H 32.000001 V 32.000001 H 0 Z"/>
  <path id="path1060" style="opacity:1;fill:#eff0f1" d="M 16,4 A 12,12 0 0 0 4,16 12,12 0 0 0 16,28 12,12 0 0 0 28,16 12,12 0 0 0 16,4 Z m 0,1 A 11.000001,11.000001 0 0 1 27,16 11.000001,11.000001 0 0 1 16,27 11.000001,11.000001 0 0 1 5,16 11.000001,11.000001 0 0 1 16,5 Z m -3.015625,5.986328 A 1.0001,1.0001 0 0 0 12,12 v 8 a 1.0001,1.0001 0 1 0 2,0 v -8 a 1.0001,1.0001 0 0 0 -1.015625,-1.013672 z m 6,0 A 1.0001,1.0001 0 0 0 18,12 v 8 a 1.0001,1.0001 0 1 0 2,0 v -8 a 1.0001,1.0001 0 0 0 -1.015625,-1.013672 z"/>
 </g>
 <g id="media-playback-stopped" transform="translate(64.000002,32.000001)">
  <path id="path1064" style="opacity:0.001" d="M 0,0 H 32.000001 V 32.000001 H 0 Z"/>
  <path id="path1066" style="opacity:1;fill:#eff0f1" d="M 16,4 A 12,12 0 0 0 4,16 12,12 0 0 0 16,28 12,12 0 0 0 28,16 12,12 0 0 0 16,4 Z m 0,1 A 11.000001,11.000001 0 0 1 27,16 11.000001,11.000001 0 0 1 16,27 11.000001,11.000001 0 0 1 5,16 11.000001,11.000001 0 0 1 16,5 Z m -2.5,6 C 12.115001,11 11,12.115 11,13.5 v 5 c 0,1.384999 1.115001,2.5 2.5,2.5 h 5 c 1.385,0 2.5,-1.115001 2.5,-2.5 v -5 C 21,12.115 19.885,11 18.5,11 Z"/>
 </g>
</svg>
