<svg xmlns="http://www.w3.org/2000/svg" id="svg" version="1.1" viewBox="0 0 22 22">
 <g id="notification-progress-active" transform="translate(39 -1)">
  <path id="path10" style="opacity:0.001" d="m1 1h22v22h-22z"/>
  <circle id="path11" style="opacity:1;fill:#3daee9" cx="12" cy="12" r="8"/>
 </g>
 <g id="notification-inactive" transform="translate(-1 -1)">
  <path id="path6" style="opacity:0.001" d="m1 1h22v22h-22z"/>
  <path id="path8" style="opacity:1;fill:#eff0f1" d="m10.269531 17a2 2 0 0 0-0.2695312 1 2 2 0 0 0 2 2 2 2 0 0 0 2-2 2 2 0 0 0-0.271484-1zm1.7304688-13a1 1 0 0 0-1 1 1 1 0 0 0 0.0098 0.1289062 3.9999999 3.9999999 0 0 0-3.0098 3.8710938c0 3-1 4-3 6v1h14v-1c-2-2-3-3-3-6a3.9999999 3.9999999 0 0 0-3.009766-3.8710938 1 1 0 0 0 0.009766-0.1289062 1 1 0 0 0-1-1zm0 2a3 3 0 0 1 3 3c0 3 0.585938 4 2.585938 6h-11.171876c2-2 2.5859375-3 2.5859375-6a3 3 0 0 1 3-3z"/>
 </g>
 <g id="notification-progress-inactive" transform="translate(39 39)">
  <path id="path12" style="opacity:0.001" d="m1 1h22v22h-22z"/>
  <circle id="path13" style="opacity:0.5;fill:#eff0f1" cx="12" cy="12" r="8"/>
 </g>
 <g id="notification-active" transform="translate(-1 39)">
  <path id="path14" style="opacity:0.001" d="m1 1h22v22h-22z"/>
  <path id="path16" style="opacity:1;fill:#eff0f1" transform="translate(1,-39)" d="M 5.3457031 42.345703 A 7.9999995 7.9999995 0 0 0 3 48 L 4 48 A 7 7 0 0 1 6.0527344 43.052734 L 5.3457031 42.345703 z M 16.654297 42.345703 L 15.947266 43.052734 A 7 7 0 0 1 18 48 L 19 48 A 7.9999995 7.9999995 0 0 0 16.654297 42.345703 z M 11 43 A 1 1 0 0 0 10 44 A 1 1 0 0 0 10.009766 44.128906 A 3.9999999 3.9999999 0 0 0 7 48 C 7 51 6 52 4 54 L 4 55 L 18 55 L 18 54 C 16 52 15 51 15 48 A 3.9999999 3.9999999 0 0 0 11.990234 44.128906 A 1 1 0 0 0 12 44 A 1 1 0 0 0 11 43 z M 15.238281 43.761719 L 14.529297 44.470703 A 5 5 0 0 1 16 48 L 17 48 A 6 6 0 0 0 15.238281 43.761719 z M 6.765625 43.765625 A 6 6 0 0 0 5 48 L 6 48 A 5 5 0 0 1 7.4667969 44.466797 L 6.765625 43.765625 z M 11 45 A 3 3 0 0 1 14 48 C 14 51 14.585938 52 16.585938 54 L 5.4140625 54 C 7.4140625 52 8 51 8 48 A 3 3 0 0 1 11 45 z M 9.2695312 56 A 2 2 0 0 0 9 57 A 2 2 0 0 0 11 59 A 2 2 0 0 0 13 57 A 2 2 0 0 0 12.728516 56 L 9.2695312 56 z"/>
 </g>
 <path id="expander-bottom" style="opacity:1;fill:#eff0f1" d="m-18 23 2-2 2 2z"/>
 <path id="expander-top" style="opacity:1;fill:#eff0f1" d="m-18 17 2 2 2-2z"/>
 <path id="expander-right" style="opacity:1;fill:#eff0f1" d="m-13 18-2 2 2 2z"/>
 <path id="expander-left" style="opacity:1;fill:#eff0f1" d="m-19 18 2 2-2 2z"/>
 <g id="notification-disabled" transform="translate(-1 -41)">
  <path id="path25" style="opacity:0.001" d="m1 1h22v22h-22z"/>
  <path id="path26" style="opacity:1;fill:#da4453" d="m4 4.707031 15.292969 15.292969.707031-.707031-15.2929688-15.292969z"/>
  <path id="path28" style="opacity:1;fill:#eff0f1" d="m12 4a1 1 0 0 0-1 1 1 1 0 0 0 0.009766 0.128906 3.9999999 3.9999999 0 0 0-2.2402348 1.519532l0.7167969 0.716796a3 3 0 0 1 2.5136719-1.365234 3 3 0 0 1 3 3c0 3 0.585938 4 2.585938 6h-0.464844l1 1h0.878906v-1c-2-2-3-3-3-6a3.9999999 3.9999999 0 0 0-3.009766-3.871094 1 1 0 0 0 0.009766-0.128906 1 1 0 0 0-1-1zm-4.0527344 6.068359c-0.2253625 2.204726-1.2061347 3.19051-2.9472656 4.931641v1h8.878906l-1-1h-6.4648435c1.4796441-1.479644 2.1821771-2.415859 2.4492187-4.015625zm2.3222656 6.931641a2 2 0 0 0-0.2695312 1 2 2 0 0 0 2 2 2 2 0 0 0 2-2 2 2 0 0 0-0.271484-1z"/>
 </g>
 <g id="notification-empty" transform="translate(39 -41)">
  <path id="path31" style="opacity:0.001" d="m1 1h22v22h-22z"/>
  <path id="path32" style="opacity:1;fill:#eff0f1" d="m12 4a8 8 0 0 0-8 8 8 8 0 0 0 8 8 8 8 0 0 0 8-8 8 8 0 0 0-8-8zm0 1a7 7 0 0 1 7 7 7 7 0 0 1-7 7 7 7 0 0 1-7-7 7 7 0 0 1 7-7z"/>
 </g>
</svg>
