<svg xmlns="http://www.w3.org/2000/svg" id="svg22" width="22" height="22" version="1.1">
 <g id="nulloy">
  <rect id="rect2" style="opacity:0.001" width="22" height="22" x="0" y="0"/>
  <path id="path851" style="opacity:1;fill:#eff0f1" d="m 2.8007812,3 0.015625,0.109375 c 0.3875801,2.568739 0.6101394,4.6884905 0.8984376,5.9765625 0.2882978,1.2880715 0.6469032,2.0554275 1.3203124,2.4804685 0.6734091,0.42504 1.6325209,0.497668 3.1074219,0.451172 1.474902,-0.04647 3.4702099,-0.41522 6.2246099,-0.5 l 0.08984,-0.002 -0.01172,-0.08594 C 14.185844,9.455613 14.099433,7.9866871 13.923828,7.0019531 13.748223,6.0172141 13.473372,5.402694 12.84375,4.9863281 12.214126,4.5699601 11.249941,4.3509211 9.6835938,4.0957031 8.1172477,3.8404851 5.946504,3.5523655 2.9082031,3.0195312 Z M 16,3 c -1.101094,0 -2,0.8931412 -2,2 0,1.106982 0.898917,2 2,2 1.101083,0 2,-0.893018 2,-2 C 18,3.8931412 17.101094,3 16,3 Z M 3.9902344,4.203125 c 2.2374838,0.3690269 4.2781157,0.6744042 5.5332031,0.8789062 1.5410015,0.2510884 2.3971075,0.491999 2.7695315,0.7382813 0.363701,0.2405138 0.489916,0.4794352 0.646484,1.3574219 0.121246,0.6799061 0.243658,2.0307475 0.400391,3.4199216 -2.170306,0.136246 -4.1055999,0.384542 -5.2285159,0.419922 C 6.6828532,11.062611 5.9228303,10.944437 5.5683594,10.720703 5.2188394,10.500094 4.9595887,10.065386 4.6914062,8.8671875 4.4851496,7.9456635 4.2531734,6.08419 3.9902344,4.203125 Z M 19.230469,6.5292969 19.068359,6.625 c -1.297474,0.775815 -2.256257,0.9149096 -2.998047,1.3222656 -0.370893,0.203677 -0.685086,0.4780483 -0.941406,0.9257813 -0.256321,0.447738 -0.457447,1.0659328 -0.61914,1.9667971 l -0.02344,0.138672 0.128906,-0.04883 c 2.014055,-0.753822 2.909082,-0.820274 3.451172,-1.2128911 0.271046,-0.196312 0.438077,-0.4738038 0.591797,-0.9335938 0.153721,-0.459789 0.297716,-1.1073705 0.527344,-2.0703125 z m -0.166016,3.3710937 -0.214844,0.070312 c -2.152232,0.7181459 -3.034326,0.9247169 -3.486328,1.2539059 -0.226003,0.16459 -0.333616,0.365254 -0.416015,0.648438 -0.0824,0.283189 -0.146477,0.65599 -0.294922,1.199219 l -0.03516,0.126953 0.128906,-0.0293 c 1.303416,-0.287641 1.903723,-0.35643 2.412109,-0.714844 0.508386,-0.358413 0.893709,-0.983894 1.783203,-2.365234 z m -4.546875,2.0390624 -0.109375,0.0078 c -3.273446,0.17059 -4.9780101,0.192331 -6.1132811,0.917968 -0.567635,0.362799 -0.9785666,0.949706 -1.3535157,1.894532 -0.3749489,0.944826 -0.7194441,1.920856 -1.1582031,3.746093 l -0.03125,0.132813 0.1308594,-0.03906 c 1.953683,-0.573969 3.3395715,-0.822115 4.3515625,-0.984375 1.011989,-0.162254 1.653327,-0.23478 2.128906,-0.476562 0.47558,-0.241783 0.762858,-0.653911 1.048828,-1.44336 0.285969,-0.789448 0.578918,-1.835053 1.076172,-3.648437 z m 3.929688,0.07617 c -0.961323,1.008581 -1.781951,1.19094 -2.417969,1.414063 -0.31801,0.111563 -0.594522,0.235462 -0.802735,0.482421 -0.208213,0.246958 -0.34213,0.608529 -0.394531,1.181641 l -0.0078,0.09961 0.09766,-0.01172 c 1.169105,-0.151304 1.825311,-0.268194 2.322266,-0.685547 0.496955,-0.417353 0.813565,-1.113546 1.333984,-2.396485 z m -5.292969,1.021484 c -0.242963,0.858451 -0.510215,1.845122 -0.681641,2.31836 -0.250886,0.692595 -0.35112,0.785113 -0.5625,0.892578 -0.223841,0.1138 -0.80278,0.213571 -1.833984,0.378906 -0.6594608,0.105736 -1.8301794,0.405218 -2.8691408,0.650391 0.2180056,-0.725153 0.4467127,-1.600743 0.6640626,-2.148438 0.3349198,-0.843957 0.6230806,-1.204688 0.9628906,-1.421875 0.6281564,-0.401502 2.0721176,-0.536323 4.3203126,-0.669922 z m 4.978515,1.767579 -0.144531,0.05469 c -1.191389,0.453627 -1.8455,0.656192 -2.203125,0.966797 -0.178813,0.155303 -0.2777,0.342515 -0.3125,0.582031 -0.0348,0.239516 -0.012,0.257177 0.03516,0.646485 l 0.0098,0.08984 0.08789,-0.02148 c 0.406632,-0.102815 0.702196,-0.102097 0.939453,-0.0918 0.237255,0.0103 0.423722,0.03653 0.597656,-0.04492 0.173933,-0.08146 0.306779,-0.262931 0.447266,-0.613281 0.140486,-0.350356 0.292452,-0.606726 0.503906,-1.419922 z"/>
 </g>
</svg>
