<svg xmlns="http://www.w3.org/2000/svg" id="svg124" width="32" height="32" version="1.1">
 <g id="22-22-preferences-desktop-notification" transform="translate(32,-62)">
  <rect id="rect2" style="opacity:0.001" width="22" height="22" x="0" y="40"/>
  <path id="path4" style="opacity:1;fill:#3daee9" d="m 11,43 c -4.418278,0 -8,3.581722 -8,8 0,4.418278 3.581722,8 8,8 4.418278,0 8,-3.581722 8,-8 0,-4.418278 -3.581722,-8 -8,-8 z"/>
  <path id="path6" style="fill:#ffffff" d="m 10,47 v 6 h 2 v -6 z m 1,7 c -0.453152,0 -1,0.518427 -1,0.980469 C 10,55.442512 10.546848,56 11,56 11.453152,56 12,55.442512 12,54.980469 12,54.518427 11.453152,54 11,54 Z"/>
 </g>
 <g id="22-22-preferences-system-windows" transform="translate(59,-27)">
  <rect id="rect100" style="opacity:0.001" width="22" height="22" x="5" y="5"/>
  <path id="path102" style="opacity:1;fill:#eff0f1" d="M 13.5,9 C 13,9 13,9.5 13,9.5 v 8 c 0,0.5 0.5,0.5 0.5,0.5 h 10 c 0,0 0.5,0 0.5,-0.5 v -8 C 24,9 23.5,9 23.5,9 Z m 0.5,2 h 9 v 6 H 14 Z M 7.519531,14 C 7.519531,14 7,14 7,14.5 v 8 C 7,23 7.5,23 7.5,23 h 10 c 0,0 0.5,-0.02 0.5,-0.5 V 19 h -1 v 3 H 8 v -6 h 4 v -2 z"/>
 </g>
 <g id="22-22-preferences-desktop-display-randr" transform="translate(0,-313.17999)">
  <rect id="rect843" style="opacity:0.001" width="22" height="22" x="0" y="291.18"/>
  <path id="path845" style="opacity:1;fill:#eff0f1" transform="translate(0,291.17917)" d="M 6,3 C 4.338,3 3,4.338 3,6 v 7 c 0,1.662 1.338,3 3,3 h 3 v 2 H 7.5 A 0.5,0.5 0 0 0 7,18.5 0.5,0.5 0 0 0 7.5,19 h 7 A 0.5,0.5 0 0 0 15,18.5 0.5,0.5 0 0 0 14.5,18 H 13 v -2 h 3 c 1.662,0 3,-1.338 3,-3 V 6 C 19,4.338 17.662,3 16,3 Z m 0,1 h 10 c 1.125297,0 2,0.8747 2,2 v 7 c 0,1.12529 -0.874703,2 -2,2 H 6 C 4.8747028,15 4,14.12529 4,13 V 6 C 4,4.8747 4.8747028,4 6,4 Z M 5.5,5 C 5.223,5 5,5.223 5,5.5 v 1 2 C 5,8.777 5.223,9 5.5,9 h 1 C 6.777,9 7,8.777 7,8.5 V 7 H 8.5 C 8.777,7 9,6.777 9,6.5 v -1 C 9,5.223 8.777,5 8.5,5 h -2 z m 10,5 C 15.223,10 15,10.223 15,10.5 V 12 H 13.5 C 13.223,12 13,12.223 13,12.5 v 1 c 0,0.277 0.223,0.5 0.5,0.5 h 2 1 c 0.277,0 0.5,-0.223 0.5,-0.5 v -1 -2 C 17,10.223 16.777,10 16.5,10 Z"/>
 </g>
 <g id="22-22-preferences-system-bluetooth-activated" transform="translate(30,-22)">
  <rect id="rect835" style="opacity:0.001" width="22" height="22" x="66" y="0"/>
  <path id="path843" style="opacity:1;fill:#eff0f1" d="M 76.464844,3 C 76.202529,3.0185134 75.999374,3.2370336 76,3.5 V 9.765625 L 72.820312,7.1152344 C 72.307288,6.6881164 71.666664,7.4576476 72.179688,7.8847656 L 76,11.068359 v 0.285157 l -3.792969,2.740234 c -0.541666,0.390625 0.04427,1.203125 0.585938,0.8125 L 76,12.589844 V 18.5 c -5.74e-4,0.405042 0.455455,0.642675 0.787109,0.410156 l 5,-3.5 c 0.270878,-0.188983 0.287377,-0.584008 0.0332,-0.794922 L 77.816406,11.279297 81.792969,8.40625 c 0.258337,-0.1867999 0.27826,-0.5643955 0.04102,-0.7773438 l -5,-4.5 C 76.746412,3.0496972 76.633636,3.004033 76.515625,3 76.498709,2.99914 76.48176,2.99914 76.464844,3 Z M 77,4.6210938 80.705078,7.9570312 77.021484,10.617188 77,10.597656 Z M 71,10 c -0.552285,0 -1,0.447715 -1,1 0,0.552285 0.447715,1 1,1 0.552285,0 1,-0.447715 1,-1 0,-0.552285 -0.447715,-1 -1,-1 z m 12,0 c -0.552285,0 -1,0.447715 -1,1 0,0.552285 0.447715,1 1,1 0.552285,0 1,-0.447715 1,-1 0,-0.552285 -0.447715,-1 -1,-1 z m -6,1.902344 3.675781,3.0625 L 77,17.539062 Z"/>
 </g>
 <g id="22-22-preferences-system-bluetooth" transform="translate(62,-22)">
  <rect id="rect857" style="opacity:0.001" width="22" height="22" x="66" y="0"/>
  <path id="path859" style="opacity:1;fill:#eff0f1" d="M 76.464844,3 C 76.202529,3.0185134 75.999374,3.2370336 76,3.5 V 9.765625 L 72.820312,7.1152344 C 72.307288,6.6881164 71.666664,7.4576476 72.179688,7.8847656 L 76,11.068359 v 0.285157 l -3.792969,2.740234 c -0.541666,0.390625 0.04427,1.203125 0.585938,0.8125 L 76,12.589844 V 18.5 c -5.74e-4,0.405042 0.455455,0.642675 0.787109,0.410156 l 5,-3.5 c 0.270877,-0.188984 0.287375,-0.584009 0.0332,-0.794922 L 77.816406,11.279297 81.792969,8.40625 c 0.258338,-0.1867983 0.278264,-0.5643939 0.04102,-0.7773438 l -5,-4.5 C 76.746416,3.0496961 76.633638,3.0040318 76.515625,3 76.498709,2.99914 76.48176,2.99914 76.464844,3 Z M 77,4.6210938 80.705078,7.9570312 77.021484,10.617188 77,10.597656 Z m 0,7.2812502 3.675781,3.0625 L 77,17.539062 Z"/>
 </g>
 <g id="22-22-preferences-system-bluetooth-inactive" transform="translate(94,-22)">
  <rect id="rect863" style="opacity:0.001" width="22" height="22" x="66" y="0"/>
  <path id="path865" style="opacity:0.5;fill:#eff0f1" d="M 76.464844,3 C 76.202529,3.0185134 75.999374,3.2370336 76,3.5 V 9.765625 L 72.820312,7.1152344 C 72.307288,6.6881164 71.666664,7.4576476 72.179688,7.8847656 L 76,11.068359 v 0.285157 l -3.792969,2.740234 c -0.541666,0.390625 0.04427,1.203125 0.585938,0.8125 L 76,12.589844 V 18.5 c -5.74e-4,0.405042 0.455455,0.642675 0.787109,0.410156 l 5,-3.5 c 0.270877,-0.188984 0.287375,-0.584009 0.0332,-0.794922 L 77.816406,11.279297 81.792969,8.40625 c 0.258338,-0.1867983 0.278264,-0.5643939 0.04102,-0.7773438 l -5,-4.5 C 76.746416,3.0496961 76.633638,3.0040318 76.515625,3 76.498709,2.99914 76.48176,2.99914 76.464844,3 Z M 77,4.6210938 80.705078,7.9570312 77.021484,10.617188 77,10.597656 Z m 0,7.2812502 3.675781,3.0625 L 77,17.539062 Z"/>
 </g>
 <g id="preferences-desktop-display-randr" transform="translate(0,-2.6757812e-6)">
  <rect id="rect915" style="opacity:0.001" width="32" height="32" x="0" y="0"/>
  <path id="path917" style="opacity:1;fill:#eff0f1" d="M 8.5,4 C 6.007,4 4,6.007 4,8.5 v 11 C 4,21.993 6.007,24 8.5,24 H 13 v 3 h -2.5 a 0.50005,0.50005 0 1 0 0,1 h 11 a 0.50005,0.50005 0 1 0 0,-1 H 19 v -3 h 4.5 C 25.993,24 28,21.993 28,19.5 V 8.5 C 28,6.007 25.993,4 23.5,4 Z m 0,1 h 15 C 25.456297,5 27,6.5437 27,8.5 v 11 C 27,21.45629 25.456297,23 23.5,23 H 8.5 C 6.5437028,23 5,21.45629 5,19.5 V 8.5 C 5,6.5437 6.5437028,5 8.5,5 Z m -1,2 C 7.223,7 7,7.223 7,7.5 v 1 4 C 7,12.777 7.223,13 7.5,13 h 1 C 8.777,13 9,12.777 9,12.5 V 9 h 3.5 C 12.777,9 13,8.777 13,8.5 v -1 C 13,7.223 12.777,7 12.5,7 Z m 16,8 C 23.223,15 23,15.223 23,15.5 V 19 H 19.5 C 19.223,19 19,19.223 19,19.5 v 1 c 0,0.277 0.223,0.5 0.5,0.5 h 5 c 0.277,0 0.5,-0.223 0.5,-0.5 v -1 -4 C 25,15.223 24.777,15 24.5,15 Z"/>
 </g>
 <g id="preferences-desktop-notification" transform="translate(32)">
  <rect id="rect859" style="opacity:0.001" width="32" height="32" x="0" y="0"/>
  <path id="path861" style="opacity:1;fill:#3daee9" d="M 16,3.9999999 C 9.3725828,3.9999999 3.9999996,9.372583 3.9999996,16 3.9999996,22.627418 9.3725828,28 16,28 22.627417,28 28,22.627418 28,16 28,9.372583 22.627417,3.9999999 16,3.9999999 Z"/>
  <path id="path878" style="fill:#ffffff;stroke-width:1.22474468" d="m 15,9 v 9 h 2 V 9 Z m 1,11 c -0.453152,0 -1,0.518427 -1,0.980469 C 15,21.442511 15.546848,22 16,22 16.453152,22 17,21.442511 17,20.980469 17,20.518427 16.453152,20 16,20 Z"/>
 </g>
 <g id="preferences-system-windows" transform="translate(64)">
  <rect id="rect886" style="opacity:0.001" width="32" height="32" x="0" y="0"/>
  <path id="path898" style="opacity:1;fill:#eff0f1" d="M 12.726562,6 C 11.999291,6 12,6.7226564 12,6.7226562 V 18.277344 C 12,18.999567 12.726563,19 12.726562,19 H 27.273438 C 27.273438,19 28,18.999567 28,18.277344 V 6.7226562 C 28,6.000434 27.273438,6 27.273438,6 Z M 13,8 H 27 V 18 H 13 Z M 3.7265625,13 C 2.9992915,13 3,13.722656 3,13.722656 V 25.277344 C 3,25.999567 3.7265625,26 3.7265625,26 H 18.273438 C 18.273438,26 19,25.999567 19,25.277344 V 20 h -1 v 5 H 4 V 15 h 7 v -2 z"/>
 </g>
 <g id="preferences-system-bluetooth-activated" transform="translate(96)">
  <rect id="rect919" style="opacity:0.001" width="32" height="32" x="0" y="0"/>
  <path id="path927" style="opacity:1;fill:#eff0f1" d="M 15.509766,4 A 0.50005,0.50005 0 0 0 15,4.5 v 9.685547 L 9.8085938,10.107422 A 0.50005,0.50005 0 1 0 9.1914062,10.892578 L 15,15.457031 v 1.5 L 9.2089844,21.09375 a 0.50005,0.50005 0 1 0 0.5820312,0.8125 L 15,18.185547 V 27.5 a 0.50005,0.50005 0 0 0 0.798828,0.400391 l 8,-6 a 0.50005,0.50005 0 0 0 0.0098,-0.792969 l -6.142578,-4.826172 6.125,-4.375 a 0.50005,0.50005 0 0 0 0.03711,-0.783203 l -8,-7.0000001 A 0.50005,0.50005 0 0 0 15.509766,4 Z M 16,5.6035156 22.695312,11.460938 16.847656,15.638672 16,14.972656 Z M 8,15 a 1,1 0 0 0 -1,1 1,1 0 0 0 1,1 1,1 0 0 0 1,-1 1,1 0 0 0 -1,-1 z m 17,0 a 1,1 0 0 0 -1,1 1,1 0 0 0 1,1 1,1 0 0 0 1,-1 1,1 0 0 0 -1,-1 z m -8.179688,1.886719 5.859376,4.603515 L 16,26.5 v -9.029297 z"/>
 </g>
 <g id="preferences-system-bluetooth" transform="translate(128)">
  <rect id="rect940" style="opacity:0.001" width="32" height="32" x="0" y="0"/>
  <path id="path942" style="opacity:1;fill:#eff0f1" d="M 15.509766,4 C 15.229829,3.9945598 14.999975,4.2200103 15,4.5 v 9.685547 L 9.8085938,10.107422 C 9.2796666,9.6442523 8.6164238,10.487998 9.1914062,10.892578 L 15,15.457031 v 1.5 L 9.2089844,21.09375 c -0.575846,0.382054 0.035017,1.234802 0.5820312,0.8125 L 15,18.185547 V 27.5 c 4.81e-4,0.411075 0.469199,0.646007 0.798828,0.400391 l 8,-6 c 0.262955,-0.19693 0.267808,-0.589601 0.0098,-0.792969 l -6.142578,-4.826172 6.125,-4.375 c 0.262046,-0.188013 0.280205,-0.571256 0.03711,-0.783203 l -8,-7.0000001 C 15.739746,4.045956 15.627044,4.0024012 15.509766,4 Z M 16,5.6035156 22.695312,11.460938 16.847656,15.638672 16,14.972656 Z M 16.820312,16.886719 22.679688,21.490234 16,26.5 v -9.029297 z"/>
 </g>
 <g id="preferences-system-bluetooth-inactive" transform="translate(160)">
  <rect id="rect952" style="opacity:0.001" width="32" height="32" x="0" y="0"/>
  <path id="path954" style="opacity:0.5;fill:#eff0f1" d="M 15.509766,4 C 15.229829,3.9945598 14.999975,4.2200103 15,4.5 v 9.685547 L 9.8085938,10.107422 C 9.2796666,9.6442523 8.6164238,10.487998 9.1914062,10.892578 L 15,15.457031 v 1.5 L 9.2089844,21.09375 c -0.575846,0.382054 0.035017,1.234802 0.5820312,0.8125 L 15,18.185547 V 27.5 c 4.81e-4,0.411075 0.469199,0.646007 0.798828,0.400391 l 8,-6 c 0.262955,-0.19693 0.267808,-0.589601 0.0098,-0.792969 l -6.142578,-4.826172 6.125,-4.375 c 0.262046,-0.188013 0.280205,-0.571256 0.03711,-0.783203 l -8,-7.0000001 C 15.739746,4.045956 15.627044,4.0024012 15.509766,4 Z M 16,5.6035156 22.695312,11.460938 16.847656,15.638672 16,14.972656 Z M 16.820312,16.886719 22.679688,21.490234 16,26.5 v -9.029297 z"/>
 </g>
</svg>
