<svg xmlns="http://www.w3.org/2000/svg" id="svg" width="22" height="22" version="1.1">
 <g id="slc-like">
  <rect id="rect3791" style="opacity:0.001" width="22" height="22" x="22" y="0"/>
  <path id="path3795" style="opacity:1;fill:#eff0f1" d="m 29,3 c -2.761424,0 -5,2.2385763 -5,5 0,5 7,9 9,11 2,-2 9,-6 9,-11 C 42,5.2385763 39.761424,3 37,3 35.360405,3 33.911811,3.7807653 33,5 32.088189,3.7807653 30.639595,3 29,3 Z m 0,2 c 3,0 4,2 4,2 0,0 1,-2 4,-2 1.656854,0 3,1.3431458 3,3 0,4 -5,7 -7,9 -2,-2 -7,-5 -7,-9 0,-1.6568542 1.343146,-3 3,-3 z"/>
 </g>
 <g id="slc-share">
  <rect id="rect3833" style="opacity:0.001" width="22" height="22" x="44" y="0"/>
  <path id="path3837" style="opacity:1;fill:#eff0f1" d="m 61,3 c -1.656854,0 -3,1.3431458 -3,3 0,0.087382 0.02393,0.1645141 0.03125,0.25 l -6.75,2.8125 C 50.730971,8.4152177 49.916143,8 49,8 c -1.656854,0 -3,1.343146 -3,3 0,1.656854 1.343146,3 3,3 0.916143,0 1.730971,-0.415218 2.28125,-1.0625 l 6.75,2.8125 C 58.023929,15.835486 58,15.912618 58,16 c 0,1.656854 1.343146,3 3,3 1.656854,0 3,-1.343146 3,-3 0,-1.656854 -1.343146,-3 -3,-3 -0.916143,0 -1.730971,0.415218 -2.28125,1.0625 l -6.75,-2.8125 C 51.976071,11.164514 52,11.087382 52,11 c 0,-0.08738 -0.02393,-0.164514 -0.03125,-0.25 l 6.75,-2.8125 C 59.269029,8.5847823 60.083857,9 61,9 62.656854,9 64,7.6568542 64,6 64,4.3431458 62.656854,3 61,3 Z m 0,2 c 0.552285,0 1,0.4477153 1,1 0,0.5522847 -0.447715,1 -1,1 -0.552285,0 -1,-0.4477153 -1,-1 0,-0.5522847 0.447715,-1 1,-1 z m -12,5 c 0.552285,0 1,0.447715 1,1 0,0.552285 -0.447715,1 -1,1 -0.552285,0 -1,-0.447715 -1,-1 0,-0.552285 0.447715,-1 1,-1 z m 12,5 c 0.552285,0 1,0.447715 1,1 0,0.552285 -0.447715,1 -1,1 -0.552285,0 -1,-0.447715 -1,-1 0,-0.552285 0.447715,-1 1,-1 z"/>
 </g>
 <g id="slc-connect">
  <rect id="rect3009" style="opacity:0.001" width="22" height="22" x="0" y="0"/>
  <path id="rect3845" style="opacity:1;fill:#eff0f1" d="M 13,3 C 12.603723,3.396277 12.016355,3.9510441 12,4.6005908 11.984225,5.2271066 12.524193,5.9418 12.96875,6.6875 L 8.7187499,9.53125 C 8.1903432,9.318042 7.6231562,9.002817 7.0624999,9 c -0.7287598,-0.0037 -1.4375,0.375 -2.0625,1 l 3,3 -4,4 -1,2 2,-1 4,-4 L 12,17 c 0.595116,-0.595116 0.987844,-1.275158 1,-1.964976 0.01046,-0.593299 -0.301905,-1.193829 -0.53125,-1.753774 l 2.84375,-4.25 C 16.095237,9.4978869 16.843811,10.037686 17.492102,10 18.101746,9.9645602 18.622707,9.3772928 19,9 Z"/>
 </g>
</svg>
