<svg xmlns="http://www.w3.org/2000/svg" id="svg2" width="22" height="22" version="1.1">
 <g id="touchpad_enabled" transform="translate(0,-1030.3622)">
  <rect id="rect839" style="opacity:0.001" width="22" height="22" x="0" y="1030.36"/>
  <path id="rect825" style="opacity:1;fill:#eff0f1" transform="translate(0,1030.3622)" d="M 4,3 C 2.892,3 2,3.892 2,5 v 12 c 0,1.108 0.892,2 2,2 h 13 c 1.108,0 2,-0.892 2,-2 V 5 C 19,3.892 18.108,3 17,3 Z m 0,1 h 13 c 0.571297,0 1,0.4287 1,1 v 12 c 0,0.5713 -0.428703,1 -1,1 H 4 C 3.4287028,18 3,17.5713 3,17 V 5 C 3,4.4287 3.4287028,4 4,4 Z m 1,9 c -0.554,0 -1,0.446 -1,1 v 2 c 0,0.554 0.446,1 1,1 h 4 c 0.554,0 1,-0.446 1,-1 V 14 C 10,13.446 9.554,13 9,13 Z m 7,0 c -0.554,0 -1,0.446 -1,1 v 2 c 0,0.554 0.446,1 1,1 h 4 c 0.554,0 1,-0.446 1,-1 v -2 c 0,-0.554 -0.446,-1 -1,-1 z"/>
 </g>
 <g id="touchpad_disabled" transform="translate(22,-1030.3622)">
  <rect id="rect845" style="opacity:0.001" width="22" height="22" x="0" y="1030.36"/>
  <path id="path847" style="opacity:0.5;fill:#eff0f1" transform="translate(0,1030.3622)" d="M 4,3 C 2.892,3 2,3.892 2,5 v 12 c 0,1.108 0.892,2 2,2 h 13 c 1.108,0 2,-0.892 2,-2 V 5 C 19,3.892 18.108,3 17,3 Z m 0,1 h 13 c 0.571297,0 1,0.4287 1,1 v 12 c 0,0.5713 -0.428703,1 -1,1 H 4 C 3.4287028,18 3,17.5713 3,17 V 5 C 3,4.4287 3.4287028,4 4,4 Z m 1,9 c -0.554,0 -1,0.446 -1,1 v 2 c 0,0.554 0.446,1 1,1 h 4 c 0.554,0 1,-0.446 1,-1 V 14 C 10,13.446 9.554,13 9,13 Z m 7,0 c -0.554,0 -1,0.446 -1,1 v 2 c 0,0.554 0.446,1 1,1 h 4 c 0.554,0 1,-0.446 1,-1 v -2 c 0,-0.554 -0.446,-1 -1,-1 z"/>
 </g>
</svg>
