<svg xmlns="http://www.w3.org/2000/svg" id="svg4153" width="22" height="22" version="1.1">
 <g id="user-away" transform="translate(88)">
  <rect id="rect4562" style="opacity:0.001" width="22" height="22" x="-44" y="0"/>
  <path id="path4149" style="opacity:1;fill:#fdbc4b" transform="translate(-88)" d="M 55 3 C 52.790874 2.9999946 51.000016 4.7908524 51 7 C 51.000016 9.2091476 52.790874 11.000005 55 11 C 57.209126 11.000005 58.999984 9.2091476 59 7 C 58.999984 4.7908524 57.209126 2.9999946 55 3 z M 55 4 C 56.656843 4 57.999984 5.343141 58 7 C 57.999984 8.656859 56.656843 10 55 10 C 53.343157 10 52.000016 8.656859 52 7 C 52.000016 5.343141 53.343157 4 55 4 z M 63 11 L 55 15 L 57 16 L 58 19 L 59 17 L 61 18 L 63 11 z M 55 12 C 50.682017 12 47.000001 14.594496 47 17.949219 C 46.999551 18.529566 47.56551 19.000178 48.263672 19 L 55 19 L 56.945312 19 L 56.611328 18 L 55 18 L 48.263672 18 C 48.01526 17.99998 47.999992 17.879024 48 17.949219 C 48 16.637711 48.705883 15.448641 49.970703 14.523438 C 51.235524 13.598231 53.041355 13 55 13 C 55.51834 13 56.024818 13.04522 56.513672 13.125 L 57.910156 12.427734 C 57.000526 12.159449 56.022478 12 55 12 z"/>
 </g>
 <g id="user-busy" transform="translate(88)">
  <rect id="rect4560" style="opacity:0.001" width="22" height="22" x="-66" y="0"/>
  <path id="path4149-4" style="opacity:1;fill:#f67400" transform="translate(-88)" d="M 33 3 C 30.790874 2.9999946 29.000016 4.7908524 29 7 C 29.000016 9.2091476 30.790874 11.000005 33 11 C 35.209126 11.000005 36.999984 9.2091476 37 7 C 36.999984 4.7908524 35.209126 2.9999946 33 3 z M 33 4 C 34.656843 4 35.999984 5.343141 36 7 C 35.999984 8.656859 34.656843 10 33 10 C 31.343157 10 30.000016 8.656859 30 7 C 30.000016 5.343141 31.343157 4 33 4 z M 33 12 C 28.682017 12 25.000001 14.594496 25 17.949219 A 1.2632842 1.0501051 0 0 0 26.263672 19 L 33 19 L 34.677734 19 A 4.5 4.5 0 0 1 33.761719 18 L 33 18 L 26.263672 18 C 26.01526 17.99998 25.999992 17.879024 26 17.949219 C 26 16.637711 26.705883 15.448641 27.970703 14.523438 C 29.235524 13.598232 31.041355 13 33 13 C 33.250248 13 33.497737 13.010331 33.742188 13.029297 A 4.5 4.5 0 0 1 34.544922 12.113281 C 34.043028 12.039513 33.526306 12 33 12 z M 37.5 12 C 35.567003 12 34 13.567003 34 15.5 C 34 17.432997 35.567003 19 37.5 19 C 39.432997 19 41 17.432997 41 15.5 C 41 13.567003 39.432997 12 37.5 12 z M 37 13 L 38 13 L 38 15 L 40 15 L 40 16 L 38 16 L 37 16 L 37 15 L 37 13 z"/>
 </g>
 <g id="user-invisible" transform="translate(88)">
  <rect id="rect4556" style="opacity:0.001" width="22" height="22" x="22" y="0"/>
  <path id="path4149-7" style="opacity:1;fill:#3daee9" transform="translate(-88)" d="M 121 3 C 118.79087 2.9999946 117.00002 4.7908524 117 7 C 117.00002 9.2091476 118.79087 11.000005 121 11 C 123.20913 11.000005 124.99998 9.2091476 125 7 C 124.99998 4.7908524 123.20913 2.9999946 121 3 z M 121 4 C 122.65684 4 123.99998 5.343141 124 7 C 123.99998 8.656859 122.65684 10 121 10 C 119.34316 10 118.00002 8.656859 118 7 C 118.00002 5.343141 119.34316 4 121 4 z M 121 12 C 116.68202 12 113 14.594496 113 17.949219 A 1.2632842 1.0501051 0 0 0 114.26367 19 L 121 19 L 122.67773 19 A 4.5 4.5 0 0 1 121.76172 18 L 121 18 L 114.26367 18 C 114.01526 17.99998 113.99999 17.879023 114 17.949219 C 114 16.637711 114.70588 15.44864 115.9707 14.523438 C 117.23552 13.598232 119.04135 13 121 13 C 121.25025 13 121.49774 13.010327 121.74219 13.029297 A 4.5 4.5 0 0 1 122.54492 12.113281 C 122.04303 12.03951 121.52631 12 121 12 z M 125.5 12 C 123.567 12 122 13.567003 122 15.5 C 122 17.432997 123.567 19 125.5 19 C 127.433 19 129 17.432997 129 15.5 C 129 13.567003 127.433 12 125.5 12 z M 126.79883 13.498047 L 127.50586 14.205078 L 124.21289 17.498047 L 123.50586 16.791016 L 126.79883 13.498047 z"/>
 </g>
 <g id="user-offline" transform="translate(88)">
  <rect id="rect4564" style="opacity:0.001" width="22" height="22" x="-22" y="0"/>
  <path id="path4149-3" style="opacity:0.5;fill:#eff0f1" transform="translate(-88)" d="M 77 3 C 74.790874 2.9999946 73.000016 4.7908524 73 7 C 73.000016 9.2091476 74.790874 11.000005 77 11 C 79.209126 11.000005 80.999984 9.2091476 81 7 C 80.999984 4.7908524 79.209126 2.9999946 77 3 z M 77 4 C 78.656843 4 79.999984 5.343141 80 7 C 79.999984 8.656859 78.656843 10 77 10 C 75.343157 10 74.000016 8.656859 74 7 C 74.000016 5.343141 75.343157 4 77 4 z M 77 12 C 72.682017 12 69.000001 14.594496 69 17.949219 A 1.2632842 1.0501051 0 0 0 70.263672 19 L 77 19 L 78.677734 19 A 4.5 4.5 0 0 1 77.761719 18 L 77 18 L 70.263672 18 C 70.01526 17.99998 69.999992 17.879024 70 17.949219 C 70 16.637711 70.705883 15.448641 71.970703 14.523438 C 73.235524 13.598232 75.041355 13 77 13 C 77.250248 13 77.497737 13.010331 77.742188 13.029297 A 4.5 4.5 0 0 1 78.544922 12.113281 C 78.043028 12.039513 77.526306 12 77 12 z M 81.5 12 C 79.567003 12 78 13.567003 78 15.5 C 78 17.432997 79.567003 19 81.5 19 C 83.432997 19 85 17.432997 85 15.5 C 85 13.567003 83.432997 12 81.5 12 z M 81.5 13 C 82.880712 13 84 14.119288 84 15.5 C 84 16.880712 82.880712 18 81.5 18 C 80.119288 18 79 16.880712 79 15.5 C 79 14.119288 80.119288 13 81.5 13 z M 80 15 L 80 16 L 83 16 L 83 15 L 80 15 z"/>
 </g>
 <g id="user-online" transform="translate(88)">
  <rect id="rect4554" style="opacity:0.001" width="22" height="22" x="0" y="0"/>
  <path id="path4149-8" style="opacity:1;fill:#2abb9b" transform="translate(-88)" d="M 98.964844 3 C 96.755718 2.9999945 94.96486 4.7908523 94.964844 7 C 94.96486 9.2091477 96.755718 11.000006 98.964844 11 C 101.17397 11.000005 102.96483 9.2091476 102.96484 7 C 102.96483 4.7908524 101.17397 2.9999946 98.964844 3 z M 98.964844 4 C 100.62169 4 101.96483 5.343141 101.96484 7 C 101.96483 8.656859 100.62169 10 98.964844 10 C 97.308001 10 95.96486 8.6568591 95.964844 7 C 95.96486 5.3431409 97.308001 3.9999999 98.964844 4 z M 99 12 C 94.682017 12 91.000001 14.594496 91 17.949219 A 1.2632842 1.0501051 0 0 0 92.263672 19 L 99 19 L 100.67773 19 A 4.5 4.5 0 0 1 99.761719 18 L 99 18 L 92.263672 18 C 92.01526 17.99998 91.999992 17.879024 92 17.949219 C 92 16.637711 92.705883 15.448641 93.970703 14.523438 C 95.235524 13.598232 97.041355 13 99 13 C 99.250248 13 99.497738 13.010327 99.742188 13.029297 A 4.5 4.5 0 0 1 100.54492 12.113281 C 100.04303 12.03951 99.526306 12 99 12 z M 103.46484 12 C 101.53185 12 99.964844 13.567003 99.964844 15.5 C 99.964844 17.432997 101.53185 19 103.46484 19 C 105.39784 19 106.96484 17.432997 106.96484 15.5 C 106.96484 13.567003 105.39784 12 103.46484 12 z M 105.14648 14.146484 L 105.85352 14.853516 L 103 17.707031 L 101.14648 15.853516 L 101.85352 15.146484 L 103 16.292969 L 105.14648 14.146484 z"/>
 </g>
 <g id="user-identity" transform="translate(88)">
  <rect id="rect4585" style="opacity:0.001" width="22" height="22" x="-88" y="0"/>
  <path id="path4149-2" style="opacity:1;fill:#eff0f1" transform="translate(-88)" d="M 11 3 C 8.790874 2.9999946 7.000016 4.7908524 7 7 C 7.000016 9.2091476 8.790874 11.000005 11 11 C 13.209126 11.000005 14.999984 9.2091476 15 7 C 14.999984 4.7908524 13.209126 2.9999946 11 3 z M 11 4 C 12.656843 4 13.999984 5.343141 14 7 C 13.999984 8.656859 12.656843 10 11 10 C 9.343157 10 8.000016 8.656859 8 7 C 8.000016 5.343141 9.343157 4 11 4 z M 11 12 C 6.682017 12 3.000001 14.594496 3 17.949219 A 1.2632842 1.0501051 0 0 0 4.2636719 19 L 11 19 L 17.736328 19 A 1.2632842 1.0501051 0 0 0 19 17.949219 C 19 14.594496 15.317984 12 11 12 z M 11 13 C 12.958646 13 14.764477 13.598233 16.029297 14.523438 C 17.294117 15.44864 18 16.637711 18 17.949219 C 18.000008 17.879029 17.98474 17.99998 17.736328 18 L 11 18 L 4.2636719 18 C 4.01526 17.99998 3.9999915 17.879025 4 17.949219 C 4 16.637711 4.7058828 15.448641 5.9707031 14.523438 C 7.2355234 13.598233 9.0413549 13 11 13 z"/>
 </g>
 <g id="user-away-extended" transform="translate(88)">
  <rect id="rect4649" style="opacity:0.001" width="22" height="22" x="44" y="0"/>
  <path id="circle4653" style="opacity:1;fill:#9b59b6" transform="translate(-88)" d="M 143 3 C 140.79087 2.9999946 139.00002 4.7908524 139 7 C 139.00002 9.2091476 140.79087 11.000005 143 11 C 145.20913 11.000005 146.99998 9.2091476 147 7 C 146.99998 4.7908524 145.20913 2.9999946 143 3 z M 143 4 C 144.65684 4 145.99998 5.343141 146 7 C 145.99998 8.656859 144.65684 10 143 10 C 141.34316 10 140.00002 8.656859 140 7 C 140.00002 5.343141 141.34316 4 143 4 z M 143 12 C 138.68202 12 135 14.594496 135 17.949219 A 1.2632842 1.0501051 0 0 0 136.26367 19 L 143 19 L 144.67773 19 A 4.5 4.5 0 0 1 143.76172 18 L 143 18 L 136.26367 18 C 136.01526 17.99998 135.99999 17.879023 136 17.949219 C 136 16.637711 136.70588 15.44864 137.9707 14.523438 C 139.23552 13.598232 141.04135 13 143 13 C 143.25025 13 143.49774 13.010327 143.74219 13.029297 A 4.5 4.5 0 0 1 144.54492 12.113281 C 144.04303 12.03951 143.52631 12 143 12 z M 147.5 12 C 145.567 12 144 13.567003 144 15.5 C 144 17.432997 145.567 19 147.5 19 C 149.433 19 151 17.432997 151 15.5 C 151 13.567003 149.433 12 147.5 12 z M 145.5 15 C 145.77614 15 146 15.223858 146 15.5 C 146 15.776142 145.77614 16 145.5 16 C 145.22386 16 145 15.776142 145 15.5 C 145 15.223858 145.22386 15 145.5 15 z M 147.5 15 C 147.77614 15 148 15.223858 148 15.5 C 148 15.776142 147.77614 16 147.5 16 C 147.22386 16 147 15.776142 147 15.5 C 147 15.223858 147.22386 15 147.5 15 z M 149.5 15 C 149.77614 15 150 15.223858 150 15.5 C 150 15.776142 149.77614 16 149.5 16 C 149.22386 16 149 15.776142 149 15.5 C 149 15.223858 149.22386 15 149.5 15 z"/>
 </g>
</svg>
