<svg xmlns="http://www.w3.org/2000/svg" id="svg2" width="22" height="22" version="1.1">
 <g id="22-22-view-refresh" transform="translate(22,-10)">
  <path id="path9" style="opacity:0.001" d="M 22,32 H 0 V 10 h 22 z"/>
  <path id="path7" style="opacity:1;fill:#eff0f1" d="m 11,13 c -1.4417,0 -2.80295,0.369199 -3.96875,1.03125 l 0.75,0.75 C 8.74415,14.283876 9.8375,14 11,14 c 3.795451,0 6.859248,2.992984 6.988281,6.755859 C 17.440087,20.269516 16.732834,20.000649 16,20 c -1.656854,0 -3,1.343146 -3,3 0,1.656854 1.343146,3 3,3 1.656854,0 3,-1.343146 3,-3 v -2 c 0,-4.431966 -3.568,-8 -8,-8 z m -5,3 c -1.6568542,0 -3,1.343146 -3,3 v 2 c 0,4.431966 3.568,8 8,8 1.4417,0 2.80295,-0.369199 3.96875,-1.03125 l -0.75,-0.75 C 13.25585,27.716124 12.1625,28 11,28 7.2045486,28 4.1407523,25.007016 4.0117188,21.244141 4.5599134,21.730484 5.2671655,21.999351 6,22 7.6568542,22 9,20.656854 9,19 9,17.343146 7.6568542,16 6,16 Z"/>
 </g>
 <g id="view-refresh" transform="translate(0,-32)">
  <path id="path14" style="opacity:0.001" d="M 54,32 H 22 V 0 h 32 z"/>
  <path id="path12" style="opacity:1;fill:#eff0f1" d="m 38,4 c -2.140821,0.0046 -4.241429,0.581863 -6.083984,1.671875 l 0.732422,0.7324219 C 34.283513,5.4878979 36.125636,5.0045 38,5 43.958452,5 48.798245,9.7405469 48.982422,15.654297 48.128581,14.608346 46.850206,14.001064 45.5,14 43.014719,14 41,16.014719 41,18.5 41,20.985281 43.014719,23 45.5,23 47.985281,23 50,20.985281 50,18.5 V 16 C 50,9.372583 44.627417,4 38,4 Z M 30.5,9 C 28.014719,9 26,11.014719 26,13.5 V 16 c 0,6.627417 5.372583,12 12,12 2.140821,-0.0046 4.241429,-0.581863 6.083984,-1.671875 L 43.351562,25.595703 C 41.716487,26.512102 39.874364,26.9955 38,27 32.041548,27 27.201755,22.259453 27.017578,16.345703 27.871419,17.391654 29.149794,17.998936 30.5,18 32.985281,18 35,15.985281 35,13.5 35,11.014719 32.985281,9 30.5,9 Z"/>
 </g>
 <g id="22-22-view-history" transform="translate(0,-42)">
  <path id="path15" style="opacity:0.001" d="M 0,42 V 64 H 22 V 42 Z"/>
  <path id="path13" style="opacity:1;fill:#eff0f1" d="m 11,45 c -4.431998,0 -8,3.568002 -8,8 0,4.431998 3.568002,8 8,8 4.431998,0 8,-3.568002 8,-8 0,-4.431998 -3.568002,-8 -8,-8 z m 0,1 c 3.877999,0 7,3.122001 7,7 0,3.877999 -3.122001,7 -7,7 -3.877999,0 -7,-3.122001 -7,-7 0,-3.877999 3.122001,-7 7,-7 z m -0.01563,0.986328 A 1.0001,1.0001 0 0 0 10,48 v 5 a 1.0001,1.0001 0 0 0 1,1 h 5 a 1.0001,1.0001 0 1 0 0,-2 h -4 v -4 a 1.0001,1.0001 0 0 0 -1.015625,-1.013672 z"/>
 </g>
 <g id="view-history" transform="translate(-32,-64)">
  <path id="path24" style="opacity:0.001" d="M 22,32 V 64 H 54 V 32 Z"/>
  <path id="path22" style="opacity:1;fill:#eff0f1" d="m 38,36 c -6.627417,0 -12,5.372583 -12,12 0,6.627417 5.372583,12 12,12 6.627417,0 12,-5.372583 12,-12 0,-6.627417 -5.372583,-12 -12,-12 z m 0,1 c 6.075132,0 11,4.924868 11,11 0,6.075132 -4.924868,11 -11,11 -6.075132,0 -11,-4.924868 -11,-11 0,-6.075132 4.924868,-11 11,-11 z m -0.01563,1.986328 A 1.0001,1.0001 0 0 0 37,40 v 8 a 1.0001,1.0001 0 0 0 1,1 h 8 a 1.0001,1.0001 0 1 0 0,-2 h -7 v -7 a 1.0001,1.0001 0 0 0 -1.015625,-1.013672 z"/>
 </g>
</svg>
