<svg xmlns="http://www.w3.org/2000/svg" id="svg2" width="22" height="22" version="1.1">
 <g id="vlc">
  <rect id="rect4246" style="opacity:0.001" width="22" height="22" x="0" y="0"/>
  <path id="rect4271" style="opacity:1;fill:#eff0f1" d="M 10 3 C 9.5778647 3.0008 9.0937818 3.0884125 8.8574219 3.9453125 L 5.2558594 17 L 4 17 A 1 1 0 0 0 3 18 A 1 1 0 0 0 4 19 L 18 19 A 1 1 0 0 0 19 18 A 1 1 0 0 0 18 17 L 16.742188 17 L 13.152344 3.9863281 C 12.963929 3.0211281 12.570962 3.0008 12 3 L 10 3 z M 9.8808594 4 L 12.119141 4 L 12.671875 6 L 9.328125 6 L 9.8808594 4 z M 8.5019531 9 L 13.498047 9 L 14.326172 12 L 7.6738281 12 L 8.5019531 9 z M 6.8457031 15 L 15.154297 15 L 15.705078 17 L 6.2949219 17 L 6.8457031 15 z"/>
 </g>
</svg>
