<svg xmlns="http://www.w3.org/2000/svg" id="svg2" width="32" height="32" version="1.1">
 <g id="22-22-vlc" transform="translate(32,10)">
  <rect id="rect4246" style="opacity:0.001" width="22" height="22" x="0" y="0"/>
  <path id="rect4271" style="opacity:1;fill:#eff0f1" d="M 10,3 C 9.5778647,3.0008 9.0937818,3.0884125 8.8574219,3.9453125 L 5.2558594,17 H 4 a 1,1 0 0 0 -1,1 1,1 0 0 0 1,1 h 14 a 1,1 0 0 0 1,-1 1,1 0 0 0 -1,-1 H 16.742188 L 13.152344,3.9863281 C 12.963929,3.0211281 12.570962,3.0008 12,3 Z M 9.8808594,4 h 2.2382816 l 0.552734,2 H 9.328125 Z M 8.5019531,9 h 4.9960939 l 0.828125,3 H 7.6738281 Z m -1.65625,6 h 8.3085939 l 0.550781,2 H 6.2949219 Z"/>
 </g>
 <g id="vlc">
  <rect id="rect817" style="opacity:0.001" width="32" height="32" x="0" y="0"/>
  <path id="path837" style="opacity:1;fill:#eff0f1" d="M 14.5 4 C 13.866797 4.0012 13.141649 4.1326187 12.787109 5.4179688 L 7.3847656 25 L 5.5 25 A 1.5 1.5 0 0 0 4 26.5 A 1.5 1.5 0 0 0 5.5 28 L 7.8007812 28 L 23.099609 28 L 26.5 28 A 1.5 1.5 0 0 0 28 26.5 A 1.5 1.5 0 0 0 26.5 25 L 24.613281 25 L 19.228516 5.4804688 C 18.945894 4.0326688 18.356443 4.0012 17.5 4 L 14.5 4 z M 14.5 5 L 14.501953 5 L 17.5 5 C 17.912756 5.0009121 18.051111 5.0468372 18.033203 5.0351562 C 18.015233 5.0234333 18.129573 5.0749462 18.246094 5.671875 A 1.0001 1.0001 0 0 0 18.263672 5.7460938 L 19.162109 9 L 12.837891 9 L 13.751953 5.6835938 C 13.885077 5.2009644 14.011633 5.1132807 14.076172 5.0722656 C 14.140423 5.0314334 14.254154 5.0007294 14.5 5 z M 12.009766 12 L 19.990234 12 L 21.369141 17 L 10.630859 17 L 12.009766 12 z M 9.8027344 20 L 22.195312 20 L 23.574219 25 L 8.4238281 25 L 9.8027344 20 z"/>
 </g>
</svg>
