<svg xmlns="http://www.w3.org/2000/svg" id="svg2" width="22" height="22" version="1.1">
<defs id="rounded">
    <style type="text/css" id="current-color-scheme">
        .ColorScheme-Text {
        color:#eff0f1;
        }
        .ColorScheme-NegativeText {
        color:#da4453;
        }
        .ColorScheme-Highlight {
        color:#3daee9;
        }
        .ColorScheme-Background {
        color:#31363b;
      }
      .ColorScheme-ButtonBackground {
        color:#444c53;
      }
    </style>
</defs>
 <g id="configure">
  <rect id="rect856" style="opacity:0.001" width="22" height="22" x="0" y="0"/>
  <path id="path848" style="opacity:1;fill:currentColor" class="ColorScheme-Text" d="m 16,3 c 1.594,0 2.900141,1.2454063 2.994141,2.8164062 v 0.00977 l 0.002,0.00977 v 0.00195 0.00781 0.00195 0.00781 0.00195 0.00781 0.00195 0.00586 l 0.002,0.00391 v 0.00781 0.00195 0.00781 0.00195 0.00586 0.00391 0.00586 0.00586 0.00586 0.00391 0.00391 0.00586 0.00391 L 19,5.9472656 v 0.00391 0.00586 0.00391 0.00586 0.00391 0.00586 0.00391 0.00586 0.00391 V 6 c 0,1.656 -1.344,3 -3,3 H 6 C 4.344,9 3,7.656 3,6 3,4.344 4.344,3 6,3 Z M 13.765625,4 H 6 C 4.896,4 4,4.896 4,6 4,7.104 4.896,8 6,8 h 7.765625 C 13.289625,7.469 13,6.768 13,6 13,5.232 13.289625,4.531 13.765625,4 Z M 16,13 c 1.656,0 3,1.344 3,3 0,1.656 -1.344,3 -3,3 H 6 C 4.344,19 3,17.656 3,16 V 15.9902 15.95114 L 3.00195,15.90622 3.0039,15.85739 3.00585,15.81637 C 3.099859,14.245406 4.406,13 6,13 Z m 0,1 H 8.234375 C 8.710375,14.531 9,15.232 9,16 9,16.768 8.710375,17.469 8.234375,18 H 16 c 1.104,0 2,-0.896 2,-2 0,-1.104 -0.896,-2 -2,-2 z"/>
 </g>
 <g id="16-16-configure" transform="translate(-19,3)">
  <rect id="rect817" style="opacity:0.001" width="16" height="16" x="3" y="3"/>
  <path id="path844" style="opacity:1;fill:currentColor" class="ColorScheme-Text" d="M 7.5,5 A 2.5,2.5 0 0 0 5,7.5 2.5,2.5 0 0 0 7.5,10 h 7 A 2.5,2.5 0 0 0 17,7.5 2.5,2.5 0 0 0 14.5,5 Z m 0,1 h 5.011719 C 12.195356,6.4187732 12,6.9347127 12,7.5 12,8.0652873 12.195356,8.5812268 12.511719,9 H 7.5 C 6.6597282,9 6,8.3402718 6,7.5 6,6.6597282 6.6597282,6 7.5,6 Z m 0,6 A 2.5,2.5 0 0 0 5,14.5 2.5,2.5 0 0 0 7.5,17 h 7 A 2.5,2.5 0 0 0 17,14.5 2.5,2.5 0 0 0 14.5,12 Z m 1.9882812,1 H 14.5 c 0.840272,0 1.5,0.659728 1.5,1.5 0,0.840272 -0.659728,1.5 -1.5,1.5 H 9.4882812 C 9.8046442,15.581227 10,15.065287 10,14.5 10,13.934713 9.8046442,13.418773 9.4882812,13 Z"/>
 </g>
</svg>
