<svg xmlns="http://www.w3.org/2000/svg" id="svg25" width="22" height="22" version="1.1">
<defs id="rounded">
    <style type="text/css" id="current-color-scheme">
        .ColorScheme-Text {
        color:#eff0f1;
        }
        .ColorScheme-NegativeText {
        color:#da4453;
        }
        .ColorScheme-Highlight {
        color:#3daee9;
        }
        .ColorScheme-Background {
        color:#31363b;
      }
      .ColorScheme-ButtonBackground {
        color:#444c53;
      }
    </style>
</defs>
 <g id="drive-harddisk">
  <rect id="rect883" style="opacity:0.001" width="22" height="22" x="0" y="0"/>
  <path id="path857" style="opacity:1;fill:currentColor" class="ColorScheme-Text" d="M 6 3 C 4.892 3 4 3.892 4 5 L 4 14 L 4 17 C 4 18.108 4.892 19 6 19 L 16 19 C 17.108 19 18 18.108 18 17 L 18 14 L 18 5 C 18 3.892 17.108 3 16 3 L 6 3 z M 6 4 L 16 4 C 16.571297 4 17 4.4287028 17 5 L 17 15.724609 C 16.704999 15.895709 16.36693 16 16 16 L 6 16 C 5.6330699 16 5.2950013 15.895709 5 15.724609 L 5 5 C 5 4.4287028 5.4287028 4 6 4 z M 11 6 C 8.7908565 6 7 7.7908575 7 10 L 7 14 L 11 14 C 13.209143 14 15 12.209143 15 10 C 15 7.7908575 13.209143 6 11 6 z M 11 8 A 1.9999987 1.9999987 0 0 1 13 10 A 1.9999987 1.9999987 0 0 1 11 12 A 1.9999987 1.9999987 0 0 1 9 10 A 1.9999987 1.9999987 0 0 1 11 8 z M 7 17 L 11 17 L 11 18 L 7 18 L 7 17 z M 12 17 L 15 17 L 15 18 L 12 18 L 12 17 z"/>
 </g>
</svg>
