<svg xmlns="http://www.w3.org/2000/svg" id="svg26" width="22" height="22" version="1.1">
<defs id="rounded">
    <style type="text/css" id="current-color-scheme">
        .ColorScheme-Text {
        color:#eff0f1;
        }
        .ColorScheme-NegativeText {
        color:#da4453;
        }
        .ColorScheme-Highlight {
        color:#3daee9;
        }
        .ColorScheme-Background {
        color:#31363b;
      }
      .ColorScheme-ButtonBackground {
        color:#444c53;
      }
    </style>
</defs>
 <g id="emblem-shared-symbolic">
  <rect id="rect2" style="opacity:0.001" width="22" height="22" x="0" y="0"/>
  <path id="path819" style="opacity:1;fill:currentColor" class="ColorScheme-Text" d="M 15 3 A 3 3 0 0 0 12 6 A 3 3 0 0 0 12.228516 7.1425781 L 9.2402344 9.0097656 A 3 3 0 0 0 7 8 A 3 3 0 0 0 4 11 A 3 3 0 0 0 7 14 A 3 3 0 0 0 9.2421875 12.990234 L 12.226562 14.857422 A 3 3 0 0 0 12 16 A 3 3 0 0 0 15 19 A 3 3 0 0 0 18 16 A 3 3 0 0 0 15 13 A 3 3 0 0 0 12.757812 14.009766 L 9.7734375 12.142578 A 3 3 0 0 0 10 11 A 3 3 0 0 0 9.7714844 9.8574219 L 12.759766 7.9902344 A 3 3 0 0 0 15 9 A 3 3 0 0 0 18 6 A 3 3 0 0 0 15 3 z"/>
 </g>
</svg>
