<svg xmlns="http://www.w3.org/2000/svg" width="22" height="22" version="1.1">
<defs id="rounded">
    <style type="text/css" id="current-color-scheme">
        .ColorScheme-Text {
        color:#eff0f1;
        }
        .ColorScheme-NegativeText {
        color:#da4453;
        }
        .ColorScheme-Highlight {
        color:#3daee9;
        }
        .ColorScheme-Background {
        color:#31363b;
      }
      .ColorScheme-ButtonBackground {
        color:#444c53;
      }
    </style>
</defs>
 <g id="fcitx-wbpy">
  <rect style="opacity:0.001" width="22" height="22" x="176" y="-132"/>
  <path style="fill:currentColor" class="ColorScheme-Text" d="m 181,-129 c -1.108,0 -2,0.892 -2,2 v 12 c 0,1.108 0.892,2 2,2 h 7 v -1 h -7 c -0.5713,0 -1,-0.4287 -1,-1 v -12 c 0,-0.5713 0.4287,-1 1,-1 h 12 c 0.5713,0 1,0.4287 1,1 v 7 h 1 v -7 c 0,-1.108 -0.892,-2 -2,-2 z m 1,3 v 1 h 3.87695 l -0.66601,3 H 183 v 1 h 1.98828 l -0.88867,4 H 182 v 1 h 6 v -1 h -2.87695 l 0.89062,-4 H 189 v 1.27734 c 0.2959,-0.17447 0.63714,-0.27734 1,-0.27734 v -2 h -3.76367 l 0.66601,-3 H 191 v -1 z m 8,7 c -0.554,0 -1,0.446 -1,1 v 6 c 0,0.554 0.446,1 1,1 h 6 c 0.554,0 1,-0.446 1,-1 v -6 c 0,-0.554 -0.446,-1 -1,-1 z m 1,1 h 1 2 1 v 1 2 1 h -3 v 2 h -1 v -2 -1 -2 z m 1,1 v 2 h 2 v -2 z"/>
 </g>
 <g id="fcitx-punc-inactive" transform="translate(22,-132)">
  <rect style="opacity:0.001" width="22" height="22" x="132" y="110"/>
  <path style="opacity:0.5;fill:currentColor" class="ColorScheme-Text" transform="translate(-22,132)" d="M 159 -19 C 157.892 -19 157 -18.108 157 -17 L 157 -5 C 157 -3.892 157.892 -3 159 -3 L 171 -3 C 172.108 -3 173 -3.892 173 -5 L 173 -17 C 173 -18.108 172.108 -19 171 -19 L 159 -19 z M 159 -18 L 171 -18 C 171.5713 -18 172 -17.5713 172 -17 L 172 -5 C 172 -4.4287 171.5713 -4 171 -4 L 159 -4 C 158.4287 -4 158 -4.4287 158 -5 L 158 -17 C 158 -17.5713 158.4287 -18 159 -18 z M 161.5 -14 C 160.12521 -14 159 -12.87479 159 -11.5 C 159 -10.12521 160.12521 -9 161.5 -9 C 162.87479 -9 164 -10.12521 164 -11.5 C 164 -12.87479 162.87479 -14 161.5 -14 z M 168.5 -14 C 167.12521 -14 166 -12.87479 166 -11.5 C 166 -10.12521 167.12521 -9 168.5 -9 C 168.86519 -9 169.20988 -9.0842025 169.52344 -9.2265625 C 169.18251 -8.5333625 168.70356 -8.0592594 168.2168 -7.7246094 C 167.32171 -7.1092394 166.4375 -6.9960938 166.4375 -6.9960938 L 166.5625 -6.0039062 C 166.5625 -6.0039062 167.67829 -6.1407606 168.7832 -6.9003906 C 169.88812 -7.6600206 171 -9.10185 171 -11.5 C 171 -12.87479 169.87479 -14 168.5 -14 z"/>
 </g>
 <g id="fcitx-pinyin" transform="translate(0,-132)">
  <rect style="opacity:0.001" width="22" height="22" x="0" y="0"/>
  <path style="fill:currentColor" class="ColorScheme-Text" transform="translate(0,132)" d="M 5 -129 C 3.892 -129 3 -128.108 3 -127 L 3 -115 C 3 -113.892 3.892 -113 5 -113 L 17 -113 C 18.107999 -113 19 -113.892 19 -115 L 19 -127 C 19 -128.108 18.107999 -129 17 -129 L 5 -129 z M 5 -128 L 17 -128 C 17.571295 -128 18 -127.5713 18 -127 L 18 -115 C 18 -114.4287 17.571295 -114 17 -114 L 5 -114 C 4.4287033 -114 4 -114.4287 4 -115 L 4 -127 C 4 -127.5713 4.4287033 -128 5 -128 z M 10.900391 -127.30078 L 10.099609 -126.69922 L 11.375 -125 L 10 -125 L 10 -124 L 11 -124 L 11 -121 L 9.1171875 -121 L 9.2226562 -121.05078 L 8.7773438 -121.94922 L 8 -121.56055 L 8 -124 L 9 -124 L 9 -125 L 8 -125 L 8 -127 L 7 -127 L 7 -125 L 5 -125 L 5 -124 L 7 -124 L 7 -121.06055 L 4.7773438 -119.94922 L 5.2226562 -119.05078 L 7 -119.93945 L 7 -116 L 5 -116 L 5 -115 L 8 -115 L 8 -120.43945 L 9 -120.93945 L 9 -120 L 10.960938 -120 C 10.871937 -119.1 10.568969 -118.38945 10.167969 -117.68945 C 9.6706685 -116.82945 8.6582031 -115.86328 8.6582031 -115.86328 L 9.3417969 -115.13477 C 9.3417969 -115.13477 10.412203 -116.11945 11.033203 -117.18945 C 11.482203 -117.96945 11.862984 -118.88 11.958984 -120 L 14 -120 L 14 -115 L 15 -115 L 15 -120 L 17 -120 L 17 -121 L 15 -121 L 15 -124 L 17 -124 L 17 -125 L 14.625 -125 L 15.900391 -126.69922 L 15.099609 -127.30078 L 13.599609 -125.30078 L 13.998047 -125 L 12.001953 -125 L 12.400391 -125.30078 L 10.900391 -127.30078 z M 12 -124 L 14 -124 L 14 -121 L 12 -121 L 12 -124 z"/>
 </g>
 <g id="fcitx-wubi" transform="translate(0,-132)">
  <rect style="opacity:0.001" width="22" height="22" x="154" y="0"/>
  <path style="fill:currentColor" class="ColorScheme-Text" transform="translate(0,132)" d="M 159 -129 C 157.892 -129 157 -128.108 157 -127 L 157 -115 C 157 -113.892 157.892 -113 159 -113 L 171 -113 C 172.108 -113 173 -113.892 173 -115 L 173 -127 C 173 -128.108 172.108 -129 171 -129 L 159 -129 z M 159 -128 L 171 -128 C 171.5713 -128 172 -127.5713 172 -127 L 172 -115 C 172 -114.4287 171.5713 -114 171 -114 L 159 -114 C 158.4287 -114 158 -114.4287 158 -115 L 158 -127 C 158 -127.5713 158.4287 -128 159 -128 z M 160 -126 L 160 -125 L 163.87695 -125 L 163.21094 -122 L 161 -122 L 161 -121 L 162.98828 -121 L 162.09961 -117 L 160 -117 L 160 -116 L 170 -116 L 170 -117 L 168 -117 L 168 -122 L 164.23633 -122 L 164.90234 -125 L 169 -125 L 169 -126 L 160 -126 z M 164.01367 -121 L 167 -121 L 167 -117 L 163.12305 -117 L 164.01367 -121 z"/>
 </g>
 <g id="fcitx-googlepinyin" transform="translate(0,-132)">
  <rect style="opacity:0.001" width="22" height="22" x="0" y="44"/>
  <path style="fill:currentColor" class="ColorScheme-Text" transform="translate(0,132)" d="M 5 -85 C 3.892 -85 3 -84.108 3 -83 L 3 -71 C 3 -69.892 3.892 -69 5 -69 L 17 -69 C 18.107999 -69 19 -69.892 19 -71 L 19 -83 C 19 -84.108 18.107999 -85 17 -85 L 5 -85 z M 5 -84 L 17 -84 C 17.571295 -84 18 -83.571296 18 -83 L 18 -71 C 18 -70.428704 17.571295 -70 17 -70 L 5 -70 C 4.4287033 -70 4 -70.428703 4 -71 L 4 -83 C 4 -83.571297 4.4287033 -84 5 -84 z M 11 -83 A 6 6 0 0 0 5 -77 A 6 6 0 0 0 11 -71 A 6 6 0 0 0 17 -77 A 6 6 0 0 0 16.916016 -77.992188 L 16 -77.992188 L 16 -78 L 11 -78 L 11 -76 L 14.857422 -76 A 4 4 0 0 1 11 -73 A 4 4 0 0 1 7 -77 A 4 4 0 0 1 11 -81 A 4 4 0 0 1 13.558594 -80.072266 L 14.833984 -81.615234 A 6 6 0 0 0 11 -83 z"/>
 </g>
 <g id="fcitx-sunpinyin" transform="translate(22,-87.999992)">
  <rect style="opacity:0.001" width="22" height="22" x="0" y="0"/>
  <path style="fill:currentColor" class="ColorScheme-Text" transform="translate(-22,87.999992)" d="M 33 -86.486328 C 32.744381 -86.486328 32.488837 -86.387275 32.292969 -86.191406 L 30.101562 -84 L 27 -84 C 26.446 -84 26 -83.554 26 -83 L 26 -79.900391 L 23.806641 -77.707031 C 23.414903 -77.315294 23.414903 -76.684706 23.806641 -76.292969 L 26 -74.099609 L 26 -71 C 26 -70.446 26.446 -70 27 -70 L 30.099609 -70 L 32.292969 -67.806641 C 32.684706 -67.414903 33.315294 -67.414903 33.707031 -67.806641 L 35.900391 -70 L 39 -70 C 39.554 -70 40 -70.446 40 -71 L 40 -74.101562 L 42.191406 -76.292969 C 42.583143 -76.684706 42.583143 -77.315294 42.191406 -77.707031 L 40 -79.898438 L 40 -83 C 40 -83.554 39.554 -84 39 -84 L 35.898438 -84 L 33.707031 -86.191406 C 33.511163 -86.387275 33.255619 -86.486328 33 -86.486328 z M 33 -85.484375 L 35.484375 -83 L 36.875 -83 L 35.599609 -81.298828 L 35.998047 -81 L 34.001953 -81 L 34.400391 -81.298828 L 32.900391 -83.298828 L 32.099609 -82.699219 L 33.375 -81 L 32 -81 L 32 -80 L 33 -80 L 33 -77 L 31.117188 -77 L 31.222656 -77.052734 L 30.777344 -77.947266 L 30 -77.558594 L 30 -80 L 31 -80 L 31 -81 L 30 -81 L 30 -83 L 30.515625 -83 L 33 -85.484375 z M 27 -83 L 29 -83 L 29 -81 L 27 -81 L 27 -83 z M 37.498047 -83 L 39 -83 L 39 -81 L 36.625 -81 L 37.900391 -82.699219 L 37.498047 -83 z M 27 -80 L 29 -80 L 29 -77.058594 L 26.777344 -75.947266 L 27.222656 -75.052734 L 29 -75.941406 L 29 -72 L 27 -72 L 27 -74.513672 L 24.513672 -77 L 27 -79.486328 L 27 -80 z M 34 -80 L 36 -80 L 36 -77 L 34 -77 L 34 -80 z M 37 -80 L 39 -80 L 39 -79.484375 L 41.484375 -77 L 39 -74.515625 L 39 -71 L 37 -71 L 37 -76 L 39 -76 L 39 -77 L 37 -77 L 37 -80 z M 31 -76.941406 L 31 -76 L 32.960938 -76 C 32.872261 -75.104968 32.569285 -74.38848 32.167969 -73.693359 C 31.670653 -72.832059 30.658203 -71.863281 30.658203 -71.863281 L 31.341797 -71.134766 C 31.341797 -71.134766 32.412486 -72.118359 33.033203 -73.193359 C 33.481893 -73.97057 33.862844 -74.881299 33.958984 -76 L 36 -76 L 36 -71 L 35.486328 -71 L 33 -68.513672 L 30.513672 -71 L 30 -71 L 30 -76.441406 L 31 -76.941406 z"/>
 </g>
 <g id="fcitx-emoji" transform="translate(0,-132)">
  <rect style="opacity:0.001" width="22" height="22" x="0" y="132"/>
  <path style="fill:currentColor" class="ColorScheme-Text" transform="translate(0,132)" d="M 5 3 C 3.892 3 3 3.892 3 5 L 3 17 C 3 18.108 3.892 19 5 19 L 17 19 C 18.107999 19 19 18.108 19 17 L 19 5 C 19 3.892 18.107999 3 17 3 L 5 3 z M 5 4 L 17 4 C 17.571295 4 18 4.4287 18 5 L 18 17 C 18 17.5713 17.571295 18 17 18 L 5 18 C 4.4287033 18 4 17.5713 4 17 L 4 5 C 4 4.4287 4.4287033 4 5 4 z M 7.5 7 A 1.5 1.5 0 0 0 6 8.5 A 1.5 1.5 0 0 0 7.5 10 A 1.5 1.5 0 0 0 9 8.5 A 1.5 1.5 0 0 0 7.5 7 z M 14.5 7 A 1.5 1.5 0 0 0 13 8.5 A 1.5 1.5 0 0 0 14.5 10 A 1.5 1.5 0 0 0 16 8.5 A 1.5 1.5 0 0 0 14.5 7 z M 6 12 L 6 15 L 7 15 L 15 15 L 16 15 L 16 14 L 16 12 L 15 12 L 15 14 L 7 14 L 7 12 L 6 12 z"/>
 </g>
 <g id="fcitx-erbi" transform="translate(0,-132)">
  <rect style="opacity:0.001" width="22" height="22" x="132" y="0"/>
  <path style="fill:currentColor" class="ColorScheme-Text" transform="translate(0,132)" d="M 137 -129 C 135.892 -129 135 -128.108 135 -127 L 135 -115 C 135 -113.892 135.892 -113 137 -113 L 149 -113 C 150.108 -113 151 -113.892 151 -115 L 151 -127 C 151 -128.108 150.108 -129 149 -129 L 137 -129 z M 137 -128 L 145.03125 -128 C 145.02135 -127.3166 145.04581 -126.65749 145.07031 -126 L 137 -126 L 137 -125 L 145.11523 -125 C 145.26547 -122.60692 145.60964 -120.438 146.03906 -118.72461 C 146.34101 -117.51985 146.67671 -116.53607 147.01953 -115.82422 C 147.19094 -115.46829 147.36146 -115.18018 147.55469 -114.95312 C 147.74792 -114.72607 147.98349 -114.50887 148.35547 -114.51367 A 0.50005 0.50005 0 0 0 148.43555 -114.51953 C 149.07822 -114.63181 149.53329 -115.10384 149.73828 -115.63086 C 149.94323 -116.15788 149.98223 -116.74862 149.99023 -117.35547 L 148.99023 -117.36719 C 148.98273 -116.80374 148.92828 -116.30493 148.80664 -115.99219 C 148.70029 -115.71877 148.56828 -115.62797 148.33398 -115.56445 C 148.33842 -115.56631 148.33951 -115.57443 148.31641 -115.60156 C 148.21281 -115.7233 148.06808 -115.95015 147.91992 -116.25781 C 147.62359 -116.87313 147.29811 -117.80852 147.00781 -118.9668 C 146.59863 -120.59938 146.26602 -122.69176 146.11719 -125 L 149 -125 L 149 -126 L 146.06836 -126 C 146.04336 -126.65441 146.02105 -127.31204 146.03125 -127.99219 L 145.53125 -128 L 148 -128 L 149 -128 C 149.5713 -128 150 -127.5713 150 -127 L 150 -115 C 150 -114.4287 149.5713 -114 149 -114 L 137 -114 C 136.94541 -114 136.89354 -114.00805 136.8418 -114.01562 C 138.42965 -114.17911 139.53716 -114.60816 140.16211 -115.30664 C 140.70805 -115.88469 141.0085 -116.79599 141.0918 -118 L 140.00977 -118 C 139.92816 -117.09772 139.68172 -116.42001 139.25195 -115.99023 C 138.75933 -115.45972 137.75599 -115.11837 136.24023 -114.9668 L 136.66797 -114.05664 C 136.27182 -114.18784 136 -114.5472 136 -115 L 136 -127 C 136 -127.5713 136.4287 -128 137 -128 z M 148 -128 L 147.14648 -127.48828 C 147.52542 -127.07145 147.82927 -126.65511 148.05664 -126.23828 L 149.02344 -126.80664 C 148.75818 -127.22347 148.41683 -127.62106 148 -128 z M 138 -124 L 138 -123 L 144 -123 L 144 -124 L 138 -124 z M 138 -122 L 138 -121 L 144 -121 L 144 -122 L 138 -122 z M 138 -120 L 138 -119 L 138 -117 L 139 -117 L 139 -119 L 143 -119 L 143 -117 L 144 -117 L 144 -120 L 139 -120 L 138 -120 z M 141.70312 -117.00195 L 141.02148 -116.14844 C 141.93093 -115.69371 142.7636 -115.1442 143.52148 -114.5 L 144.31836 -115.41016 C 143.52259 -116.01646 142.65048 -116.54723 141.70312 -117.00195 z"/>
 </g>
 <g id="fcitx-ziranma" transform="translate(0,-132)">
  <rect style="opacity:0.001" width="22" height="22" x="198" y="0"/>
  <path style="fill:currentColor" class="ColorScheme-Text" transform="translate(0,132)" d="M 203 -129 C 201.892 -129 201 -128.108 201 -127 L 201 -115 C 201 -113.892 201.892 -113 203 -113 L 215 -113 C 216.108 -113 217 -113.892 217 -115 L 217 -127 C 217 -128.108 216.108 -129 215 -129 L 203 -129 z M 203 -128 L 215 -128 C 215.5713 -128 216 -127.5713 216 -127 L 216 -115 C 216 -114.4287 215.5713 -114 215 -114 L 203 -114 C 202.4287 -114 202 -114.4287 202 -115 L 202 -127 C 202 -127.5713 202.4287 -128 203 -128 z M 207.67969 -127.38477 L 204.81836 -125 L 204 -125 L 204 -115 L 214 -115 L 214 -125 L 206.38281 -125 L 208.32031 -126.61523 L 207.67969 -127.38477 z M 205 -124 L 213 -124 L 213 -116 L 205 -116 L 205 -118 L 211 -118 L 211 -119 L 205 -119 L 205 -121 L 211 -121 L 211 -122 L 205 -122 L 205 -124 z"/>
 </g>
 <g id="fcitx-quanpin" transform="translate(0,-132)">
  <rect style="opacity:0.001" width="22" height="22" x="22" y="0"/>
  <path style="fill:currentColor" class="ColorScheme-Text" transform="translate(0,132)" d="M 27 -129 C 25.892 -129 25 -128.108 25 -127 L 25 -115 C 25 -113.892 25.892 -113 27 -113 L 39 -113 C 40.107999 -113 41 -113.892 41 -115 L 41 -127 C 41 -128.108 40.107999 -129 39 -129 L 27 -129 z M 27 -128 L 39 -128 C 39.571295 -128 40 -127.5713 40 -127 L 40 -115 C 40 -114.4287 39.571295 -114 39 -114 L 27 -114 C 26.428703 -114 26 -114.4287 26 -115 L 26 -127 C 26 -127.5713 26.428703 -128 27 -128 z M 32.509766 -127.09766 C 32.323881 -126.16823 30.961501 -125.03658 29.566406 -124.24805 C 28.171312 -123.45952 26.830078 -122.9707 26.830078 -122.9707 L 27.169922 -122.0293 C 27.169922 -122.0293 27.971304 -122.3225 29 -122.82422 L 29 -122 L 32.5 -122 L 32.5 -120 L 30 -120 L 30 -119 L 32.5 -119 L 32.5 -116 L 28 -116 L 28 -115 L 38 -115 L 38 -116 L 33.5 -116 L 33.5 -119 L 36 -119 L 36 -120 L 33.5 -120 L 33.5 -122 L 37 -122 L 37 -122.86914 C 38.015788 -122.35301 38.824219 -122.03125 38.824219 -122.03125 L 39.175781 -122.96875 C 39.175781 -122.96875 35.319764 -124.46681 33.443359 -126.75586 C 33.456209 -126.80563 33.480104 -126.85164 33.490234 -126.90234 L 32.509766 -127.09766 z M 33 -125.76758 C 34.116196 -124.55275 35.543014 -123.63048 36.734375 -123 L 29.337891 -123 C 29.575427 -123.12095 29.810788 -123.23689 30.058594 -123.37695 C 31.153861 -123.99602 32.332412 -124.77067 33 -125.76758 z"/>
 </g>
 <g id="fcitx-cangjie" transform="translate(0,-132)">
  <rect style="opacity:0.001" width="22" height="22" x="220" y="0"/>
  <path style="fill:currentColor" class="ColorScheme-Text" transform="translate(0,132)" d="M 225 -129 C 223.892 -129 223 -128.108 223 -127 L 223 -115 C 223 -113.892 223.892 -113 225 -113 L 237 -113 C 238.108 -113 239 -113.892 239 -115 L 239 -127 C 239 -128.108 238.108 -129 237 -129 L 225 -129 z M 225 -128 L 237 -128 C 237.5713 -128 238 -127.5713 238 -127 L 238 -115 C 238 -114.4287 237.5713 -114 237 -114 L 225 -114 C 224.4287 -114 224 -114.4287 224 -115 L 224 -127 C 224 -127.5713 224.4287 -128 225 -128 z M 230.58398 -127.27734 C 228.74038 -124.51204 224.9375 -123.99609 224.9375 -123.99609 L 225.0625 -123.00391 C 225.0625 -123.00391 225.8964 -123.12766 227 -123.53906 L 227 -119.5 C 227 -118.667 226.54611 -117.58705 226.06641 -116.74805 C 225.58681 -115.90905 225.10927 -115.3125 225.10938 -115.3125 L 225.89062 -114.6875 C 225.89062 -114.6875 226.41329 -115.34095 226.93359 -116.25195 L 227 -116.37695 L 227 -115 L 235 -115 L 235 -118 L 227.72461 -118 C 227.83161 -118.327 227.90301 -118.661 227.94531 -119 L 235 -119 L 235 -123.53906 C 236.104 -123.12766 236.9375 -123.00391 236.9375 -123.00391 L 237.0625 -123.99609 C 237.0625 -123.99609 233.26002 -124.51204 231.41602 -127.27734 L 230.58398 -127.27734 z M 231 -126.29688 C 231.8588 -125.22727 232.93309 -124.4983 233.93359 -124 L 231.5 -124 L 231.77734 -124.41602 L 230.27734 -125.41602 L 229.72266 -124.58398 L 230.59766 -124 L 228.06641 -124 C 229.06651 -124.4983 230.1412 -125.22726 231 -126.29688 z M 228 -123 L 234 -123 L 234 -120 L 228 -120 L 228 -121 L 233 -121 L 233 -122 L 228 -122 L 228 -123 z M 228 -117 L 234 -117 L 234 -116 L 228 -116 L 228 -117 z"/>
 </g>
 <g id="fcitx-bopomofo" transform="translate(0,-132)">
  <rect style="opacity:0.001" width="22" height="22" x="66" y="0"/>
  <path style="fill:currentColor" class="ColorScheme-Text" transform="translate(0,132)" d="M 71 -129 C 69.892 -129 69 -128.108 69 -127 L 69 -115 C 69 -113.892 69.892 -113 71 -113 L 83 -113 C 84.107999 -113 85 -113.892 85 -115 L 85 -127 C 85 -128.108 84.107999 -129 83 -129 L 71 -129 z M 71 -128 L 83 -128 C 83.571295 -128 84 -127.5713 84 -127 L 84 -115 C 84 -114.4287 83.571295 -114 83 -114 L 71 -114 C 70.428703 -114 70 -114.4287 70 -115 L 70 -127 C 70 -127.5713 70.428703 -128 71 -128 z M 77.300781 -127.40039 L 76.699219 -126.59961 L 78.699219 -125.09961 L 79.300781 -125.90039 L 77.300781 -127.40039 z M 71.353516 -127.35352 L 70.646484 -126.64648 L 72.646484 -124.64648 L 73.353516 -125.35352 L 71.353516 -127.35352 z M 74 -125 L 74 -124 L 78 -124 L 78 -121 L 75 -121 L 75 -120 L 78 -120 L 78 -116 L 74 -116 L 74 -115 L 83 -115 L 83 -116 L 79 -116 L 79 -120 L 82 -120 L 82 -121 L 79 -121 L 79 -124 L 83 -124 L 83 -125 L 74 -125 z M 71.353516 -124.35352 L 70.646484 -123.64648 L 72.646484 -121.64648 L 73.353516 -122.35352 L 71.353516 -124.35352 z M 72.525391 -121.1582 L 70.525391 -115.1582 L 71.474609 -114.8418 L 73.474609 -120.8418 L 72.525391 -121.1582 z"/>
 </g>
 <g id="fcitx-chewing" transform="translate(0,-132)">
  <rect style="opacity:0.001" width="22" height="22" x="88" y="0"/>
  <path style="fill:currentColor" class="ColorScheme-Text" transform="translate(0,132)" d="M 93 -129 C 91.892 -129 91 -128.108 91 -127 L 91 -115 C 91 -113.892 91.892 -113 93 -113 L 105 -113 C 106.108 -113 107 -113.892 107 -115 L 107 -127 C 107 -128.108 106.108 -129 105 -129 L 93 -129 z M 93 -128 L 105 -128 C 105.5713 -128 106 -127.5713 106 -127 L 106 -115 C 106 -114.4287 105.5713 -114 105 -114 L 93 -114 C 92.428703 -114 92 -114.4287 92 -115 L 92 -127 C 92 -127.5713 92.428703 -128 93 -128 z M 93 -127 L 93 -126 L 94 -126 L 94 -123 L 93 -123 L 93 -115 L 99 -115 L 99 -123 L 98.5 -123 L 97 -123 L 97 -126 L 99 -126 L 99 -127 L 93 -127 z M 99 -123 L 99.400391 -122.69922 C 99.400391 -122.69922 99.798562 -123.2104 100.19727 -124 L 102 -124 L 102 -122 L 100 -122 L 100 -121 L 105 -121 L 105 -122 L 103 -122 L 103 -124 L 105 -124 L 105 -125 L 103 -125 L 103 -127 L 102 -127 L 102 -125 L 100.61719 -125 C 100.83459 -125.6113 101 -126.2913 101 -127 L 100 -127 C 100 -125.25 98.599609 -123.30078 98.599609 -123.30078 L 99 -123 z M 95 -126 L 96 -126 L 96 -123 L 95 -123 L 95 -126 z M 95 -122 L 96 -122 L 96 -119 L 97 -119 L 97 -122 L 98 -122 L 98 -116 L 94 -116 L 94 -117 L 97 -117 L 97 -118 L 94 -118 L 94 -119 L 95 -119 L 95 -122 z M 100 -120 L 100 -115 L 105 -115 L 105 -120 L 100 -120 z M 101 -119 L 104 -119 L 104 -116 L 101 -116 L 101 -119 z"/>
 </g>
 <g id="fcitx-rime" transform="translate(0,-132)">
  <rect style="opacity:0.001" width="22" height="22" x="110" y="0"/>
  <path style="fill:currentColor" class="ColorScheme-Text" transform="translate(0,132)" d="M 115 -129 C 113.892 -129 113 -128.108 113 -127 L 113 -115 C 113 -113.892 113.892 -113 115 -113 L 127 -113 C 128.108 -113 129 -113.892 129 -115 L 129 -127 C 129 -128.108 128.108 -129 127 -129 L 115 -129 z M 115 -128 L 127 -128 C 127.5713 -128 128 -127.5713 128 -127 L 128 -115 C 128 -114.4287 127.5713 -114 127 -114 L 115 -114 C 114.4287 -114 114 -114.4287 114 -115 L 114 -127 C 114 -127.5713 114.4287 -128 115 -128 z M 120 -127 L 120 -120.01758 C 118.189 -120.09918 117.27948 -120.62417 116.73828 -121.50977 C 116.14838 -122.47497 116 -124.0208 116 -126 L 115 -126 C 115 -123.9792 115.10162 -122.27503 115.88672 -120.99023 C 116.61332 -119.80133 117.9496 -119.11633 120 -119.01953 L 120 -116 L 115 -116 L 115 -115 L 126 -115 L 126 -116 L 121 -116 L 121 -119.01953 C 123.05 -119.11633 124.38728 -119.80133 125.11328 -120.99023 C 125.89828 -122.27503 126 -123.9792 126 -126 L 125 -126 C 125 -124.0208 124.85172 -122.47497 124.26172 -121.50977 C 123.72072 -120.62417 122.811 -120.09918 121 -120.01758 L 121 -127 L 120 -127 z"/>
 </g>
 <g id="fcitx-libkkc" transform="translate(0,-132)">
  <rect style="opacity:0.001" width="22" height="22" x="22" y="66"/>
  <path style="fill:currentColor" class="ColorScheme-Text" transform="translate(0,132)" d="M 27 -63 C 25.892001 -63 25 -62.108 25 -61 L 25 -49 C 25 -47.891999 25.892001 -47 27 -47 L 39 -47 C 40.107998 -47 41 -47.891999 41 -49 L 41 -61 C 41 -62.108 40.107998 -63 39 -63 L 27 -63 z M 27 -62 L 39 -62 C 39.571294 -62 40 -61.571295 40 -61 L 40 -49 C 40 -48.428703 39.571294 -48 39 -48 L 27 -48 C 26.428704 -48 26 -48.428702 26 -49 L 26 -61 C 26 -61.571296 26.428705 -62 27 -62 z M 27 -59 L 27 -51 L 28 -51 L 28 -53.292969 L 30.292969 -51 L 31 -51 L 31.707031 -51 L 32 -51 L 32 -53.292969 L 34.292969 -51 L 35.707031 -51 L 32.707031 -54 L 35.707031 -57 L 34.292969 -57 L 32 -54.707031 L 32 -59 L 31 -59 L 31 -57 L 30.292969 -57 L 28 -54.707031 L 28 -59 L 27 -59 z M 37 -57 C 36.416667 -57 35.889336 -56.846366 35.521484 -56.478516 C 35.153633 -56.110656 35 -55.58333 35 -55 L 35 -53 C 35 -52.41667 35.153633 -51.889344 35.521484 -51.521484 C 35.889336 -51.153634 36.416667 -51 37 -51 C 37.583333 -51 38.110664 -51.153634 38.478516 -51.521484 C 38.846367 -51.889344 39 -52.41667 39 -53 L 38 -53 C 38 -52.58333 37.90363 -52.360656 37.771484 -52.228516 C 37.639336 -52.09637 37.416667 -52 37 -52 C 36.583333 -52 36.360664 -52.0964 36.228516 -52.228516 C 36.09637 -52.360656 36 -52.58333 36 -53 L 36 -55 C 36 -55.41667 36.09637 -55.639344 36.228516 -55.771484 C 36.360664 -55.903634 36.583333 -56 37 -56 C 37.416667 -56 37.639336 -55.9036 37.771484 -55.771484 C 37.903633 -55.639344 38 -55.41667 38 -55 L 39 -55 C 39 -55.58333 38.846367 -56.110656 38.478516 -56.478516 C 38.110664 -56.846366 37.583333 -57 37 -57 z M 31 -56.292969 L 31 -51.707031 L 28.707031 -54 L 31 -56.292969 z"/>
 </g>
 <g id="fcitx-libskk" transform="translate(0,-132)">
  <rect style="opacity:0.001" width="22" height="22" x="44" y="66"/>
  <path style="fill:currentColor" class="ColorScheme-Text" transform="translate(0,132)" d="M 49 -63 C 47.892 -63 47 -62.108 47 -61 L 47 -49 C 47 -47.892 47.892 -47 49 -47 L 61 -47 C 62.107999 -47 63 -47.892 63 -49 L 63 -61 C 63 -62.108 62.107999 -63 61 -63 L 49 -63 z M 49 -62 L 61 -62 C 61.571295 -62 62 -61.571296 62 -61 L 62 -49 C 62 -48.428704 61.571295 -48 61 -48 L 49 -48 C 48.428703 -48 48 -48.428703 48 -49 L 48 -61 C 48 -61.571297 48.428703 -62 49 -62 z M 53 -59 L 53 -56 L 53 -53 L 53 -51 L 54 -51 L 54 -53.292969 L 56.292969 -51 L 57 -51 L 57.707031 -51 L 58 -51 L 58 -53.292969 L 60.292969 -51 L 61.707031 -51 L 58.707031 -54 L 61.707031 -57 L 60.292969 -57 L 58 -54.707031 L 58 -59 L 57 -59 L 57 -57 L 56.292969 -57 L 54 -54.707031 L 54 -59 L 53 -59 z M 53 -53 C 53 -53.58334 52.846367 -54.110666 52.478516 -54.478516 C 52.110665 -54.846366 51.583333 -55 51 -55 C 50.583333 -55 50.360665 -55.0964 50.228516 -55.228516 C 50.09637 -55.360666 50 -55.58334 50 -56 C 50 -56.41667 50.09637 -56.639334 50.228516 -56.771484 C 50.360665 -56.903634 50.583333 -57 51 -57 C 51.416667 -57 51.639335 -56.90359 51.771484 -56.771484 C 51.903633 -56.639334 52 -56.41667 52 -56 L 53 -56 C 53 -56.58334 52.846367 -57.110666 52.478516 -57.478516 C 52.110665 -57.846366 51.583333 -58 51 -58 C 50.416667 -58 49.889335 -57.846366 49.521484 -57.478516 C 49.153633 -57.110666 49 -56.58334 49 -56 C 49 -55.41667 49.153633 -54.889334 49.521484 -54.521484 C 49.889335 -54.153634 50.416667 -54 51 -54 C 51.416667 -54 51.639335 -53.90359 51.771484 -53.771484 C 51.903633 -53.639334 52 -53.41667 52 -53 C 52 -52.58334 51.90363 -52.360666 51.771484 -52.228516 C 51.639335 -52.09637 51.416667 -52 51 -52 C 50.583333 -52 50.360665 -52.0964 50.228516 -52.228516 C 50.09637 -52.360666 50 -52.58334 50 -53 L 49 -53 C 49 -52.41667 49.153633 -51.889334 49.521484 -51.521484 C 49.889335 -51.153634 50.416667 -51 51 -51 C 51.583333 -51 52.110665 -51.153634 52.478516 -51.521484 C 52.846367 -51.889334 53 -52.41667 53 -53 z M 57 -56.292969 L 57 -51.707031 L 54.707031 -54 L 57 -56.292969 z"/>
 </g>
 <g id="fcitx-fullwidth-active" transform="translate(132,-213.99997)">
  <rect style="opacity:0.001" width="22" height="22" x="0" y="170"/>
  <circle style="fill:currentColor" class="ColorScheme-Text" cx="11" cy="181" r="8"/>
 </g>
 <g id="fcitx-fullwidth-inactive" transform="translate(154,-213.99997)">
  <rect style="opacity:0.001" width="22" height="22" x="0" y="170"/>
  <path style="fill:currentColor" class="ColorScheme-Text" transform="translate(-154,81.999973)" d="M 167.56641,91.431641 A 8,7.9999995 0 0 1 168,94 a 8,7.9999995 0 0 1 -8,8 8,7.9999995 0 0 1 -2.56641,-0.43164 A 8,7.9999995 0 0 0 165,107 a 8,7.9999995 0 0 0 8,-8 8,7.9999995 0 0 0 -5.43359,-7.568359 z"/>
 </g>
 <g id="fcitx-punc-active" transform="translate(0,-132)">
  <rect style="opacity:0.001" width="22" height="22" x="132" y="110"/>
  <path style="fill:currentColor" class="ColorScheme-Text" transform="translate(0,132)" d="M 137 -19 C 135.892 -19 135 -18.108 135 -17 L 135 -5 C 135 -3.892 135.892 -3 137 -3 L 149 -3 C 150.108 -3 151 -3.892 151 -5 L 151 -17 C 151 -18.108 150.108 -19 149 -19 L 137 -19 z M 137 -18 L 149 -18 C 149.5713 -18 150 -17.5713 150 -17 L 150 -5 C 150 -4.4287 149.5713 -4 149 -4 L 137 -4 C 136.4287 -4 136 -4.4287 136 -5 L 136 -17 C 136 -17.5713 136.4287 -18 137 -18 z M 139.5 -14 C 138.12521 -14 137 -12.87479 137 -11.5 C 137 -10.12521 138.12521 -9 139.5 -9 C 140.87479 -9 142 -10.12521 142 -11.5 C 142 -12.87479 140.87479 -14 139.5 -14 z M 146.5 -14 C 145.12521 -14 144 -12.87479 144 -11.5 C 144 -10.12521 145.12521 -9 146.5 -9 C 146.86519 -9 147.20988 -9.0842025 147.52344 -9.2265625 C 147.18251 -8.5333625 146.70356 -8.0592594 146.2168 -7.7246094 C 145.32171 -7.1092394 144.4375 -6.9960938 144.4375 -6.9960938 L 144.5625 -6.0039062 C 144.5625 -6.0039062 145.67829 -6.1407606 146.7832 -6.9003906 C 147.88812 -7.6600206 149 -9.10185 149 -11.5 C 149 -12.87479 147.87479 -14 146.5 -14 z"/>
 </g>
 <g id="fcitx-remind-active" transform="translate(0,-132)">
  <rect style="opacity:0.001" width="22" height="22" x="198" y="88"/>
  <path style="fill:currentColor" class="ColorScheme-Text" transform="translate(0,132)" d="M 209 -41 C 205.69221 -41 203 -38.307786 203 -35 C 202.99958 -34.9811 203.00013 -34.962189 203.00195 -34.943359 C 203.01635 -32.621892 203.86229 -31.434088 204.62109 -30.548828 C 205.38626 -29.655958 206 -29.10714 206 -27.5 L 206 -27 L 212 -27 L 212 -27.5 C 212 -29.10714 212.63385 -29.80403 213.39062 -30.75 C 214.13959 -31.68616 214.9787 -32.853867 214.99609 -34.9375 C 214.99909 -34.95823 215 -34.97911 215 -35 C 215 -38.307786 212.30779 -41 209 -41 z M 209 -40 C 211.75892 -40 213.986 -37.774089 213.99609 -35.017578 L 213.99609 -35.013672 L 213.99609 -34.945312 C 213.98089 -33.127015 213.33255 -32.27892 212.60938 -31.375 C 211.95337 -30.55499 211.27422 -29.52012 211.11523 -28 L 206.87891 -28 C 206.71268 -29.48787 206.02458 -30.448069 205.38086 -31.199219 C 204.67071 -32.027723 204.01486 -32.868557 204.00195 -34.949219 L 204.00195 -34.994141 L 204.00195 -35.005859 C 204.0054 -37.768085 206.23695 -40 209 -40 z M 207.14648 -35 L 205.64648 -33.640625 L 206.35352 -33 L 207.5 -34.039062 L 208.64648 -33 L 209.35352 -33 L 210.5 -34.039062 L 211.64648 -33 L 212.35352 -33.640625 L 210.85352 -35 L 210.14648 -35 L 209 -33.960938 L 207.85352 -35 L 207.14648 -35 z M 206 -26 L 206 -25 L 207 -24 L 208 -24 L 210 -24 L 211 -24 L 212 -25 L 212 -26 L 206 -26 z"/>
 </g>
 <g id="fcitx-handwriting-active" transform="translate(0,-132)">
  <rect style="opacity:0.001" width="22" height="22" x="198" y="110"/>
  <path style="fill:currentColor" class="ColorScheme-Text" transform="translate(0,132)" d="M 215.61133 -18 C 215.43008 -18 215.24937 -17.9291 215.10938 -17.789062 L 212.75 -15.429688 L 206 -8.6796875 L 206 -6 L 208.66992 -6 L 215.41992 -12.75 L 217.78906 -15.109375 C 218.06906 -15.389375 218.06906 -15.839141 217.78906 -16.119141 L 216.11914 -17.789062 C 215.97414 -17.929063 215.79258 -18 215.61133 -18 z M 215.61328 -16.878906 L 216.87891 -15.615234 L 214.71289 -13.457031 L 208.25586 -7 L 207 -7 L 207 -8.265625 L 213.45703 -14.722656 L 215.61328 -16.878906 z M 202.07617 -15.056641 C 201.88298 -15.052641 201.67053 -15.033 201.43164 -15 C 200.77008 -14.9089 200.9068 -13.916733 201.56836 -14.007812 C 201.9871 -14.065613 202.27844 -14.063809 202.43945 -14.037109 C 202.54472 -14.019609 202.5796 -14.000741 202.58984 -13.994141 C 202.59084 -13.981741 202.59194 -13.954697 202.58594 -13.904297 C 202.57454 -13.803207 202.52774 -13.639995 202.46094 -13.453125 C 202.3273 -13.079405 202.10965 -11.928591 202.05078 -11.425781 C 202.02138 -11.174371 202.03588 -10.886261 202.18359 -10.619141 C 202.33132 -10.352021 202.60314 -10.151862 202.92188 -10.044922 C 203.07441 -9.9938219 203.13517 -10.0043 203.23047 -10 C 203.32577 -9.996 203.43121 -9.9941406 203.54688 -9.9941406 C 203.77819 -9.9940706 204.15004 -9.9972344 204.4043 -9.9902344 C 204.4363 -9.9893544 204.45102 -9.9844219 204.48242 -9.9824219 C 204.39172 -9.9270219 204.33683 -9.8842189 204.23047 -9.8242188 C 202.91979 -9.1625486 201.31835 -8.9684437 201.32617 -7.4335938 C 201.40847 -7.0604736 201.69626 -6.8017819 202.05664 -6.6074219 C 202.41703 -6.4130619 202.89009 -6.255845 203.53711 -6.109375 C 203.98704 -6.007505 204.4857 -5.9623031 205 -5.9394531 L 205 -6.9492188 C 204.52885 -6.9703187 204.09899 -7.0067248 203.75781 -7.0839844 C 203.16209 -7.2188444 202.75846 -7.3637881 202.53125 -7.4863281 C 202.37915 -7.5683281 202.32948 -7.6239714 202.3125 -7.6445312 C 202.3205 -7.6589313 202.33591 -7.6870812 202.37891 -7.7382812 C 202.98899 -8.3515714 203.90848 -8.657105 204.62305 -8.953125 C 204.90576 -9.112665 205.26106 -9.2653606 205.47461 -9.4316406 C 205.68817 -9.5979206 205.94051 -9.7617635 205.95117 -10.183594 C 205.95717 -10.429534 205.78689 -10.654017 205.64648 -10.748047 C 205.50604 -10.842047 205.37904 -10.878593 205.25 -10.908203 C 204.99192 -10.967403 204.71379 -10.982434 204.43164 -10.990234 C 204.14952 -10.998234 203.76946 -10.994141 203.54883 -10.994141 C 203.43852 -10.994171 203.34245 -10.994713 203.27734 -10.998047 C 203.24984 -10.999047 203.22779 -11.002859 203.21289 -11.005859 C 203.09861 -11.048959 203.07041 -11.082116 203.05859 -11.103516 C 203.04549 -11.127116 203.02837 -11.184016 203.04297 -11.308594 C 203.07217 -11.557764 203.24846 -12.684924 203.40234 -13.115234 C 203.47924 -13.330384 203.55087 -13.551269 203.57812 -13.792969 C 203.60542 -14.034669 203.58412 -14.328298 203.40234 -14.580078 C 203.22079 -14.831848 202.92399 -14.970286 202.60352 -15.023438 C 202.44328 -15.050038 202.26936 -15.060941 202.07617 -15.056641 z"/>
 </g>
 <g id="fcitx-shuangpin" transform="translate(0,-132)">
  <rect style="opacity:0.001" width="22" height="22" x="44" y="0"/>
  <path style="fill:currentColor" class="ColorScheme-Text" transform="translate(0,132)" d="M 49 -129 C 47.892 -129 47 -128.108 47 -127 L 47 -115 C 47 -113.892 47.892 -113 49 -113 L 61 -113 C 62.108 -113 63 -113.892 63 -115 L 63 -127 C 63 -128.108 62.108 -129 61 -129 L 49 -129 z M 49 -128 L 61 -128 C 61.571297 -128 62 -127.5713 62 -127 L 62 -115 C 62 -114.4287 61.571297 -114 61 -114 L 49 -114 C 48.428703 -114 48 -114.4287 48 -115 L 48 -127 C 48 -127.5713 48.428703 -128 49 -128 z M 49 -127 L 49 -126 L 53.427734 -126 C 53.356734 -125.36 53.109594 -123.25937 52.558594 -121.35938 C 51.863594 -122.31937 51.071625 -123.34055 49.890625 -124.81055 L 49.109375 -124.18945 C 50.527375 -122.41945 51.397109 -121.29945 52.162109 -120.18945 C 50.869109 -116.84895 48.898438 -115.53906 48.898438 -115.53906 L 49.455078 -114.70703 C 49.455078 -114.70703 51.426313 -116.06895 52.820312 -119.18945 C 53.258312 -118.50895 53.703187 -117.77031 54.242188 -116.82031 L 55.111328 -117.31055 C 54.412328 -118.55055 53.856437 -119.45031 53.273438 -120.32031 C 54.170437 -122.93031 54.498047 -126.44922 54.498047 -126.44922 L 54.548828 -127 L 49 -127 z M 55 -127 L 55 -126 L 55.589844 -126 C 55.691844 -125.41 56.142391 -122.86015 56.900391 -120.91016 C 57.165991 -120.22016 57.449109 -119.56036 57.787109 -118.91016 C 56.499209 -116.87016 54.71875 -115.77148 54.71875 -115.77148 L 55.236328 -114.91602 C 55.236328 -114.91602 56.946644 -115.96522 58.339844 -117.94922 C 58.995844 -116.92922 59.860578 -115.92267 61.142578 -114.88867 L 61.769531 -115.66797 C 60.385531 -116.77997 59.549781 -117.81039 58.925781 -118.90039 C 59.050781 -119.13079 59.181969 -119.33984 59.292969 -119.58984 C 60.166969 -121.52984 61 -124.35 61 -126.5 L 61 -127 L 55 -127 z M 56.607422 -126 L 59.923828 -126 C 59.814828 -124.15 59.130047 -121.67023 58.373047 -119.99023 C 58.185047 -120.40023 58.006984 -120.81953 57.833984 -121.26953 C 57.175984 -122.96953 56.747422 -125.23 56.607422 -126 z"/>
 </g>
 <g id="fcitx-anthy" transform="translate(0,-132)">
  <rect style="opacity:0.001" width="22" height="22" x="0" y="66"/>
  <path style="fill:currentColor" class="ColorScheme-Text" transform="translate(0,132)" d="M 5 -63 C 3.892 -63 3 -62.108 3 -61 L 3 -49 C 3 -47.892 3.892 -47 5 -47 L 17 -47 C 18.108 -47 19 -47.892 19 -49 L 19 -61 C 19 -62.108 18.108 -63 17 -63 L 5 -63 z M 5 -62 L 17 -62 C 17.571297 -62 18 -61.571297 18 -61 L 18 -49 C 18 -48.428703 17.571297 -48 17 -48 L 5 -48 C 4.4287033 -48 4 -48.428703 4 -49 L 4 -61 C 4 -61.571297 4.4287033 -62 5 -62 z M 9.3339844 -61 L 8.9453125 -59.066406 C 7.9321125 -59.034706 6.9591 -59.024531 6 -59.019531 L 6 -57.988281 L 8.6660156 -57.988281 C 8.2216156 -56.025281 7.7039281 -53.561809 7.1113281 -52.599609 L 8.1113281 -51.822266 C 9.4447281 -53.119166 10.669 -53.765625 12.1875 -53.765625 C 12.9653 -53.765625 13.556844 -53.581338 13.964844 -53.210938 C 14.371844 -52.878037 14.576172 -52.415266 14.576172 -51.822266 C 14.576172 -51.156266 14.261812 -51.055656 13.632812 -50.722656 C 13.039812 -50.425656 12.150044 -50.277344 10.964844 -50.277344 C 9.8385438 -50.277344 8.9443 -50.310953 8 -50.501953 L 8 -49.054688 C 9.1191 -48.993687 10.053972 -49 11.076172 -49 C 12.705772 -49 13.929141 -49.259344 14.744141 -49.777344 C 15.596141 -50.333344 16 -50.748266 16 -51.822266 C 16 -52.748266 15.688484 -53.507009 15.021484 -54.099609 C 14.355484 -54.692209 13.41 -54.988281 12.1875 -54.988281 C 11.2245 -54.988281 10.258972 -54.525509 8.8886719 -53.599609 L 8.7773438 -53.654297 C 9.2588438 -54.728397 9.6490125 -56.760212 9.9453125 -57.945312 C 12.904612 -58.078313 14.832 -58.011531 16 -58.144531 L 16 -59.423828 C 14.609 -59.260128 12.729656 -59.125038 10.222656 -59.023438 C 10.407756 -59.875238 10.537328 -60.4444 10.611328 -61 L 9.3339844 -61 z"/>
 </g>
 <g id="fcitx-hangul" transform="translate(0,-132)">
  <rect style="opacity:0.001" width="22" height="22" x="0" y="88"/>
  <path style="fill:currentColor" class="ColorScheme-Text" transform="translate(0,132)" d="M 5 -41 C 3.892 -41 3 -40.108 3 -39 L 3 -27 C 3 -25.892 3.892 -25 5 -25 L 17 -25 C 18.108 -25 19 -25.892 19 -27 L 19 -39 C 19 -40.108 18.108 -41 17 -41 L 5 -41 z M 5 -40 L 17 -40 C 17.571297 -40 18 -39.571297 18 -39 L 18 -27 C 18 -26.4287 17.571297 -26 17 -26 L 5 -26 C 4.4287033 -26 4 -26.4287 4 -27 L 4 -39 C 4 -39.571297 4.4287033 -40 5 -40 z M 8 -39 L 8 -38 L 10 -38 L 10 -39 L 8 -39 z M 14 -38 L 14 -30 L 15 -30 L 15 -34 L 17 -34 L 17 -35 L 15 -35 L 15 -38 L 14 -38 z M 6 -37 L 6 -36 L 12 -36 L 12 -37 L 6 -37 z M 9 -35 C 7.4031 -35 6 -33.9423 6 -32.5 C 6 -31.057698 7.4031 -30 9 -30 C 10.5969 -30 12 -31.057698 12 -32.5 C 12 -33.9423 10.5969 -35 9 -35 z M 9 -34 C 10.1645 -34 11 -33.2668 11 -32.5 C 11 -31.733198 10.1645 -31 9 -31 C 7.8355 -31 7 -31.733198 7 -32.5 C 7 -33.2668 7.8355 -34 9 -34 z M 8 -29 L 8 -27 L 16 -27 L 16 -28 L 9 -28 L 9 -29 L 8 -29 z"/>
 </g>
 <g id="fcitx-unikey" transform="translate(0,-132)">
  <rect style="opacity:0.001" width="22" height="22" x="0" y="110"/>
  <path style="fill:currentColor" class="ColorScheme-Text" transform="translate(0,132)" d="M 5 -19 C 3.892 -19 3 -18.108 3 -17 L 3 -5 C 3 -3.892 3.892 -3 5 -3 L 17 -3 C 18.108 -3 19 -3.892 19 -5 L 19 -17 C 19 -18.108 18.108 -19 17 -19 L 5 -19 z M 5 -18 L 17 -18 C 17.571297 -18 18 -17.5713 18 -17 L 18 -5 C 18 -4.4287 17.571297 -4 17 -4 L 5 -4 C 4.4287033 -4 4 -4.4287 4 -5 L 4 -17 C 4 -17.5713 4.4287033 -18 5 -18 z M 6 -16 L 6 -14.5 C 6 -13.6944 6.122575 -13.0772 6.484375 -12.625 C 6.846075 -12.1728 7.4167 -12 8 -12 C 8.5833 -12 9.153925 -12.1728 9.515625 -12.625 C 9.877425 -13.0772 10 -13.6944 10 -14.5 L 10 -16 L 9 -16 L 9 -14.5 C 9 -13.8056 8.872575 -13.4228 8.734375 -13.25 C 8.5960749 -13.0772 8.4167001 -13 8 -13 C 7.5833 -13 7.403925 -13.0772 7.265625 -13.25 C 7.127425 -13.4228 7 -13.8056 7 -14.5 L 7 -16 L 6 -16 z M 14 -16 L 14 -12 L 15 -12 L 15 -16 L 14 -16 z M 9 -9 L 9 -5 L 10 -5 L 10 -7.5 L 12 -5 L 13 -5 L 13 -9 L 12 -9 L 12 -6.5 L 10 -9 L 9 -9 z"/>
 </g>
 <g id="fcitx-chttrans-active" transform="translate(-22,-132)">
  <rect style="opacity:0.001" width="22" height="22" x="154" y="132"/>
  <path style="fill:currentColor" class="ColorScheme-Text" transform="translate(22,132)" d="M 137 3 C 135.892 3 135 3.892 135 5 L 135 17 C 135 18.108 135.892 19 137 19 L 149 19 C 150.108 19 151 18.108 151 17 L 151 5 C 151 3.892 150.108 3 149 3 L 137 3 z M 137 4 L 149 4 C 149.5713 4 150 4.4287 150 5 L 150 17 C 150 17.5713 149.5713 18 149 18 L 137 18 C 136.4287 18 136 17.5713 136 17 L 136 5 C 136 4.4287 136.4287 4 137 4 z M 141 6 L 141 9 L 141 10 L 141 12 L 141 14 L 142 14 L 142 10 L 144 10 L 144 14 L 145 14 L 145 10 L 146 10 L 146 12 C 146 12.52083 146.0282 12.895141 146.11133 13.207031 C 146.19453 13.518921 146.37827 13.710616 146.65234 13.847656 C 146.92641 13.984696 147.17436 14.0177 147.38477 14 C 147.59517 13.9825 147.79167 14 148 14 L 148 13 C 147 13 147.0474 12.72101 147 12 L 147 10 L 148 10 L 148 9 L 147 9 L 147 8 L 146 8 L 146 9 L 145 9 L 142 9 L 142 6 L 141 6 z M 141 12 L 140 12 C 140 12.41667 139.9036 12.639344 139.77148 12.771484 C 139.63934 12.903604 139.41667 13 139 13 C 138.58333 13 138.36066 12.903604 138.22852 12.771484 C 138.0964 12.639344 138 12.41667 138 12 L 138 10 C 138 9.58333 138.0964 9.3606556 138.22852 9.2285156 C 138.36066 9.0963956 138.58333 9 139 9 C 139.41667 9 139.63934 9.0963956 139.77148 9.2285156 C 139.9036 9.3606556 140 9.58333 140 10 L 141 10 C 141 9.41667 140.84637 8.8893444 140.47852 8.5214844 C 140.11066 8.1536344 139.58333 8 139 8 C 138.41667 8 137.88934 8.1536344 137.52148 8.5214844 C 137.15363 8.8893444 137 9.41667 137 10 L 137 12 C 137 12.58333 137.15363 13.110656 137.52148 13.478516 C 137.88934 13.846366 138.41667 14 139 14 C 139.58333 14 140.11066 13.846366 140.47852 13.478516 C 140.84637 13.110656 141 12.58333 141 12 z"/>
 </g>
 <g id="fcitx-chttrans-inactive" transform="translate(0,-132)">
  <rect style="opacity:0.001" width="22" height="22" x="154" y="132"/>
  <path style="opacity:0.5;fill:currentColor" class="ColorScheme-Text" transform="translate(0,132)" d="M 159 3 C 157.892 3 157 3.892 157 5 L 157 17 C 157 18.108 157.892 19 159 19 L 171 19 C 172.108 19 173 18.108 173 17 L 173 5 C 173 3.892 172.108 3 171 3 L 159 3 z M 159 4 L 171 4 C 171.5713 4 172 4.4287 172 5 L 172 17 C 172 17.5713 171.5713 18 171 18 L 159 18 C 158.4287 18 158 17.5713 158 17 L 158 5 C 158 4.4287 158.4287 4 159 4 z M 163 6 L 163 9 L 163 10 L 163 12 L 163 14 L 164 14 L 164 10 L 166 10 L 166 14 L 167 14 L 167 10 L 168 10 L 168 12 C 168 12.52083 168.0282 12.895141 168.11133 13.207031 C 168.19453 13.518921 168.37827 13.710616 168.65234 13.847656 C 168.92641 13.984696 169.17436 14.0177 169.38477 14 C 169.59517 13.9825 169.79167 14 170 14 L 170 13 C 169 13 169.0474 12.72101 169 12 L 169 10 L 170 10 L 170 9 L 169 9 L 169 8 L 168 8 L 168 9 L 167 9 L 164 9 L 164 6 L 163 6 z M 163 12 L 162 12 C 162 12.41667 161.9036 12.639344 161.77148 12.771484 C 161.63934 12.903604 161.41667 13 161 13 C 160.58333 13 160.36066 12.903604 160.22852 12.771484 C 160.0964 12.639344 160 12.41667 160 12 L 160 10 C 160 9.58333 160.0964 9.3606556 160.22852 9.2285156 C 160.36066 9.0963956 160.58333 9 161 9 C 161.41667 9 161.63934 9.0963956 161.77148 9.2285156 C 161.9036 9.3606556 162 9.58333 162 10 L 163 10 C 163 9.41667 162.84637 8.8893444 162.47852 8.5214844 C 162.11066 8.1536344 161.58333 8 161 8 C 160.41667 8 159.88934 8.1536344 159.52148 8.5214844 C 159.15363 8.8893444 159 9.41667 159 10 L 159 12 C 159 12.58333 159.15363 13.110656 159.52148 13.478516 C 159.88934 13.846366 160.41667 14 161 14 C 161.58333 14 162.11066 13.846366 162.47852 13.478516 C 162.84637 13.110656 163 12.58333 163 12 z"/>
 </g>
 <g id="fcitx-remind-inactive" transform="translate(22,-132)">
  <rect style="opacity:0.001" width="22" height="22" x="198" y="88"/>
  <path style="opacity:0.5;fill:currentColor" class="ColorScheme-Text" transform="translate(-22,132)" d="M 231 -41 C 227.69221 -41 225 -38.307786 225 -35 C 224.99958 -34.9811 225.00013 -34.962189 225.00195 -34.943359 C 225.01635 -32.621892 225.86229 -31.434088 226.62109 -30.548828 C 227.38626 -29.655958 228 -29.10714 228 -27.5 L 228 -27 L 234 -27 L 234 -27.5 C 234 -29.10714 234.63385 -29.80403 235.39062 -30.75 C 236.13959 -31.68616 236.9787 -32.853867 236.99609 -34.9375 C 236.99909 -34.95823 237 -34.97911 237 -35 C 237 -38.307786 234.30779 -41 231 -41 z M 231 -40 C 233.75892 -40 235.986 -37.774089 235.99609 -35.017578 L 235.99609 -35.013672 L 235.99609 -34.945312 C 235.98089 -33.127015 235.33255 -32.27892 234.60938 -31.375 C 233.95337 -30.55499 233.27422 -29.52012 233.11523 -28 L 228.87891 -28 C 228.71268 -29.48787 228.02458 -30.448069 227.38086 -31.199219 C 226.67071 -32.027723 226.01486 -32.868557 226.00195 -34.949219 L 226.00195 -34.994141 L 226.00195 -35.005859 C 226.0054 -37.768085 228.23695 -40 231 -40 z M 229.14648 -35 L 227.64648 -33.640625 L 228.35352 -33 L 229.5 -34.039062 L 230.64648 -33 L 231.35352 -33 L 232.5 -34.039062 L 233.64648 -33 L 234.35352 -33.640625 L 232.85352 -35 L 232.14648 -35 L 231 -33.960938 L 229.85352 -35 L 229.14648 -35 z M 228 -26 L 228 -25 L 229 -24 L 230 -24 L 232 -24 L 233 -24 L 234 -25 L 234 -26 L 228 -26 z"/>
 </g>
 <g id="fcitx-mozc-alpha-full" transform="translate(70,-65)">
  <rect style="opacity:0.001" width="22" height="22" x="172" y="-67"/>
  <path style="fill:currentColor" class="ColorScheme-Text" transform="translate(-70,65)" d="M 247 -129 C 245.892 -129 245 -128.108 245 -127 L 245 -115 C 245 -113.892 245.892 -113 247 -113 L 259 -113 C 260.108 -113 261 -113.892 261 -115 L 261 -127 C 261 -128.108 260.108 -129 259 -129 L 247 -129 z M 247 -128 L 259 -128 C 259.5713 -128 260 -127.5713 260 -127 L 260 -115 C 260 -114.4287 259.5713 -114 259 -114 L 247 -114 C 246.4287 -114 246 -114.4287 246 -115 L 246 -127 C 246 -127.5713 246.4287 -128 247 -128 z M 252.37305 -127 L 248 -115 L 249.42773 -115 L 250.75977 -119 L 255.19336 -119 L 256.54102 -115 L 258 -115 L 253.64258 -127 L 252.37305 -127 z M 252.98047 -125.41406 L 254.97266 -120 L 251.02734 -120 L 252.98047 -125.41406 z"/>
 </g>
 <g id="fcitx-mozc-alpha-half" transform="translate(70,-65)">
  <rect style="opacity:0.001" width="22" height="22" x="194" y="-67"/>
  <path style="fill:currentColor" class="ColorScheme-Text" transform="translate(-70,65)" d="M 269 -129 C 267.892 -129 267 -128.108 267 -127 L 267 -115 C 267 -113.892 267.892 -113 269 -113 L 281 -113 C 282.108 -113 283 -113.892 283 -115 L 283 -127 C 283 -128.108 282.108 -129 281 -129 L 269 -129 z M 269 -128 L 281 -128 C 281.5713 -128 282 -127.5713 282 -127 L 282 -115 C 282 -114.4287 281.5713 -114 281 -114 L 269 -114 C 268.4287 -114 268 -114.4287 268 -115 L 268 -127 C 268 -127.5713 268.4287 -128 269 -128 z M 276.49805 -126 L 273 -116 L 274.41602 -116 L 275.41602 -119 L 278.54883 -119 L 279.56055 -116 L 281 -116 L 277.51367 -126 L 276.49805 -126 z M 276.98438 -123.91406 L 278.33594 -120 L 275.66406 -120 L 276.98438 -123.91406 z M 269 -117 L 269 -116 L 272 -116 L 272 -117 L 269 -117 z"/>
 </g>
 <g id="fcitx-mozc-dictionary" transform="translate(70,-65)">
  <rect style="opacity:0.001" width="22" height="22" x="304" y="-67"/>
  <path style="fill:currentColor" class="ColorScheme-Text" transform="translate(-70,65)" d="M 380 -129 C 378.892 -129 378 -128.108 378 -127 L 378 -115 C 378 -113.892 378.892 -113 380 -113 L 382 -113 L 390 -113 C 391.108 -113 392 -113.892 392 -115 L 392 -127 C 392 -128.108 391.108 -129 390 -129 L 382 -129 L 380 -129 z M 380 -128 L 382 -128 L 382 -114 L 380 -114 C 379.4287 -114 379 -114.4287 379 -115 L 379 -127 C 379 -127.5713 379.4287 -128 380 -128 z M 383 -128 L 390 -128 C 390.5713 -128 391 -127.5713 391 -127 L 391 -115 C 391 -114.4287 390.5713 -114 390 -114 L 383 -114 L 383 -128 z M 384 -126 L 384 -125 L 390 -125 L 390 -126 L 384 -126 z M 384 -123 L 384 -122 L 390 -122 L 390 -123 L 384 -123 z M 384 -120 L 384 -119 L 390 -119 L 390 -120 L 384 -120 z M 384 -117 L 384 -116 L 390 -116 L 390 -117 L 384 -117 z"/>
 </g>
 <g id="fcitx-mozc-direct" transform="translate(70,-65)">
  <rect style="opacity:0.001" width="22" height="22" x="216" y="-67"/>
  <path style="fill:currentColor" class="ColorScheme-Text" transform="translate(-70,65)" d="M 291 -129 C 289.892 -129 289 -128.108 289 -127 L 289 -115 C 289 -113.892 289.892 -113 291 -113 L 303 -113 C 304.108 -113 305 -113.892 305 -115 L 305 -127 C 305 -128.108 304.108 -129 303 -129 L 291 -129 z M 291 -128 L 303 -128 C 303.5713 -128 304 -127.5713 304 -127 L 304 -115 C 304 -114.4287 303.5713 -114 303 -114 L 291 -114 C 290.4287 -114 290 -114.4287 290 -115 L 290 -127 C 290 -127.5713 290.4287 -128 291 -128 z M 296.49805 -127 L 293 -115 L 294.3418 -115 L 295.40625 -119 L 298.55469 -119 L 299.63281 -115 L 301 -115 L 297.51367 -127 L 296.49805 -127 z M 296.98633 -125.11328 L 298.37695 -120 L 295.62109 -120 L 296.98633 -125.11328 z"/>
 </g>
 <g id="fcitx-mozc-hiragana" transform="translate(70,-65)">
  <rect style="opacity:0.001" width="22" height="22" x="282" y="-67"/>
  <path style="fill:currentColor" class="ColorScheme-Text" transform="translate(-70,65)" d="M 357 -129 C 355.892 -129 355 -128.108 355 -127 L 355 -115 C 355 -113.892 355.892 -113 357 -113 L 369 -113 C 370.108 -113 371 -113.892 371 -115 L 371 -127 C 371 -128.108 370.108 -129 369 -129 L 357 -129 z M 357 -128 L 369 -128 C 369.5713 -128 370 -127.5713 370 -127 L 370 -115 C 370 -114.4287 369.5713 -114 369 -114 L 357 -114 C 356.4287 -114 356 -114.4287 356 -115 L 356 -127 C 356 -127.5713 356.4287 -128 357 -128 z M 362 -127.02539 L 361.90039 -125 L 359 -125 L 359 -124 L 361.84961 -124 L 361.73242 -121.61914 C 361.54561 -121.5644 361.36275 -121.50463 361.18945 -121.43359 C 359.69069 -120.81923 358.63797 -119.67177 358.1875 -118.47656 C 357.96222 -117.87896 357.8851 -117.26256 358.01172 -116.6875 C 358.13833 -116.11244 358.48827 -115.58439 359.03711 -115.25195 C 359.46549 -114.99249 359.97134 -114.95256 360.41992 -115.07812 C 360.8685 -115.20372 361.27739 -115.46772 361.66797 -115.80469 C 362.44913 -116.47862 363.17426 -117.46738 363.82422 -118.49609 C 364.56435 -119.66754 364.70939 -120.09642 365.11719 -120.93555 C 365.26829 -120.92125 365.43298 -120.95185 365.57812 -120.92773 C 366.23814 -120.81805 366.82334 -120.60699 367.24219 -120.31055 C 367.66105 -120.01411 367.91881 -119.65569 368.00781 -119.1582 C 368.1421 -118.40761 367.77222 -117.61261 367.03711 -117.00391 C 366.30199 -116.3952 365.22655 -115.9133 364.09961 -116.02539 L 364 -115.03125 C 365.40736 -114.89126 366.73138 -115.45404 367.67383 -116.23438 C 368.61629 -117.01475 369.20331 -118.15396 368.99219 -119.33398 C 368.85518 -120.09977 368.40615 -120.71095 367.81836 -121.12695 C 367.23058 -121.54296 366.50926 -121.78659 365.74219 -121.91406 C 365.70803 -121.91976 365.67112 -121.91082 365.63672 -121.91602 C 365.71039 -122.07772 366.09375 -122.78125 366.09375 -122.78125 L 365.17773 -123.18164 C 365.17773 -123.18164 364.67392 -122.26682 364.52148 -121.94141 C 363.92142 -121.95152 363.31966 -121.92111 362.74609 -121.83789 L 362.85352 -124 L 368 -124 L 368 -125 L 362.90234 -125 L 363 -126.97461 L 362 -127.02539 z M 363.54688 -120.97266 C 363.56831 -120.97362 363.58988 -120.97301 363.61133 -120.97266 C 363.74013 -120.97056 363.86827 -120.95063 364 -120.95703 C 363.6142 -120.19132 363.55833 -119.94586 362.98047 -119.03125 C 362.84905 -118.82325 362.71339 -118.61799 362.57617 -118.41797 L 362.69727 -120.8418 C 362.951 -120.89435 363.21401 -120.93741 363.48242 -120.9668 C 363.50413 -120.9692 363.52543 -120.97169 363.54688 -120.97266 z M 361.67969 -120.55078 L 361.50586 -117.04492 C 361.33944 -116.86374 361.17459 -116.70133 361.01367 -116.5625 C 360.693 -116.28585 360.38972 -116.10802 360.15039 -116.04102 C 359.91106 -115.97402 359.75229 -115.98891 359.55664 -116.10742 C 359.23302 -116.30343 359.06328 -116.5618 358.98828 -116.90234 C 358.9133 -117.24289 358.95246 -117.6724 359.12305 -118.125 C 359.46422 -119.03021 360.32644 -119.99873 361.56836 -120.50781 C 361.60439 -120.52256 361.64259 -120.53657 361.67969 -120.55078 z"/>
 </g>
 <g id="fcitx-mozc-katakana-full" transform="translate(70,-65)">
  <rect style="opacity:0.001" width="22" height="22" x="238" y="-67"/>
  <path style="fill:currentColor" class="ColorScheme-Text" transform="translate(-70,65)" d="M 313 -129 C 311.892 -129 311 -128.108 311 -127 L 311 -115 C 311 -113.892 311.892 -113 313 -113 L 325 -113 C 326.108 -113 327 -113.892 327 -115 L 327 -127 C 327 -128.108 326.108 -129 325 -129 L 313 -129 z M 313 -128 L 325 -128 C 325.5713 -128 326 -127.5713 326 -127 L 326 -115 C 326 -114.4287 325.5713 -114 325 -114 L 313 -114 C 312.4287 -114 312 -114.4287 312 -115 L 312 -127 C 312 -127.5713 312.4287 -128 313 -128 z M 314 -126 L 314 -125 L 323.04102 -125 C 322.10468 -123.09664 320.93453 -121.60434 319.56641 -120.37109 L 320.23438 -119.62891 C 321.85421 -121.08905 323.3236 -122.84878 324.36133 -125.30469 C 324.5013 -125.63467 324.25883 -126.00042 323.90039 -126 L 314 -126 z M 318 -123.00195 C 317.99478 -121.48795 318.07742 -120.10479 317.74609 -118.92969 C 317.41476 -117.75458 316.71868 -116.74539 314.9707 -115.83984 L 315.42969 -114.95312 C 317.36253 -115.95444 318.31114 -117.25413 318.70703 -118.6582 C 319.10292 -120.06227 318.995 -121.5288 319 -122.99805 L 318 -123.00195 z"/>
 </g>
 <g id="fcitx-mozc-katakana-half" transform="translate(70,-65)">
  <rect style="opacity:0.001" width="22" height="22" x="260" y="-67"/>
  <path style="fill:currentColor" class="ColorScheme-Text" transform="translate(-70,65)" d="M 335 -129 C 333.892 -129 333 -128.108 333 -127 L 333 -115 C 333 -113.892 333.892 -113 335 -113 L 347 -113 C 348.108 -113 349 -113.892 349 -115 L 349 -127 C 349 -128.108 348.108 -129 347 -129 L 335 -129 z M 335 -128 L 347 -128 C 347.5713 -128 348 -127.5713 348 -127 L 348 -115 C 348 -114.4287 347.5713 -114 347 -114 L 335 -114 C 334.4287 -114 334 -114.4287 334 -115 L 334 -127 C 334 -127.5713 334.4287 -128 335 -128 z M 339 -126 L 339 -125 L 345.75391 -125 C 345.03376 -123.09664 344.4331 -121.80356 343.38086 -120.57031 L 344.0957 -119.82812 C 345.34154 -121.28827 346.17062 -122.84878 346.96875 -125.30469 C 347.0764 -125.63467 346.89092 -126.00042 346.61523 -126 L 339 -126 z M 342 -123.00195 C 341.99598 -121.48795 342.03608 -120.60675 341.78125 -119.43164 C 341.52642 -118.25653 341.09049 -117.94461 339.74609 -117.03906 L 340.09961 -115.95312 C 341.58618 -116.95444 342.51583 -117.75609 342.82031 -119.16016 C 343.12479 -120.56423 342.996 -121.5288 343 -122.99805 L 342 -123.00195 z M 335 -117 L 335 -116 L 338 -116 L 338 -117 L 335 -117 z"/>
 </g>
 <g id="fcitx-mozc-tool">
  <rect style="opacity:0.001" width="22" height="22" x="418" y="-132"/>
  <path style="fill:currentColor" class="ColorScheme-Text" d="m 428,-129 c -1.1812,0.44881 -2,1.42999 -2,2.65039 0,1.2204 0.8188,2.17405 2,2.62305 V -123 v 1.70117 6.79883 c 0,0 0,1.5 1.5,1.5 1.5,0 1.5,-1.5 1.5,-1.5 v -3.88281 -4.61719 -0.72656 c 1.181,-0.449 2,-1.40265 2,-2.62305 0,-1.2204 -0.819,-2.20158 -2,-2.65039 v 2 c 0,1 -1,1 -1,1 h -1 c 0,0 -1,0 -1,-1 z"/>
 </g>
 <g id="fcitx-mozc" transform="translate(0,-132)">
  <rect style="opacity:0.001" width="22" height="22" x="440" y="0"/>
  <path style="fill:currentColor" class="ColorScheme-Text" transform="translate(0,132)" d="M 451 -129 A 8 8 0 0 0 443 -121 A 8 8 0 0 0 451 -113 A 8 8 0 0 0 459 -121 A 8 8 0 0 0 451 -129 z M 451 -128 C 454.87783 -128 458 -124.87783 458 -121 C 458 -117.12217 454.87783 -114 451 -114 C 447.12217 -114 444 -117.12217 444 -121 C 444 -124.87783 447.12217 -128 451 -128 z M 450 -127.02539 L 449.90039 -125 L 447 -125 L 447 -124 L 449.84961 -124 L 449.73242 -121.61914 C 449.54561 -121.5644 449.36275 -121.50463 449.18945 -121.43359 C 447.69069 -120.81923 446.63797 -119.67177 446.1875 -118.47656 C 445.96222 -117.87896 445.8851 -117.26256 446.01172 -116.6875 C 446.13833 -116.11244 446.48827 -115.58439 447.03711 -115.25195 C 447.46549 -114.99249 447.97134 -114.95255 448.41992 -115.07812 C 448.8685 -115.20372 449.27739 -115.46772 449.66797 -115.80469 C 450.44913 -116.47862 451.17426 -117.46738 451.82422 -118.49609 C 452.56435 -119.66754 452.70939 -120.09642 453.11719 -120.93555 C 453.26829 -120.92125 453.43298 -120.95185 453.57812 -120.92773 C 454.23816 -120.81805 454.82334 -120.60699 455.24219 -120.31055 C 455.66105 -120.01411 455.91881 -119.65569 456.00781 -119.1582 C 456.1421 -118.40761 455.77222 -117.61261 455.03711 -117.00391 C 454.30199 -116.3952 453.22655 -115.9133 452.09961 -116.02539 L 452 -115.03125 C 453.40736 -114.89126 454.73138 -115.45404 455.67383 -116.23438 C 456.61629 -117.01475 457.20331 -118.15396 456.99219 -119.33398 C 456.85518 -120.09977 456.40615 -120.71095 455.81836 -121.12695 C 455.23058 -121.54296 454.50926 -121.78659 453.74219 -121.91406 C 453.70802 -121.91976 453.67112 -121.91082 453.63672 -121.91602 C 453.71039 -122.07772 454.09375 -122.78125 454.09375 -122.78125 L 453.17773 -123.18164 C 453.17773 -123.18164 452.67392 -122.26682 452.52148 -121.94141 C 451.92142 -121.95152 451.31966 -121.92111 450.74609 -121.83789 L 450.85352 -124 L 456 -124 L 456 -125 L 450.90234 -125 L 451 -126.97461 L 450 -127.02539 z M 451.54688 -120.97266 C 451.56831 -120.97362 451.58988 -120.97301 451.61133 -120.97266 C 451.74013 -120.97055 451.86827 -120.95063 452 -120.95703 C 451.6142 -120.19132 451.55833 -119.94586 450.98047 -119.03125 C 450.84905 -118.82325 450.71339 -118.61799 450.57617 -118.41797 L 450.69727 -120.8418 C 450.951 -120.89435 451.21401 -120.93741 451.48242 -120.9668 C 451.50413 -120.9692 451.52543 -120.97169 451.54688 -120.97266 z M 449.67969 -120.55078 L 449.50586 -117.04492 C 449.33944 -116.86374 449.17459 -116.70133 449.01367 -116.5625 C 448.693 -116.28585 448.38972 -116.10802 448.15039 -116.04102 C 447.91106 -115.97402 447.75229 -115.98891 447.55664 -116.10742 C 447.23302 -116.30343 447.06328 -116.5618 446.98828 -116.90234 C 446.9133 -117.24289 446.95246 -117.6724 447.12305 -118.125 C 447.46422 -119.03021 448.32644 -119.99873 449.56836 -120.50781 C 449.60439 -120.52256 449.64259 -120.53657 449.67969 -120.55078 z"/>
 </g>
 <g id="fcitx-mozc-setup" transform="translate(0,-110)">
  <rect style="opacity:0.001" width="22" height="22" x="440" y="0"/>
  <path style="fill:currentColor" class="ColorScheme-Text" transform="translate(0,110)" d="M 451 -107 A 8 8 0 0 0 443 -99 A 8 8 0 0 0 451 -91 A 8 8 0 0 0 459 -99 A 8 8 0 0 0 451 -107 z M 451 -106 C 454.87783 -106 458 -102.87783 458 -99 C 458 -95.122166 454.87783 -92 451 -92 C 447.12217 -92 444 -95.122166 444 -99 C 444 -102.87783 447.12217 -106 451 -106 z M 450 -105.02539 L 449.90039 -103 L 447 -103 L 447 -102 L 449.84961 -102 L 449.73242 -99.619141 C 449.54561 -99.564397 449.36275 -99.504634 449.18945 -99.433594 C 447.69069 -98.819228 446.63797 -97.671773 446.1875 -96.476562 C 445.96222 -95.878962 445.8851 -95.262561 446.01172 -94.6875 C 446.13833 -94.112439 446.48827 -93.584394 447.03711 -93.251953 C 447.46549 -92.992485 447.97134 -92.952545 448.41992 -93.078125 C 448.8685 -93.203705 449.27739 -93.467722 449.66797 -93.804688 C 450.44913 -94.478615 451.17426 -95.467381 451.82422 -96.496094 C 452.56435 -97.667537 452.70939 -98.096419 453.11719 -98.935547 C 453.26829 -98.921247 453.43298 -98.951854 453.57812 -98.927734 C 454.23816 -98.818051 454.82334 -98.606987 455.24219 -98.310547 C 455.66105 -98.014107 455.91881 -97.655692 456.00781 -97.158203 C 456.1421 -96.407614 455.77222 -95.612608 455.03711 -95.003906 C 454.30199 -94.395203 453.22655 -93.913298 452.09961 -94.025391 L 452 -93.03125 C 453.40736 -92.891262 454.73138 -93.454041 455.67383 -94.234375 C 456.61629 -95.014756 457.20331 -96.153962 456.99219 -97.333984 C 456.85518 -98.099773 456.40615 -98.710951 455.81836 -99.126953 C 455.23058 -99.542955 454.50926 -99.786587 453.74219 -99.914062 C 453.70802 -99.919763 453.67112 -99.910816 453.63672 -99.916016 C 453.71039 -100.07772 454.09375 -100.78125 454.09375 -100.78125 L 453.17773 -101.18164 C 453.17773 -101.18164 452.67392 -100.26682 452.52148 -99.941406 C 451.92142 -99.951515 451.31966 -99.921111 450.74609 -99.837891 L 450.85352 -102 L 456 -102 L 456 -103 L 450.90234 -103 L 451 -104.97461 L 450 -105.02539 z M 451.54688 -98.972656 C 451.56831 -98.973619 451.58988 -98.973007 451.61133 -98.972656 C 451.74013 -98.970546 451.86827 -98.950631 452 -98.957031 C 451.6142 -98.191318 451.55833 -97.945865 450.98047 -97.03125 C 450.84905 -96.823249 450.71339 -96.617991 450.57617 -96.417969 L 450.69727 -98.841797 C 450.951 -98.894347 451.21401 -98.937407 451.48242 -98.966797 C 451.50413 -98.969197 451.52543 -98.971694 451.54688 -98.972656 z M 449.67969 -98.550781 L 449.50586 -95.044922 C 449.33944 -94.863745 449.17459 -94.701332 449.01367 -94.5625 C 448.693 -94.285846 448.38972 -94.108016 448.15039 -94.041016 C 447.91106 -93.974024 447.75229 -93.988912 447.55664 -94.107422 C 447.23302 -94.303426 447.06328 -94.5618 446.98828 -94.902344 C 446.9133 -95.242888 446.95246 -95.672396 447.12305 -96.125 C 447.46422 -97.030208 448.32644 -97.998729 449.56836 -98.507812 C 449.60439 -98.522562 449.64259 -98.536571 449.67969 -98.550781 z"/>
 </g>
 <g id="fcitx-pinyin-libpinyin" transform="translate(0,-110)">
  <rect style="opacity:0.001" width="22" height="22" x="0" y="0"/>
  <path style="fill:currentColor" class="ColorScheme-Text" transform="translate(0,132)" d="m 5,-129 c -1.108,0 -2,0.892 -2,2 v 12 c 0,1.108 0.892,2 2,2 h 12 c 1.107999,0 2,-0.892 2,-2 v -12 c 0,-1.108 -0.892001,-2 -2,-2 z m 0,1 h 12 c 0.571295,0 1,0.4287 1,1 v 12 c 0,0.5713 -0.428705,1 -1,1 H 5 c -0.5712967,0 -1,-0.4287 -1,-1 v -12 c 0,-0.5713 0.4287033,-1 1,-1 z m 5.900391,0.69922 -0.800782,0.60156 L 11.375,-125 H 10 v 1 h 1 v 3 H 9.1171875 l 0.1054687,-0.0508 -0.4453124,-0.89844 L 8,-121.56055 V -124 h 1 v -1 H 8 v -2 H 7 v 2 H 5 v 1 h 2 v 2.93945 l -2.2226562,1.11133 0.4453124,0.89844 L 7,-119.93945 V -116 H 5 v 1 h 3 v -5.43945 l 1,-0.5 V -120 h 1.960938 c -0.089,0.9 -0.391969,1.61055 -0.792969,2.31055 -0.4973005,0.86 -1.5097659,1.82617 -1.5097659,1.82617 l 0.6835938,0.72851 c 0,0 1.0704061,-0.98468 1.6914061,-2.05468 0.449,-0.78 0.829781,-1.69055 0.925781,-2.81055 H 14 v 5 h 1 v -5 h 2 v -1 h -2 v -3 h 2 v -1 h -2.375 l 1.275391,-1.69922 -0.800782,-0.60156 -1.5,2 0.398438,0.30078 h -1.996094 l 0.398438,-0.30078 z M 12,-124 h 2 v 3 h -2 z"/>
 </g>
 <g id="fcitx-quanpin-libpinyin" transform="translate(0,-110)">
  <rect style="opacity:0.001" width="22" height="22" x="22" y="0"/>
  <path style="fill:currentColor" class="ColorScheme-Text" transform="translate(0,132)" d="m 27,-129 c -1.108,0 -2,0.892 -2,2 v 12 c 0,1.108 0.892,2 2,2 h 12 c 1.107999,0 2,-0.892 2,-2 v -12 c 0,-1.108 -0.892001,-2 -2,-2 z m 0,1 h 12 c 0.571295,0 1,0.4287 1,1 v 12 c 0,0.5713 -0.428705,1 -1,1 H 27 c -0.571297,0 -1,-0.4287 -1,-1 v -12 c 0,-0.5713 0.428703,-1 1,-1 z m 5.509766,0.90234 c -0.185885,0.92943 -1.548265,2.06108 -2.94336,2.84961 -1.395094,0.78853 -2.736328,1.27735 -2.736328,1.27735 l 0.339844,0.9414 c 0,0 0.801382,-0.2932 1.830078,-0.79492 V -122 h 3.5 v 2 H 30 v 1 h 2.5 v 3 H 28 v 1 h 10 v -1 h -4.5 v -3 H 36 v -1 h -2.5 v -2 H 37 v -0.86914 c 1.015788,0.51613 1.824219,0.83789 1.824219,0.83789 l 0.351562,-0.9375 c 0,0 -3.856017,-1.49806 -5.732422,-3.78711 0.01285,-0.0498 0.03674,-0.0958 0.04687,-0.14648 z M 33,-125.76758 c 1.116196,1.21483 2.543014,2.1371 3.734375,2.76758 h -7.396484 c 0.237536,-0.12095 0.472897,-0.23689 0.720703,-0.37695 1.095267,-0.61907 2.273818,-1.39372 2.941406,-2.39063 z"/>
 </g>
 <g id="fcitx-bopomofo-libpinyin" transform="translate(0,-110)">
  <rect style="opacity:0.001" width="22" height="22" x="66" y="0"/>
  <path style="fill:currentColor" class="ColorScheme-Text" transform="translate(0,132)" d="m 71,-129 c -1.108,0 -2,0.892 -2,2 v 12 c 0,1.108 0.892,2 2,2 h 12 c 1.107999,0 2,-0.892 2,-2 v -12 c 0,-1.108 -0.892001,-2 -2,-2 z m 0,1 h 12 c 0.571295,0 1,0.4287 1,1 v 12 c 0,0.5713 -0.428705,1 -1,1 H 71 c -0.571297,0 -1,-0.4287 -1,-1 v -12 c 0,-0.5713 0.428703,-1 1,-1 z m 6.300781,0.59961 -0.601562,0.80078 2,1.5 0.601562,-0.80078 z m -5.947265,0.0469 -0.707032,0.70704 2,2 0.707032,-0.70704 z M 74,-125 v 1 h 4 v 3 h -3 v 1 h 3 v 4 h -4 v 1 h 9 v -1 h -4 v -4 h 3 v -1 h -3 v -3 h 4 v -1 z m -2.646484,0.64648 -0.707032,0.70704 2,2 0.707032,-0.70704 z m 1.171875,3.19532 -2,6 0.949218,0.3164 2,-6 z"/>
 </g>
 <g id="fcitx-chewing-libpinyin" transform="translate(0,-110)">
  <rect style="opacity:0.001" width="22" height="22" x="88" y="0"/>
  <path style="fill:currentColor" class="ColorScheme-Text" transform="translate(0,132)" d="m 93,-129 c -1.108,0 -2,0.892 -2,2 v 12 c 0,1.108 0.892,2 2,2 h 12 c 1.108,0 2,-0.892 2,-2 v -12 c 0,-1.108 -0.892,-2 -2,-2 z m 0,1 h 12 c 0.5713,0 1,0.4287 1,1 v 12 c 0,0.5713 -0.4287,1 -1,1 H 93 c -0.571297,0 -1,-0.4287 -1,-1 v -12 c 0,-0.5713 0.428703,-1 1,-1 z m 0,1 v 1 h 1 v 3 h -1 v 8 h 6 v -8 H 98.5 97 v -3 h 2 v -1 z m 6,4 0.400391,0.30078 c 0,0 0.398171,-0.51118 0.796879,-1.30078 H 102 v 2 h -2 v 1 h 5 v -1 h -2 v -2 h 2 v -1 h -2 v -2 h -1 v 2 h -1.38281 c 0.2174,-0.6113 0.38281,-1.2913 0.38281,-2 h -1 c 0,1.75 -1.400391,3.69922 -1.400391,3.69922 z m -4,-3 h 1 v 3 h -1 z m 0,4 h 1 v 3 h 1 v -3 h 1 v 6 h -4 v -1 h 3 v -1 h -3 v -1 h 1 z m 5,2 v 5 h 5 v -5 z m 1,1 h 3 v 3 h -3 z"/>
 </g>
 <g id="fcitx-shuangpin-libpinyin" transform="translate(0,-110)">
  <rect style="opacity:0.001" width="22" height="22" x="44" y="0"/>
  <path style="fill:currentColor" class="ColorScheme-Text" transform="translate(0,132)" d="m 49,-129 c -1.108,0 -2,0.892 -2,2 v 12 c 0,1.108 0.892,2 2,2 h 12 c 1.108,0 2,-0.892 2,-2 v -12 c 0,-1.108 -0.892,-2 -2,-2 z m 0,1 h 12 c 0.571297,0 1,0.4287 1,1 v 12 c 0,0.5713 -0.428703,1 -1,1 H 49 c -0.571297,0 -1,-0.4287 -1,-1 v -12 c 0,-0.5713 0.428703,-1 1,-1 z m 0,1 v 1 h 4.427734 c -0.071,0.64 -0.31814,2.74063 -0.86914,4.64062 -0.695,-0.95999 -1.486969,-1.98117 -2.667969,-3.45117 l -0.78125,0.6211 c 1.418,1.77 2.287734,2.89 3.052734,4 -1.293,3.3405 -3.263671,4.65039 -3.263671,4.65039 l 0.55664,0.83203 c 0,0 1.971235,-1.36192 3.365234,-4.48242 0.438,0.6805 0.882875,1.41914 1.421876,2.36914 l 0.86914,-0.49024 c -0.699,-1.24 -1.254891,-2.13976 -1.83789,-3.00976 0.896999,-2.61 1.224609,-6.12891 1.224609,-6.12891 L 54.548828,-127 Z m 6,0 v 1 h 0.589844 c 0.102,0.59 0.552547,3.13985 1.310547,5.08984 0.2656,0.69 0.548718,1.3498 0.886718,2 -1.2879,2.04 -3.068359,3.13868 -3.068359,3.13868 l 0.517578,0.85546 c 0,0 1.710316,-1.0492 3.103516,-3.0332 0.656,1.02 1.520734,2.02655 2.802734,3.06055 l 0.626953,-0.7793 c -1.384,-1.112 -2.21975,-2.14242 -2.84375,-3.23242 0.125,-0.2304 0.256188,-0.43945 0.367188,-0.68945 C 60.166969,-121.52984 61,-124.35 61,-126.5 v -0.5 z m 1.607422,1 h 3.316406 c -0.109,1.85 -0.793781,4.32977 -1.550781,6.00977 -0.188,-0.41 -0.366063,-0.8293 -0.539063,-1.2793 -0.658,-1.7 -1.086562,-3.96047 -1.226562,-4.73047 z"/>
 </g>
 <g id="fcitx-vk-active" transform="translate(176,-66)">
  <rect style="opacity:0.001" width="22" height="22" x="0" y="0"/>
  <path style="fill:currentColor" class="ColorScheme-Text" d="M 5,5 C 3.892,5 3,5.892 3,7 v 8 c 0,1.108 0.892,2 2,2 h 11 c 1.108,0 2,-0.892 2,-2 V 7 C 18,5.892 17.108,5 16,5 Z m 0,1 h 11 c 0.571297,0 1,0.4287028 1,1 v 8 c 0,0.571297 -0.428703,1 -1,1 H 5 C 4.4287028,16 4,15.571297 4,15 V 7 C 4,6.4287028 4.4287028,6 5,6 Z M 5.5,7 C 5.223,7 5,7.223 5,7.5 v 1 C 5,8.777 5.223,9 5.5,9 h 1 C 6.777,9 7,8.777 7,8.5 v -1 C 7,7.223 6.777,7 6.5,7 Z m 3,0 C 8.223,7 8,7.223 8,7.5 v 1 C 8,8.777 8.223,9 8.5,9 h 1 C 9.777,9 10,8.777 10,8.5 v -1 C 10,7.223 9.777,7 9.5,7 Z m 3,0 C 11.223,7 11,7.223 11,7.5 v 1 C 11,8.777 11.223,9 11.5,9 h 1 C 12.777,9 13,8.777 13,8.5 v -1 C 13,7.223 12.777,7 12.5,7 Z m 3,0 C 14.223,7 14,7.223 14,7.5 v 1 C 14,8.777 14.223,9 14.5,9 h 1 C 15.777,9 16,8.777 16,8.5 v -1 C 16,7.223 15.777,7 15.5,7 Z m -9,3 C 5.223,10 5,10.223 5,10.5 v 1 C 5,11.777 5.223,12 5.5,12 h 1 C 6.777,12 7,11.777 7,11.5 v -1 C 7,10.223 6.777,10 6.5,10 Z m 3,0 C 8.223,10 8,10.223 8,10.5 v 1 C 8,11.777 8.223,12 8.5,12 h 1 C 9.777,12 10,11.777 10,11.5 v -1 C 10,10.223 9.777,10 9.5,10 Z m 3,0 C 11.223,10 11,10.223 11,10.5 v 1 c 0,0.277 0.223,0.5 0.5,0.5 h 1 c 0.277,0 0.5,-0.223 0.5,-0.5 v -1 C 13,10.223 12.777,10 12.5,10 Z m 3,0 C 14.223,10 14,10.223 14,10.5 v 1 c 0,0.277 0.223,0.5 0.5,0.5 h 1 c 0.277,0 0.5,-0.223 0.5,-0.5 v -1 C 16,10.223 15.777,10 15.5,10 Z m -9,3 C 5.223,13 5,13.223 5,13.5 v 1 C 5,14.777 5.223,15 5.5,15 h 1 C 6.777,15 7,14.777 7,14.5 v -1 C 7,13.223 6.777,13 6.5,13 Z m 3,0 C 8.223,13 8,13.223 8,13.5 v 1 C 8,14.777 8.223,15 8.5,15 h 1 2.5 0.5 c 0.277,0 0.5,-0.223 0.5,-0.5 v -1 C 13,13.223 12.777,13 12.5,13 H 12 9.5 Z m 6,0 C 14.223,13 14,13.223 14,13.5 v 1 c 0,0.277 0.223,0.5 0.5,0.5 h 1 c 0.277,0 0.5,-0.223 0.5,-0.5 v -1 C 16,13.223 15.777,13 15.5,13 Z"/>
 </g>
 <g id="fcitx-vk-inactive" transform="translate(198,-66)">
  <rect style="opacity:0.001" width="22" height="22" x="0" y="0"/>
  <path style="opacity:0.5;fill:currentColor" class="ColorScheme-Text" d="M 5,5 C 3.892,5 3,5.892 3,7 v 8 c 0,1.108 0.892,2 2,2 h 11 c 1.108,0 2,-0.892 2,-2 V 7 C 18,5.892 17.108,5 16,5 Z m 0,1 h 11 c 0.571297,0 1,0.4287028 1,1 v 8 c 0,0.571297 -0.428703,1 -1,1 H 5 C 4.4287028,16 4,15.571297 4,15 V 7 C 4,6.4287028 4.4287028,6 5,6 Z M 5.5,7 C 5.223,7 5,7.223 5,7.5 v 1 C 5,8.777 5.223,9 5.5,9 h 1 C 6.777,9 7,8.777 7,8.5 v -1 C 7,7.223 6.777,7 6.5,7 Z m 3,0 C 8.223,7 8,7.223 8,7.5 v 1 C 8,8.777 8.223,9 8.5,9 h 1 C 9.777,9 10,8.777 10,8.5 v -1 C 10,7.223 9.777,7 9.5,7 Z m 3,0 C 11.223,7 11,7.223 11,7.5 v 1 C 11,8.777 11.223,9 11.5,9 h 1 C 12.777,9 13,8.777 13,8.5 v -1 C 13,7.223 12.777,7 12.5,7 Z m 3,0 C 14.223,7 14,7.223 14,7.5 v 1 C 14,8.777 14.223,9 14.5,9 h 1 C 15.777,9 16,8.777 16,8.5 v -1 C 16,7.223 15.777,7 15.5,7 Z m -9,3 C 5.223,10 5,10.223 5,10.5 v 1 C 5,11.777 5.223,12 5.5,12 h 1 C 6.777,12 7,11.777 7,11.5 v -1 C 7,10.223 6.777,10 6.5,10 Z m 3,0 C 8.223,10 8,10.223 8,10.5 v 1 C 8,11.777 8.223,12 8.5,12 h 1 C 9.777,12 10,11.777 10,11.5 v -1 C 10,10.223 9.777,10 9.5,10 Z m 3,0 C 11.223,10 11,10.223 11,10.5 v 1 c 0,0.277 0.223,0.5 0.5,0.5 h 1 c 0.277,0 0.5,-0.223 0.5,-0.5 v -1 C 13,10.223 12.777,10 12.5,10 Z m 3,0 C 14.223,10 14,10.223 14,10.5 v 1 c 0,0.277 0.223,0.5 0.5,0.5 h 1 c 0.277,0 0.5,-0.223 0.5,-0.5 v -1 C 16,10.223 15.777,10 15.5,10 Z m -9,3 C 5.223,13 5,13.223 5,13.5 v 1 C 5,14.777 5.223,15 5.5,15 h 1 C 6.777,15 7,14.777 7,14.5 v -1 C 7,13.223 6.777,13 6.5,13 Z m 3,0 C 8.223,13 8,13.223 8,13.5 v 1 C 8,14.777 8.223,15 8.5,15 h 1 2.5 0.5 c 0.277,0 0.5,-0.223 0.5,-0.5 v -1 C 13,13.223 12.777,13 12.5,13 H 12 9.5 Z m 6,0 C 14.223,13 14,13.223 14,13.5 v 1 c 0,0.277 0.223,0.5 0.5,0.5 h 1 c 0.277,0 0.5,-0.223 0.5,-0.5 v -1 C 16,13.223 15.777,13 15.5,13 Z"/>
 </g>
 <g id="fcitx-kbd">
  <rect style="opacity:0.001" width="22" height="22" x="154" y="-66"/>
  <path style="fill:currentColor" class="ColorScheme-Text" d="M 165 -64.455078 C 164.992 -64.450678 164.98301 -64.445876 164.97461 -64.441406 C 164.5607 -64.21989 164.34799 -63.874171 164.08203 -63.552734 C 163.81607 -63.231298 163.4873 -62.949542 163.51953 -62.962891 C 163.3561 -62.895191 163.13169 -62.896826 162.82812 -62.978516 C 162.5246 -63.060186 162.16597 -63.216799 161.79492 -63.373047 C 161.42388 -63.529294 161.04153 -63.689271 160.625 -63.744141 C 160.20847 -63.799011 159.70925 -63.707291 159.35547 -63.353516 C 159.07512 -63.073164 159.03995 -62.751678 159.01367 -62.435547 C 158.98737 -62.119415 159.00366 -61.786196 159.03516 -61.472656 C 159.05176 -61.30613 159.0738 -61.147271 159.0957 -61 L 159 -61 C 157.892 -61 157 -60.108 157 -59 L 157 -51 C 157 -49.892 157.892 -49 159 -49 L 170 -49 C 171.108 -49 172 -49.892 172 -51 L 172 -59 C 172 -60.108 171.108 -61 170 -61 L 160.10742 -61 C 160.07972 -61.171256 160.05215 -61.363337 160.03125 -61.572266 C 160.00355 -61.8498 159.99187 -62.137953 160.00977 -62.353516 C 160.02547 -62.542132 160.09027 -62.659853 160.07617 -62.65625 C 160.18791 -62.763754 160.27228 -62.781183 160.49414 -62.751953 C 160.72353 -62.721733 161.05108 -62.601556 161.4082 -62.451172 C 161.76533 -62.300788 162.15373 -62.123276 162.56836 -62.011719 C 162.98298 -61.900161 163.44791 -61.849684 163.90039 -62.037109 C 164.36814 -62.230857 164.58224 -62.588161 164.85352 -62.916016 C 164.90142 -62.973886 164.95112 -63.028633 165 -63.083984 L 165 -64.455078 z M 159 -60 L 170 -60 C 170.5713 -60 171 -59.571297 171 -59 L 171 -51 C 171 -50.428703 170.5713 -50 170 -50 L 159 -50 C 158.4287 -50 158 -50.428703 158 -51 L 158 -59 C 158 -59.571297 158.4287 -60 159 -60 z M 159.5 -59 C 159.223 -59 159 -58.777 159 -58.5 L 159 -57.5 C 159 -57.223 159.223 -57 159.5 -57 L 160.5 -57 C 160.777 -57 161 -57.223 161 -57.5 L 161 -58.5 C 161 -58.777 160.777 -59 160.5 -59 L 159.5 -59 z M 162.5 -59 C 162.223 -59 162 -58.777 162 -58.5 L 162 -57.5 C 162 -57.223 162.223 -57 162.5 -57 L 163.5 -57 C 163.777 -57 164 -57.223 164 -57.5 L 164 -58.5 C 164 -58.777 163.777 -59 163.5 -59 L 162.5 -59 z M 165.5 -59 C 165.223 -59 165 -58.777 165 -58.5 L 165 -57.5 C 165 -57.223 165.223 -57 165.5 -57 L 166.5 -57 C 166.777 -57 167 -57.223 167 -57.5 L 167 -58.5 C 167 -58.777 166.777 -59 166.5 -59 L 165.5 -59 z M 168.5 -59 C 168.223 -59 168 -58.777 168 -58.5 L 168 -57.5 C 168 -57.223 168.223 -57 168.5 -57 L 169.5 -57 C 169.777 -57 170 -57.223 170 -57.5 L 170 -58.5 C 170 -58.777 169.777 -59 169.5 -59 L 168.5 -59 z M 159.5 -56 C 159.223 -56 159 -55.777 159 -55.5 L 159 -54.5 C 159 -54.223 159.223 -54 159.5 -54 L 160.5 -54 C 160.777 -54 161 -54.223 161 -54.5 L 161 -55.5 C 161 -55.777 160.777 -56 160.5 -56 L 159.5 -56 z M 162.5 -56 C 162.223 -56 162 -55.777 162 -55.5 L 162 -54.5 C 162 -54.223 162.223 -54 162.5 -54 L 163.5 -54 C 163.777 -54 164 -54.223 164 -54.5 L 164 -55.5 C 164 -55.777 163.777 -56 163.5 -56 L 162.5 -56 z M 165.5 -56 C 165.223 -56 165 -55.777 165 -55.5 L 165 -54.5 C 165 -54.223 165.223 -54 165.5 -54 L 166.5 -54 C 166.777 -54 167 -54.223 167 -54.5 L 167 -55.5 C 167 -55.777 166.777 -56 166.5 -56 L 165.5 -56 z M 168.5 -56 C 168.223 -56 168 -55.777 168 -55.5 L 168 -54.5 C 168 -54.223 168.223 -54 168.5 -54 L 169.5 -54 C 169.777 -54 170 -54.223 170 -54.5 L 170 -55.5 C 170 -55.777 169.777 -56 169.5 -56 L 168.5 -56 z M 159.5 -53 C 159.223 -53 159 -52.777 159 -52.5 L 159 -51.5 C 159 -51.223 159.223 -51 159.5 -51 L 160.5 -51 C 160.777 -51 161 -51.223 161 -51.5 L 161 -52.5 C 161 -52.777 160.777 -53 160.5 -53 L 159.5 -53 z M 162.5 -53 C 162.223 -53 162 -52.777 162 -52.5 L 162 -51.5 C 162 -51.223 162.223 -51 162.5 -51 L 163.5 -51 L 166 -51 L 166.5 -51 C 166.777 -51 167 -51.223 167 -51.5 L 167 -52.5 C 167 -52.777 166.777 -53 166.5 -53 L 166 -53 L 163.5 -53 L 162.5 -53 z M 168.5 -53 C 168.223 -53 168 -52.777 168 -52.5 L 168 -51.5 C 168 -51.223 168.223 -51 168.5 -51 L 169.5 -51 C 169.777 -51 170 -51.223 170 -51.5 L 170 -52.5 C 170 -52.777 169.777 -53 169.5 -53 L 168.5 -53 z"/>
 </g>
 <g id="fcitx" transform="translate(-22)">
  <rect style="opacity:0.001" width="22" height="22" x="154" y="-66"/>
  <path style="fill:currentColor" class="ColorScheme-Text" d="m 165,-64.455078 c -0.008,0.0044 -0.017,0.0092 -0.0254,0.01367 -0.41391,0.221516 -0.62662,0.567235 -0.89258,0.888672 -0.26596,0.321436 -0.59473,0.603192 -0.5625,0.589843 -0.16343,0.0677 -0.38784,0.06607 -0.69141,-0.01563 -0.30352,-0.08167 -0.66215,-0.238283 -1.0332,-0.394531 -0.37104,-0.156247 -0.75339,-0.316224 -1.16992,-0.371094 -0.41653,-0.05487 -0.91575,0.03685 -1.26953,0.390625 -0.28035,0.280352 -0.31552,0.601838 -0.3418,0.917969 -0.0263,0.316132 -0.01,0.649351 0.0215,0.962891 0.0166,0.166526 0.0386,0.325385 0.0605,0.472656 H 159 c -1.108,0 -2,0.892 -2,2 v 8 c 0,1.108 0.892,2 2,2 h 11 c 1.108,0 2,-0.892 2,-2 v -8 c 0,-1.108 -0.892,-2 -2,-2 h -9.89258 c -0.0277,-0.171256 -0.0553,-0.363337 -0.0762,-0.572266 -0.0277,-0.277534 -0.0394,-0.565687 -0.0215,-0.78125 0.0157,-0.188616 0.0805,-0.306337 0.0664,-0.302734 0.11174,-0.107504 0.19611,-0.124933 0.41797,-0.0957 0.22939,0.03022 0.55694,0.150397 0.91406,0.300781 0.35713,0.150384 0.74553,0.327896 1.16016,0.439453 0.41462,0.111558 0.87955,0.162035 1.33203,-0.02539 0.46775,-0.193748 0.68185,-0.551052 0.95313,-0.878907 0.0479,-0.05787 0.0976,-0.112617 0.14648,-0.167968 z M 159,-60 h 11 c 0.5713,0 1,0.428703 1,1 v 8 c 0,0.571297 -0.4287,1 -1,1 h -11 c -0.5713,0 -1,-0.428703 -1,-1 v -8 c 0,-0.571297 0.4287,-1 1,-1 z m 0.5,1 c -0.277,0 -0.5,0.223 -0.5,0.5 v 1 c 0,0.277 0.223,0.5 0.5,0.5 h 1 c 0.277,0 0.5,-0.223 0.5,-0.5 v -1 c 0,-0.277 -0.223,-0.5 -0.5,-0.5 z m 3,0 c -0.277,0 -0.5,0.223 -0.5,0.5 v 1 c 0,0.277 0.223,0.5 0.5,0.5 h 1 c 0.277,0 0.5,-0.223 0.5,-0.5 v -1 c 0,-0.277 -0.223,-0.5 -0.5,-0.5 z m 3,0 c -0.277,0 -0.5,0.223 -0.5,0.5 v 1 c 0,0.277 0.223,0.5 0.5,0.5 h 1 c 0.277,0 0.5,-0.223 0.5,-0.5 v -1 c 0,-0.277 -0.223,-0.5 -0.5,-0.5 z m 3,0 c -0.277,0 -0.5,0.223 -0.5,0.5 v 1 c 0,0.277 0.223,0.5 0.5,0.5 h 1 c 0.277,0 0.5,-0.223 0.5,-0.5 v -1 c 0,-0.277 -0.223,-0.5 -0.5,-0.5 z m -9,3 c -0.277,0 -0.5,0.223 -0.5,0.5 v 1 c 0,0.277 0.223,0.5 0.5,0.5 h 1 c 0.277,0 0.5,-0.223 0.5,-0.5 v -1 c 0,-0.277 -0.223,-0.5 -0.5,-0.5 z m 3,0 c -0.277,0 -0.5,0.223 -0.5,0.5 v 1 c 0,0.277 0.223,0.5 0.5,0.5 h 1 c 0.277,0 0.5,-0.223 0.5,-0.5 v -1 c 0,-0.277 -0.223,-0.5 -0.5,-0.5 z m 3,0 c -0.277,0 -0.5,0.223 -0.5,0.5 v 1 c 0,0.277 0.223,0.5 0.5,0.5 h 1 c 0.277,0 0.5,-0.223 0.5,-0.5 v -1 c 0,-0.277 -0.223,-0.5 -0.5,-0.5 z m 3,0 c -0.277,0 -0.5,0.223 -0.5,0.5 v 1 c 0,0.277 0.223,0.5 0.5,0.5 h 1 c 0.277,0 0.5,-0.223 0.5,-0.5 v -1 c 0,-0.277 -0.223,-0.5 -0.5,-0.5 z m -9,3 c -0.277,0 -0.5,0.223 -0.5,0.5 v 1 c 0,0.277 0.223,0.5 0.5,0.5 h 1 c 0.277,0 0.5,-0.223 0.5,-0.5 v -1 c 0,-0.277 -0.223,-0.5 -0.5,-0.5 z m 3,0 c -0.277,0 -0.5,0.223 -0.5,0.5 v 1 c 0,0.277 0.223,0.5 0.5,0.5 h 1 2.5 0.5 c 0.277,0 0.5,-0.223 0.5,-0.5 v -1 c 0,-0.277 -0.223,-0.5 -0.5,-0.5 h -0.5 -2.5 z m 6,0 c -0.277,0 -0.5,0.223 -0.5,0.5 v 1 c 0,0.277 0.223,0.5 0.5,0.5 h 1 c 0.277,0 0.5,-0.223 0.5,-0.5 v -1 c 0,-0.277 -0.223,-0.5 -0.5,-0.5 z"/>
 </g>
 <g id="fcitx-mozc-properties">
  <rect style="opacity:0.001" width="22" height="22" x="396" y="-132"/>
  <path style="fill:currentColor" class="ColorScheme-Text" d="M 407 -129 A 2 2 0 0 0 405 -127 L 405 -126.64062 A 6 6 0 0 0 403.10352 -125.56055 L 402.80469 -125.73242 A 2 2 0 0 0 400.07227 -125 A 2 2 0 0 0 400.80469 -122.26758 L 401.11133 -122.08984 A 6 6 0 0 0 401 -121 A 6 6 0 0 0 401.11133 -119.91016 L 400.80469 -119.73242 A 2 2 0 0 0 400.07227 -117 A 2 2 0 0 0 402.80469 -116.26758 L 403.10352 -116.43945 A 6 6 0 0 0 405 -115.35938 L 405 -115 A 2 2 0 0 0 407 -113 A 2 2 0 0 0 409 -115 L 409 -115.35938 A 6 6 0 0 0 410.89648 -116.43945 L 411.19531 -116.26758 A 2 2 0 0 0 413.92773 -117 A 2 2 0 0 0 413.19531 -119.73242 L 412.88867 -119.91016 A 6 6 0 0 0 413 -121 A 6 6 0 0 0 412.89844 -122.0957 L 413.19531 -122.26758 A 2 2 0 0 0 413.92773 -125 A 2 2 0 0 0 411.19531 -125.73242 L 410.89648 -125.56055 A 6 6 0 0 0 409 -126.65625 L 409 -127 A 2 2 0 0 0 407 -129 z M 407 -124 A 3 3 0 0 1 410 -121 A 3 3 0 0 1 407 -118 A 3 3 0 0 1 404 -121 A 3 3 0 0 1 407 -124 z"/>
 </g>
 <g id="fcitx-handwriting-inactive" transform="translate(22,-132)">
  <rect style="opacity:0.001" width="22" height="22" x="198" y="110"/>
  <path style="opacity:0.5;fill:currentColor" class="ColorScheme-Text" transform="translate(0,132)" d="m 215.61133,-18 c -0.18125,0 -0.36196,0.0709 -0.50195,0.210938 L 212.75,-15.429688 206,-8.6796875 V -6 h 2.66992 l 6.75,-6.75 2.36914,-2.359375 c 0.28,-0.28 0.28,-0.729766 0,-1.009766 l -1.66992,-1.669921 C 215.97414,-17.929063 215.79258,-18 215.61133,-18 Z m 0.002,1.121094 1.26563,1.263672 -2.16602,2.158203 L 208.25586,-7 H 207 v -1.265625 l 6.45703,-6.457031 z m -13.53711,1.822265 c -0.19319,0.004 -0.40564,0.02364 -0.64453,0.05664 -0.66156,0.0911 -0.52484,1.083267 0.13672,0.992188 0.41874,-0.0578 0.71008,-0.056 0.87109,-0.0293 0.10527,0.0175 0.14015,0.03637 0.15039,0.04297 10e-4,0.0124 0.002,0.03944 -0.004,0.08984 -0.0114,0.10109 -0.0582,0.264302 -0.125,0.451172 -0.13364,0.37372 -0.35129,1.524534 -0.41016,2.027344 -0.0294,0.25141 -0.0149,0.53952 0.13281,0.80664 0.14773,0.26712 0.41955,0.467279 0.73829,0.574219 0.15253,0.0511 0.21329,0.04062 0.30859,0.04492 0.0953,0.004 0.20074,0.00586 0.31641,0.00586 0.23131,7e-5 0.60316,-0.00309 0.85742,0.00391 0.032,8.8e-4 0.0467,0.00581 0.0781,0.00781 -0.0907,0.0554 -0.14559,0.098203 -0.25195,0.1582031 -1.31068,0.6616702 -2.91212,0.8557751 -2.9043,2.390625 0.0823,0.3731202 0.37009,0.6318119 0.73047,0.8261719 0.36039,0.19436 0.83345,0.3515769 1.48047,0.4980469 0.44993,0.10187 0.94859,0.1470719 1.46289,0.1699219 v -1.0097657 c -0.47115,-0.0211 -0.90101,-0.057506 -1.24219,-0.1347656 -0.59572,-0.13486 -0.99935,-0.2798037 -1.22656,-0.4023437 -0.1521,-0.082 -0.20177,-0.1376433 -0.21875,-0.1582031 0.008,-0.0144 0.0234,-0.04255 0.0664,-0.09375 0.61008,-0.6132902 1.52957,-0.9188238 2.24414,-1.2148438 0.28271,-0.15954 0.63801,-0.3122356 0.85156,-0.4785156 0.21356,-0.16628 0.4659,-0.3301229 0.47656,-0.7519534 0.006,-0.24594 -0.16428,-0.470423 -0.30469,-0.564453 -0.14044,-0.094 -0.26744,-0.130546 -0.39648,-0.160156 -0.25808,-0.0592 -0.53621,-0.07423 -0.81836,-0.08203 -0.28212,-0.008 -0.66218,-0.0039 -0.88281,-0.0039 -0.11031,-3e-5 -0.20638,-5.72e-4 -0.27149,-0.0039 -0.0275,-10e-4 -0.0496,-0.0048 -0.0645,-0.0078 -0.11428,-0.0431 -0.14248,-0.07626 -0.1543,-0.09766 -0.0131,-0.0236 -0.0302,-0.0805 -0.0156,-0.205078 0.0292,-0.24917 0.20549,-1.37633 0.35937,-1.80664 0.0769,-0.21515 0.14853,-0.436035 0.17578,-0.677735 0.0273,-0.2417 0.006,-0.535329 -0.17578,-0.787109 -0.18155,-0.25177 -0.47835,-0.390208 -0.79882,-0.44336 -0.16024,-0.0266 -0.33416,-0.0375 -0.52735,-0.0332 z"/>
 </g>
</svg>
