<svg xmlns="http://www.w3.org/2000/svg" id="svg9" width="22" height="22" version="1">
<defs id="rounded">
    <style type="text/css" id="current-color-scheme">
        .ColorScheme-Text {
        color:#eff0f1;
        }
        .ColorScheme-NegativeText {
        color:#da4453;
        }
        .ColorScheme-Highlight {
        color:#3daee9;
        }
        .ColorScheme-Background {
        color:#31363b;
      }
      .ColorScheme-ButtonBackground {
        color:#444c53;
      }
    </style>
</defs>
 <g id="juk">
  <rect id="rect825" style="opacity:0.001" width="22" height="22" x="0" y="0"/>
  <path id="path827" style="opacity:1;fill:currentColor" class="ColorScheme-Text" d="M 11 3 A 8 8 0 0 0 3 11 A 8 8 0 0 0 11 19 A 8 8 0 0 0 19 11 A 8 8 0 0 0 11 3 z M 11 4 A 7 7 0 0 1 18 11 A 7 7 0 0 1 11 18 A 7 7 0 0 1 4 11 A 7 7 0 0 1 11 4 z M 11 7 A 4 4 0 0 0 7 11 A 4 4 0 0 0 11 15 A 4 4 0 0 0 15 11 A 4 4 0 0 0 11 7 z M 11 10 A 1 1 0 0 1 12 11 A 1 1 0 0 1 11 12 A 1 1 0 0 1 10 11 A 1 1 0 0 1 11 10 z"/>
 </g>
</svg>
