<svg xmlns="http://www.w3.org/2000/svg" id="svg3869" width="22" height="22" version="1.1">
<defs id="rounded">
    <style type="text/css" id="current-color-scheme">
        .ColorScheme-Text {
        color:#eff0f1;
        }
        .ColorScheme-NegativeText {
        color:#da4453;
        }
        .ColorScheme-Highlight {
        color:#3daee9;
        }
        .ColorScheme-Background {
        color:#31363b;
      }
      .ColorScheme-ButtonBackground {
        color:#444c53;
      }
    </style>
</defs>
 <g id="kalarm">
  <rect id="rect835" style="opacity:0.001" width="22" height="22" x="0" y="0"/>
  <path id="rect853" style="opacity:1;fill:currentColor" class="ColorScheme-Text" d="M 11 3 A 1 1 0 0 0 10.619141 3.0761719 C 10.613653 3.0784417 10.608954 3.0816202 10.603516 3.0839844 A 1 1 0 0 0 10.294922 3.2910156 C 10.293641 3.2922898 10.29229 3.2936408 10.291016 3.2949219 A 1 1 0 0 0 10.078125 3.6113281 A 1 1 0 0 0 10 4 A 1 1 0 0 0 10.001953 4.0703125 C 10.002071 4.0722623 10.001822 4.0742226 10.001953 4.0761719 C 4.8506462 4.78101 7.3037909 11.091484 4.5175781 14.941406 C 4.0342448 15.573922 3 16 3 16.5 C 3 16.776142 3.2238576 17 3.5 17 L 4.5 17 L 8 17 L 11 17 L 11.001953 17 L 13 17 L 14.087891 17 A 1.5 1.5 0 0 0 14 17.5 A 1.5 1.5 0 0 0 15.5 19 A 1.5 1.5 0 0 0 17 17.5 A 1.5 1.5 0 0 0 16.912109 17 L 17.501953 17 L 18.501953 17 C 18.778095 17 19.001953 16.776142 19.001953 16.5 C 19.001953 16 17.967758 15.573922 17.484375 14.941406 C 14.698162 11.091484 17.151304 4.7810099 12 4.0761719 C 12.001759 4.0508149 12.00227 4.025406 12.001953 4 C 12.001953 3.9958647 12.00005 3.9924047 12 3.9882812 A 1 1 0 0 0 11.927734 3.6269531 C 11.923074 3.6154258 11.917183 3.6050592 11.912109 3.59375 A 1 1 0 0 0 11.716797 3.3027344 A 1 1 0 0 0 11.712891 3.2988281 C 11.708962 3.2948437 11.705167 3.2910277 11.701172 3.2871094 A 1 1 0 0 0 11.396484 3.0820312 A 1 1 0 0 0 11.390625 3.078125 C 11.389469 3.0776362 11.387877 3.0786096 11.386719 3.078125 A 1 1 0 0 0 11.001953 3 A 1 1 0 0 0 11 3 z M 11 5 A 1 1 0 0 0 11.001953 5 C 12.561468 5 13.248179 5.3806738 13.724609 5.9511719 C 14.201041 6.5216699 14.481586 7.4586159 14.679688 8.6464844 C 15.041842 10.818089 15.20223 13.778369 17.140625 16 L 15.5 16 L 13 16 L 11.001953 16 L 11 16 L 8 16 L 4.8613281 16 C 6.7997227 13.778369 6.9601066 10.818089 7.3222656 8.6464844 C 7.5203667 7.4586159 7.8009119 6.5216699 8.2773438 5.9511719 C 8.7537736 5.3806738 9.4404852 5 11 5 z"/>
 </g>
 <g id="kalarm-disabled" transform="translate(22)">
  <rect id="rect905" style="opacity:0.001" width="22" height="22" x="0" y="0"/>
  <path id="path907" style="opacity:0.5;fill:currentColor" class="ColorScheme-Text" d="m 11,3 a 1,1 0 0 0 -0.380859,0.076172 c -0.0055,0.00227 -0.01019,0.00545 -0.01563,0.00781 a 1,1 0 0 0 -0.308594,0.2070312 c -0.0013,0.00127 -0.0026,0.00263 -0.0039,0.00391 A 1,1 0 0 0 10.078125,3.6113281 1,1 0 0 0 10,4 a 1,1 0 0 0 0.002,0.070312 c 1.18e-4,0.00195 -1.31e-4,0.00391 0,0.00586 C 4.8506462,4.78101 7.3037909,11.091484 4.5175781,14.941406 4.0342448,15.573922 3,16 3,16.5 3,16.776142 3.2238576,17 3.5,17 h 1 3.5 3 0.002 H 13 14.087891 A 1.5,1.5 0 0 0 14,17.5 1.5,1.5 0 0 0 15.5,19 1.5,1.5 0 0 0 17,17.5 1.5,1.5 0 0 0 16.912109,17 h 0.589844 1 c 0.276142,0 0.5,-0.223858 0.5,-0.5 0,-0.5 -1.034195,-0.926078 -1.517578,-1.558594 C 14.698162,11.091484 17.151304,4.7810099 12,4.0761719 c 0.0018,-0.025357 0.0023,-0.050766 0.002,-0.076172 0,-0.00414 -0.0019,-0.0076 -0.002,-0.011719 a 1,1 0 0 0 -0.07227,-0.3613281 c -0.0047,-0.011527 -0.01055,-0.021894 -0.01563,-0.033203 a 1,1 0 0 0 -0.195312,-0.2910156 1,1 0 0 0 -0.0039,-0.00391 c -0.0039,-0.00398 -0.0077,-0.0078 -0.01172,-0.011719 a 1,1 0 0 0 -0.304688,-0.2050782 1,1 0 0 0 -0.0059,-0.00391 c -0.0012,-4.888e-4 -0.0027,4.846e-4 -0.0039,0 A 1,1 0 0 0 11.001953,3 1,1 0 0 0 11,3 Z m 0,2 a 1,1 0 0 0 0.002,0 c 1.559515,0 2.246226,0.3806738 2.722656,0.9511719 0.476432,0.570498 0.756977,1.507444 0.955079,2.6953125 C 15.041842,10.818089 15.20223,13.778369 17.140625,16 H 15.5 13 11.001953 11 8 4.8613281 C 6.7997227,13.778369 6.9601066,10.818089 7.3222656,8.6464844 7.5203667,7.4586159 7.8009119,6.5216699 8.2773438,5.9511719 8.7537736,5.3806738 9.4404852,5 11,5 Z"/>
 </g>
 <g id="kalarm-partdisabled" transform="translate(44)">
  <rect id="rect911" style="opacity:0.001" width="22" height="22" x="0" y="0"/>
  <path id="path913" style="opacity:0.5;fill:currentColor" class="ColorScheme-Text" d="m 11,3 a 1,1 0 0 0 -0.380859,0.076172 c -0.0055,0.00227 -0.01019,0.00545 -0.01563,0.00781 a 1,1 0 0 0 -0.308594,0.2070312 c -0.0013,0.00127 -0.0026,0.00263 -0.0039,0.00391 A 1,1 0 0 0 10.078125,3.6113281 1,1 0 0 0 10,4 1,1 0 0 0 10.002,4.070312 c 1.18e-4,0.00195 -1.31e-4,0.00391 0,0.00586 C 4.8506462,4.78101 7.3037909,11.091484 4.5175781,14.941406 4.0342448,15.573922 3,16 3,16.5 3,16.776142 3.2238576,17 3.5,17 H 4.5 8 11 11.002 13 14.087891 A 1.5,1.5 0 0 0 14,17.5 1.5,1.5 0 0 0 15.5,19 1.5,1.5 0 0 0 17,17.5 1.5,1.5 0 0 0 16.912109,17 h 0.589844 1 c 0.276142,0 0.5,-0.223858 0.5,-0.5 0,-0.5 -1.034195,-0.926078 -1.517578,-1.558594 C 14.698162,11.091484 17.151304,4.7810099 12,4.0761719 c 0.0018,-0.025357 0.0023,-0.050766 0.002,-0.076172 0,-0.00414 -0.0019,-0.0076 -0.002,-0.011719 A 1,1 0 0 0 11.92773,3.6269528 c -0.0047,-0.011527 -0.01055,-0.021894 -0.01563,-0.033203 a 1,1 0 0 0 -0.195312,-0.2910156 1,1 0 0 0 -0.0039,-0.00391 c -0.0039,-0.00398 -0.0077,-0.0078 -0.01172,-0.011719 A 1,1 0 0 0 11.39648,3.082027 1,1 0 0 0 11.39058,3.078117 c -0.0012,-4.888e-4 -0.0027,4.846e-4 -0.0039,0 A 1,1 0 0 0 11.001953,3 1,1 0 0 0 11,3 Z m 0,2 a 1,1 0 0 0 0.002,0 c 1.559515,0 2.246226,0.3806738 2.722656,0.9511719 0.476432,0.570498 0.756977,1.507444 0.955079,2.6953125 C 15.041842,10.818089 15.20223,13.778369 17.140625,16 H 15.5 13 11.001953 11 8 4.8613281 C 6.7997227,13.778369 6.9601066,10.818089 7.3222656,8.6464844 7.5203667,7.4586159 7.8009119,6.5216699 8.2773438,5.9511719 8.7537736,5.3806738 9.4404852,5 11,5 Z"/>
 </g>
</svg>
