<svg xmlns="http://www.w3.org/2000/svg" id="svg18" width="22" height="22" version="1.1">
<defs id="rounded">
    <style type="text/css" id="current-color-scheme">
        .ColorScheme-Text {
        color:#eff0f1;
        }
        .ColorScheme-NegativeText {
        color:#da4453;
        }
        .ColorScheme-Highlight {
        color:#3daee9;
        }
        .ColorScheme-Background {
        color:#31363b;
      }
      .ColorScheme-ButtonBackground {
        color:#444c53;
      }
    </style>
</defs>
 <g id="kdf">
  <rect id="rect835" style="opacity:0.001" width="22" height="22" x="0" y="0"/>
  <path id="path966" style="opacity:1;fill:currentColor" class="ColorScheme-Text" d="m 11.482427,3.0000842 a 0.50005,0.50005 0 0 0 -0.205078,0.05273 l -3.9277348,1.962891 a 0.50005,0.50005 0 0 0 -0.00391,0.002 0.50005,0.50005 0 0 0 -0.3359375,0.378906 0.50005,0.50005 0 0 0 -0.00781,0.04687 0.50005,0.50005 0 0 0 0,0.0059 0.50005,0.50005 0 0 0 -0.00195,0.04688 0.50005,0.50005 0 0 0 0,0.0039 v 2.691403 L 3.3496142,10.015783 a 0.50005,0.50005 0 0 0 -0.00391,0.002 0.50005,0.50005 0 0 0 -0.3359375,0.378906 0.50005,0.50005 0 0 0 -0.00781,0.04687 0.50005,0.50005 0 0 0 0,0.0059 0.50005,0.50005 0 0 0 -0.00195,0.04679 0.50005,0.50005 0 0 0 0,0.0039 v 4.160152 a 0.50005,0.50005 0 0 0 0.2109375,0.40625 l 3.9785156,2.826172 0.021484,0.01563 a 0.50005,0.50005 0 0 0 0.019531,0.01172 0.50005,0.50005 0 0 0 0.035156,0.02148 0.50005,0.50005 0 0 0 0.019531,0.0098 0.50005,0.50005 0 0 0 0.017578,0.0078 0.50005,0.50005 0 0 0 0.041016,0.01563 0.50005,0.50005 0 0 0 0.039063,0.01172 0.50005,0.50005 0 0 0 0.085937,0.01172 0.50005,0.50005 0 0 0 0.046875,0.002 0.50005,0.50005 0 0 0 0.023437,-0.002 0.50005,0.50005 0 0 0 0.00195,0 0.50005,0.50005 0 0 0 0.033203,-0.0039 0.50005,0.50005 0 0 0 0.064453,-0.01367 0.50005,0.50005 0 0 0 0.023437,-0.0078 0.50005,0.50005 0 0 0 0.025391,-0.0098 0.50005,0.50005 0 0 0 0.035156,-0.01563 0.50005,0.50005 0 0 0 0.00977,-0.0039 0.50005,0.50005 0 0 0 0.019531,-0.01172 0.50005,0.50005 0 0 0 0.015625,-0.0098 l 0.00781,-0.0039 a 0.50005,0.50005 0 0 0 0.013672,-0.0098 L 9.908207,16.5626 l 3.28125,2.330078 0.02149,0.01563 a 0.50005,0.50005 0 0 0 0.01953,0.01172 0.50005,0.50005 0 0 0 0.03516,0.02148 0.50005,0.50005 0 0 0 0.01953,0.0098 0.50005,0.50005 0 0 0 0.01758,0.0078 0.50005,0.50005 0 0 0 0.04102,0.01563 0.50005,0.50005 0 0 0 0.03906,0.01172 0.50005,0.50005 0 0 0 0.08594,0.01172 0.50005,0.50005 0 0 0 0.04687,0.002 0.50005,0.50005 0 0 0 0.02344,-0.002 0.50005,0.50005 0 0 0 0.002,0 0.50005,0.50005 0 0 0 0.0332,-0.0039 0.50005,0.50005 0 0 0 0.06445,-0.01367 0.50005,0.50005 0 0 0 0.02344,-0.0078 0.50005,0.50005 0 0 0 0.02539,-0.0098 0.50005,0.50005 0 0 0 0.03516,-0.01563 0.50005,0.50005 0 0 0 0.0098,-0.0039 0.50005,0.50005 0 0 0 0.01953,-0.01172 0.50005,0.50005 0 0 0 0.01563,-0.0098 l 0.0078,-0.0039 a 0.50005,0.50005 0 0 0 0.01367,-0.0098 l 3.978516,-2.527344 a 0.50005,0.50005 0 0 0 0.232344,-0.421785 v -4.453125 a 0.50005,0.50005 0 0 0 0,-0.0059 0.50005,0.50005 0 0 0 -0.002,-0.04492 0.50005,0.50005 0 0 0 0,-0.0059 0.50005,0.50005 0 0 0 -0.345703,-0.431641 l -1.699172,-0.849529 a 0.50005,0.50005 0 0 0 0.04687,-0.2089838 v -4.453125 a 0.50005,0.50005 0 0 0 0,-0.0059 0.50005,0.50005 0 0 0 -0.002,-0.04492 0.50005,0.50005 0 0 0 0,-0.0059 0.50005,0.50005 0 0 0 -0.345703,-0.431641 l -3.929638,-1.964825 a 0.50005,0.50005 0 0 0 -0.240234,-0.05274 z m 0.01758,1.058594 2.978516,1.490234 -2.978516,1.861328 -2.9785158,-1.861328 z m -3.5000002,2.34375 3.0000002,1.875 v 0.1875 a 0.50005,0.50005 0 0 0 0,0.03516 V 11.531338 L 8.0000048,9.4024322 Z m 7.0000002,0 v 3.28125 l -3,1.9062498 V 8.5000842 8.2774282 Z m -8.0000002,2.90625 v 0.351562 A 0.50005,0.50005 0 0 0 7.2109443,10.06649 L 9.021491,11.3536 a 0.50005,0.50005 0 0 0 -0.01172,0.04297 0.50005,0.50005 0 0 0 -0.0078,0.04687 0.50005,0.50005 0 0 0 0,0.0059 0.50005,0.50005 0 0 0 -0.002,0.0234 l -1.4999998,0.9375 -2.9785156,-1.861328 z m 8.0527342,1.5273438 1.425782,0.71289 -2.978516,1.861328 -1.261719,-0.787109 z m -11.0527342,0.566406 3,1.875 v 0.1875 a 0.50005,0.50005 0 0 0 0,0.03516 v 3.03125 l -3,-2.128906 z m 6.0000002,1 3,1.875 v 0.1875 a 0.50005,0.50005 0 0 0 0,0.03516 v 3.03125 l -3,-2.128906 z m 7,0 v 3.28125 l -3,1.90625 v -3.089844 -0.222656 z m -8,0.25 v 3.007812 a 0.50005,0.50005 0 0 0 0.06836,0.25 l -1.0683592,0.679688 v -3.089844 -0.222656 z"/>
 </g>
</svg>
