<svg xmlns="http://www.w3.org/2000/svg" id="svg3869" width="22" height="22" version="1.1">
<defs id="rounded">
    <style type="text/css" id="current-color-scheme">
        .ColorScheme-Text {
        color:#eff0f1;
        }
        .ColorScheme-NegativeText {
        color:#da4453;
        }
        .ColorScheme-Highlight {
        color:#3daee9;
        }
        .ColorScheme-Background {
        color:#31363b;
      }
      .ColorScheme-ButtonBackground {
        color:#444c53;
      }
    </style>
</defs>
 <g id="kget" transform="translate(-326,-534.36218)">
  <rect id="rect870" style="opacity:0.001" width="22" height="22" x="326" y="534.36"/>
  <path id="path852" style="opacity:1;fill:currentColor" class="ColorScheme-Text" transform="translate(326,534.36218)" d="M 8.8300781,2 C 8.3568681,2.00005 8.00005,2.3972687 8,2.8867188 V 8 H 5.859375 C 5.082325,7.998 4.7035713,8.9844362 5.2695312,9.5351562 l 5.1406248,5.2226558 c 0.33045,0.323522 0.849238,0.323522 1.179688,0 L 16.730469,9.5351562 C 17.296429,8.9844364 16.917675,7.99822 16.140625,8 H 14 V 2.8867188 C 13.99995,2.3972687 13.643132,2.00005 13.169922,2 Z M 9,3 h 4 v 5 a 1.0001,1.0001 0 0 0 1,1 h 1.855469 L 11,13.931641 6.1445312,9 H 8 A 1.0001,1.0001 0 0 0 9,8 Z m 7.476562,9.990234 a 0.50005,0.50005 0 0 0 -0.3125,0.140625 L 11,17.824219 5.8359375,13.130859 a 0.50005,0.50005 0 0 0 -0.3652344,-0.134765 0.50005,0.50005 0 0 0 -0.3066406,0.875 L 9.7050781,18 H 5.5 a 0.50005,0.50005 0 1 0 0,1 H 10.982422 16.5 a 0.50005,0.50005 0 1 0 0,-1 h -4.205078 l 4.541016,-4.128906 a 0.50005,0.50005 0 0 0 -0.308594,-0.88086 0.50005,0.50005 0 0 0 -0.05078,0 z"/>
 </g>
</svg>
