<svg xmlns="http://www.w3.org/2000/svg" id="svg3869" width="22" height="22" version="1.1">
<defs id="rounded">
    <style type="text/css" id="current-color-scheme">
        .ColorScheme-Text {
        color:#eff0f1;
        }
        .ColorScheme-NegativeText {
        color:#da4453;
        }
        .ColorScheme-Highlight {
        color:#3daee9;
        }
        .ColorScheme-Background {
        color:#31363b;
      }
      .ColorScheme-ButtonBackground {
        color:#444c53;
      }
    </style>
</defs>
 <g id="konv_message">
  <rect id="rect4170" style="opacity:0.001" width="22" height="22" x="0" y="0"/>
  <path id="rect842" style="opacity:1;fill:currentColor" class="ColorScheme-Highlight" d="M 18.083984 4 A 0.88841875 0.89722402 0 0 0 17.849609 4.0390625 L 6.6269531 7.5273438 A 0.88841875 0.89722402 0 0 0 6 8.3828125 L 6 13.613281 A 0.88841875 0.89722402 0 0 0 6.6269531 14.472656 L 17.849609 17.958984 A 0.88841875 0.89722402 0 0 0 19 17.101562 L 19 8.3828125 L 19 4.8964844 A 0.88841875 0.89722402 0 0 0 18.083984 4 z M 18 5.0390625 L 18 8.3847656 L 18 16.960938 L 7 13.541016 L 7 8.4589844 L 18 5.0390625 z M 4 8 C 3.446 8 3 8.446 3 9 L 3 13 C 3 13.554 3.446 14 4 14 C 4.554 14 5 13.554 5 13 L 5 9 C 5 8.446 4.554 8 4 8 z M 6 15 C 5.446 15 5 15.446 5 16 L 5 17 C 5 17.554 5.446 18 6 18 C 6.554 18 7 17.554 7 17 L 7 16 C 7 15.446 6.554 15 6 15 z"/>
 </g>
</svg>
