<svg xmlns="http://www.w3.org/2000/svg" id="svg3869" width="22" height="22" version="1.1">
<defs id="rounded">
    <style type="text/css" id="current-color-scheme">
        .ColorScheme-Text {
        color:#eff0f1;
        }
        .ColorScheme-NegativeText {
        color:#da4453;
        }
        .ColorScheme-Highlight {
        color:#3daee9;
        }
        .ColorScheme-Background {
        color:#31363b;
      }
      .ColorScheme-ButtonBackground {
        color:#444c53;
      }
    </style>
</defs>
 <g id="ktorrent">
  <rect id="rect870" style="opacity:0.001" width="22" height="22" x="0" y="0"/>
  <path id="path852" style="opacity:1;fill:currentColor" class="ColorScheme-Text" d="M 8.8300781,2 C 8.3568681,2.00005 8.00005,2.3972687 8,2.8867188 V 10.000094 H 5.859375 c -0.77705,-0.002 -1.1558037,0.984436 -0.5898438,1.535156 l 5.1406248,5.222656 c 0.33045,0.323522 0.849238,0.323522 1.179688,0 l 5.140625,-5.222656 c 0.56596,-0.55072 0.187206,-1.536936 -0.589844,-1.535156 H 14 V 2.8867188 C 13.99995,2.3972687 13.643132,2.00005 13.169922,2 Z M 9,3 h 4 v 7.000094 c 5.5e-5,0.552262 0.447738,0.999945 1,1 h 1.855469 L 11,15.931735 6.1445312,11.000094 H 8 c 0.5522619,-5.5e-5 0.9999448,-0.447738 1,-1 z M 5.5,18 c -0.6761613,-0.0096 -0.6761613,1.009563 0,1 H 10.982422 16.5 c 0.676161,0.0096 0.676161,-1.009563 0,-1 z"/>
 </g>
</svg>
