<svg xmlns="http://www.w3.org/2000/svg"  version="1.1" viewBox="0 0 22 22">
<defs id="rounded">
    <style type="text/css" id="current-color-scheme">
        .ColorScheme-Text {
        color:#eff0f1;
        }
        .ColorScheme-NegativeText {
        color:#da4453;
        }
        .ColorScheme-Highlight {
        color:#3daee9;
        }
        .ColorScheme-Background {
        color:#31363b;
      }
      .ColorScheme-ButtonBackground {
        color:#444c53;
      }
    </style>
</defs>
 <g id="list-add">
  <path  style="opacity:0.001" d="M 0,0 H 22 V 22 H 0 Z"/>
  <path  style="opacity:1;fill:currentColor" class="ColorScheme-Text" d="M 11 3 A 1 1 0 0 0 10 4 L 10 10 L 4 10 A 1 1 0 0 0 3 11 A 1 1 0 0 0 4 12 L 10 12 L 10 18 A 1 1 0 0 0 11 19 A 1 1 0 0 0 12 18 L 12 12 L 18 12 A 1 1 0 0 0 19 11 A 1 1 0 0 0 18 10 L 12 10 L 12 4 A 1 1 0 0 0 11 3 z"/>
 </g>
 <g id="list-remove" transform="translate(22)">
  <path  style="opacity:0.001" d="M 0,0 H 22 V 22 H 0 Z"/>
  <path  style="opacity:1;fill:currentColor" class="ColorScheme-Text" d="m 4,10 c -0.5522847,0 -1,0.447715 -1,1 0,0.552285 0.4477153,1 1,1 h 14 c 0.552285,0 1,-0.447715 1,-1 0,-0.552285 -0.447715,-1 -1,-1 z"/>
 </g>
</svg>
