<svg xmlns="http://www.w3.org/2000/svg" width="32" height="32" version="1.1">
<defs id="rounded">
    <style type="text/css" id="current-color-scheme">
        .ColorScheme-Text {
        color:#eff0f1;
        }
        .ColorScheme-NegativeText {
        color:#da4453;
        }
        .ColorScheme-Highlight {
        color:#3daee9;
        }
        .ColorScheme-Background {
        color:#31363b;
      }
      .ColorScheme-ButtonBackground {
        color:#444c53;
      }
    </style>
</defs>
 <g id="22-22-lutris" transform="translate(32,10)">
  <rect style="opacity:0.001" width="22" height="22" x="0" y="0"/>
  <path style="fill:currentColor" class="ColorScheme-Text" transform="translate(-32,-10)" d="M 42.746094 13 C 38.561296 12.99625 35.11196 16.44265 35.001953 20.791016 C 34.890068 25.208404 38.266543 28.884506 42.541016 29 C 45.999676 29.002 49.000068 27.00235 49.726562 23.742188 C 48.654007 25.523423 46.644207 26.075604 44.849609 26.070312 C 43.372638 26.058073 41.732934 25.713607 40.472656 25.021484 C 38.826179 24.110483 38.946193 22.970971 39 22.173828 C 39.031089 21.714642 39.255322 20.937415 39.849609 20.185547 C 40.042111 20.256457 40.228562 20.340593 40.394531 20.457031 C 40.804119 20.733617 41.174068 21.147679 41.699219 20.960938 C 42.058247 20.834993 42.077076 20.620219 41.939453 20.269531 C 41.823235 19.984394 41.63209 19.493467 41.394531 19.304688 C 41.300006 19.229869 41.161825 19.183264 41.013672 19.142578 C 41.264976 18.982357 41.538382 18.83116 41.851562 18.699219 C 42.725459 18.390577 43.694468 18.214942 44.632812 18.226562 C 44.824597 18.519004 44.996624 18.820106 45.300781 18.9375 C 45.808842 19.14393 46.019422 18.806788 46 18.396484 C 46.04719 18.409927 46.096017 18.418598 46.142578 18.433594 C 47.147247 18.660334 47.870776 18.951629 48.826172 19.289062 C 48.826172 19.289062 48.817984 19.305677 49.082031 19.371094 C 49.855333 19.493605 50.306382 19.27747 50.582031 18.988281 C 50.648411 18.984471 50.711769 18.960353 50.769531 18.888672 C 50.873966 18.759156 51.072408 18.570193 50.958984 18.289062 C 50.995114 18.136536 51 18.029297 51 18.029297 L 50.947266 17.730469 L 50.785156 17.326172 L 50.708984 17.154297 L 50.693359 17.123047 C 50.771725 17.058555 50.831483 16.949688 50.841797 16.814453 C 50.858286 16.600021 50.750991 16.414026 50.601562 16.388672 C 50.601237 16.150999 50.587057 15.879366 50.542969 15.509766 C 50.482172 14.999863 50.147538 14.798008 50.039062 14.71875 C 49.930346 14.639635 49.422849 14.256945 48.9375 14.066406 C 48.451853 13.875866 47.962005 13.735088 47.357422 13.820312 C 47.290292 13.829803 47.226341 13.83968 47.160156 13.849609 C 47.148436 13.845889 47.139633 13.84165 47.126953 13.837891 C 46.896409 13.769407 46.733263 13.395877 46.544922 13.400391 C 46.530512 13.400736 46.51475 13.402747 46.5 13.404297 C 46.48548 13.405817 46.471971 13.407366 46.457031 13.410156 L 46.455078 13.410156 C 46.439858 13.412996 46.425886 13.417606 46.410156 13.421875 C 46.392976 13.426535 46.374875 13.432251 46.359375 13.439453 C 46.249155 13.490705 46.182374 13.684023 46.140625 13.810547 C 45.173727 13.321623 44.09196 13.034814 42.945312 13.003906 C 42.878526 13.002096 42.812519 13.00006 42.746094 13 z M 42.746094 14 C 42.79268 14.000042 42.848712 14.002029 42.917969 14.003906 C 43.914975 14.03078 44.850003 14.278646 45.689453 14.703125 A 1.0001 1.0001 0 0 0 46.65625 14.667969 C 46.744315 14.716342 46.712429 14.758446 46.841797 14.796875 A 1.0001 1.0001 0 0 0 46.84375 14.796875 C 46.780846 14.778227 46.774439 14.776395 46.857422 14.802734 A 1.0001 1.0001 0 0 0 47.308594 14.837891 C 47.37756 14.827544 47.439002 14.818894 47.498047 14.810547 C 47.877993 14.756988 48.143519 14.829831 48.572266 14.998047 C 48.655611 15.030766 48.73209 15.097243 48.832031 15.154297 C 48.656953 15.11191 48.497698 14.990836 48.322266 15.011719 C 47.940731 15.057137 47.57247 15.249781 47.318359 15.574219 C 46.813244 16.218807 46.939028 17.177789 47.574219 17.677734 A 1.0001 1.0001 0 0 0 47.576172 17.679688 C 48.216695 18.181266 49.177983 18.068571 49.681641 17.425781 A 1.0001 1.0001 0 0 0 49.683594 17.423828 C 49.708412 17.392062 49.691095 17.347683 49.712891 17.314453 A 1.0001 1.0001 0 0 0 49.798828 17.570312 L 49.804688 17.580078 L 49.863281 17.714844 L 49.980469 18.005859 L 49.988281 18.048828 C 49.986684 18.055897 49.988502 18.049418 49.986328 18.058594 A 1.0001 1.0001 0 0 0 49.962891 18.203125 A 1.0001 1.0001 0 0 0 49.857422 18.298828 C 49.787059 18.372647 49.75781 18.458612 49.248047 18.380859 A 1.0001 1.0001 0 0 0 49.160156 18.345703 C 48.229042 18.016846 47.450531 17.707044 46.373047 17.462891 C 46.333801 17.452995 46.262859 17.432534 46.273438 17.435547 A 1.0001 1.0001 0 0 0 45.40625 17.59375 A 1.0001 1.0001 0 0 0 44.644531 17.226562 C 43.572909 17.213292 42.499946 17.409598 41.519531 17.755859 A 1.0001 1.0001 0 0 0 41.462891 17.777344 C 41.089686 17.934573 40.764592 18.115193 40.476562 18.298828 A 1.0001 1.0001 0 0 0 40.017578 19.201172 A 1.0001 1.0001 0 0 0 39.066406 19.566406 C 38.340093 20.485308 38.049792 21.398891 38.001953 22.105469 A 1.0001 1.0001 0 0 0 38.001953 22.107422 C 37.97626 22.488065 37.90324 23.142599 38.152344 23.876953 C 38.401447 24.611308 39.001487 25.350488 39.988281 25.896484 A 1.0001 1.0001 0 0 0 39.992188 25.898438 C 41.450498 26.699317 43.215491 27.056836 44.841797 27.070312 A 1.0001 1.0001 0 0 0 44.847656 27.070312 C 45.419117 27.071997 46.028264 26.858922 46.632812 26.734375 C 45.535331 27.539189 44.124798 27.995464 42.558594 27.998047 C 38.8475 27.892007 35.903408 24.707109 36.001953 20.816406 C 36.098933 16.982956 39.110823 13.996742 42.746094 14 z M 48.439453 16.003906 C 48.505179 15.996082 48.571871 16.002869 48.636719 16.021484 C 48.652059 16.025343 48.664818 16.035719 48.679688 16.041016 C 48.725648 16.05739 48.771771 16.075104 48.810547 16.105469 L 48.8125 16.107422 C 48.843023 16.131446 48.861662 16.166097 48.884766 16.197266 C 49.024063 16.374359 49.038877 16.62384 48.894531 16.808594 C 48.894531 16.808594 48.892578 16.808594 48.892578 16.808594 C 48.80898 16.915329 48.688712 16.980113 48.5625 16.996094 C 48.499087 17.003679 48.433742 16.999491 48.371094 16.982422 C 48.30666 16.96554 48.244588 16.936261 48.191406 16.894531 C 48.146946 16.859608 48.112623 16.813825 48.083984 16.765625 C 48.07953 16.758667 48.072446 16.753226 48.068359 16.746094 C 47.970322 16.574988 47.976668 16.355771 48.105469 16.191406 C 48.105469 16.191406 48.107422 16.191406 48.107422 16.191406 C 48.192222 16.083821 48.312935 16.018967 48.439453 16.003906 z M 44.322266 19.277344 C 43.784154 19.29688 43.245016 19.407333 42.716797 19.550781 C 42.769407 19.67188 42.83379 19.815436 42.865234 19.892578 A 1.0000531 1.0002218 0 0 1 42.871094 19.904297 C 42.970944 20.15873 43.104012 20.494484 42.966797 20.974609 C 42.829865 21.453729 42.372973 21.783721 42.03125 21.904297 C 41.48016 22.098398 40.873206 21.953495 40.523438 21.761719 C 40.402003 21.695139 40.37508 21.660239 40.285156 21.597656 C 40.205836 21.820977 40.004623 22.144859 39.998047 22.240234 C 39.969927 22.656758 39.955912 22.971894 40.044922 23.234375 C 40.133652 23.496012 40.298742 23.781269 40.953125 24.144531 L 40.957031 24.146484 C 42.019272 24.728762 43.531128 25.059318 44.857422 25.070312 C 46.443428 25.074213 48.034847 24.612042 48.869141 23.226562 A 1.0000531 1.0002218 0 0 1 49.943359 22.763672 A 5.9995838 6.0008577 0 0 0 50 22.001953 A 5.9995838 6.0008577 0 0 0 49.769531 20.369141 C 49.501859 20.399221 49.221675 20.406285 48.925781 20.359375 A 1.0000531 1.0002218 0 0 1 48.841797 20.341797 C 48.688239 20.303757 48.601179 20.280906 48.484375 20.234375 C 48.479675 20.232475 48.467691 20.224476 48.462891 20.222656 C 47.740906 19.967094 47.168304 19.785577 46.546875 19.607422 C 46.543675 19.610602 46.546263 19.614018 46.542969 19.617188 C 46.124965 20.020739 45.4102 20.053487 44.935547 19.865234 C 44.551053 19.714297 44.497572 19.498076 44.322266 19.277344 z"/>
 </g>
 <g id="lutris">
  <rect style="opacity:0.001" width="32" height="32" x="0" y="0"/>
  <path style="fill:currentColor" class="ColorScheme-Text" d="M 15.556641 1.5 C 8.2325577 1.493433 2.196437 7.5263838 2.0039062 15.134766 C 1.8080901 22.863914 7.7162354 29.29206 15.197266 29.494141 C 18.8419 29.592521 21.685692 28.195221 24.181641 25.841797 C 24.448148 25.619443 24.59375 25.480469 24.59375 25.480469 C 24.59375 25.480469 27.300055 22.639815 27.445312 20.294922 C 26.824057 21.32128 26.241486 22.346284 24.880859 23.158203 C 24.731395 23.227314 24.247288 23.473756 23.910156 23.640625 C 23.349007 23.891468 22.806543 24.119467 22.271484 24.304688 C 22.174593 24.331195 22.083946 24.362826 21.984375 24.386719 C 21.725553 24.44762 21.451591 24.494626 21.173828 24.539062 C 21.035348 24.561353 20.899862 24.587695 20.757812 24.605469 C 20.473145 24.640864 20.175216 24.660501 19.876953 24.679688 C 19.677256 24.691275 19.47951 24.705677 19.275391 24.708984 C 19.0879 24.713476 18.895958 24.706893 18.705078 24.705078 C 18.356516 24.697687 18.005883 24.685284 17.650391 24.654297 C 17.562368 24.636591 17.476421 24.615245 17.275391 24.591797 C 17.212051 24.584397 17.147364 24.580326 17.083984 24.572266 C 16.651946 24.517366 16.220442 24.443265 15.791016 24.357422 C 15.721636 24.343552 15.653171 24.331076 15.583984 24.316406 C 15.163752 24.227226 14.746676 24.121185 14.337891 24.001953 C 14.206828 23.963723 14.076636 23.924148 13.947266 23.882812 C 13.886603 23.863429 13.82613 23.843685 13.765625 23.824219 C 13.662424 23.788838 13.559272 23.75434 13.457031 23.716797 C 13.386822 23.691008 13.316138 23.666865 13.246094 23.640625 C 13.13545 23.599175 13.022855 23.55755 12.914062 23.513672 C 12.861569 23.492498 12.811334 23.469514 12.759766 23.447266 C 12.375832 23.283348 11.996746 23.110395 11.634766 22.914062 C 11.615763 22.903795 11.595056 22.895134 11.576172 22.884766 C 11.474292 22.828411 11.381223 22.76857 11.285156 22.708984 C 11.222499 22.670121 11.155987 22.634003 11.095703 22.59375 C 11.09215 22.591377 11.089481 22.588314 11.085938 22.585938 C 10.919339 22.474182 10.763026 22.355698 10.615234 22.234375 C 10.491192 22.131388 10.373551 22.028172 10.267578 21.921875 C 8.7962345 20.446034 9.0016105 18.684032 9.078125 17.550781 C 9.1410155 16.622148 9.6102639 14.957757 11.041016 13.46875 C 11.089139 13.499256 11.144845 13.518124 11.191406 13.550781 C 11.908252 14.034726 12.553557 14.756431 13.472656 14.429688 C 14.101017 14.20932 14.135395 13.836258 13.894531 13.222656 C 13.738362 12.839602 13.503494 12.247819 13.214844 11.841797 C 13.243746 11.826549 13.269427 11.809974 13.298828 11.794922 L 13.300781 11.792969 C 13.417704 11.73315 13.546765 11.679962 13.669922 11.623047 C 13.776615 11.573917 13.877159 11.521413 13.988281 11.474609 C 15.289939 11.015012 16.71632 10.645653 18.125 10.515625 C 18.728933 11.13374 19.012589 12.095536 19.777344 12.390625 C 20.998844 12.886803 21.243709 11.587833 20.802734 10.626953 C 21.037945 10.676099 21.272691 10.727599 21.5 10.800781 C 23.258335 11.197511 24.523211 11.915448 26.195312 12.505859 C 26.195312 12.505859 26.180618 12.533974 26.642578 12.648438 C 28.886426 13.003831 29.62042 11.762039 29.867188 10.951172 C 29.963553 10.812493 30.021414 10.65065 29.976562 10.458984 C 29.980484 10.417192 30 10.300781 30 10.300781 L 29.908203 9.7792969 L 29.625 9.0722656 L 29.490234 8.7695312 L 29.462891 8.7148438 C 29.600349 8.6024494 29.704604 8.4124575 29.722656 8.1757812 C 29.751441 7.8015441 29.563254 7.4812377 29.302734 7.4355469 C 29.302321 7.0187378 29.278654 6.5422287 29.201172 5.8925781 C 29.094761 5.0003965 28.508202 4.2460997 28.318359 4.1074219 C 28.128082 3.9689941 27.242021 3.3001831 26.392578 2.9667969 C 25.542616 2.6334063 24.68312 2.38799 23.625 2.5371094 C 23.507515 2.5537224 23.397084 2.5705166 23.28125 2.5878906 C 23.26074 2.5813806 23.242893 2.5749394 23.220703 2.5683594 C 22.817216 2.4485325 22.532751 1.4940555 22.203125 1.5019531 C 22.177895 1.502558 22.152773 1.5051025 22.126953 1.5078125 C 22.101533 1.5104725 22.074968 1.5146545 22.048828 1.5195312 L 22.046875 1.5195312 C 22.020235 1.5245012 21.994327 1.5296454 21.966797 1.5371094 C 21.936737 1.5452694 21.907969 1.5577105 21.880859 1.5703125 C 21.687957 1.6599885 21.569161 2.6965891 21.496094 2.9179688 C 19.803627 2.0624942 17.911119 1.5599385 15.904297 1.5058594 C 15.787409 1.5026994 15.672896 1.50011 15.556641 1.5 z M 15.556641 2.5 C 15.658668 2.5000965 15.76295 2.5027774 15.876953 2.5058594 C 17.733931 2.5559005 19.479587 3.0193326 21.044922 3.8105469 A 1.0001 1.0001 0 0 0 22.445312 3.2304688 C 22.451776 3.2108891 22.4497 3.2069871 22.455078 3.1894531 C 22.586937 3.3131788 22.673366 3.4494817 22.935547 3.5273438 C 22.927315 3.5249027 22.936152 3.5275691 22.978516 3.5410156 A 1.0001 1.0001 0 0 0 23.429688 3.5761719 C 23.546805 3.5586053 23.654633 3.5430385 23.765625 3.5273438 C 24.598487 3.4104178 25.236086 3.5880731 26.027344 3.8984375 C 26.673541 4.1520546 27.495365 4.7449762 27.730469 4.9160156 C 27.532713 4.7719637 27.794259 4.9914456 27.925781 5.21875 C 28.05829 5.4477585 28.177444 5.7472735 28.208984 6.0117188 C 28.311267 6.8693171 28.330185 7.4369034 28.302734 7.828125 A 1.0001 1.0001 0 0 0 28.302734 7.8300781 C 28.285397 8.0806374 28.306744 8.293004 28.330078 8.4863281 A 1.0001 1.0001 0 0 0 28.431641 8.8164062 A 1.0001 1.0001 0 0 0 28.431641 8.8183594 A 1.0001 1.0001 0 0 0 28.513672 9.0527344 L 28.585938 9.1972656 L 28.703125 9.4609375 L 28.816406 9.7421875 C 28.716424 9.8153567 28.583054 9.8819259 28.369141 9.8945312 C 27.828365 9.9268314 27.921699 10.678552 28.390625 11.099609 C 28.462065 11.16376 28.526894 11.206306 28.59375 11.255859 C 28.344428 11.577523 27.96473 11.837338 26.816406 11.660156 C 26.719791 11.633734 26.643041 11.610209 26.644531 11.611328 A 1.0001 1.0001 0 0 0 26.527344 11.5625 C 24.9511 11.005936 23.636793 10.263759 21.736328 9.8320312 C 21.476576 9.7528682 21.228272 9.6945013 21.007812 9.6484375 A 1.0001 1.0001 0 0 0 19.894531 11.044922 C 19.929643 11.121431 19.907467 11.145232 19.921875 11.228516 C 19.853637 11.158708 19.818232 11.158398 19.716797 11.009766 C 19.509256 10.705659 19.268308 10.254932 18.839844 9.8164062 A 1.0001 1.0001 0 0 0 18.033203 9.5195312 C 16.513454 9.6598116 15.015568 10.051294 13.65625 10.53125 A 1.0001 1.0001 0 0 0 13.599609 10.552734 C 13.440799 10.619625 13.329588 10.679095 13.251953 10.714844 A 1.0001 1.0001 0 0 0 13.25 10.714844 C 13.152981 10.759679 13.014285 10.816095 12.845703 10.902344 A 1.0001 1.0001 0 0 0 12.84375 10.904297 A 1.0001 1.0001 0 0 0 12.757812 10.953125 C 12.758761 10.952688 12.746194 10.958009 12.748047 10.957031 A 1.0001 1.0001 0 0 0 12.400391 12.421875 C 12.549177 12.631161 12.740086 13.076453 12.894531 13.445312 C 12.850328 13.429698 12.824941 13.464481 12.736328 13.416016 C 12.515664 13.295328 12.18993 13.020599 11.765625 12.732422 L 11.755859 12.726562 C 11.574475 12.602222 11.491697 12.57145 11.576172 12.625 A 1.0001 1.0001 0 0 0 10.320312 12.775391 C 8.7072986 14.454083 8.1601842 16.299586 8.0800781 17.482422 A 1.0001 1.0001 0 0 0 8.0800781 17.484375 C 8.0069724 18.567139 7.7734266 20.83633 9.5585938 22.626953 C 9.6972999 22.766083 9.8389514 22.889653 9.9765625 23.003906 A 1.0001 1.0001 0 0 0 9.9804688 23.007812 C 10.148749 23.145954 10.331476 23.283313 10.529297 23.416016 C 10.395601 23.326357 10.399304 23.331134 10.541016 23.425781 C 10.654054 23.50126 10.728696 23.540532 10.757812 23.558594 C 10.844876 23.612594 10.953264 23.683136 11.091797 23.759766 A 1.0001 1.0001 0 0 0 11.095703 23.761719 C 11.176933 23.806317 11.19549 23.813257 11.158203 23.792969 C 11.561036 24.01146 11.968252 24.196865 12.367188 24.367188 C 12.405621 24.383845 12.460833 24.40985 12.539062 24.441406 C 12.666367 24.49275 12.78664 24.535753 12.894531 24.576172 C 12.982839 24.609254 13.055416 24.635713 13.111328 24.65625 A 1.0001 1.0001 0 0 0 13.113281 24.65625 C 13.23375 24.700486 13.342942 24.735774 13.441406 24.769531 A 1.0001 1.0001 0 0 0 13.458984 24.775391 C 13.516749 24.793975 13.57791 24.815275 13.642578 24.835938 C 13.780953 24.880149 13.92033 24.92256 14.058594 24.962891 C 14.489901 25.088692 14.930688 25.200217 15.376953 25.294922 C 15.46455 25.313495 15.537296 25.326214 15.595703 25.337891 C 16.042926 25.427291 16.495966 25.505865 16.957031 25.564453 C 17.063079 25.577939 17.132772 25.582738 17.160156 25.585938 C 17.324396 25.605094 17.336146 25.611235 17.453125 25.634766 A 1.0001 1.0001 0 0 0 17.564453 25.650391 C 17.953618 25.684313 18.325536 25.697486 18.683594 25.705078 A 1.0001 1.0001 0 0 0 18.695312 25.705078 C 18.869577 25.706735 19.071612 25.714428 19.298828 25.708984 C 19.535927 25.704847 19.747873 25.688624 19.935547 25.677734 A 1.0001 1.0001 0 0 0 19.941406 25.677734 C 20.240717 25.65848 20.556354 25.638005 20.880859 25.597656 A 1.0001 1.0001 0 0 0 20.882812 25.597656 C 21.067913 25.574496 21.214552 25.544301 21.332031 25.525391 L 21.332031 25.527344 C 21.617138 25.481733 21.912594 25.430035 22.212891 25.359375 A 1.0001 1.0001 0 0 0 22.216797 25.359375 C 22.377186 25.320888 22.480451 25.284497 22.535156 25.269531 A 1.0001 1.0001 0 0 0 22.597656 25.25 C 23.046651 25.094572 23.490504 24.899868 23.935547 24.707031 C 23.932752 24.710001 23.881339 24.776838 23.880859 24.777344 C 23.867676 24.7899 23.7728 24.880835 23.541016 25.074219 A 1.0001 1.0001 0 0 0 23.496094 25.113281 C 21.132246 27.342148 18.599906 28.58525 15.224609 28.494141 C 8.301588 28.307133 2.8213435 22.366162 3.0039062 15.160156 C 3.1834043 8.0668055 8.7821922 2.4939258 15.556641 2.5 z M 24.876953 6.5078125 C 24.622942 6.5380436 24.382581 6.6642447 24.212891 6.8808594 C 23.872529 7.315088 23.949477 7.9445748 24.384766 8.2871094 C 24.820056 8.6278968 25.448947 8.5531186 25.789062 8.1191406 C 26.128196 7.6851614 26.050769 7.0568796 25.615234 6.7148438 C 25.397712 6.5442001 25.130964 6.4775814 24.876953 6.5078125 z M 17.705078 11.630859 C 16.653569 11.773114 15.586071 12.014928 14.576172 12.357422 C 14.641092 12.513183 14.773272 12.73032 14.820312 12.845703 A 1.0001 1.0001 0 0 1 14.826172 12.857422 C 14.977704 13.243451 15.133912 13.686728 14.970703 14.251953 C 14.807773 14.816214 14.279158 15.203996 13.804688 15.371094 C 13.0578 15.634995 12.282058 15.448985 11.775391 15.171875 C 11.567978 15.058435 11.470376 14.964255 11.308594 14.847656 C 10.513155 15.946998 10.114184 17.06025 10.076172 17.617188 L 10.076172 17.619141 C 9.9961863 18.802314 9.8196685 20.056365 10.976562 21.216797 C 11.04872 21.289172 11.141631 21.370802 11.25 21.460938 L 11.253906 21.464844 C 11.37987 21.56806 11.508721 21.666067 11.642578 21.755859 C 11.647881 21.759415 11.645483 21.758427 11.650391 21.761719 C 11.65792 21.766746 11.716305 21.79971 11.8125 21.859375 C 11.915996 21.923569 11.992022 21.971883 12.056641 22.007812 L 12.060547 22.009766 C 12.027128 21.991142 12.035842 21.995427 12.109375 22.035156 A 1.0001 1.0001 0 0 0 12.111328 22.035156 C 12.432455 22.209331 12.783409 22.36983 13.152344 22.527344 A 1.0001 1.0001 0 0 1 13.15625 22.529297 C 13.220939 22.557206 13.264134 22.575881 13.289062 22.585938 C 13.37935 22.622349 13.484262 22.662598 13.597656 22.705078 C 13.648997 22.724312 13.717258 22.746693 13.800781 22.777344 L 13.802734 22.777344 C 13.881299 22.806159 13.972825 22.839019 14.072266 22.873047 C 14.074964 22.873915 14.077392 22.874135 14.080078 22.875 L 14.089844 22.878906 C 14.146267 22.897103 14.200867 22.913365 14.251953 22.929688 C 14.37231 22.968144 14.493319 23.004885 14.617188 23.041016 C 15.00345 23.153679 15.396817 23.254235 15.791016 23.337891 C 15.841792 23.348657 15.905975 23.36089 15.986328 23.376953 C 16.397958 23.459239 16.807927 23.528867 17.210938 23.580078 C 17.231649 23.582712 17.291329 23.586056 17.390625 23.597656 C 17.583782 23.620186 17.683749 23.64413 17.761719 23.660156 C 18.071791 23.68637 18.388734 23.698047 18.714844 23.705078 L 18.726562 23.705078 C 18.928421 23.707162 19.107411 23.712447 19.251953 23.708984 A 1.0001 1.0001 0 0 1 19.259766 23.708984 C 19.425571 23.706298 19.605817 23.693679 19.8125 23.681641 C 20.109015 23.662566 20.388398 23.643598 20.632812 23.613281 C 20.731813 23.600894 20.856144 23.578406 21.015625 23.552734 A 1.0001 1.0001 0 0 0 21.015625 23.550781 C 21.284664 23.507741 21.535367 23.464871 21.751953 23.414062 C 21.783057 23.406599 21.863884 23.380306 21.957031 23.353516 C 22.440172 23.185697 22.946262 22.975639 23.482422 22.736328 C 23.780304 22.58864 24.143745 22.402151 24.376953 22.291016 C 25.51922 21.606016 25.961283 20.815771 26.589844 19.777344 A 1.0001 1.0001 0 0 1 27.722656 19.335938 A 10.499764 10.499764 0 0 0 28 17 A 10.499764 10.499764 0 0 0 27.460938 13.703125 C 27.153079 13.709583 26.829221 13.691028 26.486328 13.636719 A 1.0001 1.0001 0 0 1 26.402344 13.619141 C 26.150409 13.556716 26.017113 13.51938 25.878906 13.464844 C 25.866018 13.459758 25.839365 13.440552 25.826172 13.435547 C 24.326269 12.902386 23.202974 12.383642 21.90625 12.003906 C 21.87584 12.149283 21.898744 12.29078 21.837891 12.4375 C 21.677853 12.823358 21.333031 13.228613 20.851562 13.400391 C 20.373324 13.571016 19.864927 13.499301 19.410156 13.316406 C 18.733836 13.051007 18.339218 12.541282 18.064453 12.138672 C 17.912528 11.916058 17.820317 11.798013 17.705078 11.630859 z"/>
 </g>
</svg>
