<svg xmlns="http://www.w3.org/2000/svg" id="svg4153" width="22" height="22" version="1.1">
<defs id="rounded">
    <style type="text/css" id="current-color-scheme">
        .ColorScheme-Text {
        color:#eff0f1;
        }
        .ColorScheme-NegativeText {
        color:#da4453;
        }
        .ColorScheme-Highlight {
        color:#3daee9;
        }
        .ColorScheme-Background {
        color:#31363b;
      }
      .ColorScheme-ButtonBackground {
        color:#444c53;
      }
    </style>
</defs>
 <g id="mail-unread">
  <rect id="rect4193" style="opacity:0.001" width="22" height="22" x="0" y="0"/>
  <path id="path830" style="opacity:1;fill:currentColor" class="ColorScheme-Text" d="M 4.6992188,4 C 3.2034187,4 2,5.17075 2,6.625 v 8.75 C 2,16.82925 3.2034187,18 4.6992188,18 H 17.300781 C 18.796581,18 20,16.82925 20,15.375 V 6.625 C 20,5.17075 18.796581,4 17.300781,4 Z m 0,1 H 17.300781 C 18.274787,5 19,5.7227871 19,6.625 v 8.75 C 19,16.277213 18.274787,17 17.300781,17 H 4.6992188 C 3.7252131,17 3,16.277213 3,15.375 V 6.625 C 3,5.7227871 3.7252131,5 4.6992188,5 Z M 4.4785156,5.9960938 A 0.50005,0.50005 0 0 0 4.1953125,6.8964844 l 6.4999995,4.9999996 a 0.50005,0.50005 0 0 0 0.609376,0 l 6.5,-4.9999996 A 0.50005,0.50005 0 1 0 17.195312,6.1035156 L 11,10.869141 4.8046875,6.1035156 A 0.50005,0.50005 0 0 0 4.4785156,5.9960938 Z"/>
 </g>
 <g id="mail-unread-new" transform="translate(22)">
  <rect id="rect853" style="opacity:0.00100002" width="22" height="22" x="0" y="0"/>
  <path id="path855" style="opacity:1;fill:currentColor" class="ColorScheme-Highlight" d="M 4.6992188,4 C 3.2034187,4 2,5.17075 2,6.625 v 8.75 C 2,16.82925 3.2034187,18 4.6992188,18 H 17.300781 C 18.796581,18 20,16.82925 20,15.375 V 6.625 C 20,5.17075 18.796581,4 17.300781,4 Z m 0,1 H 17.300781 C 18.274787,5 19,5.7227871 19,6.625 v 8.75 C 19,16.277213 18.274787,17 17.300781,17 H 4.6992188 C 3.7252131,17 3,16.277213 3,15.375 V 6.625 C 3,5.7227871 3.7252131,5 4.6992188,5 Z M 4.4785156,5.9960938 A 0.50005,0.50005 0 0 0 4.1953125,6.8964844 l 6.4999995,4.9999996 a 0.50005,0.50005 0 0 0 0.609376,0 l 6.5,-4.9999996 A 0.50005,0.50005 0 1 0 17.195312,6.1035156 L 11,10.869141 4.8046875,6.1035156 A 0.50005,0.50005 0 0 0 4.4785156,5.9960938 Z"/>
 </g>
</svg>
