<svg xmlns="http://www.w3.org/2000/svg" id="svg16" width="22" height="22" version="1">
<defs id="rounded">
    <style type="text/css" id="current-color-scheme">
        .ColorScheme-Text {
        color:#eff0f1;
        }
        .ColorScheme-NegativeText {
        color:#da4453;
        }
        .ColorScheme-Highlight {
        color:#3daee9;
        }
        .ColorScheme-Background {
        color:#31363b;
      }
      .ColorScheme-ButtonBackground {
        color:#444c53;
      }
    </style>
</defs>
 <g id="manjaro-settings-manager">
  <rect id="rect11" style="opacity:0.001" width="22" height="22" x="0" y="0"/>
  <path id="path13" style="opacity:1;fill:currentColor" class="ColorScheme-Text" d="M 3.8574219 3 C 3.3825647 3 3 3.3825647 3 3.8574219 L 3 18.142578 C 3 18.617435 3.4035636 18.860351 3.8574219 19 L 8 19 L 8 8 L 14 8 L 14 3 L 3.8574219 3 z M 15 3 L 15 19 L 19.142578 19 C 19.617436 19 20 18.617435 20 18.142578 L 20 3.8574219 C 20 3.3825647 19.617436 3 19.142578 3 L 15 3 z M 4 4 L 13 4 L 13 7 L 8 7 A 1.0001 1.0001 0 0 0 7 8 L 7 18 L 4.046875 18 C 4.0287751 17.991406 4.0116887 17.986687 4 17.980469 L 4 4 z M 16 4 L 19 4 L 19 18 L 16 18 L 16 4 z M 9 9 L 9 19 L 14 19 L 14 9 L 9 9 z M 10 10 L 13 10 L 13 18 L 10 18 L 10 10 z"/>
 </g>
</svg>
