<svg xmlns="http://www.w3.org/2000/svg" id="svg36" width="22" height="22" x="0" y="0" version="1.1">
<defs id="rounded">
    <style type="text/css" id="current-color-scheme">
        .ColorScheme-Text {
        color:#eff0f1;
        }
        .ColorScheme-NegativeText {
        color:#da4453;
        }
        .ColorScheme-Highlight {
        color:#3daee9;
        }
        .ColorScheme-Background {
        color:#31363b;
      }
      .ColorScheme-ButtonBackground {
        color:#444c53;
      }
    </style>
</defs>
 <g id="mellowplayer">
  <rect id="rect2" style="opacity:0.001" width="22" height="22" x="0" y="0"/>
  <path id="path5" style="opacity:1;fill:currentColor" class="ColorScheme-Text" d="M 9 3 A 5 5 0 0 0 4 8 A 5 5 0 0 0 4.3046875 9.6875 A 3 3 0 0 1 7 8 A 3 3 0 0 1 7.0058594 8 L 7.0058594 5.4042969 C 7.0058594 5.4042969 6.9834063 5.1382031 7.1914062 5.0332031 C 7.3944063 4.9322031 7.5878906 5.09375 7.5878906 5.09375 L 9.5566406 6.2636719 A 3 3 0 0 1 12 5 A 3 3 0 0 1 13.152344 5.2324219 A 5 5 0 0 0 9 3 z M 14.240234 6.0078125 A 3 3 0 0 1 15 8 A 3 3 0 0 1 14.691406 9.3183594 L 16.716797 10.523438 C 16.716797 10.523438 17 10.663094 17 10.996094 C 17 11.330094 16.712891 11.439453 16.712891 11.439453 L 14.677734 12.648438 A 3 3 0 0 1 15 14 A 3 3 0 0 1 14.242188 15.988281 A 5 5 0 0 0 19 11 A 5 5 0 0 0 14.240234 6.0078125 z M 8 6.5 L 8 11 L 8 15.5 L 11.75 13.25 L 15.5 11 L 11.75 8.75 L 8 6.5 z M 8.9804688 8.265625 L 11.259766 9.6328125 L 13.539062 11 L 11.259766 12.367188 L 8.9804688 13.734375 L 8.9804688 11 L 8.9804688 8.265625 z M 4.3027344 12.302734 A 5 5 0 0 0 4 14 A 5 5 0 0 0 9 19 A 5 5 0 0 0 13.158203 16.767578 A 3 3 0 0 1 12 17 A 3 3 0 0 1 9.5351562 15.705078 L 7.4746094 16.929688 C 7.4746094 16.929688 7.33525 17.051656 7.15625 16.972656 C 6.95325 16.881656 7.0058594 16.650391 7.0058594 16.650391 L 7.0058594 14 A 3 3 0 0 1 7 14 A 3 3 0 0 1 4.3027344 12.302734 z"/>
  <path id="path7" style="opacity:0.5;fill:currentColor" class="ColorScheme-Text" d="M 12,5 A 3,3 0 0 0 9.557,6.266 l 2.672,1.587 2.464,1.467 A 3,3 0 0 0 15,8 3,3 0 0 0 12,5 Z M 7,8 a 3,3 0 0 0 -3,3 3,3 0 0 0 3,3 3,3 0 0 0 0.006,0 V 10.982 8 A 3,3 0 0 0 7,8 Z m 7.676,4.65 -2.457,1.459 -2.686,1.596 A 3,3 0 0 0 12,17 3,3 0 0 0 15,14 3,3 0 0 0 14.676,12.65 Z"/>
 </g>
</svg>
