<svg xmlns="http://www.w3.org/2000/svg" id="svg2" width="22" height="22" version="1.1">
<defs id="rounded">
    <style type="text/css" id="current-color-scheme">
        .ColorScheme-Text {
        color:#eff0f1;
        }
        .ColorScheme-NegativeText {
        color:#da4453;
        }
        .ColorScheme-Highlight {
        color:#3daee9;
        }
        .ColorScheme-Background {
        color:#31363b;
      }
      .ColorScheme-ButtonBackground {
        color:#444c53;
      }
    </style>
</defs>
 <g id="nepomuk" transform="translate(0,-10)">
  <path id="path7" style="opacity:1;fill:currentColor" class="ColorScheme-Text" transform="translate(0,10)" d="M 9 3 C 5.6759953 3 3 5.675995 3 9 C 3 12.324005 5.6759953 15 9 15 C 10.298306 15 11.481786 14.57127 12.460938 13.875 L 17.292969 18.707031 C 18.235477 19.688711 19.688711 18.235477 18.707031 17.292969 L 13.875 12.460938 C 14.57127 11.481786 15 10.298305 15 9 C 15 5.675995 12.324005 3 9 3 z M 9 4 C 11.770005 4 14 6.229995 14 9 C 14 11.770005 11.770005 14 9 14 C 6.2299952 14 4 11.770005 4 9 C 4 6.229995 6.2299952 4 9 4 z"/>
  <path id="path9" style="opacity:0.001" d="M 0,10 V 32 H 22 V 10 Z"/>
 </g>
</svg>
