<svg xmlns="http://www.w3.org/2000/svg" id="svg846" width="22" height="22" version="1.1">
<defs id="rounded">
    <style type="text/css" id="current-color-scheme">
        .ColorScheme-Text {
        color:#eff0f1;
        }
        .ColorScheme-NegativeText {
        color:#da4453;
        }
        .ColorScheme-Highlight {
        color:#3daee9;
        }
        .ColorScheme-Background {
        color:#31363b;
      }
      .ColorScheme-ButtonBackground {
        color:#444c53;
      }
    </style>
</defs>
 <g id="onboard">
  <rect id="rect1406" style="opacity:0.001" width="22" height="22" x="0" y="0"/>
  <path id="path826-3" style="opacity:1;fill:currentColor" class="ColorScheme-Text" d="M 5.2851564,3 C 4.0188704,3 3.0000002,4.018866 3.0000002,5.285156 V 16.714844 C 3.0000002,17.981134 4.0188714,19 5.2851564,19 H 16.714844 C 17.981129,19 19,17.981134 19,16.714844 V 5.285156 C 19,4.018866 17.981129,3 16.714844,3 Z M 11,4 h 5.714844 C 17.44472,4 18,4.555274 18,5.285156 V 11 h -7 v 7 H 5.2851564 C 4.5552805,18 4.0000002,17.444726 4.0000002,16.714844 V 11 H 11 Z M 7.5019533,5 C 8.2832793,5 8.8932725,5.222655 9.3359377,5.666015 9.7788027,6.109265 10,6.71889 10,7.5 10,8.27903 9.7788027,8.890734 9.3359377,9.333984 8.8932725,9.777044 8.2832793,10 7.5019533,10 6.7227313,10 6.1090317,9.777044 5.6640627,9.333984 5.2212977,8.890734 5.0000002,8.27903 5.0000002,7.5 c 0,-0.78111 0.2212975,-1.390735 0.6640625,-1.833985 C 6.1090317,5.222655 6.7227313,5 7.5019533,5 Z m 0,0.90039 c -0.382046,0 -0.6781608,0.140182 -0.8886719,0.419922 C 6.4026706,6.600052 6.2949221,6.99217 6.2949221,7.5 c 0,0.50574 0.1077485,0.899947 0.3183593,1.179687 0.2105113,0.27974 0.5066259,0.419922 0.8886719,0.419922 0.38415,0 0.680114,-0.140182 0.890625,-0.419922 C 8.6030893,8.399947 8.7089846,8.00574 8.7089846,7.5 8.7089846,6.99217 8.6030893,6.600052 8.3925783,6.320312 8.1820673,6.040572 7.8861033,5.90039 7.5019533,5.90039 Z M 13,12 h 1.880859 c 0.674989,0 1.163403,0.104213 1.464844,0.314453 0.304446,0.21024 0.455078,0.545073 0.455078,1.007813 0,0.24322 -0.05485,0.45289 -0.166015,0.625 -0.110161,0.17004 -0.272114,0.294503 -0.482422,0.376953 0.269395,0.0804 0.479738,0.228892 0.626953,0.445312 C 16.92651,14.985961 17,15.252066 17,15.566406 c 0,0.48231 -0.158146,0.844078 -0.474609,1.080078 C 16.208927,16.883524 15.726024,17 15.080078,17 H 13 Z m 1.253906,0.876953 v 1.058594 h 0.691406 c 0.197297,0 0.347069,-0.0451 0.449219,-0.134766 0.102147,-0.0886 0.154297,-0.220361 0.154297,-0.394531 0,-0.17211 -0.05215,-0.303948 -0.154297,-0.392578 -0.10215,-0.0917 -0.251923,-0.136719 -0.449219,-0.136719 z m -0.002,1.9375 v 1.308594 h 0.734375 c 0.251368,0 0.44317,-0.05479 0.56836,-0.164063 0.128185,-0.10924 0.191406,-0.275543 0.191406,-0.496093 0,-0.21642 -0.06131,-0.379135 -0.1875,-0.486329 -0.126184,-0.109236 -0.318895,-0.162109 -0.572266,-0.162109 z"/>
 </g>
</svg>
