<svg xmlns="http://www.w3.org/2000/svg" id="svg12" width="22" height="22" version="1">
<defs id="rounded">
    <style type="text/css" id="current-color-scheme">
        .ColorScheme-Text {
        color:#eff0f1;
        }
        .ColorScheme-NegativeText {
        color:#da4453;
        }
        .ColorScheme-Highlight {
        color:#3daee9;
        }
        .ColorScheme-Background {
        color:#31363b;
      }
      .ColorScheme-ButtonBackground {
        color:#444c53;
      }
    </style>
</defs>
 <g id="phone-battery" transform="translate(22)">
  <rect id="rect815" style="opacity:0.001" width="22" height="22" x="0" y="0"/>
  <path id="path817" style="opacity:1;fill:currentColor" class="ColorScheme-Text" d="M 8,3 C 6.892,3 6,3.892 6,5 v 12 c 0,1.108 0.892,2 2,2 h 5 2 c 1.108,0 2,-0.892 2,-2 V 5 C 17,3.892 16.107927,3 15,3 h -2 -3 z m 0,1 h 1 v 1 c 5.52e-5,0.5522619 0.4477381,0.9999448 1,1 h 3 c 0.552262,-5.52e-5 0.999945,-0.4477381 1,-1 V 4 h 1 c 0.571189,0 1,0.4287467 1,1 V 16 H 7 V 5 C 7,4.4287028 7.4287028,4 8,4 Z m 3,0 h 1 v 1 h -1 z m 1,3 -3,5 h 2 v 3 l 3,-5 H 12 Z M 8,17 h 1 v 1 H 8 Z m 3,0 h 1 v 1 h -1 z m 3,0 h 1 v 1 h -1 z"/>
 </g>
 <g id="phone">
  <rect id="rect23-7" style="opacity:0.001" width="22" height="22" x="0" y="0"/>
  <path id="path834" style="opacity:1;fill:currentColor" class="ColorScheme-Text" d="M 8,3 C 6.892,3 6,3.892 6,5 v 12 c 0,1.108 0.892,2 2,2 h 5 2 c 1.108,0 2,-0.892 2,-2 V 5 C 17,3.892 16.107927,3 15,3 h -2 -3 z m 0,1 h 1 v 1 c 5.52e-5,0.5522619 0.4477381,0.9999448 1,1 h 3 c 0.552262,-5.52e-5 0.999945,-0.4477381 1,-1 V 4 h 1 c 0.571189,0 1,0.4287467 1,1 V 16 H 7 V 5 C 7,4.4287028 7.4287028,4 8,4 Z m 3,0 h 1 V 5 H 11 Z M 8,17 h 1 v 1 H 8 Z m 3,0 h 1 v 1 h -1 z m 3,0 h 1 v 1 h -1 z"/>
 </g>
</svg>
