<svg xmlns="http://www.w3.org/2000/svg" id="svg32" version="1.1" viewBox="0 0 22 22">
<defs id="rounded">
    <style type="text/css" id="current-color-scheme">
        .ColorScheme-Text {
        color:#eff0f1;
        }
        .ColorScheme-NegativeText {
        color:#da4453;
        }
        .ColorScheme-Highlight {
        color:#3daee9;
        }
        .ColorScheme-Background {
        color:#31363b;
      }
      .ColorScheme-ButtonBackground {
        color:#444c53;
      }
    </style>
</defs>
 <g id="plasmavault">
  <rect id="rect910" style="opacity:0.001" width="22" height="22" x="0" y="0"/>
  <path id="path844" style="opacity:1;fill:currentColor" class="ColorScheme-Text" d="M 5 4 C 3.892 4 3 4.892 3 6 L 3 7 L 3 10 L 3 15 C 3 16.662 4.338 18 6 18 L 16 18 C 17.662 18 19 16.662 19 15 L 19 12 L 19 10 L 19 8 C 19 6.338 17.662 5 16 5 L 11.724609 5 C 11.379048 4.4042011 10.74107 4 10 4 L 5 4 z M 4 8 L 12 8 L 16 8 C 17.125297 8 18 8.8747028 18 10 L 18 12 L 18 15 C 18 16.125297 17.125297 17 16 17 L 6 17 C 4.8747028 17 4 16.125297 4 15 L 4 10 L 4 8 z M 11 9 A 2 2 0 0 0 9 11 L 9 12 C 8.446 12 8 12.446 8 13 L 8 15 C 8 15.554 8.446 16 9 16 L 13 16 C 13.554 16 14 15.554 14 15 L 14 13 C 14 12.446 13.554 12 13 12 L 13 11 A 2 2 0 0 0 11 9 z M 11 10 A 1 1 0 0 1 12 11 L 12 12 L 10 12 L 10 11 A 1 1 0 0 1 11 10 z"/>
 </g>
</svg>
