<svg xmlns="http://www.w3.org/2000/svg" id="svg" width="100%" height="100%" version="1.1" viewBox="0 0 22 22">
<defs id="rounded">
    <style type="text/css" id="current-color-scheme">
        .ColorScheme-Text {
        color:#eff0f1;
        }
        .ColorScheme-NegativeText {
        color:#da4453;
        }
        .ColorScheme-Highlight {
        color:#3daee9;
        }
        .ColorScheme-Background {
        color:#31363b;
      }
      .ColorScheme-ButtonBackground {
        color:#444c53;
      }
    </style>
</defs>
 <g id="video-display-brightness">
  <rect id="rect843" style="opacity:0.001" width="22" height="22" x="0" y="0"/>
  <path id="path845" style="opacity:1;fill:currentColor" class="ColorScheme-Text" d="M 6 4 C 4.338 4 3 5.338 3 7 L 3 13 C 3 14.662 4.338 16 6 16 L 9 16 L 9 18 L 7.5 18 C 7.2238576 18 7 18.223858 7 18.5 C 7 18.776142 7.2238576 19 7.5 19 L 14.5 19 C 14.776142 19 15 18.776142 15 18.5 C 15 18.223858 14.776142 18 14.5 18 L 13 18 L 13 16 L 16 16 C 17.662 16 19 14.662 19 13 L 19 7 C 19 5.338 17.662 4 16 4 L 6 4 z M 6 5 L 16 5 C 17.125297 5 18 5.8747 18 7 L 18 13 C 18 14.12529 17.125297 15 16 15 L 6 15 C 4.8747028 15 4 14.12529 4 13 L 4 7 C 4 5.8747 4.8747028 5 6 5 z M 11 7 A 3 3 0 0 0 8 10 A 3 3 0 0 0 11 13 A 3 3 0 0 0 14 10 A 3 3 0 0 0 11 7 z M 11 8 L 11 12 A 2 2 0 0 1 9 10 A 2 2 0 0 1 11 8 z"/>
 </g>
</svg>
