<svg xmlns="http://www.w3.org/2000/svg" id="svg3869" width="16" height="16" version="1.1">
<defs id="rounded">
    <style type="text/css" id="current-color-scheme">
        .ColorScheme-Text {
        color:#eff0f1;
        }
        .ColorScheme-NegativeText {
        color:#da4453;
        }
        .ColorScheme-Highlight {
        color:#3daee9;
        }
        .ColorScheme-Background {
        color:#31363b;
      }
      .ColorScheme-ButtonBackground {
        color:#444c53;
      }
    </style>
</defs>
 <g id="window-pin" transform="translate(46,-51.999997)">
  <rect id="rect15" style="opacity:0.001" width="8" height="8" x="-46" y="44"/>
  <path id="path17" style="opacity:1;fill:currentColor" class="ColorScheme-Text" d="m -41,44 c -0.389252,0.389252 -0.468353,1.084344 -0.01563,1.84375 l -2.125,1.421875 c -0.264203,-0.106604 -0.547797,-0.186091 -0.828125,-0.1875 C -44.33313,47.076275 -44.6875,47.1875 -45,47.5 l 1.5,1.5 -2,2 -0.5,1 1,-0.5 2,-2 1.5,1.5 c 0.553482,-0.553482 0.482374,-1.253884 0.234375,-1.859375 l 1.421875,-2.125 C -39.084344,47.468353 -38.389252,47.389252 -38,47 Z"/>
 </g>
 <g id="window-unpin" transform="translate(66,-59.999997)">
  <path id="path20" style="opacity:1;fill:currentColor" class="ColorScheme-Highlight" d="m -61,44 c -0.389252,0.389252 -0.468353,1.084344 -0.01563,1.84375 l -2.125,1.421875 c -0.264203,-0.106604 -0.547797,-0.186091 -0.828125,-0.1875 C -64.33313,47.076275 -64.6875,47.1875 -65,47.5 l 1.5,1.5 -2,2 -0.5,1 1,-0.5 2,-2 1.5,1.5 c 0.553482,-0.553482 0.482374,-1.253884 0.234375,-1.859375 l 1.421875,-2.125 C -59.084344,47.468353 -58.389252,47.389252 -58,47 Z"/>
  <rect id="rect22" style="opacity:0.001" width="8" height="8" x="-66" y="44"/>
 </g>
 <g id="window-list">
  <rect id="rect3004" style="opacity:0.001" width="32" height="32" x="16" y="-16" ry="0"/>
  <path id="rect836" style="opacity:1;fill:currentColor" class="ColorScheme-Text" d="M 22.5 -12 C 21.115 -12 20 -10.885 20 -9.5 L 20 -4.5 C 20 -3.115 21.115 -2 22.5 -2 L 27.5 -2 C 28.885 -2 30 -3.115 30 -4.5 L 30 -9.5 C 30 -10.885 28.885 -12 27.5 -12 L 22.5 -12 z M 36.5 -12 C 35.115 -12 34 -10.885 34 -9.5 L 34 -4.5 C 34 -3.115 35.115 -2 36.5 -2 L 41.5 -2 C 42.885 -2 44 -3.115 44 -4.5 L 44 -9.5 C 44 -10.885 42.885 -12 41.5 -12 L 36.5 -12 z M 22.5 -11 L 27.5 -11 C 28.348297 -11 29 -10.348297 29 -9.5 L 29 -4.5 C 29 -3.6517028 28.348297 -3 27.5 -3 L 22.5 -3 C 21.651703 -3 21 -3.6517028 21 -4.5 L 21 -9.5 C 21 -10.348297 21.651703 -11 22.5 -11 z M 36.5 -11 L 41.5 -11 C 42.348297 -11 43 -10.348297 43 -9.5 L 43 -4.5 C 43 -3.6517028 42.348297 -3 41.5 -3 L 36.5 -3 C 35.651703 -3 35 -3.6517028 35 -4.5 L 35 -9.5 C 35 -10.348297 35.651703 -11 36.5 -11 z M 22.5 2 C 21.115 2 20 3.115 20 4.5 L 20 9.5 C 20 10.885 21.115 12 22.5 12 L 27.5 12 C 28.885 12 30 10.885 30 9.5 L 30 4.5 C 30 3.115 28.885 2 27.5 2 L 22.5 2 z M 36.5 2 C 35.115 2 34 3.115 34 4.5 L 34 9.5 C 34 10.885 35.115 12 36.5 12 L 41.5 12 C 42.885 12 44 10.885 44 9.5 L 44 4.5 C 44 3.115 42.885 2 41.5 2 L 36.5 2 z M 22.5 3 L 27.5 3 C 28.348297 3 29 3.651703 29 4.5 L 29 9.5 C 29 10.348297 28.348297 11 27.5 11 L 22.5 11 C 21.651703 11 21 10.348297 21 9.5 L 21 4.5 C 21 3.651703 21.651703 3 22.5 3 z M 36.5 3 L 41.5 3 C 42.348297 3 43 3.651703 43 4.5 L 43 9.5 C 43 10.348297 42.348297 11 41.5 11 L 36.5 11 C 35.651703 11 35 10.348297 35 9.5 L 35 4.5 C 35 3.651703 35.651703 3 36.5 3 z"/>
 </g>
 <g id="edit-delete" transform="matrix(3.7795277,0,0,3.7795277,-51.999998,-960.51948)">
  <rect id="rect1092" style="opacity:0.001" width="4.233" height="4.233" x="13.76" y="254.14"/>
  <path id="path961" style="opacity:1;fill:currentColor" class="ColorScheme-Text" transform="matrix(0.26458332,0,0,0.26458332,-0.5291667,249.37493)" d="m 62,20 a 6.0000003,6.0000003 0 0 0 -6,6 6.0000003,6.0000003 0 0 0 6,6 6.0000003,6.0000003 0 0 0 6,-6 6.0000003,6.0000003 0 0 0 -6,-6 z m 0,1 a 5,5 0 0 1 5,5 5,5 0 0 1 -5,5 5,5 0 0 1 -5,-5 5,5 0 0 1 5,-5 z m 1.978516,2 a 0.99520404,0.99716875 0 0 0 -0.01172,0.002 0.99520404,0.99716875 0 0 0 -0.683594,0.302735 l -1.285156,1.287109 -1.283203,-1.287109 A 0.99520404,0.99716875 0 0 0 60,23.001953 0.99520404,0.99716875 0 0 0 59.302734,24.716797 l 1.285157,1.289062 -1.285157,1.28711 a 0.99821769,1.0001884 0 1 0 1.41211,1.414062 l 1.283203,-1.289062 1.285156,1.289062 a 0.99821734,1.000188 0 1 0 1.412109,-1.414062 l -1.285156,-1.28711 1.285156,-1.289062 A 0.99520404,0.99716875 0 0 0 63.978516,23 Z"/>
 </g>
</svg>
