<svg xmlns="http://www.w3.org/2000/svg"  width="24" height="24" version="1.1">
 <path style="fill:#eff0f1;fill-opacity:1"  d="m 21,19 c 0,0 0,1 -1,1 h -8 v 1 h 8 c 1.1,0 2,-0.9 2,-2 V 5 C 22,3.9 21.1,3 20,3 h -8 v 1 h 7.98926 C 20,4 21,4.0139243 21,5.0389626 Z"/>
 <path  style="color:#000000;fill:#eff0f1;stroke-width:0.86406;stroke-linecap:round;stroke-linejoin:round;-inkscape-stroke:none;fill-opacity:1" d="M 6.1556461,6.0038152 A 1.2501747,1.3439632 0 0 0 5.0000013,7.3458947 v 4.6544063 4.654407 a 1.2501747,1.3439632 0 0 0 1.8750743,1.165351 l 3.7501494,-2.328954 3.750148,-2.327203 a 1.2501747,1.3439632 0 0 0 0,-2.327202 L 10.625225,8.509496 6.8750756,6.1805426 A 1.2501747,1.3439632 0 0 0 6.1556461,6.0038152 Z"/>
</svg>
