<svg xmlns="http://www.w3.org/2000/svg"  width="22" height="22" version="1.1">
 <g >
  <rect style="opacity:0.2;fill:#ffffff"  width="22" height="22" x="0" y="0" rx="6"/>
  <path style="fill:#eff0f1"  d="m 11,2.9997 c -4.4123557,0 -8,3.5877 -8,8 0,4.4124 3.5876443,8 8,8 4.412356,0 8,-3.5876 8,-8 0,-4.4123 -3.587644,-8 -8,-8 z m 0,1 c 3.871916,0 7,3.1281 7,7 0,3.8719 -3.128084,7 -7,7 -3.8719156,0 -7,-3.1281 -7,-7 0,-3.8719 3.1280844,-7 7,-7 z m -1,3 a 1.0001,1.0001 0 1 0 0,2 h 2.130859 L 9.1679688,13.445012 A 1.0001,1.0001 0 0 0 10,14.9997 h 4 a 1.0001,1.0001 0 1 0 0,-2 h -2.130859 l 2.96289,-4.4453125 A 1.0001,1.0001 0 0 0 14,6.9997 Z m -3.4921875,2 a 0.50005,0.50005 0 1 0 0,1 H 7.5742188 L 6.0917969,12.222356 A 0.50005,0.50005 0 0 0 6.5078125,12.9997 h 2 a 0.50005,0.50005 0 1 0 0,-1 H 7.4414062 L 8.9238281,9.7770438 A 0.50005,0.50005 0 0 0 8.5078125,8.9997 Z"/>
 </g>
</svg>
