<svg xmlns="http://www.w3.org/2000/svg"  width="22" height="22" version="1.1">
 <g >
  <rect style="opacity:0.1;fill:#ffffff"  width="22" height="22" x="0" y="0" ry="6"/>
  <path style="fill:#eff0f1"  d="M 10.984375,1.9860281 A 1.0001,1.0001 0 0 0 10,2.9997 v 8 a 1.0001,1.0001 0 1 0 2,0 v -8 A 1.0001,1.0001 0 0 0 10.984375,1.9860281 Z M 8.5507812,3.4137625 a 0.50005,0.50005 0 0 0 -0.1816406,0.03125 c -3.6806264,1.2818 -5.9044255,5.0394125 -5.2578125,8.8828125 0.6466131,3.8434 3.9775914,6.665075 7.8749999,6.671875 3.897409,0.01 7.238412,-2.803431 7.898438,-6.644531 0.660025,-3.8411003 -1.550433,-7.6057909 -5.226563,-8.9003909 a 0.50038707,0.50038707 0 1 0 -0.333984,0.9433594 c 3.222613,1.1348 5.152817,4.4198094 4.574219,7.7871095 -0.578601,3.3672 -3.493563,5.820453 -6.910157,5.814453 C 7.5716881,17.9897 4.6644981,15.531109 4.0976562,12.161809 3.5308146,8.7926094 5.4707105,5.5119719 8.6972656,4.3883719 A 0.50005,0.50005 0 0 0 8.5507812,3.4137625 Z"/>
 </g>
</svg>
