<svg xmlns="http://www.w3.org/2000/svg"  width="22" height="22" version="1.1">
 <g >
  <rect style="opacity:0.2;fill:#ffffff"  width="22" height="22" x="0" y="0" rx="6"/>
  <path style="fill:#eff0f1"  d="m 11,2.9997 c 4.412356,0 8,3.5877 8,8 0,4.4124 -3.587644,8 -8,8 -4.412356,0 -8,-3.5876 -8,-8 0,-4.4123 3.587644,-8 8,-8 z m 0,1 c -3.871916,0 -7,3.1281 -7,7 0,3.8719 3.128084,7 7,7 3.871916,0 7,-3.1281 7,-7 0,-3.8719 -3.128084,-7 -7,-7 z m 0,2 c 2.761424,0 5,2.2386 5,5 h 0.412109 a 0.58780608,0.48704093 0 0 1 0.509766,0.7305 l -0.707031,1.0136 -0.707031,1.0137 a 0.58780608,0.48704093 0 0 1 -1.017579,0 l -0.705078,-1.0137 -0.707031,-1.0136 a 0.58780608,0.48704093 0 0 1 0.509766,-0.7305 H 14 c 0,-1.6569 -1.343146,-3 -3,-3 -1.656854,0 -3,1.3431 -3,3 a 1,1 0 0 1 -1,1 1,1 0 0 1 -1,-1 1,1 0 0 1 0.00391,-0.094 C 6.054346,8.1879 8.270187,5.9994 11.000004,5.9994 Z"/>
 </g>
</svg>
